<?xml version="1.0" encoding="iso-8859-1"?>
<!-- Generator: Adobe Illustrator 25.2.0, SVG Export Plug-In . SVG Version: 6.00 Build 0)  -->
<svg version="1.1" xmlns="http://www.w3.org/2000/svg" xmlns:xlink="http://www.w3.org/1999/xlink" x="0px" y="0px"
	 viewBox="0 0 1000 1000" style="enable-background:new 0 0 1000 1000;" xml:space="preserve">
<g id="apostrophe">
	<path d="M421.5,112.718c3.381-55.574,7.253-58.336,51.366-58.306c25.307,0.017,50.602-4.021,75.93-4.404
		c22.374-0.339,34.84,9.878,27.682,34.427c-9.274,31.803-16.731,64.32-28.609,95.127c-11.133,28.873-37.549,35.501-66.11,34.402
		c-26.015-1.001-42.005-12.319-46.201-40.106C431.895,149.611,424.627,125.91,421.5,112.718z M510.12,69.13
		c-12.531,15.075-27.053,32.396-41.24,49.987c-0.838,1.039,1.016,4.248,1.617,6.448c3.488-1.064,7.721-1.213,10.341-3.345
		c14.479-11.781,28.721-23.869,42.671-36.272c3.379-3.004,5.351-7.592,7.97-11.45C527.291,73.446,523.103,72.393,510.12,69.13z
		 M450.025,160.519c9.66,10.975,15.755,19.139,23.27,25.671c2.213,1.924,8.571-0.381,12.703-1.738c0.68-0.223-0.276-5.582-0.56-8.56
		c-0.958-10.065-1.547-20.192-3.143-30.156c-0.606-3.781-3.56-7.186-5.444-10.762C469.007,142.444,461.162,149.914,450.025,160.519z
		 M559.209,83.032c-3.728-3.115-7.456-6.229-11.184-9.344c-14.355,18.786-28.711,37.571-43.065,56.357
		c2.286,1.775,4.573,3.549,6.859,5.323C527.616,117.923,543.412,100.477,559.209,83.032z M459.98,70.223
		c-7.601,11.17-14.849,17.828-16.583,25.702c-1.262,5.73,4.755,13.064,7.527,19.682c6.514-10.526,13.313-20.899,19.159-31.783
		C470.772,82.541,466.225,78.446,459.98,70.223z M539.442,157.835c-6.05-7.098-8.437-9.898-10.824-12.698
		c-7.631,10.827-15.312,21.622-22.508,32.731c-0.131,0.203,7.685,6.435,8.139,6.004
		C522.595,175.952,530.382,167.444,539.442,157.835z"/>
</g>
<g id="Layer_1">
</g>
</svg>
