<?xml version="1.0" encoding="iso-8859-1"?>
<!-- Generator: Adobe Illustrator 25.2.0, SVG Export Plug-In . SVG Version: 6.00 Build 0)  -->
<svg version="1.1" xmlns="http://www.w3.org/2000/svg" xmlns:xlink="http://www.w3.org/1999/xlink" x="0px" y="0px"
	 viewBox="0 0 1000 1000" style="enable-background:new 0 0 1000 1000;" xml:space="preserve">
<g id="asterisk">
	<path d="M458.388,129.754c2.353-16.384,4.377-32.823,7.133-49.138c4.381-25.93,40.592-44.841,62.385-16.489
		c5.136,6.681,8.739,17.43,7.562,25.508c-2.986,20.481-9.21,40.479-13.84,60.738c-1.072,4.692-0.954,9.655-1.383,14.494
		c3.899-1.199,7.795-2.406,11.697-3.596c21.766-6.641,43.139-15.871,65.401-19.255c27.254-4.143,50.299,24.436,38.56,47.35
		c-5.391,10.522-19.104,19.708-30.927,23.299c-16.304,4.952-34.394,3.999-51.71,5.663c-3.642,0.35-7.247,1.081-10.869,1.637
		c2.426,2.582,4.451,5.789,7.342,7.648c25.071,16.12,39.675,37.982,40.665,68.641c0.474,14.692-7.908,23.021-19.582,21.653
		c-13.63-1.598-30.012-6.019-38.976-15.256c-15.388-15.856-25.868-36.453-38.608-54.921c-2.299-3.332-5.56-6-8.376-8.974
		c-2.029,2.785-4.027,5.594-6.091,8.353c-23.955,32.02-48.871,63.104-85.724,81.462c-11.655,5.806-28.079-6.825-26.214-23.977
		c1.505-13.841,8.404-29.094,17.608-39.609c12.297-14.049,29.176-24.073,43.981-35.959c2.184-1.753,3.779-4.241,5.646-6.388
		c-2.8-0.934-5.55-2.069-8.407-2.767c-13.887-3.393-28.022-5.959-41.65-10.174c-15.43-4.773-25.458-21.427-22.547-35.073
		c2.179-10.215,23.008-27.209,33.747-25.132c18.302,3.54,36.392,8.583,54.164,14.266c8.096,2.589,11.589,2.826,11.074-6.923
		c-0.47-8.905-0.1-17.854-0.1-26.783C459.695,129.951,459.042,129.853,458.388,129.754z M423.17,276.008
		c1.466-4.918,2.661-9.94,4.496-14.716c1.14-2.966,3.25-5.559,4.925-8.32c1.581,2.338,3.264,4.614,4.719,7.028
		c2.018,3.35,3.864,6.804,5.784,10.213c3.048-3.73,7.93-7.128,8.677-11.273c0.931-5.157-0.897-11.191-2.929-16.29
		c-0.681-1.709-6.641-3.351-8.49-2.228C427.566,248.188,416.018,257.136,423.17,276.008z M578.285,167.798
		c1.776,1.535,3.551,3.07,5.327,4.606c2.428-1.924,5.262-3.526,7.138-5.888c1.207-1.521,1.006-4.161,1.436-6.299
		c-3.204-0.626-6.791-2.503-9.544-1.66c-11.842,3.627-23.855,7.593-26.179,22.48c-1.052,6.742-2.022,13.497-3.029,20.246
		c4.089-5.656,8.124-11.352,12.283-16.956C569.842,178.769,574.091,173.304,578.285,167.798z M568.889,288.507
		c-1.531-5.642-2.203-8.119-2.875-10.595c-2.66,1.184-5.323,2.364-7.981,3.555c-5.368,2.406-11.817,15.267-15.323-1.597
		c-0.121-0.583-3.898-1.32-4.304-0.765c-1.46,1.998-3.57,6.129-3.016,6.598c7.594,6.428,15.593,12.378,23.492,18.446
		C562.546,298.422,566.21,292.695,568.889,288.507z M412.434,279.417c-1.624-3.505-3.43-7.402-5.235-11.3
		c-3.473,3.701-7.34,7.123-10.248,11.224c-1.396,1.968-1.566,5.286-1.275,7.879c0.838,7.463,2.193,14.868,3.344,22.296
		c3.352-6.048,6.97-11.97,9.952-18.196C410.595,287.929,411.141,284.02,412.434,279.417z M500.616,61.553
		c-5.75,7.208-11.36,14.06-16.593,21.189c-0.362,0.494,3.027,4.475,3.082,4.439c9.095-6.032,18.045-12.285,27-18.528
		C511.022,67.03,507.938,65.407,500.616,61.553z M500.522,214.167c-3.005,6.191-5.652,9.478-4.945,10.55
		c3.793,5.746,8.422,10.94,12.762,16.325c1.858-2.952,5.963-6.974,5.16-8.661C510.862,226.835,506.444,222.136,500.522,214.167z
		 M592.875,188.825c1.475,0.876,2.949,1.751,4.424,2.627c4.417-9.318,8.943-18.588,13.111-28.016
		c0.504-1.141-0.927-3.137-1.462-4.736c-2.121,1.078-5.46,1.646-6.159,3.318C599.117,170.8,596.112,179.861,592.875,188.825z
		 M475.178,130.82c1.353,6.568,2.198,10.669,3.042,14.77c3.35-4.209,8.595-8.072,9.448-12.738c0.673-3.684-4.054-8.355-6.382-12.587
		C479.049,124.13,476.813,127.995,475.178,130.82z M513.619,206.141c4.211-5.635,7.776-10.055,10.737-14.848
		c0.336-0.543-3.943-4.716-4.043-4.637c-5.295,4.203-10.37,8.683-15.468,13.133C506.841,201.235,508.837,202.679,513.619,206.141z
		 M518.103,75.332c-4.667,6.881-9.341,13.773-14.747,21.744C525.817,90.885,527.902,87.436,518.103,75.332z M542.304,272.657
		c5.283-6.936,9.586-12.227,13.309-17.899c0.495-0.754-1.953-3.439-3.039-5.229c-4.903,5.552-9.86,11.059-14.566,16.774
		C537.745,266.622,539.559,268.653,542.304,272.657z M627.327,177.095c-2.886-3.47-4.455-5.356-6.023-7.243
		c-3.342,5.827-6.82,11.585-9.834,17.576c-0.337,0.669,1.961,2.663,3.037,4.043C618.645,186.83,622.784,182.188,627.327,177.095z
		 M460.847,240.234c5.169-5.465,9.944-10.513,14.718-15.561c-1.163-0.984-3.001-3.036-3.389-2.791
		c-6.303,3.979-12.421,8.249-18.581,12.453C455.897,236.207,458.199,238.08,460.847,240.234z M517.533,124.805
		c-1.539-1.135-3.077-2.271-4.616-3.406c-5.16,6.692-10.32,13.384-15.48,20.076c1.566,1.16,3.132,2.32,4.698,3.48
		C507.268,138.238,512.401,131.522,517.533,124.805z M548.756,181.487c-2.478-2.165-3.884-3.394-5.291-4.622
		c-2.313,3.521-4.831,6.939-6.722,10.675c-0.287,0.567,2.34,2.608,3.619,3.967C542.926,188.447,545.489,185.387,548.756,181.487z
		 M445.648,201.451c-0.739-2.05-1.478-4.099-2.217-6.149c-1.651-0.658-4.122-2.344-4.81-1.796c-2.845,2.267-5.256,5.133-7.443,8.065
		c-0.166,0.223,2.941,4.066,4.047,3.843C438.819,204.689,442.191,202.857,445.648,201.451z M576.306,203.544
		c2.873-6.673,4.606-9.854,5.507-13.256c0.312-1.179-1.444-2.906-2.255-4.382c-1.857,3.142-3.966,6.173-5.428,9.488
		C573.646,196.49,574.831,198.321,576.306,203.544z"/>
</g>
<g id="Layer_1">
</g>
</svg>
