<?xml version="1.0" encoding="iso-8859-1"?>
<!-- Generator: Adobe Illustrator 25.2.0, SVG Export Plug-In . SVG Version: 6.00 Build 0)  -->
<svg version="1.1" xmlns="http://www.w3.org/2000/svg" xmlns:xlink="http://www.w3.org/1999/xlink" x="0px" y="0px"
	 viewBox="0 0 1000 1000" style="enable-background:new 0 0 1000 1000;" xml:space="preserve">
<g id="exclamationMark">
	<path d="M580.471,176.006c0,105.532,0.047,211.064-0.041,316.596c-0.017,20.414-4.542,36.114-30.895,33.997
		c-30.246-2.429-61.007-0.651-90.788-5.419c-10.011-1.603-24.906-17.33-25.355-27.16c-4.819-105.455-7.553-211.014-9.978-316.565
		c-0.617-26.853,2.171-53.772,2.72-80.675c0.122-5.998-2.704-12.032-3.986-18.09c-1.61-7.607-6.723-18.127-3.591-22.16
		c3.917-5.043,14.903-7.109,22.453-6.395c38.415,3.631,76.862,7.629,114.9,13.908c7.086,1.17,17.131,13.033,17.625,20.503
		c2.012,30.368,0.837,60.947,0.837,91.448C576.405,175.999,578.438,176.002,580.471,176.006z M544.169,111.477
		c-3.948-4.497-7.897-8.995-11.845-13.493c-27.642,25.528-55.597,50.735-82.543,76.978c-3.47,3.38-2.427,12.149-2.253,18.388
		c0.845,30.394,1.833,60.79,3.401,91.153c0.412,7.983,3.076,15.851,4.705,23.771c6.148-6.138,13.462-11.515,18.107-18.634
		c4.397-6.739,5.993-15.305,8.821-23.068c-24.32-2.96-8.587-14.892-4.434-22.73c6.278-11.846,14.65-22.569,21.208-34.287
		c3.145-5.62,4.172-12.426,6.158-18.695c-6.179,2.273-12.332,4.624-18.545,6.8c-7.524,2.635-15.101,5.121-22.654,7.672
		c2.227-8.081,2.895-17.11,7.084-23.998c5.031-8.273,12.66-15.152,19.873-21.874C508.671,143.231,526.503,127.444,544.169,111.477z
		 M522.054,209.197c24.354-8.919,44.288-64.169,30.176-82.576c-1.463-1.909-7.115-3.262-8.618-2.077
		c-16.548,13.047-32.659,26.649-48.888,40.1c1.577,1.515,3.155,3.03,4.732,4.545c11.344-2.961,22.689-5.922,34.033-8.883
		C529.805,176.055,526.121,191.805,522.054,209.197z M451.356,396.34c4.682,14.273,6.784,20.678,8.885,27.083
		c5.139-3.305,10.903-5.944,15.282-10.057c8.247-7.746,16.553-15.706,23.25-24.751c7.568-10.221,13.391-21.732,19.973-32.683
		c-10.816,5.421-22.034,10.18-32.344,16.436C474.137,379.809,462.652,388.535,451.356,396.34z M558.237,432.178
		c-4.596-14.033-6.641-20.276-8.686-26.519c-4.758,3.929-10.175,7.289-14.144,11.897c-10.098,11.723-20.059,23.637-29.074,36.193
		c-5.671,7.899-9.538,17.095-14.214,25.709c8.818-4.7,18.383-8.403,26.292-14.319C532.591,454.537,545.775,442.603,558.237,432.178z
		 M487.064,290.609c2.348,2.382,4.697,4.765,7.045,7.147c18.865-14.469,38.527-28.064,56.041-44.017
		c4.42-4.026,1.98-15.585,2.692-23.681c-3.701,0.228-8.984-1.051-10.857,0.917C523.355,250.545,505.289,270.653,487.064,290.609z
		 M555.871,308.215c-2.392-11.495-3.237-15.554-4.081-19.612c-4.211,1.681-9.424,2.318-12.458,5.227
		c-12.127,11.627-23.912,23.668-34.962,36.308c-1.933,2.211,0.271,8.039,0.565,12.196
		C522.568,330.523,540.201,318.711,555.871,308.215z M489.449,414.801c1.748,1.55,3.496,3.101,5.243,4.651
		c18.29-14.17,37.091-27.754,54.486-42.947c4.019-3.511,3.228-12.528,4.651-19.011c-3.97,0.279-9.578-1.039-11.654,1.088
		C524.24,376.969,506.939,395.977,489.449,414.801z M484.109,119.119c13.239-7.584,22.468-12.06,30.746-17.888
		c5.839-4.111,10.388-10.056,15.513-15.183c-3.072-1.055-6.442-3.495-9.163-2.912c-9.225,1.975-19.944,2.873-26.755,8.34
		C489.055,95.806,488.56,106.242,484.109,119.119z M494.386,450.749c-6.198-2.616-10.037-5.116-10.763-4.41
		c-9.289,9.019-18.292,18.361-26.632,28.243c-0.433,0.513,5.764,6.622,8.875,10.125C474.707,474.18,483.549,463.653,494.386,450.749
		z M466.864,113.775c-5.081-3.863-8.299-6.311-11.518-8.759c-4.038,5.7-9.171,10.976-11.608,17.294
		c-1.069,2.773,3.36,7.667,5.292,11.598C454.359,127.892,459.688,121.876,466.864,113.775z M482.638,335.746
		c-2.825-2.443-5.65-4.887-8.474-7.331c-5.946,7.333-12.048,14.552-17.586,22.181c-0.526,0.725,2.477,4.012,3.841,6.11
		C467.825,349.719,475.232,342.733,482.638,335.746z M472.712,86.498c-0.335-2.861-0.671-5.722-1.007-8.583
		c-9.088,1.544-18.176,3.088-27.264,4.632c0.584,2.517,1.364,7.257,1.722,7.226C455.04,88.989,463.872,87.699,472.712,86.498z"/>
	<path d="M514.043,699.986c-54.832-1.077-79.623-27.519-75.179-80.183c2.794-33.113,56.795-71.64,93.683-61.536
		c28.518,7.811,45.366,31.879,49.247,62.624C587.343,664.838,556.479,700.819,514.043,699.986z M515.298,667.527
		c25.689-3.507,46.925-10.263,46.797-38.408c-0.018-3.915-2.233-7.992-4.254-11.524c-0.279-0.488-6.474,0.881-7.987,2.869
		C538.067,635.946,526.756,651.792,515.298,667.527z M507.92,594.075c-3.584-3.065-7.168-6.13-10.752-9.195
		c-11.511,12.846-23.464,25.344-34.127,38.859c-1.923,2.437,1.458,9.058,2.39,13.748c4.199-1.983,9.587-2.927,12.384-6.133
		C488.308,619.327,497.956,606.563,507.92,594.075z M489.607,676.812c8.071-10.352,14.476-18.453,20.528-26.81
		c0.208-0.287-3.979-4.874-4.673-4.531c-10.98,5.417-21.723,11.314-32.521,17.101C477.241,666.247,481.542,669.921,489.607,676.812z
		 M513.086,610.828c2.119,2.493,4.238,4.986,6.357,7.479c8.491-6.932,16.982-13.863,25.473-20.795
		c-2.562-2.415-6.945-7.242-7.415-6.887C529.08,596.986,521.134,603.974,513.086,610.828z"/>
</g>
<g id="Layer_1">
</g>
</svg>
