<?xml version="1.0" encoding="iso-8859-1"?>
<!-- Generator: Adobe Illustrator 25.2.0, SVG Export Plug-In . SVG Version: 6.00 Build 0)  -->
<svg version="1.1" xmlns="http://www.w3.org/2000/svg" xmlns:xlink="http://www.w3.org/1999/xlink" x="0px" y="0px"
	 viewBox="0 0 1000 1000" style="enable-background:new 0 0 1000 1000;" xml:space="preserve">
<g id="greaterThanSign">
	<path d="M437.59,159.419c7.123,6.648,24.872-0.862,19.62,19.357c-1.428,5.495,3.344,13.816,7.359,19.317
		c31.099,42.608,60.717,86.564,104.524,118.071c2.953,2.124,4.725,11.104,2.766,14.07c-36.83,55.773-74.483,111.002-111.362,166.743
		c-3.479,5.257-0.999,14.699-4.753,19.468c-4.56,5.792-12.597,9.094-19.571,12.594c-2.231,1.12-5.866-0.556-8.858-0.952
		c1.001-5.72,0.265-12.655,3.279-16.967c22.964-32.853,47.235-64.8,69.943-97.823c17.085-24.846,32.653-50.751,48.305-76.544
		c1.595-2.629,0.508-8.878-1.673-11.508c-31.09-37.495-62.852-74.434-93.809-112.037c-8.939-10.858-16.21-23.171-23.449-35.294
		c-2.117-3.544-2.674-9.028-1.661-13.046C428.836,162.548,433.988,161.381,437.59,159.419z"/>
</g>
<g id="Layer_1">
</g>
</svg>
