<?xml version="1.0" encoding="iso-8859-1"?>
<!-- Generator: Adobe Illustrator 25.2.0, SVG Export Plug-In . SVG Version: 6.00 Build 0)  -->
<svg version="1.1" xmlns="http://www.w3.org/2000/svg" xmlns:xlink="http://www.w3.org/1999/xlink" x="0px" y="0px"
	 viewBox="0 0 1000 1000" style="enable-background:new 0 0 1000 1000;" xml:space="preserve">
<g id="latinCapitalLetterP">
	<path d="M301.267,191.272c0-25.204,0.642-50.429-0.203-75.604c-0.677-20.187-8.383-34.458-31.724-38.019
		c-7.3-1.114-12.958-12.994-19.368-19.946c9.058-1.895,18.04-4.757,27.191-5.477c17.068-1.344,34.35-3.031,51.341-1.797
		c96.471,7.008,193.236,11.894,289.192,23.409c65.631,7.876,114.688,43.813,129.741,112.893
		c12.708,58.32-21.476,151.3-99.893,155.656c-59.059,3.281-118.251,4.802-177.401,5.369c-16.928,0.162-24.495,4.852-24.145,21.661
		c1.387,66.611,3.623,133.223,3.625,199.835c0.001,35.252,8.743,62.104,43.964,77.805c8.192,3.652,17.005,24.899,13.432,31.535
		c-5.462,10.145-21.297,20.267-32.983,20.571c-62.156,1.616-124.402,0.637-186.587-0.782c-8.243-0.188-16.312-8.006-24.462-12.291
		c7.75-3.728,16.046-6.658,23.064-11.457c4.869-3.329,11.27-9.155,11.384-13.997c1.848-78.582,3.244-157.181,3.826-235.783
		c0.577-77.854,0.126-155.716,0.126-233.575C301.347,191.277,301.307,191.274,301.267,191.272z M546.293,316.468
		c36.858,7.76,70.691,2.589,79.763-39.857c7.045-32.962,9.913-68.027,7.126-101.532c-2.679-32.224-12.987-67.533-51.277-75.387
		c-44.494-9.127-90.123-12.993-135.436-17.278c-3.277-0.31-11.884,14.827-11.39,22.348c2.753,41.932,8.566,83.665,11.255,125.6
		c1.555,24.257-2.36,48.892-0.395,73.078c0.555,6.827,13.097,17.927,20.274,18.032C492.74,321.861,519.322,318.469,546.293,316.468z
		 M322.961,508.51c-0.314,0.002-0.628,0.005-0.942,0.007c0,28.042-0.562,56.103,0.365,84.115c0.257,7.748,4.946,15.349,7.602,23.017
		c3.695-8.274,10.848-16.719,10.451-24.792c-1.296-26.334-7.349-52.496-7.836-78.793c-0.623-33.665,2.652-67.39,3.468-101.108
		c0.097-4.012-4.695-8.142-7.221-12.217c-1.962,4.816-5.547,9.606-5.625,14.453C322.713,444.958,322.961,476.736,322.961,508.51z
		 M425.737,436.507c-0.569-1.899-2.029-7.42-4.219-12.633c-0.151-0.36-6.922,0.577-8.637,2.593
		c-13.789,16.212-27.357,32.637-40.165,49.62c-1.265,1.678,3,10.927,4.714,10.932C397.47,487.073,425.832,459.099,425.737,436.507z
		 M431.436,515.81c-5.957-11.699-7.262-16.947-10.618-19.603c-1.454-1.151-8.418,2.05-10.683,4.975
		c-11.769,15.196-22.995,30.826-33.977,46.606c-1.859,2.671-2.241,6.863-1.957,10.238c0.088,1.045,5.928,3.214,6.951,2.332
		C398.24,545.639,414.982,530.517,431.436,515.81z M374.927,200.99c1.533,1.98,3.067,3.961,4.6,5.941
		c12.264-7.273,25.02-13.878,36.452-22.282c2.91-2.139,1.622-9.99,2.263-15.217c-4.632,0.03-11.053-1.89-13.582,0.431
		C394.111,179.544,384.734,190.501,374.927,200.99z M385.099,358.668c12.214-14.564,22.964-27.264,33.298-40.293
		c0.303-0.382-3.779-4.243-5.816-6.482c-12.297,12.202-24.611,24.386-36.63,36.855C375.835,348.869,379.639,352.766,385.099,358.668
		z M394.476,145.063c4.825-3.925,16.63-8.804,17.968-15.71c2.083-10.754-2.727-22.936-5.373-34.337
		c-0.21-0.904-7.13-1.75-9.472-0.288c-3.058,1.909-6.625,6.203-6.542,9.38C391.39,116.845,393.049,129.548,394.476,145.063z
		 M412.241,681.209c4.98-2.846,9.959-5.693,14.939-8.539c3.372-4.122,10.102-8.875,9.469-12.244
		c-1.695-9.019-6.547-17.445-10.144-26.106c-5.988,8.763-13.577,16.899-17.348,26.53
		C406.988,666.385,411.007,674.342,412.241,681.209z M708.86,276.511c6.303-13.641,11.148-22.816,14.529-32.502
		c0.714-2.045-3.935-5.962-6.113-9.017c-7.713,8.424-15.742,16.61-22.588,25.688C694.09,261.472,701.26,268.124,708.86,276.511z
		 M387.4,402.101c1.345,1.461,2.689,2.921,4.033,4.382c8.293-5.489,17.863-9.805,24.391-16.914
		c3.816-4.156,2.773-12.773,3.915-19.383c-5.412,2.904-11.993,4.713-15.969,8.961C397.405,385.948,392.768,394.367,387.4,402.101z
		 M381.04,671.775c6.34-12.845,10.999-21.025,14.12-29.755c0.57-1.594-5.132-5.429-7.938-8.23
		c-6.209,8.172-12.691,16.17-18.197,24.791C368.486,659.426,373.954,664.106,381.04,671.775z M704.567,217.97
		c5.838-11.343,11.296-20.708,15.244-30.672c0.785-1.98-4.22-6.254-6.555-9.47c-8.297,7.712-16.595,15.424-24.892,23.136
		C690.45,203.154,692.535,205.343,704.567,217.97z M365.961,102.152c-1.92-3.187-3.841-6.375-5.761-9.562
		c-10.611,7.76-21.263,15.469-31.679,23.483c-0.385,0.297,1.517,3.567,2.354,5.451C342.57,115.067,354.266,108.61,365.961,102.152z
		 M416.221,210.692c-7.334,8.522-12.425,14.437-17.516,20.352c4.093,2.034,10.088,6.826,11.912,5.569
		c4.819-3.323,8.506-8.934,11.18-14.356C422.688,220.449,419.14,216.453,416.221,210.692z M429.752,568.518
		c-2.949-1.578-5.898-3.155-8.847-4.732c-4.561,9.751-9.151,19.49-13.401,29.375c-0.061,0.142,5.95,3.236,6.058,3.062
		C419.168,587.117,424.443,577.807,429.752,568.518z M373.291,616.802c7.111-12.79,11.507-19.679,14.688-27.089
		c0.863-2.012-1.942-5.599-3.064-8.463c-5.646,6.033-11.845,11.675-16.577,18.355C367.036,601.44,370.117,606.38,373.291,616.802z
		 M657.437,261.827c3.142,1.927,6.284,3.855,9.426,5.782c5.235-9.673,10.47-19.345,15.704-29.018
		c-2.795-0.457-7.282-2.232-8.115-1.162C668.369,245.241,663.019,253.624,657.437,261.827z M357.763,201.905
		c-2.954-3.161-5.005-5.356-7.057-7.551c-4.278,4.474-9.207,8.547-12.38,13.701c-0.802,1.302,4.004,6.056,6.233,9.224
		C348.617,212.554,352.675,207.829,357.763,201.905z"/>
</g>
<g id="Layer_1">
</g>
</svg>
