<?xml version="1.0" encoding="iso-8859-1"?>
<!-- Generator: Adobe Illustrator 25.2.0, SVG Export Plug-In . SVG Version: 6.00 Build 0)  -->
<svg version="1.1" xmlns="http://www.w3.org/2000/svg" xmlns:xlink="http://www.w3.org/1999/xlink" x="0px" y="0px"
	 viewBox="0 0 1000 1000" style="enable-background:new 0 0 1000 1000;" xml:space="preserve">
<g id="latinCapitalLetterT">
	<path d="M552.471,190.697c0,150.631,0.749,301.27-0.711,451.887c-0.255,26.23,4.268,38.189,32.605,34.69
		c6.898-0.852,14.793,6.368,22.229,9.877c-8.516,6.639-16.603,18.22-25.629,19.006c-29.123,2.537-58.652,2.298-87.915,0.87
		c-31.609-1.542-63.201-4.872-94.533-9.309c-5.529-0.783-9.748-10.819-14.572-16.582c6.475-3.167,13.017-9.192,19.415-9.043
		c46.474,1.085,45.178,1.452,46.135-45.478c2.223-109.077,6.181-218.118,8.361-327.196c0.26-13.004-6.174-26.137-9.466-39.221
		c-0.697-2.769-2.604-6.255-1.621-8.276c24.518-50.426,12.979-104.587,15.156-157.124c0.322-7.767-13.427-21.154-22.657-23.273
		c-21.882-5.026-45.948-9.714-67.272-5.382c-20.791,4.223-41.512,17.149-58.172,31.13c-18.926,15.882-32.914,37.544-49.92,55.884
		c-4.99,5.381-15.383,12.759-19.024,10.89c-7.061-3.623-14.503-12.607-15.746-20.34c-4.027-25.061-6.82-50.572-6.652-75.886
		c0.044-6.684,12.319-18.881,19.247-19.079c89.731-2.557,179.51-4.21,269.277-4.199c27.736,0.003,55.471,7.943,83.208,7.947
		c15.852,0.003,31.706-8.658,47.557-13.424c3.358-1.01,8.833-3.873,9.753-2.803c28.197,32.779,65.291,12.322,97.908,15.21
		c21.018,1.861,30.338,4.957,27.637,27.757c-2.934,24.768-3.797,49.818-4.726,74.775c-0.838,22.503-13.83,26.692-30.179,17.756
		c-12.756-6.972-23.119-18.837-33.489-29.551c-18.383-18.992-32.635-46.043-54.806-56.176c-22.598-10.328-53.108-7.306-79.117-3.339
		c-6.243,0.952-10.412,28.592-11.913,44.303c-2.012,21.055-0.498,42.446-0.498,63.693
		C559.051,190.695,555.761,190.696,552.471,190.697z M512.023,491.235c2.122,2.34,4.243,4.68,6.365,7.02
		c7.121-9.03,14.902-17.673,20.677-27.495c0.903-1.537-8.822-12.908-11.081-12.149c-17.645,5.934-35.212,12.73-51.476,21.674
		c-3.815,2.098-2.574,13.392-3.66,20.455c4.809-1.819,9.488-4.211,14.455-5.326C495.446,493.585,503.774,492.585,512.023,491.235z
		 M498.901,175.541c17.514-16.404,30.394-28.468,43.275-40.532c-9.403-3.165-20.776-11.207-27.759-8.384
		c-11.291,4.563-20.271,15.767-28.71,25.484C484.402,153.611,491.174,162.126,498.901,175.541z M509.752,64.936
		c-10.254,10.979-18.912,17.724-23.67,26.567c-1.947,3.617,4.546,11.774,7.199,17.866c14.251-7.89,28.502-15.781,42.753-23.671
		C529.294,80.373,522.555,75.049,509.752,64.936z M465.118,614.474c2.001,7.432,4.002,14.864,6.002,22.295
		c11.935-16.841,23.941-33.634,35.51-50.723c0.4-0.592-4.116-6.307-5.402-5.976C483.31,584.672,459.316,583.701,465.118,614.474z
		 M492.307,440.085c1.553,2.058,3.106,4.115,4.66,6.173c12.064-6.645,26.177-11.27,35.445-20.671
		c5.82-5.904,4.367-18.977,6.178-28.833c-7.202,3.003-16.302,4.211-21.204,9.391C507.788,416.287,500.532,428.645,492.307,440.085z
		 M491.334,685.748c10.356-5.824,22.186-12.476,34.015-19.129c-5.879-3.109-12.828-9.956-17.438-8.635
		c-14.596,4.181-28.318,11.415-42.378,17.469C472.526,678.244,479.52,681.034,491.334,685.748z M531.829,579.549
		c-10.944,14.159-17.063,20.739-21.578,28.28c-4.828,8.063-8.141,17.032-12.115,25.606c2.625,0.62,6.517,2.664,7.675,1.634
		c8.97-7.979,18.832-15.59,25.428-25.338C534.609,604.751,531.829,595.61,531.829,579.549z M508.369,522.774
		c-37.091-1.483-45.272,8.596-33.152,40.282C486.316,549.568,496.973,536.62,508.369,522.774z M244.182,95.862
		c4.526,10.526,8.104,18.847,11.681,27.168c4.479-9.959,10.874-19.608,12.553-30.019c0.738-4.575-8.128-10.699-12.633-16.119
		C252.067,82.97,248.35,89.047,244.182,95.862z M544.182,257.143c1.247-4.602,2.494-9.203,3.741-13.805
		c-4.821-1.075-11.856-4.715-14.086-2.791c-10.679,9.217-20.057,19.942-29.898,30.131c3.246,1.667,7.648,5.595,9.547,4.625
		C524.053,269.907,534.014,263.322,544.182,257.143z M500.595,213.171c1.37,1.866,2.741,3.733,4.112,5.599
		c9.693-4.748,20.654-8.013,28.602-14.805c4.709-4.025,4.662-13.616,6.754-20.704c-5.733,1.958-12.635,2.53-16.947,6.171
		C514.833,196.426,508.019,205.159,500.595,213.171z M721.552,65.387c-4.719,3.535-9.438,7.069-14.158,10.604
		c-4.082,2.961-8.164,5.921-12.245,8.882c7.305,5.775,14.609,11.549,21.915,17.324c3.272-4.186,9.161-8.317,9.252-12.571
		C726.487,81.584,723.328,73.47,721.552,65.387z M751.934,103.184c-4.341-0.167-8.683-0.334-13.024-0.501
		c0,11.083-0.376,22.194,0.406,33.222c0.117,1.643,5.679,2.9,8.721,4.336C749.336,127.888,750.635,115.536,751.934,103.184z
		 M544.354,352.721c-7.511-5.011-12.568-9.589-13.545-8.841c-6.418,4.915-11.957,10.979-17.782,16.668
		c3.062,2.102,7.179,6.652,8.998,5.869C528.769,363.511,534.757,358.847,544.354,352.721z M499.309,406.67
		c-2.538-1.812-5.076-3.625-7.614-5.437c-6.581,9.22-13.163,18.44-19.745,27.66c2.464,1.757,4.929,3.514,7.393,5.271
		C485.999,424.999,492.654,415.834,499.309,406.67z M509.372,245.285c-2.298-2.336-4.596-4.672-6.894-7.008
		c-6.392,7.137-12.784,14.274-19.176,21.412c1.54,1.325,4.166,4.01,4.461,3.776C495.115,257.592,502.222,251.411,509.372,245.285z
		 M517.625,311.981c2.56,2.143,5.119,4.285,7.679,6.428c4.973-5.8,10.037-11.53,14.665-17.592c0.251-0.329-3.153-3.45-4.856-5.271
		C529.283,301.024,523.454,306.502,517.625,311.981z"/>
</g>
<g id="Layer_1">
</g>
</svg>
