<?xml version="1.0" encoding="iso-8859-1"?>
<!-- Generator: Adobe Illustrator 25.2.0, SVG Export Plug-In . SVG Version: 6.00 Build 0)  -->
<svg version="1.1" xmlns="http://www.w3.org/2000/svg" xmlns:xlink="http://www.w3.org/1999/xlink" x="0px" y="0px"
	 viewBox="0 0 1000 1000" style="enable-background:new 0 0 1000 1000;" xml:space="preserve">
<g id="latinCapitalLetterR">
	<path d="M404.892,446.917c-1.98,52.23-2.82,104.539-6.398,156.66c-1.931,28.139,5.427,47.682,31.68,60.997
		c8.129,4.123,11.675,17.28,17.319,26.301c-9.704,4.517-19.472,13.02-29.101,12.865c-43.086-0.691-86.142-3.696-129.184-6.277
		c-6.681-0.401-14.127-1.495-19.598-4.885c-5.71-3.537-9.46-10.238-14.067-15.555c6.114-3.417,12.23-9.685,18.342-9.682
		c14.581,0.008,22.779-0.312,22.794-19.938c0.115-155.176,0.846-310.365,3.627-465.51c0.456-25.463-6.295-42.516-24.823-58.263
		c-16.099-13.683-30.514-29.449-44.912-45c-13.935-15.052-8.069-24.382,10.274-27.621c11.166-1.972,23.523-0.153,33.659-4.229
		c11.411-4.589,21.174-13.571,31.172-21.268c5.572-4.29,9.541-11.142,15.576-14.059c1.814-0.876,7.665,8.317,12.52,11.655
		c9.263,6.368,19.005,16.643,28.783,16.917c67.393,1.894,134.848,2.076,202.281,1.923c73.096-0.166,171.009,67.587,194.763,136.585
		c21.579,62.682,5.397,120.805-41.393,161.478c-25.202,21.908-68.358,25.629-104.399,31.793c-27.15,4.643-55.865,0.013-83.887-0.194
		c-4.175-0.031-8.362,1.563-12.544,2.405c1.915,3.837,2.8,9.231,5.898,11.281c64.733,42.819,89.677,113.595,127.53,175.986
		c20.501,33.791,53.73,59.883,81.416,89.262c3.588,3.807,10.423,5.664,12.13,9.889c3.094,7.656,3.457,16.414,4.96,24.712
		c-6.08-0.106-12.367,0.768-18.209-0.464c-113.012-23.841-189.232-95.099-247.703-190.43c-8.294-13.522-25.037-21.74-37.338-32.995
		c-3.945-3.609-5.884-9.317-9.248-13.674c-8.655-11.207-17.593-22.195-26.418-33.27c-2.811,10.637-5.622,21.273-8.432,31.91
		C402.939,446.454,403.915,446.686,404.892,446.917z M507.514,346.629c0.008,0.482,0.016,0.964,0.024,1.446
		c18.166-0.355,36.433-2.104,54.478-0.795c47.389,3.439,75.082-23.78,94.64-61.255c8.359-16.018,24.698-36.132-2.997-52
		c-1.927-1.104-3.016-8.154-1.497-10.113c21.769-28.059,2.187-50.068-11.341-71.681c-19.953-31.878-39.278-66.863-82.006-71.654
		c-42.134-4.725-84.636-6.429-127.029-8.118c-3.429-0.137-10.179,9.936-10.482,15.53c-4.331,79.992-8.259,160.016-10.677,240.081
		c-0.197,6.523,10.963,18.749,17.449,19.176C454.427,348.981,481.014,347.147,507.514,346.629z M326.371,551.647
		c2.078,1.8,4.157,3.601,6.235,5.401c7.371-3.656,14.538-7.838,22.179-10.797c5.804-2.247,12.21-2.936,18.348-4.318
		c-1.569,6.038-2.131,12.589-4.897,18.018c-7.865,15.437-17.005,30.229-24.72,45.734c-1.541,3.097,1.01,8.23,1.674,12.424
		c11.933-7.714,32.646-13.988,34.189-23.405c5.069-30.931,3.367-63.002,3.472-94.638c0.005-1.742-9.892-5.798-10.633-4.924
		C356.544,513.644,341.521,532.699,326.371,551.647z M320.189,271.027c23.667-15.523,45.21-27.636,63.984-43.109
		c6.211-5.118,5.649-18.84,7.126-28.784c0.167-1.126-6.592-4.804-10.071-4.713C346.555,195.328,317.235,228.21,320.189,271.027z
		 M745.61,227.107c-3.929-14.842-7.616-32.507-13.67-49.318c-1.776-4.932-14.691-10.985-15.043-10.546
		c-8.725,10.884-16.446,22.572-24.345,34.116c6.023,2.085,12.191,6.285,18.045,5.886c24.657-1.681,27.641,9.583,18.702,28.858
		c-3.479,7.503-8.536,14.381-11.174,22.123c-1.409,4.135,0.804,9.505,1.383,14.317c6.3-2.461,16.378-3.365,18.158-7.687
		C742.142,253.984,742.873,241.57,745.61,227.107z M529.623,490.182c3.974-2.397,5.84-3.707,7.859-4.707
		c7.179-3.555,14.409-7.005,21.62-10.494c-0.757,8.221-2.913,16.657-1.697,24.576c0.634,4.129,8.994,11.243,10.834,10.4
		c36.809-16.871,1.029-30.378-3.64-44.491c-2.369-7.161-13.573-11.399-20.782-16.958c-6.517,10.73-13.385,21.277-19.184,32.383
		C523.74,482.602,527.758,486.88,529.623,490.182z M333.281,374.566c4.087,3.355,8.173,6.71,12.26,10.065
		c13.611-18.067,27.417-35.994,40.541-54.407c1.375-1.928-1.282-6.73-2.069-10.199c-3.281,1.259-7.685,1.574-9.661,3.928
		C360.383,340.589,346.912,357.644,333.281,374.566z M309.456,369.444c4.485,2.313,8.971,4.625,13.456,6.938
		c10.179-17.98,20.357-35.961,30.536-53.942c-4.265-2.414-8.53-4.829-12.795-7.243C330.254,333.28,319.855,351.362,309.456,369.444z
		 M406.242,153.669c-12.736-8.666-17.85-13.262-18.715-12.567c-12.731,10.225-25.008,21.037-36.904,32.229
		c-0.662,0.623,2.929,5.767,4.541,8.807C369.793,173.984,384.421,165.831,406.242,153.669z M316.154,159.967
		c7.721,9.911,10.853,13.93,13.985,17.95c10.403-11.285,20.806-22.569,31.209-33.854c-2.473-2.165-6.194-6.683-7.227-6.135
		C342.24,144.231,330.766,151.303,316.154,159.967z M308.268,91.432c-9.927-5.657-18.669-11.318-28.079-15.459
		c-2.016-0.887-6.455,3.729-9.778,5.81c9.509,10.231,19.019,20.461,28.528,30.692C301.159,107.47,303.378,102.464,308.268,91.432z
		 M581.656,539.311c3.948,7.386,6.769,12.664,9.59,17.942c5.357-6.454,14.02-12.452,14.996-19.512
		c0.743-5.376-8.27-12.102-12.943-18.227C589.48,526.006,585.662,532.498,581.656,539.311z M675.568,335.123
		c10.01-9.053,19.012-17.195,28.015-25.337c-2.781-2.231-7.296-6.886-8.081-6.325c-10.108,7.226-19.685,15.197-29.396,22.979
		C668.337,328.486,670.567,330.533,675.568,335.123z M309.473,464.117c5.082,8.626,8.016,13.607,10.95,18.588
		c5.546-7.848,11.092-15.695,16.638-23.543c-4.365-2.423-9.365-7.492-12.94-6.633C319.096,453.738,315.129,459.347,309.473,464.117z
		 M433.832,380.781c-1.329,3.351-2.659,6.703-3.989,10.054c9.629,5.137,19.257,10.275,28.886,15.412
		c1.634-4.849,5.139-13.713,4.626-13.951C453.799,387.845,443.765,384.421,433.832,380.781z M341.931,91.284
		c5.877-5.685,11.137-10.773,16.396-15.86c-4.397-1.655-9.699-5.71-13.003-4.464c-6.768,2.552-12.462,7.947-18.599,12.172
		C330.832,85.333,334.937,87.535,341.931,91.284z M371.02,476.013c6.203-10.352,10.92-16.514,13.539-23.467
		c0.999-2.651-2.814-7.115-4.435-10.753c-6.464,7.11-13.108,14.077-19.05,21.6C360.597,463.998,364.965,468.427,371.02,476.013z
		 M370.475,387.923c-6.203,8.586-11.224,15.535-16.245,22.484c2.818,1.359,6.784,4.637,8.261,3.754
		c7.502-4.489,14.358-10.057,21.44-15.246C380.24,395.9,376.549,392.885,370.475,387.923z M375.32,648.488
		c-3.242-1.009-6.484-2.019-9.726-3.028c-3.449,8.129-6.898,16.258-10.348,24.387c3.764,1.563,7.528,3.125,11.292,4.688
		C369.466,665.853,372.393,657.171,375.32,648.488z M321.077,273.823c-2.823,11.141-5.573,17.621-5.689,24.148
		c-0.066,3.722,4.168,7.52,6.467,11.284c4.004-6.767,9.068-13.195,11.408-20.495C334.031,286.363,327.737,281.703,321.077,273.823z
		 M533.584,427.414c-7.749-3.983-14.662-9.361-16.33-8.053c-5.194,4.076-8.999,10.392-11.982,16.504
		c-0.793,1.625,3.301,5.634,5.15,8.548C516.14,440.216,521.858,436.019,533.584,427.414z M336.843,588.678
		c-4.395-1.108-9.699-3.744-10.854-2.507c-4.584,4.91-8.618,10.718-11.197,16.887c-0.799,1.911,3.663,6.02,5.716,9.123
		C324.555,606.359,328.602,600.536,336.843,588.678z M382.035,113.706c7.842-13.013,11.154-17.507,13.167-22.522
		c0.535-1.332-2.92-4.265-4.542-6.463c-4.185,5.004-8.851,9.708-12.267,15.192C377.342,101.602,379.704,105.417,382.035,113.706z"/>
</g>
<g id="Layer_1">
</g>
</svg>
