<?xml version="1.0" encoding="iso-8859-1"?>
<!-- Generator: Adobe Illustrator 25.2.0, SVG Export Plug-In . SVG Version: 6.00 Build 0)  -->
<svg version="1.1" xmlns="http://www.w3.org/2000/svg" xmlns:xlink="http://www.w3.org/1999/xlink" x="0px" y="0px"
	 viewBox="0 0 1000 1000" style="enable-background:new 0 0 1000 1000;" xml:space="preserve">
<g id="latinCapitalLetterJ">
	<path d="M324.057,596.017c-1.429-47.297,23.027-84.979,56.394-80.286c16.784,2.361,31.797,17.915,47.387,27.854
		c6.261,3.991,14.301,13.965,17.414,12.495c9.833-4.643,23.798-12.347,25.271-20.771c5.389-30.836,8.435-62.463,8.113-93.749
		c-0.155-15.035-9.897-29.941-15.098-44.974c-1.354-3.912-4.019-10.616-2.607-11.763c31.146-25.32,15.91-61.054,20.111-91.907
		c4.161-30.552,0.913-62.083,4.642-92.731c5.949-48.891-27.042-69.739-60.209-92.064c-7.592-5.11-12.786-13.781-19.084-20.814
		c8.348-4.519,16.238-11.526,25.118-13.161c67.105-12.357,134.312-24.262,201.723-34.79c13.743-2.147,28.489,2.118,42.772,3.427
		c-2.969,13.919-5.829,27.862-8.994,41.736c-0.677,2.964-1.771,6.393-3.843,8.398c-58.547,56.646-41.806,129.956-42.894,198.65
		c-1.369,86.397,2.518,172.915-0.315,259.235c-1.592,48.531-25.459,88.36-69.488,113.693c-11.341,6.526-20.962,16.104-32.432,22.329
		c-20.937,11.364-39.936,36.07-67.747,11.557c-3.579-3.154-11.944-1.427-18.043-1.087
		C366.132,700.983,326.098,663.58,324.057,596.017z M388.834,664.493c34.42-0.332,63.889-31.105,70.104-66.631
		c1.594-9.109-0.72-18.901-1.238-28.38c-7.979,7.366-16.018,14.669-23.925,22.112c-14.443,13.598-28.274,27.919-43.471,40.61
		c-6.002,5.012-14.972,6.47-22.591,9.546C375.972,650.643,384.231,659.535,388.834,664.493z M513.097,348.776
		c1.911,2.894,3.822,5.788,5.733,8.683c24.49-13.21,49.901-25.06,72.822-40.585c5.737-3.886,3.51-19.59,4.492-29.905
		c0.017-0.17-6.99-2.429-8.572-1.119C562.539,306.573,537.858,327.723,513.097,348.776z M514.083,288.022
		c2.321,2.261,4.642,4.522,6.963,6.783c22.047-12.441,44.883-23.738,65.637-38.054c5.856-4.039,5.704-16.896,7.783-25.83
		c0.07-0.302-7.01-3.725-8.309-2.672C561.911,247.9,538.035,268.009,514.083,288.022z M513.25,583.547
		c2.526,3.44,5.053,6.879,7.58,10.319c22.965-14.424,46.427-28.154,68.441-43.907c3.991-2.855,2.05-13.999,2.848-21.317
		c-3.358-0.343-7.976-2.287-9.884-0.787C559.009,546.126,536.182,564.902,513.25,583.547z M530.954,412.305
		c4.054,3.727,8.108,7.455,12.161,11.182c18.109-19.983,36.217-39.966,54.325-59.949c-4.728-3.375-13.098-10.211-13.656-9.624
		C565.71,372.936,548.388,392.674,530.954,412.305z M543.912,509.665c1.686,2.106,3.372,4.212,5.057,6.318
		c13.985-8.703,28.349-16.882,41.664-26.511c2.99-2.163,2.317-9.393,3.331-14.29c-3.821-0.68-9.344-3.324-11.19-1.724
		C569.404,485.047,556.776,497.491,543.912,509.665z M577.745,594.701c-1.88-1.747-3.76-3.494-5.64-5.241
		c-13.491,13.116-27.031,26.183-40.244,39.573c-0.423,0.429,2.517,4.176,3.889,6.376c13.045-11.04,26.192-21.964,39.021-33.251
		C576.563,600.582,576.792,597.23,577.745,594.701z M373.616,596.614c17.991-13.718,25.77-19.65,33.55-25.582
		c-4.727-3.827-10.899-11.776-13.912-10.719c-9.605,3.37-19.046,9.062-26.274,16.169
		C364.951,578.478,370.752,588.438,373.616,596.614z M557.516,444.38c1.889,3.186,3.778,6.371,5.668,9.557
		c10.77-5.718,22.055-10.729,31.807-17.842c1.644-1.199-3.326-11.468-5.24-17.546C579.005,427.159,568.26,435.77,557.516,444.38z
		 M560.667,183.707c14.972-16.824,24.08-26.808,32.557-37.302c0.437-0.54-4.531-5.445-6.982-8.318
		c-10.262,10.177-20.747,20.149-30.48,30.809C554.644,170.12,557.721,175.175,560.667,183.707z M503.153,634.494
		c-3.067-3.622-6.134-7.245-9.201-10.867c-9.286,8.193-18.817,16.144-27.499,24.933c-0.928,0.94,3.101,6.775,4.83,10.34
		C481.907,650.764,492.53,642.629,503.153,634.494z M540.365,369.971c-12.174,5.263-18.577,6.061-21.39,9.662
		c-5.606,7.177-9.69,15.701-13.317,24.135c-0.75,1.743,3.227,5.518,5.024,8.357c5.673-6.034,11.886-11.659,16.846-18.231
		C531.47,388.669,533.88,382.287,540.365,369.971z M543.346,153.375c-10.755,4.772-15.995,5.571-18.745,8.618
		c-6.854,7.595-12.67,16.146-18.527,24.573c-0.371,0.533,2.47,3.298,3.816,5.025c6.912-6.599,14.083-12.952,20.632-19.893
		C534.093,167.913,536.608,163.132,543.346,153.375z M557.216,107.623c2.416,2.958,4.831,5.916,7.247,8.874
		c8.717-8.036,17.564-15.943,25.907-24.351c0.679-0.684-2.095-4.792-3.265-7.31C577.142,92.431,567.179,100.027,557.216,107.623z"/>
</g>
<g id="Layer_1">
</g>
</svg>
