<?xml version="1.0" encoding="iso-8859-1"?>
<!-- Generator: Adobe Illustrator 25.2.0, SVG Export Plug-In . SVG Version: 6.00 Build 0)  -->
<svg version="1.1" xmlns="http://www.w3.org/2000/svg" xmlns:xlink="http://www.w3.org/1999/xlink" x="0px" y="0px"
	 viewBox="0 0 1000 1000" style="enable-background:new 0 0 1000 1000;" xml:space="preserve">
<g id="latinCapitalLetterY">
	<path d="M461.645,703.042c-49.303,0-98.634,0.86-147.884-0.749c-9.5-0.31-18.684-10.288-28.014-15.806
		c8.618-4.177,17.269-11.906,25.846-11.824c20.561,0.197,28.122-10.343,35.559-27.645c28.056-65.276,59.287-129.199,86.862-194.668
		c18.716-44.437,33.497-90.545,49.482-136.101c1.702-4.851,1.765-12.465-0.935-16.349
		c-50.323-72.395-99.775-145.485-153.024-215.689c-11.709-15.438-37.45-20.068-56.422-30.249
		c-6.946-3.728-12.999-9.12-19.459-13.753c7.054-4.597,13.682-10.101,21.232-13.639c41.298-19.349,78.409,21.988,119.72,9.358
		c0.547-0.167,8.802,14.559,6.689,17.551c-33.917,48.02-12.265,85.674,19.241,123.945c24.112,29.29,44.291,61.797,67.205,92.128
		c1.959,2.593,15.474,1.451,16.655-1.137c11.884-26.022,22.104-52.796,33.236-79.171c5.546-13.139,11.1-26.423,18.267-38.698
		c12.515-21.431,10.452-37.225-11.466-52.057c-11.412-7.722-18.396-21.989-27.381-33.299c14.803-3.247,29.597-9.204,44.411-9.255
		c54.64-0.188,109.296,1.271,163.918,2.992c7.07,0.223,13.977,5.603,20.96,8.594c-3.264,7.447-6.22,15.047-9.843,22.315
		c-17.533,35.166-36.535,69.663-52.653,105.46c-50.528,112.218-100.054,224.888-149.833,337.442
		c-13.188,29.818-27.527,59.303-37.861,90.107c-3.267,9.738,3.963,23.537,7.833,34.99c4.584,13.565,10.727,26.603,16.194,39.869
		c-12.66,3.322-25.21,7.199-38.025,9.737c-6.599,1.307-13.67,0.23-20.527,0.23C461.633,706.128,461.639,704.585,461.645,703.042z
		 M586.179,264.638c-3.544,22.18-7.343,45.969-11.148,69.758c-1.179,7.375-2.371,14.748-3.556,22.123
		c-7.241-4.838-14.747-9.332-21.623-14.641c-4.142-3.198-6.676-8.74-11.059-11.296c-5.865-3.42-15.599-8.792-18.73-6.519
		c-6.45,4.682-13.46,14.182-12.91,21.118c0.428,5.395,11.964,14.118,18.552,14.107c33.696-0.054,26.318,29.369,35.631,46.68
		c-5.158,2.667-13.455,8.815-14.974,7.445c-11.415-10.291-20.766-22.884-32.257-33.072c-7.121-6.313-16.857-9.677-25.419-14.365
		c1.148,8.352-0.724,19.632,4.006,24.512c14.606,15.07,33.144,26.374,47.469,41.658c13.54,14.447,15.522,8.488,21.442-5.654
		c17.674-42.22,34.105-85.454,56.884-124.907c23.495-40.694,19.854-65.778-25.704-89.43c3.15,10.774,6.048,19.08,7.949,27.608
		c2.191,9.829,3.502,19.853,5.194,29.793C596.989,267.332,588.054,265.105,586.179,264.638z M518.222,539.73
		c1.594-4.225,3.188-8.449,4.782-12.674c-22.743-23.539-45.445-47.118-68.642-70.201c-0.325-0.324-8.087,4.893-10.288,8.724
		c-9.124,15.883,21.99,75.862,40.367,76.998C495.599,543.268,506.955,540.786,518.222,539.73z M418.853,550.781
		c-5.017,1.771-10.033,3.543-15.05,5.314c-0.856,9.906-6.292,24.185-1.753,28.94c17.062,17.872,36.995,33.163,57.029,47.81
		c2.143,1.567,11.987-7.398,18.258-11.478C457.843,597.838,438.348,574.31,418.853,550.781z M608.413,141.198
		c12.196,28.463,22.271,52.395,32.956,76.051c0.783,1.733,8.513,2.556,8.759,1.982c8.543-19.958,20.908-39.668,23.148-60.446
		c1.482-13.744-11.669-29.066-18.27-43.681c-7.981,5.949-8.858,8.863-8.318,11.484c3.167,15.345,6.665,30.622,10.052,45.921
		C642.855,163.511,628.968,154.515,608.413,141.198z M463.063,551.942c-11.926-13.423-21.726-24.453-31.525-35.483
		c-3.409,3.23-9.926,9.142-9.784,9.307c9.42,10.916,19.256,21.491,29.544,31.599C452.031,558.086,456.425,555.081,463.063,551.942z
		 M418.602,660.937c-10.16-15.164-19.581-29.68-29.751-43.651c-0.959-1.318-7.972-0.381-9.732,1.638
		c-1.762,2.022-1.895,7.698-0.265,10.07c8.426,12.255,17.485,24.093,26.748,35.738c1.569,1.973,5.371,3.383,7.84,3.018
		C415.232,667.486,416.524,663.858,418.602,660.937z M530.075,499.852c4.59-8.947,9.634-15.182,8.384-16.937
		c-7.18-10.083-15.851-19.104-24.016-28.484c-2.422,2.777-7.476,6.973-6.861,8.112C513.75,473.977,520.849,484.91,530.075,499.852z
		 M480.471,405.441c-3.936,0.535-7.872,1.07-11.809,1.605c1.084,9.961,0.907,20.332,3.936,29.661
		c1.057,3.255,10.024,3.942,15.379,5.802C485.475,430.153,482.973,417.797,480.471,405.441z M596.561,129.802
		c-5.677,11.299-10.349,16.67-9.153,18.924c4.334,8.162,10.639,15.278,16.2,22.788c1.81-4.46,5.784-9.373,4.967-13.285
		C607.009,150.728,602.723,143.795,596.561,129.802z M633.151,98.68c-6.426-5.678-9.893-10.825-14.257-11.752
		c-2.307-0.49-9.301,7.144-8.656,9.734c1.176,4.719,5.997,9.116,10.376,12.026C621.67,109.39,626.938,103.754,633.151,98.68z
		 M359.658,84.572c4.889-6.264,7.964-10.204,11.039-14.143c-5.239-2.572-10.31-5.746-15.836-7.286
		c-1.357-0.378-6.525,5.73-5.956,6.878C351.268,74.782,355.158,78.785,359.658,84.572z M439.205,655.303
		c-3.639,4.797-8.145,9.417-7.561,10.189c3.102,4.104,7.017,8.381,11.606,10.252c2.426,0.989,6.797-2.796,10.29-4.426
		C449.354,666.641,445.168,661.965,439.205,655.303z M581.699,201.458c-4.039-5.254-7.723-10.048-11.408-14.842
		c-1.775,3.031-5.723,6.967-4.911,8.922c2.319,5.577,6.576,10.347,10.071,15.435C577.221,208.276,578.992,205.58,581.699,201.458z"
		/>
</g>
<g id="Layer_1">
</g>
</svg>
