<?xml version="1.0" encoding="iso-8859-1"?>
<!-- Generator: Adobe Illustrator 25.2.0, SVG Export Plug-In . SVG Version: 6.00 Build 0)  -->
<svg version="1.1" xmlns="http://www.w3.org/2000/svg" xmlns:xlink="http://www.w3.org/1999/xlink" x="0px" y="0px"
	 viewBox="0 0 1000 1000" style="enable-background:new 0 0 1000 1000;" xml:space="preserve">
<g id="latinSmallLetterN">
	<path d="M470.412,489.052c0,55.23-0.293,110.465,0.562,165.682c0.068,4.364,7.956,8.772,12.479,12.863
		c6.637,6.004,13.516,11.741,20.292,17.591c-6.487,3.316-13.091,6.424-19.422,10.014c-4.965,2.816-9.51,6.364-14.397,9.331
		c-3.173,1.927-8.994,5.476-9.61,4.773c-25.865-29.496-59.692-7.954-89.027-14.186c-8.658-1.839-18.006-1.975-25.865-5.505
		c-5.396-2.423-8.765-9.358-13.04-14.276c6.044-2.469,12.96-8.2,17.984-6.856c24.707,6.608,19.04-5.502,18.578-22.235
		c-1.309-47.39,1.402-94.887,2.325-142.345c0.492-25.3,1.203-50.629,0.374-75.897c-0.207-6.335-4.795-13.588-9.405-18.515
		c-12.687-13.559-27.072-25.549-39.501-39.318c-5.344-5.92-12.463-18.373-10.165-21.472c5.974-8.055,16.533-17.341,25.591-17.693
		c43.818-1.7,87.75-0.93,131.621-0.021c4.144,0.086,12.141,7.962,11.589,10.989c-5.548,30.408,9.631,17.804,21.836,10.976
		c58.089-32.499,112.937-28.756,143.967,18.128c20.057,30.305,33.964,67.7,39.573,103.642c4.948,31.712-8.063,65.793-8.335,98.868
		c-0.305,37.067,4.5,74.203,7.674,111.259c1.492,17.423-0.584,27.795-22.96,23.889c-28.36-4.951-57.348-6.219-85.941-10.005
		c-4.815-0.637-10.95-5.118-12.849-9.423c-1.431-3.241,3.889-8.908,4.564-13.725c3.287-23.458,6.275-46.967,8.793-70.519
		c0.726-6.79-1.258-13.856-0.635-20.671c1.855-20.317,5.178-40.521,6.497-60.862c3.074-47.383,4.532-94.88,8.157-142.216
		c2.465-32.184-17.656-28.624-36.515-23.806c-16.496,4.215-32.041,12.274-47.867,18.964c-30.184,12.758-31.547,40.437-33.612,67.137
		c-1.165,15.065-0.21,30.294-0.21,45.449C472.477,489.058,471.445,489.055,470.412,489.052z M453.648,647.455
		c-3.885-18.769-5.975-28.866-8.065-38.962c-5.769,10.859-11.55,21.712-17.267,32.599c-0.274,0.522,0.321,1.526,0.025,2.007
		c-2.938,4.77-5.062,10.799-9.308,13.744c-2.901,2.012-12.52,0.371-12.732-0.797c-1.008-5.561-0.246-11.59,0.698-17.318
		c1.033-6.272,2.956-12.397,4.492-18.586c-3.177,0.627-7.778,0.161-9.26,2.09c-4.189,5.455-9.711,11.741-10.071,17.968
		c-1.725,29.881,19.189,34.201,40.722,29.297C442.096,667.396,448.556,653.199,453.648,647.455z M400.441,540.682
		c3.014,3.068,6.029,6.136,9.043,9.204c14.281-14.031,28.994-27.67,42.431-42.468c2.324-2.56-0.757-10.028-1.341-15.229
		c-4.201,1.873-9.521,2.701-12.411,5.797C425.211,511.866,412.951,526.39,400.441,540.682z M611.075,438.537
		c22.67-16.561,36.294-31.966,17.591-55.37c-2.656-3.323-8.099-4.418-12.252-6.545c-1.78,3.844-4.947,7.636-5.095,11.543
		C610.728,403.749,611.075,419.37,611.075,438.537z M409.26,476.571c1.921,2.005,3.842,4.009,5.762,6.014
		c11.835-9.205,24.901-17.277,34.911-28.161c4.137-4.498,1.721-15.024,2.285-22.809c-5.466,3.486-12.06,5.98-16.173,10.657
		C426.481,453.146,418.113,465.072,409.26,476.571z M606.828,562.281c2.041,2.038,4.082,4.076,6.123,6.114
		c13.517-10.916,27.579-21.254,40.188-33.134c3.365-3.17,2.285-11.058,3.246-16.78c-5.281,1.211-12.398,0.672-15.518,3.945
		C628.828,535.05,618.066,548.893,606.828,562.281z M410.707,424.066c38.771-17.73,56.202-42.96,48.38-61.831
		C444.54,380.828,429.612,399.906,410.707,424.066z M361.457,352.195c-7.057,6.648-12.804,11.723-12.624,11.942
		c6.343,7.742,13.242,15.027,20.063,22.378c3.31-5.051,10.377-11.484,9.134-14.859C375.571,364.977,368.52,359.99,361.457,352.195z
		 M408.019,591.067c2.145,2.057,4.289,4.115,6.434,6.173c13.259-12.595,26.519-25.189,39.778-37.784
		c-2.853-2.798-5.706-5.597-8.559-8.395C433.121,564.396,420.57,577.732,408.019,591.067z M623.643,644.322
		c2.887,2.774,5.775,5.549,8.662,8.323c8.172-9.225,16.548-18.288,24.231-27.903c0.861-1.077-2.206-5.292-3.451-8.052
		C643.271,625.901,633.457,635.111,623.643,644.322z M628.636,512.484c-2.411-1.92-4.822-3.84-7.233-5.76
		c-5.765,7.245-11.529,14.489-17.294,21.734c2.43,1.942,4.86,3.885,7.291,5.827C617.145,527.018,622.891,519.751,628.636,512.484z
		 M641.958,594.426c6.541-8.522,11.151-13.682,14.49-19.565c0.699-1.232-3.282-5.121-5.107-7.786
		c-4.932,5.385-10.111,10.58-14.541,16.35C636.099,584.34,638.779,587.851,641.958,594.426z M637.325,681.428
		c3.804-3.364,6.837-6.045,9.869-8.726c-3.306-2.191-7.049-6.613-9.818-6.07c-4.62,0.906-8.618,4.989-12.878,7.735
		C628.234,676.423,631.97,678.479,637.325,681.428z"/>
</g>
<g id="Layer_1">
</g>
</svg>
