<?xml version="1.0" encoding="iso-8859-1"?>
<!-- Generator: Adobe Illustrator 25.2.0, SVG Export Plug-In . SVG Version: 6.00 Build 0)  -->
<svg version="1.1" xmlns="http://www.w3.org/2000/svg" xmlns:xlink="http://www.w3.org/1999/xlink" x="0px" y="0px"
	 viewBox="0 0 1000 1000" style="enable-background:new 0 0 1000 1000;" xml:space="preserve">
<g id="leftParenthesis">
	<path d="M323.871,483.117c-4.449-87.259,18.53-178.247,62.545-257.448c31.96-57.508,94.655-97.173,139.015-148.774
		c42.082-48.952,90.66-15.688,136.314-17.833c4.907-0.231,11.716,10.999,14.87,18.137c1.109,2.51-5.127,10.845-9.65,12.886
		c-110.775,50-175.18,134.814-189.551,255.525c-17.045,143.163,11.633,276.711,90.897,398.009
		c14.957,22.888,34.198,42.943,50.67,64.899c4.517,6.021,10.091,15.694,8.075,20.983c-2.239,5.875-12.118,10.103-19.5,12.559
		c-93.93,31.256-144.741-35.921-189.815-94.411c-48.698-63.193-81.953-138.101-93.62-219.523
		C322.329,515.62,323.871,502.635,323.871,483.117z M386.614,547.382c0.042,4.476,0.082,8.953,0.124,13.429
		c24.41,0,48.821,0,73.231,0c-1.43-16.881-2.472-33.807-4.426-50.626c-1.28-11.016-3.868-21.881-5.888-32.81
		c-6.87-37.162-34.478-56.061-71.152-46.248c-9.208,2.463-16.297,12.843-24.36,19.585c7.095,3.57,13.851,8.49,21.368,10.374
		c9.875,2.475,20.87,0.99,30.403,4.16c7.811,2.597,14.185,9.512,21.196,14.513c-5.051,5.545-9.803,11.41-15.269,16.511
		c-3.14,2.931-7.438,4.622-11.215,6.872c3.003,3.386,5.427,7.749,9.135,9.945c6.781,4.017,14.624,6.233,21.442,10.2
		c4.707,2.739,8.435,7.159,12.6,10.828c-5.446,3.613-10.529,9.42-16.412,10.395C414.008,546.727,400.232,546.572,386.614,547.382z
		 M446.874,364.941c10.653-26.015-4.562-32.474-27.741-35.403c-6.423-0.811-11.588-11.016-17.492-16.745
		c-3.014-2.925-6.265-7.462-9.626-7.664c-3.578-0.215-9.27,3.041-10.63,6.234c-1.478,3.472-0.59,10.469,2.015,12.654
		c5.972,5.009,14.263,7.2,20.433,12.039c10.099,7.921,19.259,17.038,28.815,25.65c-11.379-0.195-22.929-1.691-34.089-0.223
		c-11.421,1.503-22.46,5.91-33.666,9.047c9.371,5.998,18.427,12.594,28.237,17.759c5.476,2.884,13.048,2.011,18.23,5.188
		C446.79,415.205,450.2,394.9,446.874,364.941z M447.301,244.74c-2.913-2.222-5.827-4.444-8.74-6.665
		c-6.612,1.135-13.223,2.269-19.835,3.404c8.365,8.89,15.526,19.759,25.579,25.875c5.421,3.298,20.12,1.301,23.108-3.25
		c8.588-13.073,13.931-28.458,19.156-43.421c1.191-3.41-2.042-10.542-5.377-12.797c-4.076-2.756-10.407-2.179-15.763-3.044
		c-0.464,4.252,0.231,9.111-1.616,12.639C458.894,226.874,452.88,235.693,447.301,244.74z M514.262,798.593
		c13.655-6.089,26.615-11.868,39.574-17.648c-6.929-8.549-13.857-17.098-20.786-25.647c-10.662,11.106-21.325,22.212-31.988,33.317
		C504.733,791.39,508.403,794.164,514.262,798.593z M435.824,668.132c0.374,2.476,0.748,4.952,1.122,7.428
		c14.922,0,29.91,0.776,44.726-0.479c4.371-0.37,12.324-8.266,11.706-9.674c-4.17-9.502-10.201-18.188-15.63-27.138
		C463.773,648.222,449.799,658.177,435.824,668.132z M434.205,580.55c-23.077,0-38.554-1.05-53.73,0.627
		c-4.672,0.516-8.522,8.48-12.749,13.033c6.681,4.372,15.176,13.803,19.707,12.179C401.591,601.311,414.251,592.056,434.205,580.55z
		 M445.951,638.122c-8.265-2.376-12.592-5.231-15.5-4.175c-12.203,4.429-23.981,10.029-35.914,15.2
		c5.185,5.984,13.985,17.714,15.001,17.075C421.18,658.895,431.639,649.687,445.951,638.122z M525.589,725.744
		c-10.637-8.014-17.396-15.284-19.289-14.184c-13.734,7.985-26.487,17.658-39.549,26.798c3.015,2.303,6.889,7.176,8.906,6.5
		C490.599,739.857,505.17,733.751,525.589,725.744z M467.904,684.261c-18.763,11.735-29.339,18.35-39.916,24.965
		c5.315,6.033,10.63,12.065,15.945,18.097c9.581-9.081,19.701-17.698,28.292-27.636
		C473.945,697.698,469.839,690.673,467.904,684.261z M414.755,604.982c0.208,2.011,0.416,4.022,0.624,6.033
		c20.275,2.679,40.549,5.358,63.07,8.334c-2.698-5.633-6.322-20.002-10.168-20.062C450.473,599.01,432.603,602.708,414.755,604.982z
		 M405.301,277.447c-0.486,1.833-0.971,3.666-1.456,5.499c12.682,7.377,25.013,15.52,38.284,21.612
		c3.457,1.587,11.009-2.096,14.386-5.581c1.603-1.655-1.344-11.923-3.666-12.5C437.215,282.6,421.196,280.275,405.301,277.447z
		 M604.174,92.794c-10.645-5.203-15.906-10.1-19.907-9.226c-7.41,1.618-14.083,6.612-21.062,10.2
		c4.579,4.472,9.471,12.878,13.666,12.543C584.16,105.729,591.017,99.746,604.174,92.794z M409.992,415.357
		c-9.488-4.823-12.756-7.673-16.297-8.065c-11.403-1.264-22.904-1.779-34.376-1.956c-0.724-0.011-1.533,5.338-2.301,8.193
		c11.283,1.174,22.551,2.533,33.856,3.42C394.719,417.252,398.657,416.362,409.992,415.357z M368.236,514.671
		c-6.015,6.395-11.963,10.386-14.125,15.869c-1.364,3.46,2.933,9.151,4.69,13.841c8.424-5.541,16.847-11.081,25.271-16.622
		C379.936,524.34,375.801,520.923,368.236,514.671z"/>
</g>
<g id="Layer_1">
</g>
</svg>
