<?xml version="1.0" encoding="iso-8859-1"?>
<!-- Generator: Adobe Illustrator 25.2.0, SVG Export Plug-In . SVG Version: 6.00 Build 0)  -->
<svg version="1.1" xmlns="http://www.w3.org/2000/svg" xmlns:xlink="http://www.w3.org/1999/xlink" x="0px" y="0px"
	 viewBox="0 0 1000 1000" style="enable-background:new 0 0 1000 1000;" xml:space="preserve">
<g id="leftSquareBracket">
	<path d="M498.309,32.299c57.926,2.999,115.967,4.801,173.641,10.392c7.915,0.767,14.004,20.369,20.938,31.252
		c-8.211,1.461-16.454,4.338-24.628,4.153c-51.765-1.171-103.514-3.7-155.269-3.711c-5.935-0.001-16.879,12.715-17.025,19.711
		c-1.27,61.064,0.254,122.184-0.891,183.254c-0.561,29.918-5.049,59.76-7.701,89.642c-11.076,124.817-21.349,249.713-33.686,374.405
		c-3.532,35.695,5.21,48.846,43.887,46.362c56.687-3.642,113.822,0.284,170.746-0.517c27.375-0.385,26.667,17.754,23.924,34.73
		c-0.613,3.795-17.812,6.82-27.419,6.949c-72.393,0.969-144.798,1.002-217.198,1.588c-38.027,0.307-76.189,3.28-114.016,0.828
		c-18.877-1.224-40.828-8.95-16.093-35.99c7.701-8.419,10.445-23.499,11.219-35.796c6.677-106.09,14.654-212.176,17.78-318.394
		c3.539-120.231,3.33-240.602,2.793-360.903c-0.135-30.136,6.58-45.765,39.932-44.119c36.257,1.788,72.67,0.405,109.015,0.405
		C498.276,35.125,498.292,33.712,498.309,32.299z M440.686,605.77c-0.537-1.379-2.295-5.891-4.052-10.403
		c-4.333,2.067-10.437,2.955-12.721,6.386c-19.372,29.108-38.2,58.584-56.692,88.261c-1.801,2.891-0.244,7.875-0.245,11.887
		c3.999-0.288,8.399,0.415,11.933-1.019C407.96,689.086,441.481,639.152,440.686,605.77z M453.217,526.356
		c-4.633-14.896-6.315-20.304-7.997-25.711c-5.198,2.197-12.616,2.914-15.229,6.834c-15.613,23.42-30.32,47.459-44.721,71.654
		c-1.659,2.787-0.492,8.315,1.227,11.597c0.832,1.586,7.664,2.43,8.93,1.031C415.839,569.205,435.791,546.233,453.217,526.356z
		 M380.608,146.248c10.723,12.781,17.935,22.185,18.427,21.846c19.094-13.166,37.574-27.223,56.134-41.162
		c-7.548-5.152-17.997-16.376-22.139-14.396C415.748,120.792,400.363,133.017,380.608,146.248z M397.842,374.39
		c-0.446-0.808-2.959-5.364-5.472-9.92c-3.812,5.006-10.463,9.754-10.947,15.063c-2.112,23.197-2.843,46.55-3.154,69.859
		c-0.092,6.897,2.832,13.834,4.374,20.753c5.066-5.487,14.122-10.71,14.506-16.506C398.78,428.976,397.842,404.143,397.842,374.39z
		 M446.378,240.501c-31.111,23.728-69.73,29.801-60.756,74.773c1.052,5.272,3.915,10.182,5.939,15.261
		c4.316-3.768,10.06-6.734,12.705-11.441C417.228,296.025,429.364,272.493,446.378,240.501z M375.521,789.67
		c5.808-22.968,10.654-42.133,15.5-61.298c-3.571-0.085-10.04-0.996-10.285-0.133c-5.029,17.646-9.36,35.493-13.72,53.326
		C366.92,781.955,368.11,782.66,375.521,789.67z M453.363,437.279c-3.655-2.809-7.311-5.618-10.966-8.426
		c-10.317,13.239-20.634,26.479-30.951,39.718c3.071,2.496,6.142,4.992,9.213,7.488C431.56,463.132,442.461,450.205,453.363,437.279
		z M423.493,756.612c-3.892-1.526-7.785-3.052-11.677-4.578c-4.306,11.728-8.613,23.456-12.919,35.184
		c3.87,0.853,10.785,3.127,11.15,2.343C415.057,778.825,419.164,767.667,423.493,756.612z M420.688,80.589
		c-1.142-3.494-2.284-6.988-3.426-10.481c-10.204,2.696-20.511,5.113-30.371,8.743c-0.627,0.231,2.217,9.887,3.446,15.158
		C400.454,89.536,410.571,85.062,420.688,80.589z"/>
</g>
<g id="Layer_1">
</g>
</svg>
