<?xml version="1.0" encoding="iso-8859-1"?>
<!-- Generator: Adobe Illustrator 25.2.0, SVG Export Plug-In . SVG Version: 6.00 Build 0)  -->
<svg version="1.1" xmlns="http://www.w3.org/2000/svg" xmlns:xlink="http://www.w3.org/1999/xlink" x="0px" y="0px"
	 viewBox="0 0 1000 1000" style="enable-background:new 0 0 1000 1000;" xml:space="preserve">
<g id="quotationMark">
	<path d="M383.371,54.615c27.367-1.426,54.767-2.434,82.091-4.463c23.462-1.743,34.411,11.692,31.339,31.599
		c-4.208,27.277-13.146,53.931-21.397,80.435c-4.198,13.484-11.152,26.139-17.225,38.995c-2.108,4.462-4.364,9.879-8.178,12.342
		c-25.142,16.236-77.671-2.346-87.75-30.378c-9.684-26.934-19.282-53.911-29.661-80.58c-12.243-31.46-0.79-48.432,33.145-47.986
		C371.613,54.656,377.492,54.59,383.371,54.615z M426.845,100.302c8.178-1.843,13.324-3.003,18.47-4.163
		c-4.669,12.984-9.337,25.967-14.006,38.951c17.601-12.361,31.562-28.16,44.132-44.998c1.619-2.168-3.261-13.578-6.34-14.145
		C450.056,72.434,433.464,75.681,426.845,100.302z M347.747,87.067c5.913,10.377,9.865,17.313,13.818,24.25
		c4.812-7.01,11.062-13.55,13.604-21.304c0.813-2.481-7.596-9.843-12.934-11.74C359.344,77.246,354.034,83.028,347.747,87.067z
		 M430.357,171.299c-17.09,0-27.147-0.496-37.098,0.312c-2.872,0.233-5.44,4.213-8.147,6.475c7.29,4.37,14.538,11.985,21.885,12.081
		C412.84,190.244,418.805,181.134,430.357,171.299z M451.185,144.225c-8.529,13.449-15.677,24.722-22.826,35.995
		c1.897,1.137,5.403,3.346,5.461,3.258c7.202-10.809,14.16-21.781,21.05-32.796C455.031,150.424,454.284,149.598,451.185,144.225z"
		/>
	<path d="M515.176,121.436c3.381-55.574,7.253-58.336,51.366-58.306c25.307,0.017,50.602-4.021,75.93-4.404
		c22.374-0.339,34.84,9.878,27.682,34.427c-9.274,31.803-16.731,64.32-28.609,95.127c-11.133,28.873-37.549,35.501-66.11,34.402
		c-26.015-1.001-42.005-12.319-46.201-40.106C525.571,158.33,518.303,134.628,515.176,121.436z M603.796,77.848
		c-12.531,15.075-27.053,32.396-41.24,49.987c-0.838,1.039,1.016,4.248,1.617,6.448c3.488-1.064,7.721-1.213,10.341-3.345
		c14.479-11.781,28.721-23.869,42.671-36.272c3.379-3.004,5.351-7.592,7.97-11.45C620.967,82.164,616.779,81.111,603.796,77.848z
		 M543.701,169.237c9.66,10.975,15.755,19.139,23.27,25.671c2.213,1.924,8.571-0.381,12.703-1.738c0.68-0.223-0.276-5.582-0.56-8.56
		c-0.958-10.065-1.547-20.192-3.143-30.156c-0.606-3.781-3.56-7.186-5.443-10.762C562.683,151.162,554.838,158.632,543.701,169.237z
		 M652.885,91.75c-3.728-3.115-7.456-6.229-11.184-9.344c-14.355,18.786-28.711,37.571-43.065,56.357
		c2.286,1.775,4.573,3.549,6.859,5.323C621.291,126.641,637.088,109.195,652.885,91.75z M553.656,78.941
		c-7.601,11.17-14.849,17.828-16.583,25.702c-1.262,5.73,4.755,13.064,7.527,19.682c6.514-10.526,13.313-20.899,19.159-31.783
		C564.448,91.259,559.901,87.164,553.656,78.941z M633.118,166.553c-6.05-7.098-8.437-9.898-10.824-12.698
		c-7.631,10.827-15.312,21.622-22.508,32.731c-0.131,0.203,7.685,6.435,8.139,6.004C616.271,184.67,624.058,176.162,633.118,166.553
		z"/>
</g>
<g id="Layer_1">
</g>
</svg>
