<?xml version="1.0" encoding="iso-8859-1"?>
<!-- Generator: Adobe Illustrator 25.2.0, SVG Export Plug-In . SVG Version: 6.00 Build 0)  -->
<svg version="1.1" xmlns="http://www.w3.org/2000/svg" xmlns:xlink="http://www.w3.org/1999/xlink" x="0px" y="0px"
	 viewBox="0 0 1000 1000" style="enable-background:new 0 0 1000 1000;" xml:space="preserve">
<g id="semicolon">
	<path d="M450.577,384.535c0.211-27.73,22.083-45.224,56.844-45.466c22.392-0.156,41.274,20.206,41.804,45.082
		c0.38,17.83-37.3,47.264-59.879,46.774C468.968,430.484,450.396,408.26,450.577,384.535z M498.328,363.123
		c0.724,0.459,1.448,0.917,2.172,1.376c-4.719,13.059-9.626,26.056-13.977,39.236c-0.743,2.252,0.896,5.29,1.434,7.965
		c2.785-1.057,7.14-1.34,8.105-3.296c6.903-13.988,13.373-28.213,19.238-42.664c0.776-1.912-2.337-7.764-4.176-8.021
		c-28.446-3.978-44.456,13.083-38.471,41.836C481.485,387.022,489.907,375.072,498.328,363.123z M514.237,394.186
		c2.397,1.236,4.794,2.472,7.191,3.708c2.984-6.555,6.133-13.047,8.715-19.757c0.281-0.729-2.712-2.718-4.187-4.123
		C522.05,380.738,518.144,387.462,514.237,394.186z"/>
	<path d="M502.656,609.579c34.348-0.673,60.144,42.613,41.496,79.747c-12.234,24.362-25.443,49.772-53.288,60.991
		c-4.096,1.65-9.852-0.819-14.84-1.383c2.127-4.399,3.526-9.39,6.527-13.077c7.116-8.742,15.776-16.305,22.298-25.427
		c4.667-6.528,1.139-9.439-6.941-9.482c-30.018-0.16-49.731-20.323-48.231-48.478C450.809,631.224,478.514,608.794,502.656,609.579z
		 M502.751,684.01c15.906-2.681,32.134-28.545,28.041-39.316c-0.46-1.212-1.901-2.975-2.739-2.897c-1.175,0.11-2.573,1.502-3.25,2.7
		C517.783,656.903,510.889,669.38,502.751,684.01z M513.649,631.349c-4.962,9.56-10.014,19.14-14.896,28.805
		c-1.22,2.416-1.896,5.108-2.821,7.673c2.508-1.679,5.968-2.796,7.352-5.138c5-8.465,9.475-17.258,13.747-26.121
		c1.099-2.28,1.69-7.207,0.875-7.611c-4.553-2.256-9.589-3.573-14.548-4.874c-0.262-0.069-1.328,2.922-2.02,4.489
		C505.044,629.408,508.751,630.244,513.649,631.349z M494.367,625.897c-22.451,5.823-30.817,17.584-25.802,32.527
		C476.621,648.268,484.206,638.705,494.367,625.897z M475.401,681.409c8.78-13.993,14.865-23.405,20.559-33.047
		c0.948-1.605,0.193-4.217,0.224-6.363c-2.172,0.992-5.158,1.395-6.376,3.077c-5.531,7.643-10.799,15.507-15.589,23.63
		C473.197,670.439,474.564,673.581,475.401,681.409z"/>
</g>
<g id="Layer_1">
</g>
</svg>
