<?xml version="1.0" encoding="iso-8859-1"?>
<!-- Generator: Adobe Illustrator 25.2.0, SVG Export Plug-In . SVG Version: 6.00 Build 0)  -->
<svg version="1.1" xmlns="http://www.w3.org/2000/svg" xmlns:xlink="http://www.w3.org/1999/xlink" x="0px" y="0px"
	 viewBox="0 0 1000 1000" style="enable-background:new 0 0 1000 1000;" xml:space="preserve">
<g id="ampersand">
	<path d="M216.126,556.955c3.001-62.376,9.125-123.296,72.385-158.717c1.916-1.073-2.413-23.286-7.093-24.678
		c-91.706-27.293-90.63-185.849-46.749-239.727c59.374-72.902,131.504-97.801,222.233-76.477
		c67.251,15.807,119.987,73.123,127.067,141.859c5.957,57.831-37.481,126.073-97.562,151.947
		c-23.819,10.258-48.44,18.64-72.439,28.502c-5.632,2.314-10.22,7.166-15.289,10.85c3.738,3.789,6.838,8.747,11.312,11.19
		c55.116,30.09,93.873,77.856,133.686,124.224c17.334,20.188,32.542,32.925,51.431,2.778c6.009-9.589,12.065-19.148,18.099-28.721
		c-9.678-2.192-19.294-4.727-29.046-6.519c-52.379-9.622-73.855-70.263-46.59-127.282c12.932-27.044,31.256-44.005,61.627-46.5
		c64.087-5.264,90.799,46.028,76.39,101.009c-12.999,49.597-48.098,93.306-72.41,140.152c-3.112,5.997-3.162,18.199,0.814,22.536
		c34.672,37.813,78.451,59.625,128.189,71.508c18.542,4.43,36.045,13.676,53.5,21.841c3.974,1.859,5.787,8.337,8.595,12.69
		c-4.814,2.692-9.916,8.13-14.397,7.658c-52.916-5.565-106.508-8.44-158.294-19.586c-30.498-6.565-57.674-27.623-87.261-39.967
		c-8.279-3.454-21.796-2.437-29.544,2.18c-70.339,41.915-140.82,80.061-227.013,48.872c-24.421-8.836-59.555-65.446-61.568-103.44
		C215.703,575.769,216.126,566.351,216.126,556.955z M296.307,269.706c1.472,0.481,2.944,0.962,4.417,1.443
		c2.865,24.825,4.176,49.984,9.416,74.297c1.906,8.847,14.715,23.231,19.917,22.171c28.427-5.793,58.125-11.626,83.463-24.921
		c44.184-23.184,66.471-66.357,65.247-113.602c-1.575-60.818-25.361-113.919-87.769-139.442
		c-30.049-12.289-50.536-5.942-59.257,25.168C317.461,165.756,307.873,218.008,296.307,269.706z M295.663,535.191
		c12.011,39.932,20.892,70.558,30.47,100.965c8.292,26.325,28.837,39.829,53.259,30.354c39.047-15.149,75.763-36.386,113.033-55.872
		c2.63-1.375,4.109-10.897,2.121-14.279c-36.233-61.663-73.468-122.815-133.179-165.293c-5.208-3.705-22.823-0.841-24.764,3.452
		C320.948,469.156,307.666,504.868,295.663,535.191z M300.772,124.413c-0.25-0.597-1.68-4.012-3.11-7.426
		c-3.13,2.862-6.507,5.501-9.343,8.63c-7.773,8.579-14.932,17.748-23.061,25.962c-8.53,8.618-18.269,16.048-26.669,24.777
		c-2.277,2.366-2.15,7.58-1.948,11.425c0.052,0.972,4.746,2.661,7.128,2.398C266.316,187.691,298.274,152.348,300.772,124.413z
		 M588.972,430.486c1.386,2.05,2.771,4.101,4.156,6.151c20.569-12.362,41.852-23.762,61.021-38.009
		c3.286-2.442-2.26-17.065-4.349-25.914c-0.181-0.771-6.364-1.676-7.531-0.431C624.285,391.48,606.672,411.023,588.972,430.486z
		 M509.194,261.179c22.144-19.393,38.292-32.764,53.181-47.414c2.2-2.165-1.557-10.383-2.558-15.8
		c-5.146,1.179-11.854,0.705-15.16,3.83c-12.422,11.742-24.14,24.318-35.132,37.412
		C507.242,241.927,509.194,248.201,509.194,261.179z M440.145,80.577c14.021,20.144,20.916,33.104,30.87,42.983
		c4.559,4.525,15.243,4.333,22.941,3.711c4.84-0.39,9.294-5.546,13.921-8.564c-5.368-5.418-9.85-12.52-16.288-15.906
		C477.933,95.618,463.259,90.37,440.145,80.577z M501.514,170.609c13.302-10.215,24.296-18.658,35.291-27.1
		c-5.494-3.787-13.092-12.002-16.109-10.57c-11.213,5.324-20.919,13.821-31.191,21.127
		C492.864,158.693,496.222,163.32,501.514,170.609z M479.765,312.32c4.4,3.199,8.8,6.398,13.2,9.596
		c9.697-16.13,19.395-32.261,29.092-48.391c-2.842-1.964-5.685-3.928-8.527-5.892C502.275,282.529,491.02,297.425,479.765,312.32z
		 M291.251,595.204c-1.111-5.706-2.223-11.412-3.334-17.118c-4.625-1.19-11.91-4.798-13.41-3.148
		c-6.275,6.905-11.127,15.22-15.596,23.505c-0.563,1.043,5.048,7.576,6.412,7.148C274.179,602.81,282.653,598.807,291.251,595.204z
		 M280.096,199.613c-1.668-2.514-3.336-5.028-5.004-7.543c-14.273,9.258-28.545,18.517-42.818,27.775
		c1.874,2.824,3.748,5.648,5.623,8.472C251.963,218.749,266.03,209.181,280.096,199.613z M584.832,419.803
		c-1.37-1.97-2.739-3.94-4.109-5.909c-9.831,5.323-19.662,10.645-29.493,15.968c3.173,3.787,6.347,7.573,9.52,11.36
		C568.777,434.082,576.805,426.942,584.832,419.803z M288.143,481.723c-2.714-2.054-5.428-4.108-8.142-6.162
		c-6.682,9.13-13.365,18.261-20.048,27.391c2.753,1.299,7.404,4.28,7.972,3.639C275.008,498.608,281.499,490.098,288.143,481.723z
		 M565.848,590.09c-6.969,7.53-12.711,12.418-16.151,18.59c-0.669,1.199,7.63,7.397,11.793,11.289
		c3.746-6.23,8.06-12.221,10.862-18.85C573.104,599.342,569.248,595.618,565.848,590.09z M616.499,462.53
		c2.55,1.729,5.1,3.458,7.65,5.187c6.312-9.42,12.624-18.839,18.937-28.259c-2.352-1.584-4.703-3.168-7.055-4.753
		C629.52,443.98,623.01,453.255,616.499,462.53z M302.431,635.532c-5.659-4.22-8.954-6.678-12.25-9.136
		c-2.523,4.997-5.98,9.79-7.143,15.085c-0.516,2.349,3.603,5.716,5.618,8.621C292.554,645.98,296.452,641.857,302.431,635.532z
		 M272.043,446.515c1.451,1.9,2.903,3.799,4.354,5.699c11.452-8.45,22.905-16.899,34.357-25.349
		c-1.724-2.286-3.449-4.572-5.173-6.858C294.401,428.842,283.222,437.679,272.043,446.515z"/>
</g>
<g id="Layer_1">
</g>
</svg>
