<?xml version="1.0" encoding="iso-8859-1"?>
<!-- Generator: Adobe Illustrator 25.2.0, SVG Export Plug-In . SVG Version: 6.00 Build 0)  -->
<svg version="1.1" xmlns="http://www.w3.org/2000/svg" xmlns:xlink="http://www.w3.org/1999/xlink" x="0px" y="0px"
	 viewBox="0 0 1000 1000" style="enable-background:new 0 0 1000 1000;" xml:space="preserve">
<g id="fullStop">
	<path d="M543.874,658.415c-0.188,24.666-19.643,40.227-50.563,40.442c-19.918,0.138-36.713-17.974-37.185-40.1
		c-0.338-15.86,33.179-42.042,53.262-41.606C527.515,617.544,544.035,637.312,543.874,658.415z M501.4,677.462
		c-0.644-0.408-1.288-0.816-1.932-1.224c4.198-11.616,8.563-23.177,12.432-34.901c0.661-2.003-0.797-4.706-1.276-7.085
		c-2.478,0.94-6.351,1.192-7.209,2.932c-6.14,12.443-11.896,25.095-17.112,37.95c-0.69,1.7,2.079,6.906,3.715,7.135
		c25.302,3.538,39.543-11.637,34.22-37.214C516.381,656.203,508.89,666.833,501.4,677.462z M487.248,649.831
		c-2.132-1.099-4.265-2.199-6.397-3.298c-2.654,5.831-5.455,11.606-7.752,17.574c-0.25,0.649,2.413,2.418,3.725,3.667
		C480.299,661.794,483.773,655.812,487.248,649.831z"/>
</g>
<g id="Layer_1">
</g>
</svg>
