<?xml version="1.0" encoding="iso-8859-1"?>
<!-- Generator: Adobe Illustrator 25.2.0, SVG Export Plug-In . SVG Version: 6.00 Build 0)  -->
<svg version="1.1" xmlns="http://www.w3.org/2000/svg" xmlns:xlink="http://www.w3.org/1999/xlink" x="0px" y="0px"
	 viewBox="0 0 1000 1000" style="enable-background:new 0 0 1000 1000;" xml:space="preserve">
<g id="latinCapitalLetterH">
	<path d="M686.738,55.312c32.839,0,65.679-0.162,98.516,0.057c21.609,0.145,29.813,13.524,17.525,29.254
		c-48.328,61.864-48.221,133.019-48.619,206.409c-0.577,106.434-7.848,212.818-10.341,319.269
		c-0.343,14.62,9.703,29.785,16.123,44.17c5.725,12.83,14.679,24.432,18.802,37.64c1.31,4.197-8.201,16.968-12.963,17.078
		c-62.186,1.443-124.419,1.972-186.61,0.935c-10.394-0.173-20.646-8.863-30.964-13.618c8.507-4.725,17.484-8.796,25.327-14.442
		c4.073-2.932,8.542-8.531,8.762-13.12c3.983-83.091,12.715-166.518,8.008-249.166c-1.709-30.025,13.608-56.279,6.075-84.07
		c-2.466-9.097-13.966-22.566-21.168-22.463c-50.364,0.725-100.714,4.102-150.968,7.943c-4.395,0.336-11.426,10.003-11.582,15.495
		c-2.989,105.591-5.762,211.202-6.354,316.821c-0.052,9.275,15.235,18.714,23.57,27.921c3.52,3.888,7.486,7.372,11.25,11.039
		c-3.941,3.656-7.418,8.121-11.961,10.725c-3.976,2.279-9.1,3.105-13.805,3.48c-61.343,4.892-122.659,10.39-184.091,13.691
		c-13.035,0.7-26.509-6.798-39.782-10.52c3.857-10.736,8.257-21.312,11.474-32.236c12.48-42.377,31.916-84.277,35.369-127.427
		c8.274-103.382,9.205-207.363,12.245-311.127c0.233-7.938-6.78-15.907-9.428-24.18c-1.549-4.838-3.289-11.447-1.254-15.32
		c22.775-43.335,20.317-59.565-13.082-97.462c-11.002-12.483-19.234-27.406-28.732-41.213c17.28-2.259,34.509-5.873,51.851-6.532
		C308.961,52.1,368.031,50.192,427.093,50c9.712-0.032,19.455,9.218,29.184,14.178c-8.464,5.773-17.445,10.939-25.21,17.534
		c-5.103,4.334-11.813,10.577-12.071,16.228c-2.527,55.24-3.396,110.555-5.734,165.806c-0.909,21.469,7.581,28.2,28.521,26.275
		c47.759-4.389,95.722-6.618,143.434-11.4c5.385-0.54,13.587-11.64,13.886-18.145c2.313-50.391,3.52-100.857,3.531-151.299
		c0.002-6.207-8.291-13.311-14.131-18.407c-8.134-7.098-17.579-12.695-26.462-18.934c10.327-4.969,20.43-13.569,31.023-14.223
		c31.118-1.921,62.432-0.685,93.669-0.685C686.734,56.389,686.736,55.85,686.738,55.312z M305.261,78.289
		c0.113,4.166,0.227,8.331,0.34,12.497c11.3-1.435,22.611-4.077,33.897-3.974c11.89,0.108,23.756,2.839,35.633,4.424
		c-7.633,9.228-14.219,19.648-23.105,27.448c-22.52,19.771-46.071,38.367-72.595,60.223c47.108,4.84,69.201-48.338,115.288-36.72
		c0-12.679,0.776-30.331-0.454-47.842c-0.389-5.545-5.912-15.17-9.46-15.345C358.344,77.691,331.788,78.289,305.261,78.289z
		 M650.724,338.656c69.582-22.692,89.917-53.314,84.641-119.653c-0.335-4.213-9.649-11.601-9.936-11.374
		c-17.266,13.645-34.02,27.934-50.824,42.163c12.022,3.891,19.499,1.466,27.162,0.042c7.515-1.396,15.218-1.775,22.839-2.6
		c-3.46,7.991-5.211,17.489-10.687,23.705C693.516,294.095,671.89,316.173,650.724,338.656z M612.124,596.818
		c3.176,3.286,6.352,6.573,9.528,9.859c24.88-18.285,49.61-36.781,74.798-54.632c3.892-2.758,9.843-3.139,14.919-3.487
		c2.838-0.194,5.835,1.941,8.76,3.027c-0.059-14.188,0.082-28.386-0.612-42.543c-0.048-0.989-7.965-3.53-9.404-2.23
		C677.214,536.552,644.706,566.726,612.124,596.818z M345.089,452.585c14.349,6.707,21.602,10.097,28.854,13.487
		c-7.419,7.745-13.593,17.633-22.503,22.815c-22.805,13.263-47.258,23.691-70.079,36.929c-6.166,3.577-8.864,13.132-13.153,19.943
		c7.363-1.422,15.648-1.147,21.931-4.558c28.548-15.499,58.428-29.617,83.745-49.446c9.519-7.457,8.428-28.951,11.159-44.228
		c0.66-3.689-2.709-8.099-4.225-12.177C370.093,440.524,359.367,445.698,345.089,452.585z M304.29,421.636
		c1.679,1.899,3.357,3.798,5.036,5.698c17.62-8.177,34.622-18.339,53.006-24.058c26.633-8.286,29.874-25.868,23.557-48.5
		c-0.791-2.836-10.282-6.58-11.354-5.509C350.748,373.015,327.577,397.384,304.29,421.636z M681.131,685.719
		c10.123-8.58,22.954-19.455,35.785-30.331c-11.069-6.87-25.859-21.999-32.489-19.013c-17.716,7.979-31.928,23.737-47.533,36.404
		C648.32,676.121,659.745,679.463,681.131,685.719z M648.254,499.506c3.913,4.41,7.827,8.82,11.74,13.231
		c18.498-13.911,37.688-27.04,54.977-42.32c3.976-3.515,1.426-14.414,1.879-21.914c-5.256,2.589-11.149,4.366-15.655,7.91
		C683.312,470.477,665.863,485.094,648.254,499.506z M322.47,475.327c-7.061-9.158-12.638-16.902-12.936-16.704
		c-14.898,9.9-29.644,20.117-43.425,31.49c-1.559,1.287,2.595,9.498,4.1,14.499C287.148,495.12,304.087,485.628,322.47,475.327z
		 M399.849,220.277c-7.214-11.686-10.083-16.332-12.952-20.979c-13.204,12.394-26.423,24.773-39.302,37.495
		c-0.081,0.08,5.838,7.607,6.785,7.151C368.795,237.006,382.848,229.314,399.849,220.277z M315.727,676.901
		c38.121-5.435,62.431-30.956,60.631-58.941C357.227,636.558,338.26,654.996,315.727,676.901z M677.087,408.213
		c-1.179-1.858-2.358-3.716-3.537-5.573c-16.189,10.558-32.943,20.385-48.187,32.166c-4.027,3.112-3.399,12.248-4.908,18.618
		c5.06-2.354,10.961-3.733,15.027-7.24C649.692,433.923,663.269,420.928,677.087,408.213z M620.564,218.09
		c1.833,1.23,3.667,2.46,5.501,3.691c18.391-15.119,36.781-30.238,55.172-45.357c-2.129-2.131-4.258-4.262-6.386-6.393
		C656.756,186.051,638.66,202.071,620.564,218.09z M267.672,276.324c3.907,3.431,7.814,6.862,11.721,10.293
		c13.466-14.389,26.932-28.777,40.399-43.166c-2.714-2.478-5.428-4.956-8.143-7.434C296.99,249.453,282.331,262.888,267.672,276.324
		z M707.009,126.27c3.772,1.84,7.545,3.681,11.317,5.521c5.475-11.731,11.315-23.319,16.006-35.355
		c0.659-1.69-3.907-6.22-6.895-8.092c-1.052-0.659-5.867,2.152-6.837,4.327C715.686,103.699,711.47,115.039,707.009,126.27z
		 M329.56,289.871c-0.968-1.259-1.936-2.518-2.904-3.777c-16.535,11.262-33.295,22.218-49.395,34.07
		c-2.847,2.096-2.945,7.927-4.312,12.033c4.598-1.08,10.382-0.761,13.591-3.48C301.274,316.233,315.288,302.899,329.56,289.871z
		 M325.374,561.779c1.906,2.159,3.813,4.317,5.72,6.476c16.785-13.085,33.571-26.17,50.356-39.254
		c-2.38-2.877-4.759-5.754-7.139-8.631C357.999,534.173,341.687,547.976,325.374,561.779z M657.39,606.829
		c-1.568-1.46-3.136-2.92-4.704-4.38c-14.049,13.23-28.098,26.459-42.147,39.689c2.61,2.469,5.22,4.938,7.83,7.407
		C631.376,635.306,644.383,621.067,657.39,606.829z M721.109,575.217c-3.007-1.781-6.015-3.562-9.022-5.344
		c-7.52,11.273-15.042,22.546-22.562,33.819c4.917,0.257,12.577,2.613,14.269,0.402
		C710.572,595.239,715.498,584.966,721.109,575.217z M654.738,309.747c-2.534-3.17-5.067-6.34-7.6-9.51
		c-8.586,8.258-17.417,16.292-25.439,25.064c-0.977,1.069,2.388,6.11,3.741,9.31C635.206,326.324,644.972,318.036,654.738,309.747z
		 M302.318,419.129c-2.564-3.566-5.128-7.133-7.692-10.699c-3.575-0.704-8.696-3.244-10.441-1.775
		c-5.693,4.794-10.883,10.625-14.618,17.02c-1.039,1.78,5.18,10.137,5.453,10.007C284.315,429.24,293.294,424.137,302.318,419.129z
		 M384.942,293.389c3.485-8.725,7.2-15.185,8.329-22.07c0.552-3.368-3.706-7.526-5.788-11.326
		c-6.67,6.435-13.34,12.871-20.01,19.306C372.202,283.114,376.931,286.928,384.942,293.389z M307.903,669.379
		c-1.994-2.951-3.988-5.901-5.982-8.852c-9.984,6.706-19.969,13.412-29.953,20.118c1.864,2.84,3.728,5.681,5.593,8.521
		C287.675,682.57,297.789,675.975,307.903,669.379z M263.315,585.826c4.185,4.371,8.371,8.741,12.555,13.112
		c5.208-9.032,10.509-18.015,15.392-27.22c0.289-0.545-3.86-4.35-4.131-4.153C279.052,573.459,271.202,579.667,263.315,585.826z
		 M351.899,587.58c1.688,2.86,3.376,5.719,5.064,8.579c8.02-4.966,16.138-9.794,23.798-15.264c0.432-0.308-2.908-5.9-4.493-9.032
		C368.146,577.101,360.023,582.341,351.899,587.58z M292.9,634.421c-4.501-4.292-9.003-8.584-13.504-12.876
		c-5.939,7.107-12,14.123-17.551,21.521c-0.385,0.513,4.002,5.86,4.517,5.606C275.362,644.232,284.103,639.27,292.9,634.421z"/>
</g>
<g id="Layer_1">
</g>
</svg>
