<?xml version="1.0" encoding="iso-8859-1"?>
<!-- Generator: Adobe Illustrator 25.2.0, SVG Export Plug-In . SVG Version: 6.00 Build 0)  -->
<svg version="1.1" xmlns="http://www.w3.org/2000/svg" xmlns:xlink="http://www.w3.org/1999/xlink" x="0px" y="0px"
	 viewBox="0 0 1000 1000" style="enable-background:new 0 0 1000 1000;" xml:space="preserve">
<g id="latinCapitalLetterD">
	<path d="M265.927,587.107c0-60.867-0.034-121.734,0.008-182.601c0.058-84.654,0.4-169.31,0.108-253.963
		c-0.077-22.384-0.334-45.068-4.278-66.935c-1.046-5.798-16.306-8.701-24.641-13.611c-7.733-4.555-14.935-10.013-22.37-15.074
		c8.084-4.038,16.314-11.84,24.229-11.533c81.485,3.168,163.235,4.504,244.273,12.676c76.165,7.681,144.671,42.288,191.759,101.219
		c42.882,53.667,76.977,115.953,106.299,178.493c47.481,101.273-3.931,270.657-98.209,330.577
		c-28.146,17.889-63.007,30.16-96.106,34.178c-53.179,6.455-107.45,4.021-161.264,5.115c-47.738,0.97-95.598,3.918-143.179,1.522
		c-26.296-1.324-52.177-11.656-78.077-18.558c-1.975-0.526-4.52-7.999-3.539-8.979c4.562-4.559,11.345-12.179,15.407-11.143
		c44.107,11.245,47.089-12.952,42.717-46.363c-1.485-11.35,1.685-23.31,2.728-34.991
		C263.169,587.126,264.548,587.117,265.927,587.107z M401.219,383.497c-3.263-0.002-6.526-0.004-9.789-0.006
		c0,89.919-0.243,179.84,0.437,269.753c0.058,7.609,5.226,20.978,9.823,21.82c31.134,5.699,63.423,14.734,94.067,11.311
		c51.692-5.774,102.727-18.846,153.369-31.524c11.409-2.856,27.948-16.12,28.669-25.615c3.898-51.327,3.984-102.97,4.579-154.513
		c0.702-60.753-0.511-121.545,1.183-182.262c1.226-43.925,5.852-86.188-31.257-121.586c-58.25-55.564-130.115-77.42-205.945-91.293
		c-31.863-5.829-45.724,8.984-45.418,41.438C401.76,208.506,401.219,296.004,401.219,383.497z M277.411,556.954
		c12.679,3.83,19.246,8.196,24.395,6.906c13.349-3.345,28.79-6.166,38.358-14.787c11.913-10.734,29.588-32.522,25.825-39.996
		c-12.229-24.291-27.53-2.08-40.969,4.987c-8.872,4.665-17.702,9.889-25.312,16.327C293.255,535.85,288.576,543.408,277.411,556.954
		z M288.985,233.746c-3.079,19.164,5.861,20.515,22.219,12.415c17.948-8.888,37.033-15.641,54.337-25.565
		c5.041-2.891,6.028-13.368,7.809-20.628c0.179-0.729-6.898-4.006-10.87-4.818c-7.152-1.464-14.613-1.437-21.749-2.954
		C321.075,188.015,288.961,212.409,288.985,233.746z M309.921,677.033c18.351-13.795,38.212-28.161,57.124-43.683
		c2.278-1.87-0.584-10.002-1.064-15.232c-4.124,2.207-8.182,4.552-12.39,6.586c-4.941,2.388-13.561,7.455-14.51,6.313
		c-26.682-32.119-35.074,9.37-52.402,13.583c-1.781,0.433-2.984,14.022-0.207,19.25
		C289.007,668.623,297.309,670.333,309.921,677.033z M299.762,441.317c25.847-5.355,48.012-8.74,69.118-15.454
		c3.709-1.18,3.544-16.288,3.81-25.006c0.051-1.656-7.098-5.78-9.581-4.914c-21.81,7.611-43.554,15.542-64.744,24.706
		c-5.371,2.323-8.686,9.4-12.946,14.293C291.182,437.503,296.945,440.065,299.762,441.317z M312.152,173.354
		c53.449-4.457,63.302-14.413,62.546-58.712c-0.214-12.542-3.657-25.028-5.619-37.54c-8.604,7.096-17.524,13.851-25.681,21.428
		c-4.265,3.961-7.189,9.366-10.718,14.119c6.239,0.331,12.513,0.356,18.706,1.081c5.732,0.671,11.377,2.089,17.06,3.179
		c-2.926,5.604-4.632,12.531-9.006,16.567C345.973,145.904,331.487,157.227,312.152,173.354z M741.481,380.662
		c-13.108,14.795-24.623,26.47-33.962,39.683c-1.488,2.106,9.792,16.374,10.129,16.182c17.291-9.861,34.036-20.681,50.839-31.398
		C761.625,398.912,754.764,392.697,741.481,380.662z M283.992,375.681c22.861,1.524,34.267,5.386,43.125,2.19
		c15.593-5.626,29.697-15.457,44.012-24.203c0.449-0.274-5.148-11.802-5.416-11.697C340.86,351.736,316.252,362.125,283.992,375.681
		z M731.383,493.3c-9.914,11.868-18.819,20.33-24.573,30.563c-2.116,3.765,3.211,11.715,5.143,17.756
		c9.202-11.849,18.555-23.59,27.304-35.764C739.915,504.941,736.27,500.934,731.383,493.3z M339.843,485.323
		c11.651-10.965,22.042-20.302,31.552-30.464c0.838-0.895-4.09-7.185-6.339-10.969c-11.53,9.995-23.08,19.969-34.333,30.268
		C330.599,474.272,334.359,478.628,339.843,485.323z M293.733,284.756c0.944,1.431,1.887,2.862,2.831,4.293
		c21.716-11.371,43.432-22.741,65.148-34.112c-2.26-3.637-4.52-7.274-6.779-10.911C334.533,257.603,314.133,271.179,293.733,284.756
		z M740.902,556.641c-11.774,5.972-19.064,7.724-23.274,12.306c-5.041,5.487-8.084,13.168-10.612,20.383
		c-0.744,2.122,3.198,5.885,4.992,8.897c5.018-5.46,10.598-10.516,14.894-16.494C731.183,575.776,734.175,568.892,740.902,556.641z
		 M323.337,303.894c-4.237-4.203-8.473-8.407-12.71-12.61c-7.207,12.411-14.592,24.726-21.349,37.377
		c-0.688,1.287,2.402,4.592,3.739,6.961C303.124,325.046,313.23,314.47,323.337,303.894z M765.537,353.132
		c-10.082-6.272-16.021-11.743-17.64-10.674c-7.868,5.197-14.578,12.145-21.699,18.474c2.666,1.917,6.032,5.985,7.878,5.384
		C742.832,363.466,751.174,359.342,765.537,353.132z M380.175,307.05c-7.763-6.376-13.148-12.016-14.07-11.362
		c-7.098,5.032-13.33,11.285-19.831,17.159c4.784,2.219,9.949,6.777,14.256,6.075C366.099,318.013,370.984,312.905,380.175,307.05z
		 M315.13,479.953c-4.512-3.183-8.854-6.843-9.262-6.446c-7.007,6.795-13.774,13.895-19.831,21.534
		c-0.723,0.912,3.002,5.351,4.665,8.155C298.284,495.982,305.865,488.769,315.13,479.953z M317.923,597.48
		c-1.585-3.259-3.169-6.517-4.754-9.776c-8.801,5.667-17.627,11.299-26.208,17.283c-0.155,0.108,3.651,6.568,3.878,6.458
		C299.992,607.05,308.944,602.238,317.923,597.48z M329.393,83.618c-0.338-3.217-0.676-6.435-1.014-9.652
		c-10.79,1.549-21.58,3.097-32.369,4.646c1.426,2.463,2.884,7.066,4.274,7.045C309.994,85.513,319.691,84.412,329.393,83.618z"/>
</g>
<g id="Layer_1">
</g>
</svg>
