<?xml version="1.0" encoding="iso-8859-1"?>
<!-- Generator: Adobe Illustrator 25.2.0, SVG Export Plug-In . SVG Version: 6.00 Build 0)  -->
<svg version="1.1" xmlns="http://www.w3.org/2000/svg" xmlns:xlink="http://www.w3.org/1999/xlink" x="0px" y="0px"
	 viewBox="0 0 1000 1000" style="enable-background:new 0 0 1000 1000;" xml:space="preserve">
<g id="latinSmallLetterD">
	<path d="M636.422,159.125c17.041-6.172,30.623-11.091,44.205-16.01c-7.884,12.898-16.149,25.582-23.541,38.756
		c-6.914,12.325-12.902,25.168-19.298,37.783c12.228-5.959,25.701-10.302,36.258-18.431c7.369-5.674,14.552-16.248,15.219-25.129
		c2.416-32.206,1.482-64.652,3.206-96.933c0.346-6.474,6.806-12.621,10.448-18.918c4.023,6.8,11.632,13.665,11.509,20.389
		c-1.107,60.778-4.155,121.517-5.51,182.293c-2.903,130.134-6.518,260.284-6.319,390.423c0.034,22.337-0.632,39.145-18.349,52.27
		c-6.219,4.606-14.355,6.623-21.616,9.823c-1.637-8.41-3.632-16.773-4.744-25.251c-0.471-3.592,0.911-7.426,1.325-10.282
		c-21.576,8.314-42.249,17.029-63.546,23.773c-3.69,1.168-14.737-6.526-14.437-9.251c5.839-52.996-21.676-19.612-34.733-12.484
		c-57.202,31.228-160.826,29.834-207.906-17.883c-56.893-57.664-70.616-185.582-28.374-255.617
		c53.791-89.181,153.711-118.148,247.604-68.466c28.604,15.136,28.137,3.586,28.175-18.601
		c0.139-81.992,0.725-163.991,2.336-245.964c0.167-8.551,8.247-16.948,12.655-25.416c3.433,8.26,8.929,16.283,9.914,24.826
		c3.027,26.238,11.581,38.232,39.261,22.623c11.076-6.245,25.012-7.416,37.647-10.897c-7.353,11.529-14.27,23.367-22.173,34.506
		C656.803,133.512,647.074,145.332,636.422,159.125z M583.792,511.772c1.189-0.314,2.378-0.628,3.567-0.942
		c-5.288-38.549-5.929-78.493-16.985-115.31c-15.453-51.458-93.833-60.105-145.581-21.88
		c-85.58,63.214-91.912,188.092-18.915,269.254c20.033,22.273,48.354,36.702,81.049,26.585
		c37.559-11.623,82.616-15.427,90.489-66.089C582.1,573.248,581.833,542.337,583.792,511.772z M605.441,514.178
		c14.808-46.885,27.413-86.794,39.487-125.022C603.093,400.062,591.671,430.301,605.441,514.178z M675.696,522.558
		c-20.293,26.466-39.202,50.974-57.83,75.692c-1.599,2.121-2.575,6.233-1.567,8.324c0.829,1.719,5.262,2.942,7.71,2.451
		C658.58,602.094,686.198,558.813,675.696,522.558z M686.676,482.147c-4.456-15.934-6.05-21.632-7.644-27.329
		c-5.104,2.895-11.411,4.726-15.085,8.884c-10.844,12.275-20.987,25.228-30.494,38.565c-1.457,2.043,1.896,7.515,3.025,11.401
		C653.735,502.832,670.992,491.996,686.676,482.147z M358.662,652.708c3.561-1.847,7.122-3.694,10.683-5.54
		c-12.832-33.187-25.583-66.405-38.67-99.491c-0.916-2.316-4.318-3.648-6.563-5.438c-1.86,2.958-5.988,6.775-5.241,8.745
		C331.778,585.026,345.286,618.842,358.662,652.708z M624.761,673.423c2.243,2.099,4.486,4.198,6.729,6.297
		c13.857-10.789,29.835-19.838,40.704-33.08c5.69-6.933,2.411-21.228,3.183-32.198c-6.647,4.516-14.909,7.771-19.62,13.8
		C644.532,642.605,634.985,658.278,624.761,673.423z M624.368,367.896c1.899,2.198,3.798,4.395,5.696,6.593
		c15.813-8.196,33.213-14.449,46.717-25.474c6.033-4.925,4.239-19.438,5.997-29.6c-3.912-0.231-9.598-2.252-11.456-0.411
		C655.279,334.907,639.926,351.505,624.368,367.896z M648.038,312.354c-42.519,10.917-50.793,22.66-38.571,51.15
		C621.85,347.082,633.718,331.344,648.038,312.354z M639.922,278.805c1.81,2.577,3.621,5.154,5.432,7.732
		c12.762-8.827,26.537-16.567,37.753-27.048c4.122-3.852,2.194-14.181,3.026-21.555c-5.945,2.467-13.33,3.488-17.551,7.688
		C658.251,255.901,649.38,267.648,639.922,278.805z M596.442,584.92c3.601,1.871,7.201,3.742,10.802,5.614
		c8.471-14.875,16.942-29.75,25.413-44.625c-4.253-2.232-8.507-4.465-12.76-6.698C612.078,554.447,604.26,569.683,596.442,584.92z
		 M687.441,398.994c-4.261-2.491-8.522-4.981-12.782-7.472c-7.653,13.344-15.306,26.689-22.96,40.033
		c3.487,0.09,8.736,1.695,10.175,0.022C670.869,421.123,679.014,409.937,687.441,398.994z M632.08,630.941
		c-3.682-2.518-7.365-5.036-11.048-7.553c-6.316,10.868-12.991,21.557-18.59,32.783c-0.913,1.83,2.933,6.033,4.579,9.139
		C615.375,653.853,623.727,642.397,632.08,630.941z M603.143,277.809c2.902,2.502,5.804,5.003,8.706,7.505
		c9.383-10.663,18.941-21.181,27.981-32.127c1.576-1.908,0.963-5.624,1.361-8.504c-2.802-0.097-6.918-1.442-8.199-0.093
		C622.74,255.375,613.023,266.669,603.143,277.809z M331.167,492.831c-3.363-0.764-6.727-1.528-10.091-2.292
		c-2.403,10.509-4.806,21.018-7.209,31.527c2.83,0.483,8.006,1.753,8.146,1.335C325.391,513.32,328.23,503.059,331.167,492.831z
		 M632.064,135.202c-2.979-2.308-5.957-4.616-8.936-6.925c-5.084,7.258-10.673,14.244-14.852,21.99
		c-0.904,1.676,3.263,6.088,5.095,9.24C619.601,151.405,625.833,143.303,632.064,135.202z"/>
</g>
<g id="Layer_1">
</g>
</svg>
