<?xml version="1.0" encoding="iso-8859-1"?>
<!-- Generator: Adobe Illustrator 25.2.0, SVG Export Plug-In . SVG Version: 6.00 Build 0)  -->
<svg version="1.1" xmlns="http://www.w3.org/2000/svg" xmlns:xlink="http://www.w3.org/1999/xlink" x="0px" y="0px"
	 viewBox="0 0 1000 1000" style="enable-background:new 0 0 1000 1000;" xml:space="preserve">
<g id="latinCapitalLetterF">
	<path d="M319.484,452.328c0.451,34.488,2.947,69.107,0.737,103.423c-1.926,29.912,12.779,47.434,33.312,65.234
		c14.931,12.943,28.096,29.152,38.095,46.221c10.616,18.124,1.112,30.571-19.188,31.18c-27.24,0.817-54.542-0.602-81.82-0.7
		c-3.646-0.013-8.595,0.936-10.756,3.375c-34.32,38.723-59.463,4.129-86.413-11.456c-1.409-0.815,3.044-12.872,5.698-19.312
		c2.971-7.212,8.312-13.672,10.091-21.068c1.097-4.561-3.914-10.28-3.837-15.445c1.659-111.548,4.8-223.089,5.026-334.636
		c0.094-46.617,4.048-97.014-11.83-138.827c-16.35-43.055,14.922-69.296,15.806-104.148c0.067-2.642,8.316-7.191,12.844-7.295
		c102.152-2.347,204.308-4.964,306.479-5.832c56.327-0.479,112.705,1.486,169.012,3.634c28.012,1.069,56.122,3.799,83.735,8.463
		c7.914,1.337,20.602,12.428,20.25,18.408c-2.01,34.166-6.615,68.268-12.992,101.889c-0.428,2.254-27.414,5.517-33.953-0.495
		c-26.423-24.292-48.461-53.328-74.662-77.899c-11.207-10.51-28.387-19.658-43.301-20.398c-98.219-4.875-196.552-7.793-294.88-9.495
		c-7.433-0.129-21.294,13.792-21.695,21.712c-2.968,58.63-3.929,117.4-3.522,176.112c0.045,6.558,12.456,18.489,19.381,18.675
		c53.706,1.441,107.482,0.084,161.212,0.993c8.92,0.151,17.725,7.12,26.583,10.939c-5.919,10.623-10.95,21.975-18.543,31.225
		c-1.433,1.746-13.028-4.933-19.979-7.606c-6.447-2.478-12.956-6.86-19.436-6.856c-46.145,0.024-92.307,0.504-138.407,2.301
		c-4.646,0.181-12.68,10.032-12.757,15.485c-0.572,40.715,0.466,81.453,0.999,122.184
		C320.343,452.318,319.914,452.323,319.484,452.328z M307.055,277.693c-14.693-9.459-23.77-19.281-28.336-17.505
		c-14.414,5.606-27.137,15.558-40.515,23.828c8.54,10.706,17.081,21.413,25.621,32.119
		C276.266,305.071,288.707,294.008,307.055,277.693z M296.88,558.194c-1.139-2.005-4.837-8.513-8.534-15.021
		c-14.995,17.062-30.052,34.073-44.497,51.588c-0.261,0.316,7.532,10.209,10.305,9.627
		C276.201,599.758,297.356,593.067,296.88,558.194z M261.185,384.262c-9.504,12.599-18.263,22.197-24.154,33.314
		c-1.649,3.113,5.149,10.703,8.073,16.24c8.721-12.58,17.568-25.08,25.844-37.947C271.427,395.123,267.278,391.4,261.185,384.262z
		 M302.458,408.086c-3.345-2.892-6.69-5.784-10.036-8.676c-10.891,11.828-22.119,23.375-32.414,35.7
		c-2.311,2.767-1.364,8.255-1.916,12.491c2.911,0.046,7.164,1.367,8.523-0.063C278.851,434.663,290.58,421.304,302.458,408.086z
		 M288.047,474.241c-11.692,14.974-20.717,26.532-29.741,38.09c3.893,2.108,10.323,6.845,11.285,5.916
		c9.138-8.821,17.807-18.262,25.378-28.442C296.247,488.088,291.642,481.996,288.047,474.241z M303.48,650.487
		c-7.16-10.343-10.847-15.67-14.534-20.997c-6.375,9.954-13.056,19.743-18.633,30.125c-0.534,0.993,7.562,8.794,8.694,8.16
		C286.741,663.438,293.685,657.689,303.48,650.487z M329.327,633.424c-3.792,2.554-7.585,5.108-11.377,7.662
		c6.792,9.644,12.742,20.129,20.959,28.349c2.098,2.099,11.375-2.977,17.354-4.757C347.285,654.26,338.306,643.842,329.327,633.424z
		 M235.367,646.782c4.246,8.127,6.4,12.252,8.556,16.377c6.824-9.726,13.996-19.243,20.07-29.417
		c0.847-1.418-3.712-6.063-5.769-9.214C250.723,631.832,243.221,639.135,235.367,646.782z M296.961,211.817
		c-1.946-2.228-3.892-4.455-5.839-6.683c-10.664,9.73-21.329,19.46-31.994,29.19c1.453,1.624,2.905,3.249,4.357,4.873
		C274.644,230.071,285.802,220.944,296.961,211.817z"/>
</g>
<g id="Layer_1">
</g>
</svg>
