<?xml version="1.0" encoding="iso-8859-1"?>
<!-- Generator: Adobe Illustrator 25.2.0, SVG Export Plug-In . SVG Version: 6.00 Build 0)  -->
<svg version="1.1" xmlns="http://www.w3.org/2000/svg" xmlns:xlink="http://www.w3.org/1999/xlink" x="0px" y="0px"
	 viewBox="0 0 1000 1000" style="enable-background:new 0 0 1000 1000;" xml:space="preserve">
<g id="latinSmallLetterX">
	<path d="M652.715,704.7c-99.634-1.376-199.27-2.669-298.9-4.304c-7.267-0.119-15.331-1.182-21.529-4.555
		c-8.069-4.391-14.642-11.532-21.86-17.489c8.503-3.142,17.128-5.996,25.47-9.522c6.269-2.649,14.483-4.578,17.879-9.535
		c29.357-42.853,58.903-85.669,85.588-130.178c5.07-8.457,2.12-27.845-4.587-36.21c-34.107-42.542-70.184-83.555-106.825-123.967
		c-6.399-7.058-19.429-7.651-28.223-13.117c-8.918-5.544-16.382-13.426-24.482-20.285c7.498-2.523,14.997-7.233,22.495-7.232
		c80.71,0.01,161.427,1.631,242.127,0.985c47.742-0.382,95.459-3.992,143.182-6.26c3.987-0.189,7.918-1.607,11.904-1.779
		c9.925-0.429,19.866-0.468,29.801-0.663c-3.974,9.413-6.398,19.93-12.185,28.051c-28.488,39.979-57.937,79.273-86.912,118.907
		c-23.473,32.108-48.798,63.15-68.913,97.254c-6.247,10.592-3.654,34.423,4.517,43.871c18.629,21.543,42.426,39.039,65.866,55.734
		c6.851,4.88,19.798,3.053,29.552,1.609c18.675-2.765,29.988,4.633,33.228,22.285c0.216,1.174-18.838,6.022-29.011,8.87
		c-2.528,0.708-5.375,0.275-8.075,0.367C652.785,699.926,652.75,702.313,652.715,704.7z M434.024,360.792
		c-18.822,0.639-37.661,1.007-56.456,2.105c-4.826,0.282-9.517,2.87-14.27,4.399c1.825,4.771,2.529,10.494,5.649,14.163
		c28.293,33.261,56.661,66.482,86.19,98.627c2.671,2.908,17.158,0.755,20.135-3.382c15.652-21.75,29.91-44.576,43.48-67.715
		c5.238-8.931,13.129-25.081,9.852-28.56c-9.253-9.824-23.057-18.682-36.191-20.738C473.466,356.727,453.53,360.091,434.024,360.792
		z M502.777,598.784c2.849,0.883,5.698,1.766,8.548,2.649c25.296-37.148,50.887-74.102,75.536-111.674
		c3.295-5.023,4.755-15.304,1.821-19.324c-3.592-4.923-12.709-5.814-19.437-8.448c-1.702,6.13-2.993,12.412-5.195,18.357
		c-3.938,10.632,2.315,31.438-21.862,22.699c-6.407-2.316-12.878-4.457-19.319-6.678c0.499,7.198,0.532,14.468,1.625,21.575
		c1.125,7.314,4.571,14.445,4.703,21.698c0.223,12.22,5.61,31.197-19.561,19.727c-2.08-0.947-10.581,5.133-10.583,7.95
		C499.046,577.804,501.344,588.294,502.777,598.784z M556.777,679.387c6.785-1.495,17.504-3.858,28.222-6.22
		c-7.268-8.451-14.457-16.971-21.853-25.309c-2.211-2.493-4.999-4.475-7.525-6.689c-30.972-27.155-30.637-26.936-53.511,7.994
		c-10.827,16.534-12.386,26.846,12.166,27.114C527,676.416,539.706,678.079,556.777,679.387z M598.891,439.371
		c2.278,3.87,5.791,9.84,9.305,15.81c4.135-5.079,12.554-11.237,11.597-15.032c-2.791-11.071-9.641-30.321-14.343-30.159
		c-23.875,0.821-15.773-15.798-18.458-27.005c-1.865-7.786-5.09-15.247-7.707-22.853c-5.582,6.108-11.472,11.97-16.61,18.43
		c-2.43,3.055-5.7,8.114-4.69,10.797c6.626,17.604,13.722,35.118,22.404,51.753C581.491,443.225,592.718,440.054,598.891,439.371z
		 M642.508,383.534c4.937,1.607,12.215,6.128,14.637,4.28c4.063-3.098,7.763-10.929,6.623-15.531
		c-1.474-5.948-6.912-13.597-12.314-15.343c-12.029-3.888-25.036-5.199-37.754-6.396c-18.278-1.722-22.086,6.826-13.986,22.176
		c6.252,11.848,12.336,23.818,19.337,35.215c2.1,3.419,7.072,7.021,10.661,6.954c2.8-0.052,6.771-5.238,7.971-8.883
		C640.14,398.541,641.085,390.578,642.508,383.534z M491.355,570.089c-4.185-11.408-7.523-22.147-12.114-32.319
		c-2.252-4.989-6.833-8.927-10.359-13.341c-4.463,3.759-9.581,6.968-13.277,11.371c-16.817,20.034,2.487,30.933,12.161,43.604
		c3.671,4.808,10.611,7.12,16.061,10.57C486.254,583.56,488.682,577.148,491.355,570.089z M558.945,455.969
		c-6.538-14.759-12.602-28.445-18.665-42.131c-7.117,11.612-21.058,24.179-19.6,34.59c1.768,12.624,16.542,23.426,25.688,35.017
		C550.243,474.98,554.118,466.516,558.945,455.969z M414.484,598.888c12.02,12.51,21.329,22.714,31.259,32.275
		c3.953,3.807,9.28,6.187,13.981,9.217c-0.1-5.695,1.083-11.802-0.58-16.997c-3.057-9.548-7.686-18.607-11.86-27.78
		c-3.291-7.232-6.881-14.328-10.338-21.485c-6.254,5.79-12.998,11.151-18.579,17.529
		C415.018,595.476,413.482,600.891,414.484,598.888z M516.946,523.121c-1.651-9.575-2.077-17.155-4.39-24.107
		c-2.626-7.89-6.94-15.218-10.521-22.79c-3.788,2.214-10.161,3.795-10.888,6.759c-2.363,9.638-4.289,19.977-3.139,29.661
		c0.686,5.778,6.934,11.347,11.638,16.055c3.909,3.911,9.214,6.427,13.901,9.561C514.823,532.576,516.099,526.892,516.946,523.121z
		 M416.078,625.883c-4.315-4.927-6.874-7.849-9.432-10.771c-3.806,5.885-8.417,11.456-10.918,17.851
		c-0.733,1.873,4.53,6.092,7.044,9.235C406.861,637.185,410.951,632.171,416.078,625.883z M470.955,626.646
		c3.706,6.57,6.421,11.383,9.135,16.196c2.847-4.805,8.143-9.756,7.866-14.373c-0.288-4.8-5.962-9.277-9.281-13.896
		C476.161,618.505,473.646,622.438,470.955,626.646z M461.035,672.43c0.087-3.117,0.174-6.234,0.261-9.352
		c-6.538,0.222-13.076,0.444-19.614,0.666c0.327,3.103,0.463,8.862,1.012,8.902C448.77,673.086,454.911,672.638,461.035,672.43z
		 M394.247,676.569c0.51-3.054,1.019-6.108,1.529-9.162c-6.934-1.135-13.858-2.382-20.836-3.081
		c-0.351-0.035-1.176,4.664-1.781,7.158C380.188,673.179,387.217,674.874,394.247,676.569z"/>
</g>
<g id="Layer_1">
</g>
</svg>
