<?xml version="1.0" encoding="iso-8859-1"?>
<!-- Generator: Adobe Illustrator 25.2.0, SVG Export Plug-In . SVG Version: 6.00 Build 0)  -->
<svg version="1.1" xmlns="http://www.w3.org/2000/svg" xmlns:xlink="http://www.w3.org/1999/xlink" x="0px" y="0px"
	 viewBox="0 0 1000 1000" style="enable-background:new 0 0 1000 1000;" xml:space="preserve">
<g id="latinSmallLetterK">
	<path d="M665.156,696.234c-55.062,3.744-92.039-18.729-123.511-54.735c-14.514-16.604-31.571-31.131-48.678-45.13
		c-2.022-1.655-17.242,6.68-16.934,9.259c3.343,27.969-14.458,61.32,18.921,82.824c0.728,0.469-6.963,19.814-10.116,19.635
		c-51.983-2.964-104.159-5.541-155.678-12.651c-38.067-5.253-39.629-13.685-13.621-41.459c7.749-8.275,18.061-14.205,25.502-22.696
		c7.04-8.033,16.617-17.884,16.877-27.165c1.742-62.213-0.195-124.538,1.916-186.73c2.895-85.259,4.524-170.868,14.253-255.458
		c4.929-42.855-14.639-64.906-41.651-88.12c-4.919-4.227-8.232-10.322-12.286-15.554c5.416-3.985,10.665-11.123,16.275-11.42
		c27.591-1.458,55.284-0.849,82.93-1.465c20.5-0.457,41.046-2.815,61.425-1.683c4.648,0.258,12.6,11.52,12.426,17.526
		c-2.602,89.586-6.43,179.136-9.532,268.71c-0.229,6.62,2.878,13.355,4.434,20.036c6.195-3.068,12.759-5.568,18.524-9.299
		c31.319-20.27,109.85-13.819,147.348,13.004c37.173,26.589,45.191,66.066,40.301,107.272
		c-5.528,46.582-49.255,87.773-95.419,97.143c-9.45,1.918-18.467,5.965-27.684,9.031c6.593,8.037,11.986,17.616,19.988,23.842
		c34.095,26.53,69.186,51.782,103.285,78.307c4.618,3.592,8.059,11.987,7.507,17.721c-0.339,3.515-9.035,7.975-14.488,8.853
		C678.376,697.299,668.872,696.234,665.156,696.234z M469.696,451.968c2.281,1.169,4.562,2.339,6.844,3.508
		c0.863,12.14,0.842,24.422,2.755,36.394c5.755,36.023,25.752,53.034,57.08,49.585c41.136-4.528,53.418-16.988,58.873-59.151
		c0.423-3.272,2.781-6.357,4.49-9.388c19.98-35.437,9.313-78.183-22.718-103.931c-25.461-20.467-49.212-14.393-65.622,6.367
		C493.627,397.831,483.28,426.179,469.696,451.968z M469.978,87.997c0.752,3.003-0.577-2.305-1.906-7.612
		c-5.503,2.324-10.827,5.359-16.552,6.798c-7.696,1.935-16.515,0.953-23.384,4.266c-10.313,4.974-23.877,10.643-27.73,19.6
		c-4.332,10.069,0.589,24.118,1.485,36.436c8.105-2.715,16.551-4.715,24.21-8.365c6.384-3.043,11.568-8.537,17.835-11.924
		c3.108-1.679,7.458-1.059,11.246-1.479c-0.956,3.276-0.988,7.357-3.024,9.691c-10.361,11.877-21.526,23.06-31.694,35.09
		c-2.014,2.382-0.899,7.408-1.227,11.215c15.961-11.307,36.609-19.602,46.418-34.863
		C473.672,134.376,468.755,113.589,469.978,87.997z M435.455,247.183c-19.469,2.429-31.132,3.884-42.795,5.339
		c5.755-9.072,11.928-17.917,17.034-27.34c1.733-3.2,0.775-7.857,1.047-11.849c-3.204,0.837-6.703,1.111-9.563,2.607
		c-13.173,6.894-27.659,75.916-17.509,86.834c1.887,2.03,12.091,0.296,14.493-2.788
		C410.303,284.399,421.134,267.793,435.455,247.183z M610.544,667.354c3.446-3.933,6.893-7.867,10.339-11.8
		c-29.364-26.607-58.728-53.214-88.092-79.821c-3.583,4.096-7.167,8.192-10.75,12.288
		C551.541,614.465,581.043,640.91,610.544,667.354z M430.564,387.582c-2.627-2.196-5.254-4.392-7.881-6.589
		c-14.064,16.066-28.404,31.911-41.729,48.567c-1.221,1.525,5.75,12.137,6.068,11.998c22.758-9.927,45.516-19.971,67.456-31.552
		c4.012-2.118,4.604-10.716,6.775-16.323c-5.515,0.096-11.674-1.338-16.395,0.646c-7.037,2.959-13.06,8.329-24.28,15.881
		C425.706,398.59,428.135,393.086,430.564,387.582z M379.634,332.444c5.411,6.429,10.097,13.185,10.883,12.758
		c23.47-12.742,46.794-25.813,69.381-40.04c2.706-1.704,1.074-10.296,1.452-15.696c-4.515,0.88-9.449,0.88-13.474,2.792
		c-17.956,8.528-35.82,17.291-53.338,26.676C389.577,321.594,385.895,326.645,379.634,332.444z M435.497,444.092
		c-1.95-2.202-3.899-4.405-5.849-6.608c-15.416,12.767-31.228,25.107-45.889,38.69c-2.689,2.491-0.699,10.031-0.87,15.24
		c4.88-0.783,11.663,0.206,14.32-2.647C410.564,474.427,422.841,459.083,435.497,444.092z M645.98,471.488
		c24.411-5.004,36.217-21.462,28.048-46.369c-1.251-3.816-7.925-9.038-10.838-8.345c-3.937,0.936-8.548,6.529-9.561,10.893
		C650.276,442.111,648.407,456.901,645.98,471.488z M432.758,617.662c-2.529-2.923-5.059-5.846-7.588-8.769
		c-14.067,11.897-28.581,23.333-41.782,36.124c-2.315,2.242,0.879,10.17,1.529,15.472c4.176-1.449,9.531-1.729,12.323-4.548
		C409.484,643.582,420.986,630.489,432.758,617.662z M445.836,547.12c-15.049,17.939-25.551,30.307-35.571,43.053
		c-0.336,0.428,5.695,7.115,6.227,6.786c12.672-7.825,25.402-15.713,36.921-25.068C455.034,570.575,450.426,561.588,445.836,547.12z
		 M426.244,216.751c1.483,2.302,2.966,4.604,4.45,6.906c10.462-6.412,21.622-11.966,31.064-19.635
		c4.123-3.349,4.727-11.032,6.929-16.746c-5.264,1.686-11.49,2.127-15.597,5.307C443.595,199.934,435.128,208.612,426.244,216.751z
		 M388.663,556.257c9.017-13.519,15.817-23.603,22.214-33.935c0.16-0.259-5.847-4.972-6.074-4.742
		c-8.112,8.219-16.107,16.595-23.361,25.562C380.658,544.112,384.443,548.779,388.663,556.257z M417.048,358.566
		c-1.624-1.73-3.248-3.459-4.872-5.189c-9.573,8.833-19.273,17.538-28.499,26.72c-0.814,0.81,1.465,4.73,2.308,7.205
		c9.06-7.296,18.226-14.468,27.095-21.989C414.958,363.72,415.753,360.848,417.048,358.566z M421.928,530.151
		c0.971,1.357,1.943,2.713,2.914,4.07c9.59-3.15,20.091-4.859,28.364-10.093c3.812-2.412,3.263-11.718,4.692-17.898
		c-4.119,0.709-9.259,0.108-12.164,2.374C437.317,515.17,429.799,522.886,421.928,530.151z M419.904,476.625
		c1.945,2.725,3.889,5.451,5.834,8.176c7.866-5.72,15.841-11.305,23.39-17.416c0.601-0.487-1.742-4.611-2.717-7.045
		C437.576,465.768,428.74,471.196,419.904,476.625z M435.12,260.98c2.234,2.499,4.468,4.998,6.701,7.497
		c7.045-6.901,14.31-13.608,20.842-20.965c0.764-0.86-2.514-5.309-3.918-8.095C450.869,246.605,442.994,253.793,435.12,260.98z
		 M644.511,380.13c-8.237-4.359-13.873-8.008-20.039-10.087c-1.365-0.46-4.602,4.631-6.977,7.166
		c5.125,4.28,9.944,9.09,15.639,12.386C634.252,390.242,638.759,385.032,644.511,380.13z"/>
</g>
<g id="Layer_1">
</g>
</svg>
