<?xml version="1.0" encoding="iso-8859-1"?>
<!-- Generator: Adobe Illustrator 25.2.0, SVG Export Plug-In . SVG Version: 6.00 Build 0)  -->
<svg version="1.1" xmlns="http://www.w3.org/2000/svg" xmlns:xlink="http://www.w3.org/1999/xlink" x="0px" y="0px"
	 viewBox="0 0 1000 1000" style="enable-background:new 0 0 1000 1000;" xml:space="preserve">
<g id="latinCapitalLetterE">
	<path d="M335.984,501.239c0,48.617,0.916,97.259-0.443,145.838c-0.557,19.928,7.062,28.084,25.723,28.147
		c100.419,0.342,200.891,2.355,301.21-0.673c18.014-0.544,37.687-19.654,52.521-34.313c20.721-20.475,37.052-45.328,56.588-67.118
		c4.234-4.723,15.36-7.622,20.974-5.415c4.734,1.861,8.027,12.19,8.584,19.045c2.517,31,5.17,62.118,4.678,93.145
		c-0.128,8.084-11.262,22.819-17.585,22.952c-91.245,1.927-182.534,2.41-273.808,2.095c-49.436-0.171-101.152-11.921-147.514-0.652
		c-32.358,7.865-59.341,3.205-89.187,2.002c-17.062-0.688-34.344,8.125-51.733,9.142c-5.425,0.317-16.59-10.896-16.563-16.791
		c0.523-111.073,2.829-222.136,3.631-333.209c0.317-43.829-4.272-87.756-2.689-131.495c1.561-43.123,8.146-86.061,12.436-129.089
		c1.662-16.666-1.251-28.004-22.906-24.634c-4.869,0.758-11.321-8.657-17.044-13.388c5.628-5.086,11.196-14.533,16.893-14.611
		C306.331,50.76,412.927,50.038,519.52,50c52.49-0.018,104.979,1.797,157.471,2.53c41.114,0.574,82.289-0.223,123.289,2.149
		c6.329,0.366,16.868,14.491,16.863,22.248c-0.018,27.714-2.508,55.616-6.757,83.03c-1.396,9.006-9.782,18.346-17.516,24.13
		c-2.481,1.855-14.285-6.046-19.853-11.497c-25.041-24.514-48.171-51.134-74.541-74.061c-10.841-9.425-27.864-15.27-42.494-16.207
		c-70.709-4.53-141.538-7.828-212.373-9.452c-29.238-0.67-58.697,3.164-87.811,6.867c-5.336,0.679-13.339,10.419-13.608,16.275
		c-2.745,59.74-3.484,119.573-6.267,179.31c-1.006,21.602,8.025,28.207,27.867,27.862c58.151-1.01,116.324-1.884,174.465-1.113
		c7.806,0.104,15.482,9.975,23.218,15.323c-8.653,4.57-17.226,12.903-25.971,13.086c-49.085,1.026-99.016,5.521-147.115-1.596
		c-56.392-8.344-54.729,21.16-52.501,59.908c2.148,37.366,0.465,74.952,0.465,112.441
		C336.228,501.235,336.107,501.237,335.984,501.239z M253.138,102.372c10.131-5.909,18.368-12.962,27.818-15.506
		c7.395-1.99,16.295,1.61,24.526,2.726c-4.231,5.933-7.3,13.518-12.922,17.475c-14.322,10.079-29.785,18.536-50.21,30.931
		c37.461,10.825,64.687,10.778,74.969-24.275c4.237-14.443,13.33-39.67-17.96-39.778C280.546,73.881,250.2,58.39,253.138,102.372z
		 M779.821,644.803c-3.381-12.985-5.899-22.652-8.416-32.319c-6.742,7.243-13.683,14.313-20.138,21.803
		c-3.08,3.574-5.724,7.718-7.714,12c-4.301,9.258-8.052,18.771-12.029,28.18c12.509-0.951,26.669,1.307,36.946-3.982
		C775.328,666.956,776.656,652.68,779.821,644.803z M258.105,686.064c16.136-19.834,28.084-34.097,39.409-48.839
		c1.983-2.581,1.348-7.174,1.922-10.838c-11.407,4.118-22.785,8.322-34.237,12.311c-4.477,1.559-10.21,1.385-13.453,4.206
		c-5.914,5.144-14.341,11.926-14.353,18.039C237.382,666.884,246.612,672.841,258.105,686.064z M293.159,567.374
		c-1.874-1.632-3.748-3.264-5.622-4.896c-14.873,8.804-31.743,15.556-43.783,27.272c-6.085,5.921-3.433,20.822-4.731,31.663
		c6.477-2.519,15.029-3.245,19.046-7.891C270.683,598.933,281.59,582.868,293.159,567.374z M227.069,524.94
		c10.112,15.082,14.545,21.695,18.979,28.308c11.953-14.521,23.951-29.006,35.523-43.824c0.22-0.282-5.646-7.001-6.879-6.479
		C259.995,509.162,245.639,516.184,227.069,524.94z M790.649,102.649c-11.74-7.112-19.003-14.271-27.256-15.699
		c-7.553-1.307-16.178,3.581-24.33,5.739c11.213,10.901,22.425,21.801,33.638,32.702
		C776.893,120.078,781.085,114.766,790.649,102.649z M322.195,399.349c-7.877-8.287-10.903-11.47-13.93-14.654
		c-8.499,9.156-16.997,18.312-25.495,27.469c4.84,2.249,11.205,7.622,14.226,6.146C305.171,414.318,311.926,407.415,322.195,399.349
		z M289.5,228.125c-5.986-5.685-11.972-11.371-17.958-17.056c-8.851,10.394-17.811,20.704-26.229,31.437
		c-0.414,0.527,5.18,7.234,5.819,6.902C264.111,242.679,276.774,235.341,289.5,228.125z M279.971,243.886
		c2.608,3.199,5.217,6.397,7.825,9.596c8.53-6.88,17.782-13.096,25.123-21.071c2.038-2.213-1.594-9.646-2.625-14.684
		C300.187,226.447,290.079,235.166,279.971,243.886z M280.501,301.235c2.584,3.037,5.168,6.073,7.752,9.11
		c8.19-7.946,16.537-15.747,24.334-24.061c0.792-0.845-1.714-4.782-2.689-7.285C300.098,286.412,290.299,293.824,280.501,301.235z"
		/>
</g>
<g id="Layer_1">
</g>
</svg>
