<?xml version="1.0" encoding="iso-8859-1"?>
<!-- Generator: Adobe Illustrator 25.2.0, SVG Export Plug-In . SVG Version: 6.00 Build 0)  -->
<svg version="1.1" xmlns="http://www.w3.org/2000/svg" xmlns:xlink="http://www.w3.org/1999/xlink" x="0px" y="0px"
	 viewBox="0 0 1000 1000" style="enable-background:new 0 0 1000 1000;" xml:space="preserve">
<g id="latinSmallLetterT">
	<path d="M485.717,434.847c0,66.522,0.103,133.045-0.037,199.567c-0.091,42.93,26.678,54.863,70.635,29.671
		c41.633-23.859,61.406-60.573,60.435-109.037c-0.158-7.922,6.923-15.99,10.657-23.99c4.947,7.176,13.952,14.269,14.099,21.542
		c0.485,24.022-3.729,48.139-3.256,72.162c0.398,20.226,5.514,40.318,7.11,60.582c0.623,7.913-2.668,16.134-4.176,24.215
		c-7.274-1.633-14.472-3.919-21.836-4.772c-20.499-2.375-43.674-11.326-61.173-4.967c-91.914,33.404-192.687-31.865-188.044-123.497
		c4.27-84.298,7.347-168.686,9.09-253.073c1.52-73.558,0.91-147.175-0.115-220.747c-0.117-8.431-8.9-16.777-13.784-25.093
		c-3.484-5.931-7.166-11.746-10.759-17.613c6.108-2.449,12.258-7.09,18.317-6.973c28.5,0.549,57.133,4.739,85.394,2.832
		c14.667-0.99,29.376-15.918,38.808,7.181c1.518,3.716,2.905,7.959,2.658,11.85c-4.815,75.641-10.205,151.25-14.018,226.94
		c-0.206,4.095,12.327,12.587,18.985,12.646c35.678,0.318,71.39-2.237,107.051-1.604c6.282,0.111,12.379,10.629,18.561,16.341
		c-6.403,4.148-12.599,11.476-19.245,11.911c-34.267,2.241-68.647,3.386-102.994,3.53c-17.751,0.074-24.887,6.117-23.65,24.573
		c1.465,21.851,0.344,43.876,0.344,65.825C485.087,434.846,485.402,434.847,485.717,434.847z M408.496,560.441
		c1.439,1.685,2.878,3.37,4.318,5.054c5.769-3.542,11.466-7.21,17.327-10.592c5.938-3.425,12.038-6.569,18.067-9.835
		c0.244,7.677,0.459,15.354,0.743,23.03c0.198,5.364,0.491,10.725,0.742,16.087c4.884-4.627,13.584-8.958,13.972-13.935
		c1.455-18.68,0.327-37.578-0.498-56.365c-0.035-0.796-8.571-3.118-9.986-1.661C437.922,527.941,423.296,544.275,408.496,560.441z
		 M405.04,496.808c1.999,2.108,3.999,4.215,5.998,6.323c18.015-14.932,37.11-28.814,53.33-45.492
		c4.378-4.502,0.036-17.485-0.304-26.575c-5.527,4.022-12.123,7.146-16.386,12.227C433.026,460.76,419.188,478.915,405.04,496.808z
		 M406.937,253.171c46.793-14.31,62.09-35.991,52.523-69.396C440.807,208.42,423.872,230.796,406.937,253.171z M391.829,606.56
		c8.818,13.62,15.953,25.88,24.582,36.976c1.84,2.366,10.645,2.396,13.488,0.097c3.309-2.674,4.815-9.139,4.637-13.867
		c-0.082-2.17-6.678-3.538-9.22-6.288c-5.144-5.567-9.818-11.635-14.135-17.876c-2.663-3.85-4.311-8.403-6.415-12.64
		C401.256,596.652,397.746,600.342,391.829,606.56z M461.706,624.645c-2.746-0.333-5.491-0.667-8.237-1
		c-1.301,13.225-2.745,26.442-3.58,39.697c-0.055,0.871,4.553,2.036,6.992,3.064c2.015-11.176,4.192-22.327,5.926-33.546
		C463.212,630.241,462.113,627.39,461.706,624.645z M398.019,105.179c3.719,6.637,6.411,11.444,9.105,16.251
		c3.653-10.365,7.744-20.613,10.578-31.197c0.546-2.038-3.836-5.394-5.945-8.142C407.327,89.536,402.896,96.983,398.019,105.179z
		 M429.982,296.546c1.217,1.203,2.434,2.406,3.65,3.609c12.495-8.018,24.99-16.036,37.485-24.054
		c-3.78-3.707-7.559-7.414-11.339-11.121C449.846,275.503,439.915,286.025,429.982,296.546z M473.921,94.553
		c-6.573-4.268-11.916-9.633-13.829-8.606c-4.774,2.561-8.672,7.643-11.431,12.551c-0.882,1.571,2.909,5.768,4.562,8.764
		C459.166,103.613,465.11,99.963,473.921,94.553z M438.854,345.693c-1.189-1.332-2.378-2.665-3.567-3.997
		c-8.605,9.085-17.211,18.171-25.816,27.256c2.277,2.21,4.554,4.42,6.831,6.63C423.819,365.619,431.336,355.656,438.854,345.693z
		 M398.13,223.27c2.847,1.165,5.694,2.33,8.542,3.495c3.834-7.61,7.668-15.22,11.501-22.83c-3.76-1.145-10.528-3.796-10.823-3.207
		C403.726,207.967,401.051,215.68,398.13,223.27z M428.417,392.752c-2.197-1.999-4.394-3.999-6.591-5.998
		c-6.539,8.591-13.121,17.151-19.426,25.912c-0.21,0.291,2.402,2.612,3.699,3.986C413.539,408.686,420.978,400.719,428.417,392.752z
		 M420.153,452.934c-2.536-1.777-5.072-3.553-7.608-5.33c-3.776,6.427-7.8,12.734-11.034,19.423
		c-0.429,0.888,3.16,3.719,4.888,5.649C410.984,466.095,415.568,459.515,420.153,452.934z"/>
</g>
<g id="Layer_1">
</g>
</svg>
