<?xml version="1.0" encoding="iso-8859-1"?>
<!-- Generator: Adobe Illustrator 25.2.0, SVG Export Plug-In . SVG Version: 6.00 Build 0)  -->
<svg version="1.1" xmlns="http://www.w3.org/2000/svg" xmlns:xlink="http://www.w3.org/1999/xlink" x="0px" y="0px"
	 viewBox="0 0 1000 1000" style="enable-background:new 0 0 1000 1000;" xml:space="preserve">
<g id="latinCapitalLetterX">
	<path d="M454.879,43.93c48.811,3.198,114.131,8.006,179.531,11.173c9.477,0.459,19.347-6.914,29.008-10.731
		c3.211-1.269,6.466-4.186,9.48-3.913c23.453,2.125,47.075,3.664,70.15,8.009c8.327,1.568,15.303,10.312,22.895,15.781
		c-7.383,4.59-14.679,12.902-22.166,13.076c-23.107,0.54-38.913,4.431-28.57,32.917c0.683,1.883,0.474,5.599-0.732,6.441
		c-46.662,32.599-50.245,89.486-74.883,134.372c-25.22,45.945-46.189,94.474-65.519,143.258
		c-6.187,15.613-6.786,37.969-0.403,53.257c29.027,69.518,60.838,137.912,93.504,205.818c3.77,7.837,18.781,13.136,29.158,14.256
		c15.649,1.689,31.883-2.598,47.704-1.64c5.069,0.307,9.62,9.178,14.407,14.131c-4.408,4.184-8.467,11.536-13.277,12.066
		c-53.965,5.947-107.959,13.626-162.116,15.297c-63.277,1.953-126.727-1.449-190.097-2.785c-42.52-0.896-85.114-1.101-127.489-4.175
		c-10.832-0.786-20.958-11.288-31.409-17.326c11.003-4.234,22.388-7.7,32.896-12.928c9.584-4.769,22.757-9.347,26.58-17.605
		c46.041-99.457,89.579-200.079,136.082-299.313c21.419-45.707,35.37-87.98,3.186-135.447c-21.071-31.076-44.293-64.931-51-100.476
		c-9.133-48.405-37.214-41.388-69.063-39.315c-5.634,0.367-11.69-5.735-17.551-8.85c5.788-5.308,11.184-14.664,17.427-15.268
		C354.248,49.982,396.063,47.824,454.879,43.93z M546.891,674.208c12.289,0,19.959,0.494,27.547-0.085
		c33.108-2.528,57.08-42.335,43.269-71.902c-18.702-40.038-37.402-80.083-56.778-119.795c-3.376-6.918-10.086-12.209-15.256-18.252
		c-4.37,5.853-9.987,11.145-12.917,17.647c-26.905,59.701-52.942,119.795-80.189,179.337c-7.19,15.713-2.091,21.964,12.839,20.962
		C494.156,680.19,522.798,676.63,546.891,674.208z M454.759,73.155c-47.251-6.926-57.802,23.818-36.659,62.315
		c16.089,29.295,30.092,59.729,45.544,89.384c3.005,5.767,8.411,10.282,12.709,15.374c3.51-5.214,7.942-10.032,10.38-15.706
		c15.537-36.158,30.636-72.503,45.875-108.789c17.655-42.038,17.171-42.341-29.581-40.412
		C487.914,75.944,472.696,74.039,454.759,73.155z M605.102,288.64c-21.38-27.593-40.636-54.137-62.289-78.557
		c-3.237-3.65-17.724,2.677-27.007,4.388c2.873,6.54,4.506,14.078,8.834,19.445c18.124,22.471,37.427,44,55.268,66.684
		c2.495,3.172-0.736,10.847-1.317,16.438c-5.417-2.124-12.412-2.784-15.977-6.626c-15.418-16.616-29.088-34.907-45.088-50.895
		c-4.526-4.522-14.79-3.301-22.423-4.713c1.248,7.47,0.067,16.882,4.197,22.049c12.75,15.952,27.133,30.677,41.608,45.153
		c20.895,20.897,4.862,38.847-3.603,57.571c-2.232,4.936-4.291,9.95-6.43,14.927c-5.346-2.303-11.474-3.612-15.896-7.091
		c-14.711-11.575-28.575-24.224-43.272-35.818c-4.878-3.848-11.292-5.75-17.003-8.541c2.08,6.86,2.217,15.48,6.568,20.283
		c21.336,23.555,43.704,46.183,66.068,68.782c1.391,1.406,7.914,0.783,8.591-0.596C558.331,385.928,580.31,340.127,605.102,288.64z
		 M391.827,627.904c1.825,9.472,4.189,20.264,5.879,31.161c0.793,5.111-0.445,14.809,0.487,14.965
		c9.425,1.579,25.748,5.16,27.688,1.529c18.501-34.629,34.626-70.532,51.17-106.19c0.629-1.357-0.948-4.335-2.269-5.91
		c-21.433-25.556-42.626-51.336-64.894-76.149c-3.581-3.99-17.225-5.636-17.541-4.853c-4.131,10.205-12.532,25.54-8.471,30.809
		c9.151,11.875,25.412,17.963,37.372,28.071c10.997,9.295,21.494,19.863,29.491,31.708c3.443,5.1,0.024,14.834-0.278,22.463
		c-9.012-4.166-18.002-8.38-27.049-12.47c-2.839-1.283-5.83-2.229-12.558-4.764c3.992,8.708,6.553,13.195,8.158,18
		c5.033,15.064,9.706,30.248,14.518,45.385C419.646,637.079,405.76,632.499,391.827,627.904z M470.381,413.946
		c-1.707,0.979-3.414,1.958-5.121,2.938c7.224,17.053,15.535,33.753,21.245,51.3c3.165,9.727,1.983,20.869,2.761,31.373
		c-11.219-4.179-24.821-5.732-33.052-13.202c-10.257-9.308-14.831-24.645-24.379-35.07c-4.437-4.845-14.821-4.244-22.509-6.112
		c2.166,6.4,2.472,14.808,6.828,18.844c16.971,15.722,37.904,27.848,52.397,45.41c23.589,28.583,22.006,29.969,38.6-5.083
		c4.554-9.618,9.101-19.294,12.721-29.281c2.228-6.145,5.953-16.57,3.422-18.836C506.498,441.191,488.194,427.843,470.381,413.946z
		 M575.059,171.782c-0.827,3.231-3.895,8.174-2.554,11.088c10.713,23.282,22.16,46.233,34.104,68.906
		c0.317,0.601,11.048-1.727,13.072-5.04C626.993,234.762,592.868,174.464,575.059,171.782z M600.507,140.286
		c-3.825-15.524-7.415-30.948-11.537-46.229c-1.025-3.798-3.767-7.133-5.72-10.68c-4.392,2.455-10.085,3.882-12.966,7.53
		c-19.121,24.217-5.915,41.395,13.571,56.501c3.642,2.824,8.654,3.881,13.034,5.753
		C598.055,149.008,599.223,144.855,600.507,140.286z M465.212,422.462c-7.931-14.343-15.489-28.009-23.046-41.674
		c-6.526,10.022-20.492,23.015-17.938,29.412c4.509,11.293,19.086,18.566,29.449,27.521
		C456.726,433.687,459.776,429.653,465.212,422.462z M407.475,603.091c-9.997-23.458-15.385-39.5-23.8-53.756
		c-2.488-4.215-13.514-3.391-20.627-4.876c0.139,8.727-3.253,20.58,1.14,25.542C373.827,580.892,387.407,588.295,407.475,603.091z
		 M646.708,181.947c-9.735-13.989-20.041-29.122-30.845-43.89c-1.273-1.74-5.282-1.478-8.023-2.144
		c-0.695,3.434-3.029,7.656-1.818,10.173c7.477,15.55,15.519,30.849,23.984,45.886c1.472,2.614,5.852,3.59,8.889,5.323
		C640.747,193.656,642.6,190.017,646.708,181.947z M555.972,198.519c4.157-1.996,8.315-3.991,12.472-5.987
		c-6.383-13.909-12.767-27.817-19.15-41.726c-3.718,2.867-11.076,7.103-10.591,8.391
		C543.735,172.577,550.029,185.482,555.972,198.519z M317.863,680.924c7.406-5.214,11.961-8.42,16.517-11.627
		c-5.125-3.629-9.859-8.707-15.548-10.24c-2.619-0.706-10.04,5.545-10.025,8.616C308.825,671.713,314.026,675.729,317.863,680.924z
		 M488.517,330.94c2.786-1.69,5.573-3.38,8.359-5.07c-5.86-8.142-11.704-16.296-17.781-24.272c-0.069-0.09-4.745,2.932-4.63,3.158
		C478.957,313.581,483.757,322.25,488.517,330.94z"/>
</g>
<g id="Layer_1">
</g>
</svg>
