<?xml version="1.0" encoding="iso-8859-1"?>
<!-- Generator: Adobe Illustrator 25.2.0, SVG Export Plug-In . SVG Version: 6.00 Build 0)  -->
<svg version="1.1" xmlns="http://www.w3.org/2000/svg" xmlns:xlink="http://www.w3.org/1999/xlink" x="0px" y="0px"
	 viewBox="0 0 1000 1000" style="enable-background:new 0 0 1000 1000;" xml:space="preserve">
<g id="questionMark">
	<path d="M703.758,197.771c0.446,74.95-25.915,118.152-66.325,151.616c-53.496,44.3-109.878,85.132-165.484,126.835
		c-4.373,3.279-12.378,1.715-18.695,2.401c2.551-7.034,3.017-16.743,8.015-20.64c21.805-17.005,46.432-30.579,67.28-48.587
		c56.357-48.682,82.768-112.739,86.121-185.862c2.363-51.517-40.824-106.547-91.475-121.965
		c-54.099-16.467-111.012,3.356-142.451,48.338c-9.872,14.124-6.519,18.567,9.137,20.726c39.317,5.422,62.382,31.228,72.001,66.797
		c10.222,37.798-6.374,67.442-37.481,90.442c-25.484,18.843-77.194,11.271-99.219-10.873
		c-36.997-37.198-35.637-71.199-12.197-117.474c37.22-73.478,90.588-128.428,168.194-146.359
		c41.449-9.577,91.65,4.336,134.444,18.269C683.366,93.489,699.668,153.38,703.758,197.771z M323.171,269.024
		c2.135,2.407,4.27,4.815,6.405,7.222c5.174-4.115,10.202-8.429,15.546-12.308c18.984-13.779,37.763-27.888,57.383-40.702
		c4.049-2.645,11.387-0.255,17.209-0.185c-3.711,3.418-7.257,7.038-11.161,10.22c-20.91,17.046-42.161,33.691-62.6,51.281
		c-2.991,2.574-2.266,9.465-3.26,14.359c4.44,0.328,10.156,2.611,13.119,0.677c24.256-15.834,48.383-31.939,71.614-49.22
		c5.399-4.016,11.828-16.16,9.871-18.887c-8.001-11.152-18.424-20.986-29.554-29.116c-2.183-1.594-11.551,6.397-17.449,10.21
		c-5.789,3.743-11.801,7.31-16.977,11.805C356.421,239.052,339.861,254.113,323.171,269.024z M395.061,318.479
		c13.239-12.473,29.747-27.238,45.045-43.165c2.747-2.861,0.502-10.517,0.563-15.958c-4.587,1.151-10.006,1.119-13.619,3.657
		c-16.267,11.432-32.236,23.323-47.809,35.683c-3.895,3.091-5.922,8.537-8.807,12.9
		C375.534,313.022,380.635,314.447,395.061,318.479z M686.563,227.462c2.324-5.289,4.648-10.578,6.971-15.867
		c-8.594-3.012-20.096-11.004-25.193-8.027c-11.506,6.72-19.846,18.86-29.474,28.795c7.106,6.747,17.559,20.474,20.707,18.965
		C669.99,246.334,677.771,235.844,686.563,227.462z M630.059,164.984c11.516-8.406,20.891-15.249,30.267-22.093
		c-7.177-4.516-15.545-13.854-21.258-12.443c-9.084,2.242-16.398,11.655-24.461,18.035
		C618.836,152.998,623.063,157.513,630.059,164.984z M620.036,335.772c13.353-15.699,23.747-27.921,34.143-40.143
		c-3.453-2.803-9.801-8.201-9.946-8.04c-9.491,10.588-18.796,21.394-27.208,32.848C615.605,322.371,618.223,327.27,620.036,335.772z
		 M335.99,231.729c15.391-12.636,28.514-23.409,41.636-34.182c-2.132-1.313-5.553-4.225-6.204-3.701
		c-12.518,10.092-24.716,20.58-36.924,31.052C334.271,225.092,334.729,226.085,335.99,231.729z M604.075,96.553
		c-4.644,6.11-11.82,11.547-11.148,15.719c0.772,4.794,9.305,12.514,13.022,11.768c7.246-1.455,13.487-7.921,20.144-12.312
		C619.593,107.247,613.091,102.766,604.075,96.553z"/>
	<path d="M482.619,700c-21.376-0.165-48.626-28.823-49.144-51.683c-0.726-32.059,40.04-70.961,74.517-71.111
		c20.355-0.088,51.1,32.136,49.067,54.946C553.307,674.24,535.623,699.637,482.619,700z M512.889,625.869
		c0.776,1.231,1.553,2.463,2.329,3.694c-14.221,12.467-28.598,24.764-42.522,37.554c-2.556,2.347-3.273,6.697-4.839,10.122
		c4.075-0.413,9.01,0.514,12.086-1.458c19.404-12.441,38.539-25.321,57.352-38.638c2.559-1.811,2.817-6.873,4.14-10.429
		c-1.914-0.357-4.119-1.495-5.683-0.913c-3.656,1.362-7.004,3.551-10.477,5.405c1.478-4.542,3.23-9.018,4.341-13.647
		c0.771-3.215,1.995-7.457,0.59-9.761c-1.612-2.644-6.14-5.285-8.96-4.877c-2.423,0.35-4.348,4.912-6.256,7.769
		c-1.232,1.845-1.8,5.549-3.072,5.742c-23.827,3.617-52.05,27.352-57.684,49.683C474.09,652.49,493.489,639.179,512.889,625.869z
		 M501.238,604.295c-31.634-0.874-49.351,12.49-49.113,35.886C468.048,628.546,483.467,617.28,501.238,604.295z M492.242,678.549
		c1.428,2.585,2.855,5.169,4.283,7.754c11.342-6.8,23.056-13.085,33.733-20.804c2.343-1.694,0.999-8.49,1.352-12.936
		c-3.316,0.814-7.297,0.728-9.83,2.601C511.689,662.628,502.049,670.701,492.242,678.549z"/>
</g>
<g id="Layer_1">
</g>
</svg>
