<?xml version="1.0" encoding="iso-8859-1"?>
<!-- Generator: Adobe Illustrator 25.2.0, SVG Export Plug-In . SVG Version: 6.00 Build 0)  -->
<svg version="1.1" xmlns="http://www.w3.org/2000/svg" xmlns:xlink="http://www.w3.org/1999/xlink" x="0px" y="0px"
	 viewBox="0 0 1000 1000" style="enable-background:new 0 0 1000 1000;" xml:space="preserve">
<g id="solidus">
	<path d="M465.246,700c-48.493-2.216-97.002-4.169-145.455-7.064c-4.744-0.282-9.143-6.356-13.702-9.742
		c4.532-3.734,9.482-11.086,13.53-10.619c27.902,3.216,33.842-11.011,41.655-35.814c18.977-60.238,46.002-117.883,67.712-177.33
		c34.893-95.545,68.757-191.484,101.213-287.877c3.966-11.779-1.58-28.017-6.118-41c-3.544-10.137-12.9-18.1-18.748-27.599
		C482.398,65.7,488.54,54.348,531.785,53.239C580.379,51.994,628.97,50.4,677.571,50c5.72-0.047,15.541,5.829,16.243,10.135
		c0.926,5.685-4.944,12.725-8.485,18.84c-8.89,15.352-20.785,29.537-26.754,45.911c-30.312,83.144-59.437,166.727-88.368,250.367
		c-28.055,81.104-55.942,162.282-82.037,244.023c-2.329,7.294,8.818,19.121,14.169,28.581c7.021,12.41,14.502,24.561,21.785,36.823
		c-13.284,3.592-26.463,7.665-39.897,10.559c-6.007,1.293-12.525,0.219-18.811,0.219C465.359,696.972,465.303,698.486,465.246,700z
		 M434.325,586.889c11.258,3.253,22.517,6.506,33.775,9.76c-2.534-12.111-1.111-28.838-8.556-35.22
		c-10.426-8.937-27.457-10.168-41.663-14.696c3.049,9.674,5.722,19.491,9.316,28.959c1.63,4.293,5.085,7.893,7.732,11.806
		c-9.997,2.141-19.994,4.282-29.991,6.423c12.005,10.718,23.792,21.699,36.204,31.922c2.351,1.936,7.181,0.863,10.866,1.179
		c-3.825-8.975-7.598-17.973-11.497-26.915C438.568,595.647,436.394,591.291,434.325,586.889z M609.628,211.495
		c-11.647-11.572-22.499-24.145-35.281-34.287c-6.265-4.971-16.113-5.426-24.339-7.925c-0.811,11.128-1.511,22.265-2.457,33.381
		c-1.842,21.656,6.27,25.758,28.751,32.964C604.152,244.553,604.299,238.086,609.628,211.495z M576.293,127.194
		c-3.636,0.677-7.272,1.354-10.907,2.031c-1.656,8.8-7.767,21.843-4.159,25.632c12.533,13.164,28.057,23.714,43.516,33.579
		c2.059,1.314,10.289-7.043,15.661-10.92C605.699,160.742,590.996,143.968,576.293,127.194z M557.746,364.61
		c-14.773-11.51-29.973-24.185-46.196-35.376c-3.793-2.616-11.056-0.202-16.723-0.102c1.061,5.843,0.273,13.16,3.533,17.253
		c9.523,11.955,20.369,22.92,31.293,33.667c5.115,5.032,11.6,8.671,17.464,12.942C549.755,385.947,552.394,378.902,557.746,364.61z
		 M431.918,678.413c9.267-13.764,16.074-23.05,15.661-23.382c-15.43-12.442-31.396-24.253-47.941-35.164
		c-0.763-0.504-11.371,11.376-10.904,11.92C401.008,646.091,414.138,659.659,431.918,678.413z M461.605,452.742
		c-3.53,1.07-7.061,2.139-10.591,3.209c-1.631,6.888-6.973,16.914-4.256,20.128c12.422,14.696,26.771,27.869,41.401,40.457
		c1.784,1.535,9.439-3.755,14.374-5.882C488.89,491.35,475.248,472.046,461.605,452.742z M621.716,82.781
		c4.615,0.406,8.087,0.111,11.128,1.118c4.606,1.525,8.912,3.955,13.346,6c0.619-2.532,2.436-6.765,1.657-7.314
		c-4.203-2.964-8.972-6.818-13.692-7.024c-11.785-0.514-23.722,0.198-35.433,1.702c-3.29,0.422-8.802,7.536-8.588,7.802
		c10.745,13.386,21.504,26.868,33.704,38.874c1.994,1.963,10.59-2.783,16.135-4.428c-5.734-10.551-11.476-21.097-17.178-31.665
		C622.477,87.259,622.488,86.494,621.716,82.781z M533.86,229c-3.871,16.312-8.03,24.595-5.967,26.657
		c12.678,12.679,26.674,24.061,40.644,35.364c0.682,0.552,5.238-3.685,7.99-5.692C564.373,269.284,552.22,253.239,533.86,229z
		 M481.144,387.814c-2.215,1.087-4.429,2.175-6.644,3.262c0.626,4.956-0.48,11.303,2.184,14.622
		c10.454,13.021,21.854,25.322,33.444,37.371c3.657,3.802,9.005,5.979,13.579,8.899c-1.03-5.409-0.558-11.834-3.392-16.023
		c-6.601-9.757-14.809-18.424-22.337-27.558C492.343,401.55,486.754,394.673,481.144,387.814z M628.885,144.151
		c-16.77-14.224-32.347-27.584-48.253-40.54c-0.909-0.741-6.35,1.595-6.513,2.897c-0.475,3.785-0.782,9.153,1.411,11.447
		c10.541,11.023,21.572,21.662,33.253,31.454c3.14,2.632,9.177,2.309,13.879,2.288C624.152,151.689,625.625,148.257,628.885,144.151
		z M470.184,421.389c-5.877,7.34-9.479,11.183-9.164,11.538c11.865,13.319,24.046,26.362,36.533,39.099
		c0.303,0.309,4.555-3.253,6.966-5.01C493.719,452.664,482.919,438.312,470.184,421.389z M523.008,274.977
		c-1.647,2.131-3.295,4.261-4.943,6.392c13.572,11.542,26.937,23.345,40.886,34.412c2.855,2.265,7.899,1.77,11.934,2.548
		c-1.174-4.723-0.774-11.565-3.792-13.807C552.913,293.981,537.794,284.705,523.008,274.977z M559.292,90.654
		c-8.739-4.968-14.402-10.78-19.86-10.594c-6.014,0.205-11.84,5.92-17.748,9.235c7.683,7.646,15.366,15.292,23.049,22.938
		C548.538,106.594,552.342,100.956,559.292,90.654z M498.009,548.116c-10.676-9.344-18.732-16.396-26.788-23.447
		c-1.736,2.261-5.39,5.92-4.916,6.571c5.865,8.05,12.126,15.855,18.96,23.085C485.947,555.046,491.058,551.581,498.009,548.116z
		 M424.636,515.416c8.649,3.932,13.263,7.69,17.824,7.628c4.439-0.061,8.825-4.034,13.234-6.29
		c-4.867-5.406-9.733-10.813-14.599-16.219C436.925,504.303,432.757,508.072,424.636,515.416z M577.471,247.23
		c-1.524,1.739-3.048,3.478-4.573,5.217c5.258,4.724,10.515,9.449,15.773,14.174c1.983-2.721,3.967-5.443,5.95-8.164
		C588.905,254.715,583.188,250.973,577.471,247.23z"/>
</g>
<g id="Layer_1">
</g>
</svg>
