<?xml version="1.0" encoding="iso-8859-1"?>
<!-- Generator: Adobe Illustrator 25.2.0, SVG Export Plug-In . SVG Version: 6.00 Build 0)  -->
<svg version="1.1" xmlns="http://www.w3.org/2000/svg" xmlns:xlink="http://www.w3.org/1999/xlink" x="0px" y="0px"
	 viewBox="0 0 1000 1000" style="enable-background:new 0 0 1000 1000;" xml:space="preserve">
<g id="tilde">
	<path d="M673.792,455.387c-86.75-9.397-151.677-26.424-204.117-80.249c-27.339-28.061-59.938-57.598-95.758-69.219
		c-51.524-16.714-104.714-6.988-144.085,39.341c-6.373,7.499-18.396,10.196-27.808,15.113c-3.094-9.086-5.749-18.352-9.371-27.222
		c-8.31-20.348-22.149-42.781,0.903-60c29.26-21.855,59.316-46.181,93.04-57.863c101.969-35.321,171.959,22.807,238.007,89.468
		c39.547,39.914,82.981,71.976,144.261,72.188c41.888,0.145,73.427-15.791,101.065-44.471c5.181-5.376,10.531-11.177,16.959-14.631
		c10.233-5.499,21.437-9.191,32.23-13.647c-2.982,10.77-5.934,21.549-8.972,32.303c-0.602,2.133-2.242,4.186-2.206,6.255
		c0.623,35.532-11.176,65.298-45.019,79.995C729.633,437.205,694.695,447.859,673.792,455.387z M541.386,381.847
		c-10.315-14.723-19.891-28.598-29.973-42.094c-0.444-0.594-7.859,2.013-8.024,3.558c-0.785,7.341-3.217,17.649,0.542,21.698
		c8.585,9.249,20.385,15.549,31.15,22.634C535.592,387.979,538.718,384.343,541.386,381.847z M350.807,236.116
		c-1.348,2.526-2.696,5.051-4.045,7.577c5.491,6.776,9.682,16.224,16.787,19.679c9.823,4.777,21.841,5.041,32.919,7.238
		c-4.616-6.957-7.809-15.969-14.185-20.387C372.993,243.786,361.412,240.656,350.807,236.116z M287.483,272.936
		c-10.091-7.092-15.491-13.721-21.461-14.28c-5.878-0.55-12.332,5.053-18.533,7.956c4.85,4.797,9.089,12.394,14.718,13.624
		C268.15,281.534,275.419,276.761,287.483,272.936z M595.51,404.906c-10.674-7.124-17.605-12.305-25.182-16.24
		c-1.214-0.631-5.324,4.315-8.095,6.684c6.915,4.72,13.618,9.822,20.905,13.873C584.815,410.155,588.497,407.482,595.51,404.906z
		 M226.706,285.55c-4.474,6.473-8.394,11.141-10.9,16.473c-0.632,1.345,3.263,4.817,5.078,7.312
		c5.086-5.004,10.172-10.007,15.257-15.011C233.825,292.17,231.508,290.015,226.706,285.55z M299.995,238.078
		c-1.976,5.763-5.022,10.437-3.853,12.039c3.411,4.681,8.325,8.396,13.166,11.743c0.612,0.423,4.305-3.614,6.571-5.584
		C312.222,252.085,308.564,247.895,299.995,238.078z"/>
</g>
<g id="Layer_1">
</g>
</svg>
