<?xml version="1.0" encoding="iso-8859-1"?>
<!-- Generator: Adobe Illustrator 25.2.0, SVG Export Plug-In . SVG Version: 6.00 Build 0)  -->
<svg version="1.1" xmlns="http://www.w3.org/2000/svg" xmlns:xlink="http://www.w3.org/1999/xlink" x="0px" y="0px"
	 viewBox="0 0 1000 1000" style="enable-background:new 0 0 1000 1000;" xml:space="preserve">
<g id="circumflexAccent">
	<path d="M695.645,306.126c-7.62,8.553-13.892,17.711-22.402,23.673c-2.157,1.512-13.376-5.836-17.154-11.356
		c-31.594-46.155-62.147-93.02-93.626-139.257c-11.479-16.861-26.672-31.444-36.536-49.098
		c-17.814-31.884-33.57-26.425-52.657-1.691c-43.04,55.775-86.079,111.592-130.98,165.849c-8.072,9.753-25.062,12.125-37.935,17.904
		c3.284-11.978,3.373-26.395,10.359-35.546c54.643-71.577,111.237-141.667,165.783-213.317
		c16.088-21.133,29.327-14.141,40.453,0.741c38.674,51.728,75.941,104.511,113.627,156.976
		c16.858,23.469,33.416,47.151,50.169,70.694C688.148,296.482,691.818,301.076,695.645,306.126z"/>
</g>
<g id="Layer_1">
</g>
</svg>
