<?xml version="1.0" encoding="iso-8859-1"?>
<!-- Generator: Adobe Illustrator 25.2.0, SVG Export Plug-In . SVG Version: 6.00 Build 0)  -->
<svg version="1.1" xmlns="http://www.w3.org/2000/svg" xmlns:xlink="http://www.w3.org/1999/xlink" x="0px" y="0px"
	 viewBox="0 0 1000 1000" style="enable-background:new 0 0 1000 1000;" xml:space="preserve">
<g id="colon">
	<path d="M549.351,654.509c-0.211,27.745-22.095,45.248-56.874,45.49c-22.404,0.156-41.296-20.217-41.826-45.106
		c-0.38-17.84,37.32-47.289,59.91-46.799C530.949,608.536,549.532,630.772,549.351,654.509z M501.574,675.933
		c-0.724-0.459-1.449-0.918-2.174-1.376c4.722-13.066,9.632-26.069,13.984-39.257c0.743-2.253-0.896-5.293-1.435-7.969
		c-2.787,1.058-7.144,1.341-8.109,3.298c-6.907,13.996-13.38,28.228-19.248,42.686c-0.776,1.913,2.338,7.768,4.179,8.025
		c28.461,3.98,44.479-13.09,38.492-41.858C518.426,652.021,510,663.977,501.574,675.933z M485.656,644.853
		c-2.398-1.237-4.797-2.473-7.195-3.71c-2.985,6.559-6.136,13.054-8.72,19.768c-0.281,0.729,2.714,2.719,4.19,4.125
		C477.84,658.309,481.748,651.581,485.656,644.853z"/>
	<path d="M450.675,374.474c0.211-27.73,22.083-45.224,56.844-45.466c22.392-0.156,41.274,20.206,41.804,45.082
		c0.38,17.83-37.3,47.264-59.879,46.774C469.067,420.422,450.495,398.199,450.675,374.474z M498.426,353.062
		c0.724,0.459,1.448,0.917,2.172,1.376c-4.719,13.059-9.626,26.056-13.977,39.236c-0.743,2.252,0.896,5.29,1.434,7.965
		c2.785-1.057,7.14-1.34,8.105-3.296c6.903-13.988,13.373-28.213,19.238-42.664c0.776-1.912-2.337-7.764-4.176-8.021
		c-28.446-3.978-44.456,13.083-38.471,41.836C481.584,376.961,490.005,365.011,498.426,353.062z M514.336,384.125
		c2.397,1.236,4.794,2.472,7.191,3.708c2.984-6.555,6.133-13.047,8.715-19.757c0.281-0.729-2.712-2.718-4.187-4.123
		C522.149,370.676,518.242,377.401,514.336,384.125z"/>
</g>
<g id="Layer_1">
</g>
</svg>
