<?xml version="1.0" encoding="iso-8859-1"?>
<!-- Generator: Adobe Illustrator 25.2.0, SVG Export Plug-In . SVG Version: 6.00 Build 0)  -->
<svg version="1.1" xmlns="http://www.w3.org/2000/svg" xmlns:xlink="http://www.w3.org/1999/xlink" x="0px" y="0px"
	 viewBox="0 0 1000 1000" style="enable-background:new 0 0 1000 1000;" xml:space="preserve">
<g id="commercialAt">
	<path d="M609.824,395.267c0,34.951-0.129,69.903,0.177,104.851c0.035,4.015,2.502,8.009,3.841,12.012
		c3.435-2.604,7.956-4.51,10.144-7.915c41.98-65.332,44.265-132.652,10.406-202.135c-5.944-12.196-10.898-25.68-12.501-39.026
		c-3.892-32.41-26.42-52.279-48.768-69.785c-27.743-21.733-60.435-10.962-88.307,1.628
		c-50.411,22.771-87.023,62.377-104.923,114.217c-17.914,51.879-36.476,105.545-40.81,159.547
		c-4.499,56.054,14.736,112.187,44.105,161.183c23.933,39.928,68.582,43.576,109.799,46.805
		c37.574,2.944,76.853,6.669,111.301-13.513c21.321-12.492,39.706-29.963,59.608-44.932c4.135-3.11,9.154-5.044,13.765-7.519
		c0.842,7.78,5.394,18.322,1.967,22.922C634,694.87,568.992,703.839,498.935,698.812c-58.227-4.18-112.567-15.774-153.182-63.603
		c-41.6-48.991-60.565-107.587-69.936-168.643c-5.979-38.952-8.619-81.373,0.604-118.96c11.824-48.184,38.009-93.046,79.368-124.345
		c55.888-42.293,120.073-65.712,189.975-63.566c27.833,0.854,60.037,11.11,81.748,28.009
		c45.077,35.088,85.609,77.211,97.611,136.799c20.424,101.399-29.667,213.731-135.385,239.247
		c-31.135,7.515-50.299-3.572-63.239-31.512c-1.439-3.107-10.171-5.963-13.668-4.502c-31.936,13.346-64.939,16.412-93.372-3.716
		c-34.184-24.2-36.537-61.264-32.952-100.852c3.742-41.325,17.487-72.045,60.196-83.736c2.248-0.615,4.476-1.637,6.753-1.763
		c44.812-2.481,89.647-4.608,134.441-7.38c17.127-1.06,23.011,7.078,22.489,22.939c-0.46,13.999-0.096,28.025-0.096,42.039
		C610.135,395.267,609.98,395.267,609.824,395.267z M521.352,431.612c0.427-0.036,0.855-0.072,1.282-0.108
		c0-12.239,2.243-25.043-0.658-36.551c-2.675-10.612-8.9-25.299-17.139-28.272c-10.158-3.666-27.79-1.258-35.639,5.806
		c-37.292,33.562-26.536,114.316,17.94,136.573c7.13,3.568,20.629-2.871,29.862-7.388c4.508-2.206,8.443-10.67,8.36-16.237
		C525.095,467.478,522.841,449.55,521.352,431.612z M330.376,294.431c-0.848,0.321-7.447,2.134-7.328,2.879
		c0.879,5.53,2.622,11.067,4.995,16.183c3.837,8.272,15.608,18.12-5.264,19.602c-30.217,2.146-29.827,1.958-13.135,28.792
		c2.422,3.893,0.421,12.915-2.745,17.182c-2.712,3.656-10.023,3.899-15.301,5.652c4.041,5.295,7.21,11.714,12.298,15.659
		c12.031,9.329,19.255,17.469,1.687,28.596c-2.093,1.326-2.121,9.609-0.13,12.821c3.027,4.882,8.66,8.148,13.186,12.1
		c1.797-4.677,4.134-9.222,5.306-14.051c9.416-38.766,17.048-78.055,28.502-116.2C358.685,302.871,350.491,297.329,330.376,294.431z
		 M540.248,366.643c2.817,7.215,3.461,14.084,6.659,15.612c3.296,1.575,9.262-1.613,13.729-3.501
		c7.292-3.084,15.207-5.729,21.132-10.642c3.795-3.147,4.486-10.037,6.568-15.249c-12.348-0.725-24.89-2.952-36.941-1.389
		C546.981,352.047,543.734,361.606,540.248,366.643z M574.2,440.501c21.24-3.712,17.36-25.272,17.106-44.18
		c-0.056-4.155-4.238-8.254-6.52-12.379c-5.385,5.787-14.783,11.234-15.309,17.434C568.422,413.782,572.225,426.6,574.2,440.501z
		 M591.863,482.763c-2.82-10.649-3.812-14.395-4.804-18.142c-3.481,1.531-7.97,2.168-10.262,4.754
		c-8.418,9.496-16.429,19.412-23.696,29.798c-1.008,1.441,3.022,6.405,4.721,9.739C569.74,499.756,581.658,490.601,591.863,482.763z
		 M710.876,331.001c-6.42-6.898-9.045-9.719-11.67-12.539c-8.431,8.499-16.924,16.941-25.003,25.762
		c-0.259,0.283,5.079,6.76,5.55,6.485C689.443,345.048,698.805,338.826,710.876,331.001z M682.203,474.428
		c-6.519-2.59-11.486-5.486-12.171-4.692c-6.764,7.849-12.928,16.232-18.837,24.759c-0.423,0.609,2.506,3.541,3.876,5.393
		C663.217,492.244,671.362,484.601,682.203,474.428z M628.492,208.232c-2.026,1.475-4.052,2.949-6.078,4.424
		c5.216,10.004,9.994,20.284,15.983,29.802c1.364,2.169,6.914,1.706,10.537,2.454c0.353-3.509,2.315-8.158,0.778-10.328
		C643.205,225.399,635.658,216.95,628.492,208.232z M402.731,408.185c4.797,6.203,7.419,9.593,10.041,12.984
		c5.358-4.302,10.716-8.603,16.074-12.905c-3.603-3.618-7.233-10.15-10.802-10.117C413.591,398.188,409.19,403.638,402.731,408.185z
		 M712.845,374.222c-3.959-5.99-5.88-8.897-7.801-11.803c-4.616,6.939-9.503,13.729-13.489,21.012
		c-0.475,0.867,3.961,4.423,6.12,6.733C702.529,385.063,707.383,379.962,712.845,374.222z M663.059,255.745
		c-4.706,5.252-8.916,8.62-10.926,12.998c-0.608,1.325,6.148,8.331,7.353,7.799c5.937-2.621,11.143-6.9,16.607-10.594
		C672.713,263.302,669.332,260.656,663.059,255.745z M339.465,594.682c1.433-0.608,2.866-1.216,4.299-1.825
		c-1.055-4.889-1.337-10.132-3.374-14.571c-2.227-4.852-5.803-9.206-9.419-13.21c-0.868-0.961-4.219,0.32-6.428,0.57
		c1.913,5.105,3.386,10.437,5.863,15.252C332.908,585.759,336.405,590.108,339.465,594.682z M400.738,234.694
		c-5.273-4.323-9.226-9.767-11.861-9.191c-3.656,0.8-9.371,6.903-8.748,9.339c1.132,4.425,6.286,7.82,9.762,11.645
		C392.893,243.224,395.894,239.96,400.738,234.694z M570.859,520.385c-1.934-1.282-3.869-2.565-5.803-3.848
		c-4.2,5.752-8.4,11.503-12.6,17.255c2.809,1.911,5.619,3.822,8.429,5.733C564.209,533.146,567.534,526.766,570.859,520.385z
		 M313.245,502.221c2.381-0.597,4.763-1.193,7.144-1.79c-1.874-7.404-3.469-14.907-6.021-22.069
		c-0.278-0.779-6.078,0.409-9.316,0.685C307.783,486.771,310.514,494.496,313.245,502.221z M426.071,507.795
		c3.015-9.106,5.16-13.238,5.446-17.495c0.132-1.958-3.375-4.161-5.233-6.254c-3.413,3.142-8.243,5.758-9.682,9.633
		C415.804,495.828,420.671,500.081,426.071,507.795z M365.145,283.346c4.347-5.426,8.452-8.499,9.101-12.182
		c0.35-1.984-4.875-5.944-8.257-7.197c-1.854-0.687-7.513,3.043-7.342,3.684C359.874,272.255,362.157,276.578,365.145,283.346z"/>
</g>
<g id="Layer_1">
</g>
</svg>
