<?xml version="1.0" encoding="iso-8859-1"?>
<!-- Generator: Adobe Illustrator 25.2.0, SVG Export Plug-In . SVG Version: 6.00 Build 0)  -->
<svg version="1.1" xmlns="http://www.w3.org/2000/svg" xmlns:xlink="http://www.w3.org/1999/xlink" x="0px" y="0px"
	 viewBox="0 0 1000 1000" style="enable-background:new 0 0 1000 1000;" xml:space="preserve">
<g id="comma">
	<path d="M502.526,615.575c32.671-0.641,57.207,40.532,39.469,75.852c-11.637,23.172-24.201,47.341-50.685,58.012
		c-3.896,1.57-9.371-0.779-14.115-1.315c2.023-4.184,3.353-8.932,6.208-12.438c6.769-8.315,15.006-15.509,21.209-24.185
		c4.439-6.209,1.084-8.978-6.602-9.019c-28.551-0.152-47.302-19.331-45.876-46.11C453.211,636.163,479.564,614.828,502.526,615.575z
		 M502.616,686.371c15.129-2.55,30.564-27.15,26.671-37.396c-0.438-1.152-1.808-2.829-2.605-2.755
		c-1.117,0.104-2.447,1.429-3.091,2.568C516.914,660.588,510.357,672.455,502.616,686.371z M512.983,636.282
		c-4.72,9.093-9.525,18.205-14.169,27.398c-1.161,2.298-1.803,4.859-2.684,7.298c2.385-1.597,5.676-2.659,6.992-4.887
		c4.756-8.051,9.012-16.415,13.076-24.845c1.046-2.169,1.607-6.855,0.832-7.24c-4.33-2.146-9.121-3.398-13.838-4.636
		c-0.25-0.066-1.263,2.779-1.921,4.27C504.798,634.436,508.324,635.231,512.983,636.282z M494.642,631.096
		c-21.354,5.539-29.312,16.725-24.541,30.938C477.762,652.375,484.978,643.279,494.642,631.096z M476.602,683.896
		c8.352-13.31,14.139-22.261,19.555-31.432c0.902-1.527,0.183-4.011,0.213-6.052c-2.066,0.944-4.906,1.327-6.064,2.927
		c-5.261,7.269-10.272,14.75-14.827,22.476C474.506,673.462,475.807,676.451,476.602,683.896z"/>
</g>
<g id="Layer_1">
</g>
</svg>
