<?xml version="1.0" encoding="iso-8859-1"?>
<!-- Generator: Adobe Illustrator 25.2.0, SVG Export Plug-In . SVG Version: 6.00 Build 0)  -->
<svg version="1.1" xmlns="http://www.w3.org/2000/svg" xmlns:xlink="http://www.w3.org/1999/xlink" x="0px" y="0px"
	 viewBox="0 0 1000 1000" style="enable-background:new 0 0 1000 1000;" xml:space="preserve">
<g id="digitZero">
	<path d="M227.32,441.48c-6.002-114.48,27.162-215.268,109.601-295.279c40.457-39.267,85.97-77.768,142.99-89.653
		c103.086-21.485,190.226,9.026,243.365,104.567c31.295,56.267,57.999,120.936,47.931,186.691
		c-15.848,103.504-34.11,208.09-108.548,291.242c-33.453,37.37-75.911,50.304-122.869,57.085
		c-82.569,11.924-158.29-3.011-224.972-54.733c-47.006-36.46-69.541-87.277-80.589-143.96
		C230.642,479.037,229.552,460.147,227.32,441.48z M670.94,340.464c2.512-0.486,5.025-0.972,7.537-1.459
		c-9.967-49.943-17.411-100.556-30.471-149.677c-21.616-81.307-75.544-118.881-153.112-108.81
		c-43.91,5.7-76.149,31.159-102.653,66.245c-67.809,89.766-62.038,197.275-70.248,300.131
		c-3.448,43.202,9.762,88.956,21.855,131.725c7.447,26.336,21.248,57.88,42.312,72.094c73.849,49.834,200.32,8.619,235.82-73.132
		C654.743,502.139,676.118,423.953,670.94,340.464z M738.002,426.52c-2.924-1.484-5.848-2.967-8.771-4.451
		c-8.481,12.38-26.623,32.429-23.872,35.894c17.639,22.222-3.155,29.795-12.091,41.824c-9.281,12.494-19.572,24.292-28.127,37.249
		c-3.689,5.587-4.123,13.322-6.035,20.082c7.03-1.488,14.903-1.422,20.958-4.707C731.714,524.391,723.137,470.428,738.002,426.52z
		 M293.426,355.498c-13.345,7.178-21.292,10.757-28.494,15.474c-13.768,9.016-24.747,47.733-14.149,51.906
		c9.374,3.692,24.253-4.942,36.049-9.738c6.055-2.462,13.353-7.453,15.387-13.019c3.822-10.461,4.231-22.168,6.059-33.357
		c-7.116,4.38-14.208,8.8-21.383,13.081c-0.743,0.443-1.979,0.06-3.743,0.06C285.802,373.612,288.319,367.632,293.426,355.498z
		 M589.454,659.92c3.371-0.336,5.943-0.039,8.056-0.886c29.21-11.715,48.385-32.971,58.659-62.471
		c2.437-6.996,4.411-14.154,6.598-21.236c-7.881,4.102-18.29,6.265-23.186,12.655C622.272,610.57,606.848,634.606,589.454,659.92z
		 M754.247,347.966c-0.378-1.062-1.555-4.367-2.733-7.673c-3.237,1.289-7.181,1.806-9.587,4.005
		c-9.204,8.414-17.711,17.591-26.933,25.983c-2.653,2.414-6.896,4.447-10.301,4.289c-3.461-0.16-6.786-3.239-10.171-5.04
		c0.388,9.323,0.456,18.68,1.436,27.94c0.196,1.849,3.816,4.679,5.957,4.773C725.31,403.262,754.573,374.096,754.247,347.966z
		 M305.942,547.873c-1.4-1.176-6.197-5.886-6.657-5.495c-9.788,8.326-29.331,12.656-14.253,32.173
		c8.356,10.816,14.88,23.344,24.492,32.801c7.705,7.581,18.818,11.699,28.419,17.354c-4.408-11.004-8.748-22.035-13.295-32.98
		c-0.677-1.63-2.224-3.983-3.541-4.104C293.682,585.112,301.772,567.108,305.942,547.873z M698.471,334.184
		c2.425,2.341,4.849,4.681,7.274,7.022c12.885-10.268,27.723-18.953,37.856-31.451c5.319-6.56,2.397-19.802,3.196-30.026
		c-2.98,0.291-7.463-0.572-8.709,1.051C724.59,298.356,711.6,316.323,698.471,334.184z M294.505,302.611
		c-11.024,5.449-19.889,7.938-26.037,13.455c-5.102,4.58-7.005,12.725-10.325,19.29c6.286,2.321,13.81,8.036,18.61,6.285
		c11.401-4.16,21.729-11.533,31.968-18.387c2.103-1.407,1.927-6.218,2.801-9.46c-3.548-0.397-7.42-1.879-10.569-0.939
		c-4.917,1.469-9.343,4.579-16.602,8.361C288.177,314.206,290.427,310.083,294.505,302.611z M265.567,536.799
		c2.77,0.229,5.541,0.458,8.311,0.687c8.255-15.608,16.722-31.112,24.543-46.935c1.229-2.486-0.477-6.421-0.826-9.687
		c-8.794,5.4-17.891,10.378-26.261,16.369c-4.458,3.191-10.719,8.077-10.798,12.3C260.366,518.588,263.68,527.707,265.567,536.799z
		 M312.739,222.962c2.333,1.873,4.667,3.746,7,5.619c16.586-25.425,33.172-50.85,50.433-77.31
		C320.981,154.755,336.187,202.703,312.739,222.962z M624.18,89.523c-1.663,2.124-3.327,4.247-4.99,6.37
		c9.931,13.501,19.108,27.684,30.304,40.038c2.915,3.217,12.249,1.414,18.349,0.322c1.333-0.239,3.356-9.57,1.821-10.862
		C654.899,112.964,639.44,101.361,624.18,89.523z M304.614,459.435c-0.332-2.918-0.664-5.836-0.997-8.754
		c-3.03-1.85-5.953-5.032-9.11-5.283c-7.404-0.588-16.089-2.049-22.097,1.041c-7.707,3.964-13.907,11.57-19.417,18.648
		c-1.58,2.029,1.469,7.661,2.396,11.642C271.797,470.964,288.205,465.199,304.614,459.435z M293.154,284.777
		c9.445-8.535,18.551-16.763,27.656-24.991c-4.328-2.478-10.247-8.131-12.714-6.895c-11.674,5.847-22.404,13.577-33.47,20.636
		C279.723,276.622,284.821,279.718,293.154,284.777z M705.245,262.644c2.505,2.636,5.011,5.273,7.516,7.909
		c8.546-8.622,17.149-17.19,25.371-26.11c0.262-0.284-3.394-4.179-5.224-6.391C723.688,246.25,714.466,254.447,705.245,262.644z
		 M703.485,226.524c8.354-6.983,15.933-13.319,23.512-19.655c-3.004-2.5-7.826-7.69-8.73-7.08
		c-8.45,5.706-16.228,12.407-24.2,18.819C696.397,220.566,698.727,222.525,703.485,226.524z M710.014,425.019
		c-2.359-1.954-4.717-3.908-7.076-5.863c-5.754,6.528-11.948,12.754-16.846,19.872c-0.852,1.239,3.762,6.239,5.851,9.501
		C697.967,440.693,703.991,432.856,710.014,425.019z M684.433,174.757c1.525,1.946,3.051,3.893,4.576,5.84
		c5.042-4.508,10.159-8.941,14.932-13.717c0.269-0.269-2.283-3.357-3.522-5.133C695.09,166.084,689.762,170.421,684.433,174.757z"/>
</g>
<g id="Layer_1">
</g>
</svg>
