<?xml version="1.0" encoding="iso-8859-1"?>
<!-- Generator: Adobe Illustrator 25.2.0, SVG Export Plug-In . SVG Version: 6.00 Build 0)  -->
<svg version="1.1" xmlns="http://www.w3.org/2000/svg" xmlns:xlink="http://www.w3.org/1999/xlink" x="0px" y="0px"
	 viewBox="0 0 1000 1000" style="enable-background:new 0 0 1000 1000;" xml:space="preserve">
<g id="digitThree">
	<path d="M617.501,480.239c-11.147-12.735-18.217-20.731-25.184-28.817c-2.193-2.544-6.461-6.629-5.806-7.814
		c16.26-29.45-14.959-37.823-26.351-50.808c-22.497-25.645-54.665-23.684-83.247-3.378c-40.414,28.714-80.936,57.286-121.896,85.208
		c-4.054,2.764-11.476,0.586-17.335,0.703c1.041-8.801-1.218-20.922,3.706-25.815c19.074-18.954,39.286-37.225,61.183-52.783
		c46.234-32.847,95.445-60.634,126.885-111.732c21.957-35.685,31.512-86.455,6.103-119.225
		c-12.894-16.631-35.34-27.04-55.204-36.687c-14.499-7.041-31.834-8.24-47.905-12.043c7.046,14.724,14.623,29.222,21.022,44.222
		c11.762,27.571,0.728,71.159-25.608,93.585c-24.131,20.549-50.929,18.541-80.138,7.902c-36.418-13.263-65.698-34.049-60.31-74.406
		c3.192-23.912,18.647-54.397,38.129-66.266c44.725-27.248,94.096-48.383,143.821-65.485
		c50.578-17.394,114.361,1.299,134.838,36.061c28.08,47.669,46.354,111.227,4.48,163.782
		c-30.902,38.785-28.568,40.644,16.635,58.649c56.201,22.385,89.341,76.403,87.859,137.066
		c-1.781,72.951-33.79,131.707-80.794,184.225c-12.044,13.457-23.161,33.078-38.303,37.477
		c-56.997,16.558-115.176,42.897-174.917,11.44c-22.394-11.792-42.168-28.935-61.803-45.243c-3.577-2.971-0.704-13.709-0.808-20.861
		c7.992,1.166,19.807-0.656,23.405,3.945c54.608,69.855,147.275,50.125,185.449-22.516
		C585.102,563.149,599.317,522.79,617.501,480.239z M680.842,488.847c1.201,6.197,0.434,2.238-0.333-1.721
		c-2.666,0.738-6.194,0.634-7.863,2.345c-15.539,15.936-30.893,32.064-45.624,48.734c-0.652,0.738,6.018,10.912,7.921,10.495
		C661.5,542.886,682.607,531.11,680.842,488.847z M576.159,249.01c4.763,0.914,9.527,1.827,14.29,2.741
		c4.65-25.463,9.469-50.898,13.692-76.431c0.434-2.623-2.702-5.835-4.181-8.774c-2.641,2.126-7.058,3.849-7.649,6.442
		C586.562,198.245,581.452,223.648,576.159,249.01z M360.493,210.031c6.658-4.927,10.498-7.058,13.44-10.068
		c12.695-12.986,25.393-25.994,37.435-39.575c2.47-2.786,2.126-8.068,3.079-12.199c-4.604-0.102-11.327-2.225-13.471,0.022
		c-14.416,15.103-28.125,30.918-41.316,47.11C357.791,197.614,359.975,203.207,360.493,210.031z M409.348,206.32
		c-6.386-11.166-8.388-14.666-10.39-18.166c-13.248,13.857-26.541,27.674-39.275,41.988c-0.171,0.192,9.417,10.102,9.919,9.707
		C382.954,229.362,395.708,218.115,409.348,206.32z M630.458,572.464c-2.402-2.437-4.805-4.875-7.208-7.312
		c-8.352,9.125-17.415,17.708-24.885,27.506c-10.346,13.57-19.642,27.956-29.075,42.199c-3.26,4.923-5.584,10.465-8.336,15.724
		c6.263-2.488,14.839-3.18,18.397-7.766C597.111,619.926,613.552,596.015,630.458,572.464z M332.041,222.422
		c15.55-26.481,31.099-52.961,48.569-82.713C333.95,151.089,343.013,192.991,332.041,222.422z M674.557,393.76
		c-7.337-10.261-11.842-16.56-16.346-22.859c-10.421,13.254-20.841,26.509-31.262,39.763c2.72,2.071,6.686,6.517,7.968,5.845
		C647.763,409.771,660.167,402.192,674.557,393.76z M428.853,195.342c-2.051-1.171-4.102-2.343-6.153-3.514
		c-7.102,13.882-14.204,27.763-21.306,41.645c2.852,1.402,5.703,2.804,8.554,4.206C416.251,223.566,422.552,209.454,428.853,195.342
		z M543.886,138.217c9.772-13.237,15.802-19.636,19.307-27.204c1.085-2.342-4.695-7.864-7.332-11.93
		c-6.165,6.036-13.182,11.48-18.021,18.439C536.21,119.865,540.114,126.057,543.886,138.217z M610.813,358.109
		c-4.35-3.947-7.863-8.002-8.511-7.587c-5.76,3.692-11.012,8.174-16.415,12.424c2.532,3.085,6.926,9.071,7.316,8.82
		C598.858,368.138,603.974,363.672,610.813,358.109z M580.658,351.675c5.784-4.883,9.978-8.424,14.172-11.966
		c-4.095-1.935-8.561-5.942-12.192-5.291c-4.752,0.853-8.844,5.387-13.219,8.338C572.616,345.293,575.813,347.83,580.658,351.675z"
		/>
</g>
<g id="Layer_1">
</g>
</svg>
