<?xml version="1.0" encoding="iso-8859-1"?>
<!-- Generator: Adobe Illustrator 25.2.0, SVG Export Plug-In . SVG Version: 6.00 Build 0)  -->
<svg version="1.1" xmlns="http://www.w3.org/2000/svg" xmlns:xlink="http://www.w3.org/1999/xlink" x="0px" y="0px"
	 viewBox="0 0 1000 1000" style="enable-background:new 0 0 1000 1000;" xml:space="preserve">
<g id="digitTwo">
	<path d="M423.172,167.752c37.317-3.345,53.797,13.829,60.512,43.995c8.133,36.534,9.266,73.03-16.512,102.214
		c-30.95,35.04-104.727,29.245-145.03-8.209c-24.946-23.182-21.037-79.829,10.087-111.426
		c55.999-56.85,117.44-106.891,194.283-133.025c83.048-28.245,168.671,29.936,195.512,81.754
		c27.56,53.208,29.195,114.325,0.32,166.843c-28.349,51.561-65.091,99.775-104.612,143.634
		c-62.915,69.821-131.232,134.771-197.076,201.966c-3.018,3.08-4.188,7.969-6.218,12.016c4.447,1.568,8.903,4.523,13.339,4.491
		c44.318-0.322,88.754,0.459,132.867-2.882c11.694-0.886,23.818-13.483,33.265-23.129c21.62-22.075,41.283-46.06,62.741-68.305
		c4.946-5.127,13.913-6.374,21.03-9.407c3.361,7.997,9.404,15.928,9.601,24.002c0.702,28.811,0.568,57.77-1.931,86.439
		c-0.618,7.088-11.22,18.91-17.462,19.061c-92.616,2.233-185.27,3.265-277.918,3.682c-37.157,0.166-74.364-1.198-111.455-3.426
		c-7.529-0.453-17.627-6.33-20.986-12.656c-2.646-4.984,1.082-16.365,5.682-21.726c58.797-68.514,118.09-136.604,177.62-204.485
		c38.332-43.71,77.795-86.441,115.481-130.693c7.814-9.176,9.649-23.299,15.002-34.787c2.04-4.378,5.448-9.382,9.549-11.332
		c28.888-13.734,38.968-37.205,28.925-68.395c-0.843-2.618-0.12-6.598,1.403-8.959c4.316-6.694,14.882-15.61,13.288-18.791
		c-7.294-14.558-15.133-31.524-27.846-40.189C556.951,118.977,463.803,130.132,423.172,167.752z M634.153,265.886
		c9.616,17.16,18.417,35.223,29.642,51.627c3.973,5.807,13.858,7.57,21.043,11.179c3.159-10.846,12-24.523,8.299-31.951
		c-7.787-15.629-21.861-28.247-34.01-41.501c-3.338-3.641-11.192-8.355-13.141-7.012
		C641.399,251.388,639.123,257.903,634.153,265.886z M358.559,298.914c33.786-9.838,60.517-17.589,87.22-25.434
		c4.031-1.184,10.292-1.782,11.438-4.423c3.024-6.967,3.803-14.909,5.476-22.462c-5.42,1.402-11.155,2.108-16.179,4.383
		c-6.208,2.811-13.166,11.173-17.486,9.809C393.972,249.715,383.199,278.975,358.559,298.914z M442.04,560.879
		c3.889-2.091,7.778-4.182,11.668-6.272c3.733,3.709,7.305,7.604,11.264,11.054c2.159,1.882,4.975,3.009,7.495,4.476
		c0.115-3.176,1.362-6.883,0.163-9.443c-8.287-17.69-16.742-35.325-25.959-52.541c-2.282-4.26-7.891-9.917-11.389-9.539
		c-4.319,0.465-12.037,7.716-11.368,10.042C429.003,526.337,435.785,543.532,442.04,560.879z M617.734,418
		c-13.164-20.835-25.458-41.186-39.066-60.617c-1.572-2.244-14.09-1.019-15.22,1.467c-2.659,5.851-4.565,15.923-1.35,19.884
		c12.91,15.906,27.794,30.225,42.215,44.868c1.632,1.658,5.68,2.993,7.324,2.104C614.165,424.338,615.579,420.913,617.734,418z
		 M684.326,178.845c9.357-6.994,13.326-9.961,17.295-12.928c-9.248-9.973-16.886-23.727-28.309-28.587
		c-7.604-3.235-20.609,6.223-31.197,9.999C655.899,157.62,669.683,167.912,684.326,178.845z M713.316,217.701
		c3.345-45.597-32.268-19.683-45.904-31.795c-1.492-1.326-8.336,3.373-12.698,5.278c15.835,11,31.399,22.445,47.835,32.458
		C704.686,224.943,711.317,218.868,713.316,217.701z M423.31,584.719c-2.004-10.318-2.278-19.136-5.591-26.606
		c-3.055-6.889-9.372-12.332-14.252-18.412c-3.373,8.976-8.736,17.794-9.47,26.981c-0.555,6.938,4.028,14.794,7.793,21.406
		c2.823,4.958,7.979,8.586,12.097,12.807C417.214,595.183,420.541,589.471,423.31,584.719z M399.97,228.953
		c-1.703-1.932-3.405-3.865-5.108-5.797c-17.978,11.744-36.41,22.883-53.55,35.743c-3.425,2.57-1.922,11.71-2.69,17.821
		c4.91,0.319,11.982,2.893,14.381,0.593C369.211,261.769,384.431,245.194,399.97,228.953z M520.207,482.167
		c-11.726-13.918-22.329-26.504-32.933-39.09c-3.109,3.06-9.446,7.713-8.841,8.938c8.172,16.544,17.309,32.612,26.208,48.797
		C508.537,496.145,512.433,491.478,520.207,482.167z M594.887,106.663c0.151-3.456,0.302-6.912,0.453-10.367
		c-26.47-1.713-52.939-3.425-79.409-5.138c-0.212,3.452-0.424,6.904-0.635,10.355C541.827,103.23,568.357,104.946,594.887,106.663z
		 M613.797,371.887c-2.543,2.733-5.086,5.466-7.629,8.199c10.072,7.839,27.608,23.635,29.054,22.279
		c13.568-12.728,24.383-28.39,35.994-43.204c-3.711-2.532-7.423-5.065-11.134-7.597c-5.875,10.01-10.766,20.837-18.084,29.649
		c-3.154,3.798-12.132,5.854-16.997,4.25C620.286,383.908,617.455,376.644,613.797,371.887z M538.604,460.852
		c-3.609-15.39-5.984-27.628-9.51-39.526c-1.434-4.837-5.37-8.933-8.167-13.366c-4.23,4.226-12.836,9.978-11.981,12.432
		c5.669,16.264,13.368,31.82,20.406,47.607C532.699,465.414,536.046,462.828,538.604,460.852z M465.668,470.206
		c-4.702,8.582-8.627,12.694-7.749,14.63c6.997,15.44,14.903,30.469,22.531,45.623c3.635-5.314,11.532-12.463,10.171-15.627
		C484.538,500.702,475.815,487.709,465.668,470.206z M414.837,220.723c3.203,4.377,6.407,8.754,9.611,13.131
		c10.71-6.966,21.619-13.674,31.705-21.45c0.71-0.548-4.666-8.988-7.212-13.758C437.572,206.005,426.204,213.363,414.837,220.723z
		 M349.428,659.877c2.625-0.591,5.25-1.181,7.874-1.772c-3.461-13.931-6.826-27.89-10.753-41.689
		c-0.148-0.521-5.745,0.509-8.802,0.815c2.679,12.616,5.26,25.254,8.149,37.822C346.307,656.838,348.214,658.278,349.428,659.877z
		 M544.675,439.506c-2.05,1.026-4.1,2.052-6.15,3.078c5.852,12.445,11.583,24.952,17.904,37.155c0.324,0.624,5.711-1.375,8.74-2.153
		c-5.244-11.575-10.388-23.197-15.849-34.668C548.593,441.39,546.263,440.625,544.675,439.506z M666.419,230.751
		c14.987,12.9,24.994,22.006,35.663,30.255c1.985,1.536,9.08,0.528,9.586-0.854c1.481-4.046,2.255-12.244,0.784-12.869
		C699.221,241.672,685.449,237.336,666.419,230.751z M348.815,219.648c1.427,2.217,2.854,4.434,4.281,6.65
		c15.295-8.498,30.59-16.997,45.885-25.495c-1.265-2.295-2.53-4.591-3.795-6.886C379.729,202.494,364.272,211.071,348.815,219.648z
		 M326.505,660.25c-5.544-6.864-8.355-10.343-11.166-13.822c-4.034,4.324-8.068,8.648-12.102,12.971
		c2.577,2.284,5.184,6.468,7.723,6.426C315.208,665.755,319.412,662.989,326.505,660.25z M450.319,293.606
		c-1.425-2.466-2.85-4.931-4.275-7.398c-8.763,5.161-17.527,10.321-26.29,15.482c1.312,2.273,2.624,4.545,3.936,6.818
		C432.566,303.541,441.443,298.574,450.319,293.606z M622.935,670.241c5.234-2.672,9.575-4.887,13.917-7.103
		c-3.841-3.146-7.926-9.078-11.465-8.768c-4.996,0.437-9.587,5.492-14.351,8.573C614.659,665.165,618.284,667.388,622.935,670.241z"
		/>
</g>
<g id="Layer_1">
</g>
</svg>
