<?xml version="1.0" encoding="iso-8859-1"?>
<!-- Generator: Adobe Illustrator 25.2.0, SVG Export Plug-In . SVG Version: 6.00 Build 0)  -->
<svg version="1.1" xmlns="http://www.w3.org/2000/svg" xmlns:xlink="http://www.w3.org/1999/xlink" x="0px" y="0px"
	 viewBox="0 0 1000 1000" style="enable-background:new 0 0 1000 1000;" xml:space="preserve">
<g id="digitOne">
	<path d="M609.536,74.834c-2.917,24.498-6.486,46.989-8.068,69.618c-2.082,29.789-2.114,59.718-3.887,89.536
		c-4.715,79.304-9.597,158.602-15.02,237.861c-2.369,34.624-5.166,69.287-9.701,103.677c-4.405,33.4,19.635,52,34.769,75.778
		c6.462,10.153,14.478,27.644,10.18,34.274c-5.749,8.867-22.765,14.361-34.972,14.412c-46.795,0.197-93.6-2.409-140.406-3.837
		c-6.69-0.204-14.241,2.385-19.939,0.082c-14.283-5.772-27.732-13.611-41.515-20.621c6.462-10.772,10.301-26.352,19.809-31.538
		c63.953-34.882,54.298-97.983,58.972-153.764c7.881-94.046,11.261-188.473,16.27-282.753c0.979-18.43,1.29-36.948,0.468-55.361
		c-0.114-2.543-10.092-7.879-12.938-6.526c-15.039,7.152-28.79,17.096-43.999,23.768c-5.777,2.534-14.251-1.077-21.496-1.888
		c2.065-6.026,2.334-15.311,6.465-17.587c58.462-32.212,117.424-63.517,176.318-94.941
		C605.962,41.623,609.167,57.368,609.536,74.834z M530.98,381.625c12.066-4.388,24.472-8.086,35.928-13.716
		c2.449-1.204,1.452-9.42,2.043-14.405c-4.19,1.102-9.442,0.983-12.372,3.533c-9.032,7.86-17.177,16.739-25.667,25.222
		c1.521-9.219,3.041-18.438,4.562-27.656c-7.948,4.218-15.943,8.351-23.829,12.682c-5.814,3.193-14.755,5.437-16.526,10.236
		c-3.469,9.398-2.904,20.284-4.009,30.554c5.877-2.267,12.462-3.523,17.468-7.033C516.57,395.44,523.511,388.34,530.98,381.625z
		 M543.815,241.067c-1.558-2.024-3.115-4.047-4.673-6.071c-14.217,11.819-32.228,21.299-41.427,36.214
		c-7.105,11.521-3.62,29.844-3.989,45.163c-0.31,12.829,0.616,25.687,0.995,38.532c10.808-9.483,21.877-18.694,32.252-28.629
		c2.778-2.66,3.437-7.532,5.069-11.388c-4.159,0.971-8.28,2.179-12.486,2.857c-6.194,1.001-12.449,1.625-18.679,2.409
		c1.77-5.518,2.632-11.56,5.466-16.463C518.517,282.633,531.272,261.911,543.815,241.067z M529.168,539.444
		c-24.158,9.574-62.315,4-55.301,46.752c0.685,4.172,2.267,8.196,3.432,12.289c3.35-1.883,7.644-2.999,9.896-5.774
		C501.438,575.16,515.228,557.241,529.168,539.444z M585.964,91.847c-1.438-2.649-2.876-5.297-4.314-7.946
		c-24.081,11.605-48.416,22.733-71.96,35.341c-3.428,1.835-3.074,10.735-4.47,16.366c3.317,0.667,7.696,3.04,9.788,1.738
		C538.861,122.503,562.366,107.1,585.964,91.847z M527.774,475.997c-23.39,9.716-59.649,8.498-47.589,47.657
		c0.8,2.598,9.511,5.639,9.95,5.049C503.039,511.401,515.36,493.665,527.774,475.997z M498.778,594.38
		c2.052,2.493,4.104,4.986,6.156,7.478c16.179-12.486,33.038-24.234,48.018-38.022c3.384-3.115,0.231-13.332,0.087-20.28
		c-5.298,2.068-12.097,2.719-15.626,6.457C523.963,564.262,511.567,579.507,498.778,594.38z M513.696,617.988
		c-13.662,2.971-25.227,2.883-33.354,8.124c-5.903,3.809-9.385,14.531-9.891,22.43c-0.335,5.231,6.502,10.922,10.129,16.406
		c5.768-4.939,12.85-8.978,16.989-15.031C503.463,641.299,507.196,631.201,513.696,617.988z M553.406,178.007
		c-19.242,8.704-34.73,13.128-46.661,22.221c-5.76,4.39-5.196,17.5-6.683,26.792c-0.392,2.451,2.235,5.385,3.475,8.097
		c5.852-4.088,12.961-7.15,17.306-12.469C531.261,209.898,540.379,196.088,553.406,178.007z M539.038,615.576
		c-8.27,13.285-15.293,21.443-18.505,30.896c-1.939,5.704,0.008,15.231,3.975,19.689c3.49,3.922,12.216,3.184,18.63,4.504
		c1.302-6.92,4.1-13.962,3.547-20.73C545.902,640.382,542.642,631.031,539.038,615.576z M514.975,512.74
		c2.288,2.542,4.577,5.085,6.865,7.626c13.652-11.741,27.758-23.021,40.56-35.626c2.469-2.431-0.168-10.048-0.449-15.272
		c-4.631,1.539-10.688,1.729-13.643,4.853C536.668,486.627,526.002,499.855,514.975,512.74z M568.306,398.642
		c-17.17,15.471-30.706,27.669-44.243,39.866C546.778,435.739,574.014,438.085,568.306,398.642z M522.694,276.375
		c1.939,2.172,3.878,4.343,5.817,6.514c14.089-9.257,28.679-17.874,41.898-28.24c3.13-2.454,1.659-10.776,2.304-16.398
		c-2.925,0.092-6.907-1.023-8.61,0.466C550.061,250.996,536.441,263.759,522.694,276.375z M544.798,142.355
		c-1.847-1.765-3.693-3.53-5.54-5.295c-11.08,10.597-22.16,21.194-33.24,31.791c1.71,1.714,3.419,3.427,5.129,5.141
		C522.364,163.446,533.581,152.9,544.798,142.355z M577.684,301.773c-5.197-4.229-9.297-8.161-9.707-7.808
		c-4.585,3.947-8.741,8.445-12.494,13.204c-0.285,0.361,4.404,5.846,5.019,5.529C565.646,310.05,570.376,306.601,577.684,301.773z
		 M486.358,453.174c2.3,1.585,4.599,3.171,6.899,4.756c4.802-7.084,9.605-14.168,14.408-21.252
		c-2.502-1.077-6.771-3.584-7.234-3.013C495.397,439.891,490.959,446.598,486.358,453.174z"/>
</g>
<g id="Layer_1">
</g>
</svg>
