<?xml version="1.0" encoding="iso-8859-1"?>
<!-- Generator: Adobe Illustrator 25.2.0, SVG Export Plug-In . SVG Version: 6.00 Build 0)  -->
<svg version="1.1" xmlns="http://www.w3.org/2000/svg" xmlns:xlink="http://www.w3.org/1999/xlink" x="0px" y="0px"
	 viewBox="0 0 1000 1000" style="enable-background:new 0 0 1000 1000;" xml:space="preserve">
<g id="digitFour">
	<path d="M479.679,441.856c-61.848,0-123.699,0.29-185.54-0.39c-7.268-0.08-19.795-4.526-20.55-8.653
		c-1.352-7.398,1.953-18.828,7.55-23.825c61.176-54.604,123.596-107.815,184.769-162.423c30.018-26.796,57.423-56.508,87.29-83.484
		c39.822-35.966,80.464-71.068,121.827-105.243c7.156-5.912,19.629-5.389,29.646-7.838c-1.545,9.818-2.968,19.656-4.662,29.448
		c-3.283,18.982-8.359,37.811-9.82,56.923c-8.255,108.03-15.821,216.113-23.27,324.202c-2.909,42.212-7.026,84.534-6.09,126.707
		c0.303,13.665,12.766,29.178,23.538,39.99c15.679,15.737,46.523,18.639,41.874,50.26c-0.83,5.643-10.907,14.692-15.943,14.205
		c-45.737-4.427-88.631,2.991-133.299,15.122c-30.446,8.268-66.814-4.606-100.297-9.611c-2.324-0.347-5.123-14.603-3.228-21.084
		c1.753-5.996,8.903-11.127,14.724-15.108c54.57-37.328,47.559-91.655,41.901-146.335c-1.417-13.695,1.745-28.128,4.378-41.92
		c4.622-24.214-3.267-35.166-28.889-31.376c-8.459,1.251-17.258,0.197-25.902,0.197
		C479.683,441.698,479.681,441.776,479.679,441.856z M435.779,415.707c0.002-0.882,0.003-1.762,0.004-2.644
		c28.031,0,56.232,1.729,83.991-1.02c8.676-0.859,22.19-13.048,23.217-21.324c7.388-59.564,12.229-119.446,17.518-179.259
		c0.39-4.406-2.027-9.061-3.139-13.6c-3.717,1.708-8.09,2.666-11.041,5.249c-15.699,13.74-30.909,28.038-46.532,41.867
		c-53.741,47.572-107.714,94.883-161.192,142.749c-5.516,4.937-8.306,12.92-12.36,19.49c7.723,2.831,15.373,7.838,23.183,8.104
		C378.183,416.298,406.991,415.707,435.779,415.707z M621.284,133.89c9.751,1.546,19.254,3.053,28.756,4.559
		c-4.661,8.858-7.734,19.19-14.31,26.27c-14.294,15.39-30.376,29.119-45.726,43.528c21.386-0.018,40.754-3.571,56.808-12.855
		c33.282-19.247,12.663-55.35,22.057-82.481c0.91-2.628-1.58-6.434-2.491-9.693c-15.034,10.266-30.073,20.523-45.064,30.851
		C620.981,134.299,621.205,135.337,621.284,133.89z M641.927,549.041c-2.427-11.923-3.668-18.02-4.909-24.116
		c-5.92,3.174-12.506,5.53-17.624,9.691c-11.047,8.985-22.191,18.127-31.705,28.643c-9.719,10.741-17.536,23.202-26.187,34.91
		c13.308-4.988,26.766-9.618,39.868-15.098c7.883-3.297,16.295-6.702,22.517-12.25C631.602,563.943,637.296,554.799,641.927,549.041
		z M582.757,302.084c22.383-28.747,39.825-50.946,56.937-73.397c1.983-2.602,2.129-6.603,3.127-9.955
		c-3.965-0.382-8.121-1.734-11.864-0.995C591.348,225.56,579.503,243.536,582.757,302.084z M616.818,594.44
		c-1.935-1.379-3.87-2.757-5.805-4.135c-14.648,9.863-32.852,17.097-42.742,30.477c-7.066,9.56-2.974,27.367-3.861,41.495
		c5.962-0.931,15.343,0.187,17.329-3.126C594.342,638.126,605.31,616.122,616.818,594.44z M584.074,511.795
		c27.826-4.238,56.168-8.223,62.244-41.037c0.697-3.766-1.378-8.045-2.168-12.086c-2.647,1.057-5.912,1.456-7.846,3.273
		C618.762,478.421,601.452,495.144,584.074,511.795z M635.941,616.727c-2.662-0.747-5.323-1.495-7.984-2.242
		c-7.628,11.757-16.011,23.12-22.476,35.485c-2.278,4.358,0.136,11.169,0.408,16.86c8.033-2.452,21.316-2.952,23.093-7.731
		C633.877,645.933,633.957,630.976,635.941,616.727z M605.175,328.222c1.294,1.965,2.588,3.929,3.882,5.894
		c16.272-9.427,33.111-18.052,48.41-28.857c3.718-2.625,2.372-12.422,3.355-18.921c-4.643,1.97-10.038,3.017-13.796,6.074
		C632.788,303.995,619.08,316.23,605.175,328.222z M621.264,361.496c-3.109-3.377-6.217-6.754-9.326-10.13
		c-8.818,5.193-18.935,9.046-26.074,15.971c-6.652,6.451-10.135,16.171-15.012,24.451c7.313-4.355,14.642-8.684,21.936-13.07
		C602.294,373.001,611.773,367.238,621.264,361.496z M643.003,421.224c5.143-8.345,9.928-14.453,12.56-21.378
		c0.8-2.107-4.335-6.469-6.752-9.799c-7.581,6.912-15.162,13.824-22.743,20.736C630.216,413.341,634.364,415.899,643.003,421.224z
		 M634.948,256.037c2.318,2.577,4.636,5.154,6.954,7.731c7.632-7.099,15.628-13.873,22.544-21.614
		c1.167-1.307-2.325-6.776-3.664-10.323C652.17,239.899,643.559,247.968,634.948,256.037z M617.205,164.219
		c-2.469-1.814-4.938-3.628-7.408-5.442c-8.203,10.036-16.406,20.073-24.608,30.109c1.99,1.571,3.98,3.143,5.97,4.715
		C599.841,183.807,608.523,174.013,617.205,164.219z M596.954,492.949c-4.33-4.053-8.66-8.105-12.99-12.158
		c-7.007,8.977-14.059,17.92-20.823,27.076c-0.227,0.307,3.32,4.203,3.65,4.004C576.957,505.75,586.941,499.326,596.954,492.949z
		 M571.481,464.715c1.572,1.834,3.145,3.669,4.717,5.504c7.904-6.523,15.808-13.046,23.711-19.57
		c-1.869-2.173-3.737-4.345-5.606-6.518C586.697,450.992,579.089,457.854,571.481,464.715z M557.434,562.437
		c2.825,1.688,5.65,3.377,8.476,5.065c5.463-7.496,10.926-14.992,16.389-22.488c-2.17-1.634-4.341-3.268-6.511-4.902
		C569.67,547.554,563.552,554.995,557.434,562.437z"/>
</g>
<g id="Layer_1">
</g>
</svg>
