<?xml version="1.0" encoding="iso-8859-1"?>
<!-- Generator: Adobe Illustrator 25.2.0, SVG Export Plug-In . SVG Version: 6.00 Build 0)  -->
<svg version="1.1" xmlns="http://www.w3.org/2000/svg" xmlns:xlink="http://www.w3.org/1999/xlink" x="0px" y="0px"
	 viewBox="0 0 1000 1000" style="enable-background:new 0 0 1000 1000;" xml:space="preserve">
<g id="digitFive">
	<path d="M297.861,256.165c0-56.367-0.001-112.735,0.003-169.103c0-0.724,0.169-1.464,0.071-2.17
		c-5.083-36.865-5.247-33.644,39.148-31.411c61.201,3.078,122.707,1.903,184.026,0.324c59.342-1.528,118.604-6.049,177.919-8.892
		c21.429-1.028,34.689,11.337,33.191,31.323c-2.528,33.724-8.884,67.211-15.167,100.508c-0.505,2.676-15.496,6.646-19.213,3.89
		c-9.035-6.7-17.014-16.101-22.565-26.012c-32.035-57.197-81.164-79.17-145.159-74.714c-31.067,2.163-62.413,0.177-93.529,1.912
		c-5.377,0.299-14.473,9.663-14.693,15.127c-2.489,62.026-2.661,124.151-5.615,186.147c-0.892,18.721-1.586,23.232,21.253,20.419
		c58.331-7.186,118.202-16.613,175.893-10.462c69.576,7.418,106.683,59.708,118.985,126.555
		c18.044,98.046-41.747,247.557-157.099,279.026c-31.051,8.471-66.744,10.536-98.238,4.59
		c-67.575-12.758-129.586-40.504-186.25-81.791c-43.963-32.033-26.235-103.245,3.992-138.438
		c26.618-30.991,93.785-33.718,127.976-5.802c37.574,30.678,41.617,88.4,8.825,128.915c-3.121,3.856-7.405,6.826-11.357,9.944
		c-9.431,7.441-18.987,14.725-28.492,22.073c11.208,6.093,21.847,13.799,33.726,17.991c42.723,15.081,99.507-4.226,128.095-42.373
		c44.319-59.137,59.8-126.596,43.109-197.017c-11.703-49.373-59.098-68.475-103.492-77.908
		c-62.051-13.185-113.098,12.35-152.796,61.102c-3.805,4.673-9.26,8.004-13.949,11.958c-4.826-5.816-13.213-11.238-13.908-17.512
		c-5.087-45.877-8.631-91.927-12.663-137.922C299.212,256.35,298.537,256.257,297.861,256.165z M357.042,613.126
		c35.475,0.364,64.144-19.745,71.09-51.347c6.159-28.022-1.175-52.675-26.029-68.329c-25.333-15.955-76.744-8.287-93.26,16.126
		c-7.167,10.593-2.617,28.938-3.903,43.717C300.899,599.711,312.08,612.665,357.042,613.126z M537.01,666.652
		c27.632,4.756,104.88-65.522,117.864-102.453C594.388,573.033,580.541,634.371,537.01,666.652z M710.425,89.935
		c-0.536-1.087-4.487-16.218-8.643-16.274c-15.216-0.205-30.499,4.606-45.757,7.528c4.738,8.409,9.415,16.852,14.251,25.204
		c1.432,2.473,3.213,4.767,5.004,7.006c7.8,9.747,15.663,19.444,23.504,29.159c3.88-13.173,7.793-26.336,11.589-39.534
		C710.755,101.697,710.425,100.165,710.425,89.935z M630.758,505.464c1.488,2.299,2.975,4.597,4.463,6.896
		c17.019-8.402,35.506-14.807,50.557-25.882c10.656-7.841,16.664-22,24.746-33.339c-3.209-2.081-8.4-6.632-9.336-5.881
		C677.44,466.323,654.138,485.942,630.758,505.464z M396.831,173.485c-1.797-10.682-2.476-14.718-3.155-18.755
		c-3.727,1.442-8.258,1.985-11.046,4.477c-13.836,12.371-27.361,25.106-40.586,38.128c-1.913,1.884-1.61,6.02-2.333,9.113
		c2.695,0.529,6.333,2.456,7.939,1.372C364.832,196.222,381.694,184.149,396.831,173.485z M384.304,95.617
		c-18.077,16.556-35.795,32.785-53.514,49.012c2.432,2.062,6.113,6.396,7.11,5.848c17.459-9.593,35.06-19.098,51.433-30.362
		c3.729-2.565,3.329-11.63,3.953-17.792C393.412,101.079,389.569,99.435,384.304,95.617z M390.214,261.712
		c-15.994,21.73-28.498,38.72-44.102,59.921C381.037,315.167,399.565,302.806,390.214,261.712z M678.612,584.76
		c-1.729-1.812-3.459-3.624-5.188-5.436c-18.4,18.021-36.8,36.043-55.2,54.064c1.717,1.789,3.435,3.577,5.152,5.366
		C641.788,620.755,660.2,602.758,678.612,584.76z M345.315,241.899c3.607,3.65,7.213,7.299,10.819,10.948
		c14.462-13.062,28.923-26.125,43.385-39.187c-3.523-3.666-7.046-7.332-10.569-10.997
		C374.406,215.742,359.861,228.82,345.315,241.899z M366.834,262.153c-13.382,7.016-21.545,8.837-25.441,13.925
		c-5.572,7.278-8.48,16.793-11.462,25.708c-0.678,2.026,3.002,5.511,4.676,8.324c5.653-6.154,12.018-11.811,16.759-18.602
		C356.142,284.667,359.304,276.699,366.834,262.153z M653.507,523.44c-2.122-2.812-4.244-5.623-6.366-8.435
		c-13.204,12.255-26.409,24.511-39.613,36.766c2.399,2.565,4.798,5.131,7.197,7.696C627.652,547.458,640.579,535.449,653.507,523.44
		z M577.717,326.008c-0.153-3.806-0.306-7.612-0.459-11.418c-11.308,0.666-22.616,1.333-33.925,1.999
		c0.854,3.139,1.538,8.94,2.589,9.008C556.485,326.273,567.109,326.008,577.717,326.008z M668.412,435.502
		c1.637,1.669,3.274,3.339,4.911,5.008c9.977-9.409,20.117-18.66,29.651-28.498c0.859-0.886-2.201-5.57-3.441-8.49
		c-9.421,8.214-18.969,16.29-28.151,24.761C669.648,429.883,669.365,433.056,668.412,435.502z M654.046,425.302
		c-2.823-2.364-5.647-4.728-8.47-7.092c-5.964,8.026-12.17,15.896-17.578,24.281c-0.659,1.021,2.975,4.811,4.62,7.317
		C639.761,441.64,646.904,433.471,654.046,425.302z M334.594,102.878c6.863-5.658,11.226-9.256,15.59-12.854
		c-5.335-2.608-10.506-6.612-16.072-7.269c-3.052-0.36-6.77,4.926-10.188,7.667C326.911,93.909,329.898,97.397,334.594,102.878z
		 M326.572,187.408c2.483,1.611,4.966,3.222,7.45,4.833c5.309-7.755,10.618-15.511,15.927-23.266
		c-1.996-1.401-3.993-2.802-5.989-4.203C338.164,172.317,332.368,179.863,326.572,187.408z"/>
</g>
<g id="Layer_1">
</g>
</svg>
