<?xml version="1.0" encoding="iso-8859-1"?>
<!-- Generator: Adobe Illustrator 25.2.0, SVG Export Plug-In . SVG Version: 6.00 Build 0)  -->
<svg version="1.1" xmlns="http://www.w3.org/2000/svg" xmlns:xlink="http://www.w3.org/1999/xlink" x="0px" y="0px"
	 viewBox="0 0 1000 1000" style="enable-background:new 0 0 1000 1000;" xml:space="preserve">
<g id="digitSeven">
	<path d="M367.695,317.297c39.28,0,78.574,0.496,117.828-0.527c5.973-0.156,15.127-6.099,17.124-11.476
		c24.55-66.092,48.278-132.494,71.649-199.015c6.322-17.993,1.982-27.698-20.504-25.548c-55.871,5.342-112.066,7.654-167.734,14.441
		c-11.432,1.395-23.228,15.474-31.153,26.394c-12.904,17.78-22.395,38.002-34.153,56.673c-2.906,4.615-8.658,8.997-13.77,9.968
		c-2.364,0.449-8.694-7.295-9.194-11.774c-3.473-31.132-7.884-62.423-7.239-93.564c0.162-7.806,17.245-21.214,27.258-21.913
		c74.364-5.188,148.879-9.124,223.405-10.773c46.223-1.023,92.554,2.554,138.831,4.233c33.729,1.223,47.457,18.038,39.485,52.346
		c-3.612,15.545-13.848,29.434-19.886,44.55c-31.073,77.8-61.521,155.85-92.652,233.627
		c-25.973,64.889-51.138,130.169-79.667,193.931c-10.664,23.834-8.361,39.973,7.876,59.029c8.76,10.281,11.533,25.663,17.008,38.743
		c-13.675,4.957-27.045,12.93-41.078,14.35c-62.365,6.312-124.895,11.114-187.432,15.488c-10.235,0.715-21.964-1.31-30.853-6.077
		c-6.651-3.566-9.846-13.577-14.58-20.719c6.381-3.304,12.655-9.197,19.161-9.464c28.862-1.186,46.681-14.94,59.329-40.945
		c39.292-80.784,80.612-160.58,120.172-241.236c6.375-12.997,7.777-28.433,11.477-42.742c-14.043,0.157-28.086,0.351-42.13,0.465
		c-44.195,0.359-88.402,1.22-132.571,0.297c-4.989-0.105-9.766-10.331-14.641-15.865c5.012-3.191,9.868-8.8,15.063-9.136
		c17.795-1.145,35.709-0.439,53.577-0.439C367.7,319.511,367.698,318.404,367.695,317.297z M446.996,607.088
		c0.693-1.648,1.387-3.297,2.08-4.946c-10.748-5.414-21.187-11.914-32.556-15.152c-1.852-0.527-13.017,15.721-10.992,20.207
		c9.948,22.044,22.889,42.74,34.847,63.87c0.205,0.363,1.643,0.538,2.013,0.223c9.535-8.133,19.714-15.743,27.7-25.201
		c1.169-1.384-7.102-12.97-12.851-17.488c-10.926-8.587-23.186-15.476-38.867-25.65C431.104,604.791,439.05,605.94,446.996,607.088z
		 M558.543,401.848c-12.041-9.73-21.375-17.069-30.48-24.681c-13.077-10.931-17.866-8.964-23.626,8.554
		c-10.881,33.088,14.353,45.081,31.457,61.891c3.605,3.544,11.985,2.231,18.165,3.155c0.123-8.683,3.277-19.104-0.44-25.584
		c-4.156-7.245-14.544-10.915-24.62-17.775C540.195,405.301,547.529,403.921,558.543,401.848z M610.455,209.687
		c-6.479-8.551-10.208-15.521-15.806-20.304c-6.039-5.16-13.828-8.273-20.853-12.278c-0.915,9.134-5.737,20.53-2.006,26.975
		c10.834,18.714,24.404,36.047,38.639,52.408c2.638,3.032,13.385-0.991,20.389-1.758c-1.815-6.64-1.502-16.139-5.85-19.375
		c-12.195-9.076-26.312-15.567-44.279-25.668C592.987,209.687,599.83,209.687,610.455,209.687z M561.138,310.284
		c-14.463,7.148-21.168,10.462-27.872,13.775c16.725,13.392,33.45,26.784,50.174,40.176c3.348-7.867,11.715-19.278,9.122-22.949
		C584.097,329.299,571.635,320.134,561.138,310.284z M502.759,564.828c5.872-8.299,10.538-12.22,11.377-16.836
		c0.828-4.558-0.698-12.601-3.816-14.302c-14.844-8.096-30.411-15.002-46.218-21.027c-2.019-0.77-6.952,6.108-10.535,9.443
		C469.263,535.738,484.959,549.369,502.759,564.828z M659.122,75.499c-10.526,5.837-15.801,8.763-21.075,11.689
		c13.759,7.973,27.063,17.03,41.611,23.116c3.424,1.432,11.042-7.163,16.731-11.144C683.784,91.156,671.178,83.153,659.122,75.499z
		 M644.254,116.626c-13.866,7.281-20.384,10.703-26.901,14.126c14.089,12.53,28.178,25.059,42.266,37.589
		c3.242-3.992,10.092-9.871,9.149-11.675C661.897,143.524,653.458,131.202,644.254,116.626z M484.839,604.11
		c4.299-3.199,8.918-4.954,9.123-7.124c0.49-5.204,0.618-13.986-2.122-15.375c-17.608-8.919-35.972-16.38-54.348-23.66
		c-0.936-0.371-4.277,5.329-6.498,8.203C448.827,578.725,466.661,591.296,484.839,604.11z M490.244,512.895
		c5.883-3.826,9.307-6.053,12.731-8.28c-10.865-8.547-21.308-17.798-33.067-24.856c-1.69-1.014-9.724,8.54-14.821,13.203
		C466.593,499.486,478.1,506.01,490.244,512.895z M607.286,157.659c-2.45,2.529-4.899,5.059-7.349,7.588
		c11.834,12.612,23.317,25.591,35.803,37.522c2.43,2.321,8.757,0.563,13.287,0.687c-0.391-4.468,0.972-10.903-1.465-13.075
		C634.664,178.883,620.809,168.457,607.286,157.659z M543.196,306.135c9.554-6.269,16.307-10.7,23.06-15.132
		c-6.92-7.753-13.839-15.506-20.759-23.258c-4.098,8.502-8.939,16.767-11.786,25.669
		C532.97,295.728,538.463,300.035,543.196,306.135z M498.576,460.838c-1.505,1.889-3.009,3.778-4.514,5.667
		c8.606,9.9,16.74,20.28,26.076,29.436c3.181,3.12,9.382,3.159,14.204,4.606c-0.082-6.424,2.455-16.141-0.725-18.668
		C523.043,473.472,510.416,467.651,498.576,460.838z M315.194,120.95c3.31,0.931,6.621,1.861,9.931,2.792
		c7.293-12.165,14.586-24.33,21.879-36.495c-8.198,0.464-21.113-2.024-23.63,1.997C317.853,98.064,317.599,110.18,315.194,120.95z
		 M399.604,669.275c-7.069-12.183-11.947-20.59-16.825-28.997c-4.264,7.896-9.727,15.476-11.951,23.909
		c-0.558,2.115,8.878,8.153,14.512,10.104C388.45,675.368,393.201,671.708,399.604,669.275z M578.2,259.647
		c-1.662,1.593-3.325,3.187-4.987,4.781c9.044,9.977,18.007,20.033,27.352,29.721c0.511,0.53,4.207-2.014,6.421-3.127
		c-7.715-9.568-15.343-19.21-23.239-28.627C582.532,260.947,580.08,260.537,578.2,259.647z M508.163,663.768
		c4.56-3.628,7.746-6.163,10.933-8.698c-4.826-4.932-9.652-9.865-14.479-14.797c-3.144,4.852-7.246,9.427-8.789,14.745
		C495.419,656.43,502.869,660.123,508.163,663.768z M611.4,87.49c-2.462,0.237-4.924,0.475-7.386,0.712
		c-0.613,8.94-1.226,17.881-1.839,26.822c3.941-0.433,11.329-0.957,11.32-1.284C613.26,104.978,612.266,96.235,611.4,87.49z"/>
</g>
<g id="Layer_1">
</g>
</svg>
