<?xml version="1.0" encoding="iso-8859-1"?>
<!-- Generator: Adobe Illustrator 25.2.0, SVG Export Plug-In . SVG Version: 6.00 Build 0)  -->
<svg version="1.1" xmlns="http://www.w3.org/2000/svg" xmlns:xlink="http://www.w3.org/1999/xlink" x="0px" y="0px"
	 viewBox="0 0 1000 1000" style="enable-background:new 0 0 1000 1000;" xml:space="preserve">
<g id="digitNine">
	<path d="M589.614,472.293c0.066-41.612,1.211-83.264-0.341-124.815c-0.611-16.359-10.34-21.656-26.764-11.467
		c-69.536,43.134-182.261,17.501-231.677-49.215c-39.705-53.604-30.102-150.893,29.197-206.009
		c62.103-57.722,127.229-41.848,199.293-16.121c86.91,31.026,120.471,97.787,138.855,176.317
		c24.384,104.157,28.225,207.02-26.152,306.919C623.2,637.603,548.202,683.642,451.608,699.827
		c-40.648,6.81-81.628,16.785-120.892-12.474c-48.829-36.388-51.653-114.178,0.653-146.138
		c23.77-14.523,53.292-26.215,80.568-27.031c54.882-1.64,77.532,44.024,63.022,115.438c-1.877,9.239-0.735,19.091-0.99,28.659
		c9.729-5.122,21.015-8.519,28.92-15.66C540.075,609.035,569.588,546.427,589.614,472.293z M395.523,200.138
		c4.578,22.227,11.364,56.059,18.786,89.749c0.7,3.18,4.957,6.404,8.325,8.04c32.12,15.608,64.744,36.849,101.118,16.339
		c22.593-12.739,56.922-30.499,58.721-48.701c3.354-33.956-9.407-71.32-22.246-104.654c-21.75-56.474-54.822-78.155-96.379-64.655
		C421.96,109.864,412.431,149.978,395.523,200.138z M607.2,506.502c21.492-10.897,35.784-24.678,47.106-22.563
		c25.855,4.83,24.872-11.194,26.882-25.982c1.111-8.177-0.833-16.768-1.4-25.173c-12.365,7.079-27.004,11.954-36.533,21.783
		C630.715,467.503,622.192,484.335,607.2,506.502z M368.148,654.838c2.458,4.394,4.916,8.788,7.374,13.182
		c20.454-8.712,42.147-15.459,60.703-27.176c6.702-4.232,5.879-20.382,8.49-31.093c-9.13,1.544-20.077,0.42-27.033,5.156
		C400.209,626.805,384.54,641.353,368.148,654.838z M575.667,583.466c50.548-7.918,77.601-38.318,74.269-78.789
		C622.614,533.662,599.141,558.564,575.667,583.466z M387.619,599.182c18.932-8.121,39.311-16.125,58.509-26.346
		c1.741-0.927-1.797-18.354-7.199-23.965c-4.11-4.269-18.222-5.534-22.384-1.877c-12.144,10.671-21.639,24.391-31.914,37.126
		c-2.319,2.875-3.832,6.514-5.045,10.032C379.424,594.626,383.206,596.461,387.619,599.182z M626.919,409.469
		c1.399,3.643,2.797,7.287,4.197,10.931c17.844-8.815,36.011-17.066,53.235-26.961c3.112-1.788,2.348-10.324,3.375-15.744
		c-4.928,0.199-10.93-1.351-14.598,0.9C657.35,388.278,642.259,399.077,626.919,409.469z M423.254,74.986
		c-1.94-2.487-3.879-4.975-5.819-7.461c-15.026,13.111-30.053,26.222-45.08,39.333c2.337,2.299,6.515,6.78,6.748,6.582
		C394.025,100.864,408.625,87.908,423.254,74.986z M637.075,302.392c11.743-3.756,17.656-3.906,20.648-6.939
		c8.322-8.435,15.64-17.912,22.719-27.449c0.768-1.035-2.609-5.147-4.064-7.832c-8.66,6.865-17.8,13.223-25.786,20.799
		C646.288,285.053,643.959,291.219,637.075,302.392z M620.086,138.425c-13.893-10.664-22.139-17.544-31.112-23.287
		c-1.351-0.864-6.099,3.581-9.276,5.57c5.611,8.299,10.37,17.464,17.376,24.344C599.049,146.991,607.605,142.23,620.086,138.425z
		 M656.712,202.674c-7.764,10.636-13.707,17.724-18.127,25.66c-0.96,1.724,3.537,6.488,5.521,9.852
		c7.898-6.116,16.113-11.907,23.219-18.835C668.057,218.637,662.184,211.145,656.712,202.674z M369.248,633.338
		c-2.45-2.713-4.899-5.427-7.349-8.14c-8.869,7.789-17.739,15.578-26.608,23.367c2.638,2.762,7.385,8.097,7.611,7.913
		C351.939,649.076,360.567,641.174,369.248,633.338z M340.453,563.498c1.64,3.114,3.279,6.228,4.919,9.342
		c13.502-6.753,27.004-13.504,40.505-20.256c-1.116-2.347-2.234-4.693-3.35-7.041C368.503,551.528,354.478,557.513,340.453,563.498z
		 M371.081,285.884c3.553-0.766,7.105-1.532,10.657-2.298c-2.587-11.316-5.173-22.633-7.76-33.95c-3.207,0.71-6.414,1.42-9.621,2.13
		C366.599,263.138,368.84,274.511,371.081,285.884z M647.701,329.765c-2.242-2.323-4.483-4.647-6.724-6.97
		c-7.006,6.623-14.011,13.247-21.017,19.87c2.665,2.632,5.33,5.264,7.995,7.895C634.537,343.629,641.119,336.697,647.701,329.765z"
		/>
</g>
<g id="Layer_1">
</g>
</svg>
