<?xml version="1.0" encoding="iso-8859-1"?>
<!-- Generator: Adobe Illustrator 25.2.0, SVG Export Plug-In . SVG Version: 6.00 Build 0)  -->
<svg version="1.1" xmlns="http://www.w3.org/2000/svg" xmlns:xlink="http://www.w3.org/1999/xlink" x="0px" y="0px"
	 viewBox="0 0 1000 1000" style="enable-background:new 0 0 1000 1000;" xml:space="preserve">
<g id="digitSix">
	<path d="M668.114,151.493c5.717-16.637-9.565-46.999-39.399-60.963c-93.241-43.64-224.724-5.094-248.183,115.133
		c-3.711,19.021-17.893,40.276-12.816,55.776c8.564,26.145-6.477,45.055-7.716,67.318c-0.161,2.888,10.934,10.123,14.473,8.847
		c14.698-5.299,28.263-13.629,42.666-19.872c81.835-35.469,163.605-32.486,235.365,19.064c29.199,20.976,42.873,63.58,63.544,96.386
		c2.292,3.637,4.144,7.551,6.2,11.336c3.159-3.505,6.473-6.886,9.421-10.56c1.841-2.294,3.009-7.04,4.695-7.143
		c3.322-0.202,6.794,2.062,10.204,3.306c-1.404,3.702-1.994,9.972-4.335,10.713c-27.608,8.741-24.977,32.766-28.105,53.9
		c-16.695,112.806-88.995,178.244-191.722,208.111c-29.598,8.605-69.061-11.744-102.687-22.811
		c-159.39-52.46-186.075-221.429-154.822-335.759c17.197-62.91,41.324-125.46,72.581-182.558
		c30.605-55.907,88.37-86.303,147.622-106.532c50.598-17.274,102.329-15.712,152.532,8.65c40.337,19.574,56.326,50.07,54.212,93.724
		c-3.344,69.053-65.296,133.344-130.862,128.267c-24.787-1.919-51.291-13.647-71.937-28.136
		c-21.062-14.782-9.938-97.516,16.111-110.694c29.676-15.013,63.811-27.33,96.391-28.326
		C623.026,118.013,645.181,139.404,668.114,151.493z M611.729,556.184c-3.717-1.37-7.434-2.74-11.151-4.11
		c33.085-56.57-1.145-107.721-10.494-160.719c-0.594-3.37-15.488-3.278-22.871-6.665c-6.831-3.135-14.215-7.615-18.299-13.59
		c-6.115-8.945-6.8-23.818-14.581-29.044c-47.724-32.054-92.484-4.819-135.609,12.738c-17.773,7.236-38.207,25.874-42.556,43.084
		c-4.328,17.132,11.587,38.654,15.69,58.847c3.954,19.463-1.703,42.914,7.13,58.961c24.192,43.951,52.755,85.65,81.569,126.854
		c22.863,32.694,70.724,38.606,96.256,8.03C579.811,623.027,593.778,587.942,611.729,556.184z M536.131,242.912
		c4.201,4.751,7.201,11.059,11.977,13.002c15.019,6.112,22.2,6.777,27.807-15.698c6.541-26.223,27.649-48.721,41.758-73.226
		c2.669-4.636,2.163-11.1,3.122-16.721c-7.059,1.204-17.479-0.137-20.631,4.025C579.383,181.732,537.758,195.011,536.131,242.912z
		 M420.271,654.937c-14.336-24.177-21.762-38.887-31.456-51.908c-3.563-4.785-12.486-5.58-18.965-8.195
		c-1.219,8.485-6.452,21.602-2.949,24.636C380.666,631.393,397.181,640.142,420.271,654.937z M636.749,512.294
		c14.017-14.709,30.515-31.22,45.882-48.722c3.732-4.251,3.743-11.769,5.466-17.784c-5.171,0.689-10.638,0.526-15.465,2.203
		C636.147,460.667,636.066,490.23,636.749,512.294z M586.473,152.95c-9.621-3.962-12.399-6.075-15.15-6.04
		c-5.966,0.075-13.618-0.843-17.561,2.362c-12.332,10.024-23.261,21.774-34.734,32.856c1.7,1.187,4.117,3.795,4.995,3.352
		C541.494,176.661,558.787,167.489,586.473,152.95z M650.982,362.495c-9.008,12.107-15.88,18.785-19.211,26.914
		c-1.639,4,3.277,10.687,5.226,16.158c10.407-4.577,20.814-9.152,31.221-13.729C663.707,384.158,659.196,376.478,650.982,362.495z
		 M278.342,433.352c2.509,0.47,5.019,0.941,7.529,1.411c6.703-12.591,13.644-25.066,19.977-37.841
		c2.107-4.25,2.656-9.273,3.918-13.943c-4.943-0.003-13.587-1.468-14.254,0.218C289.025,399.614,283.874,416.559,278.342,433.352z
		 M612.382,600.365c2.723,9.683,4.248,15.107,5.774,20.532c7.86-10.31,16.105-20.369,23.171-31.197
		c1.076-1.648-3.312-6.863-5.173-10.427C628.246,586.289,620.338,593.306,612.382,600.365z M688.689,517.829
		c-3.502-2.569-7.004-5.139-10.507-7.708c-10.46,13.071-20.919,26.142-31.379,39.213c2.77,2.301,5.54,4.602,8.31,6.903
		C666.305,543.435,677.497,530.632,688.689,517.829z M379.351,573.53c-8.221-5.279-15.522-12.267-17.692-10.929
		c-6.591,4.062-11.915,10.898-16.112,17.66c-1.15,1.852,3.39,7.236,5.319,10.999C357.153,587.347,363.44,583.434,379.351,573.53z
		 M604.287,333.668c-3.77,5.75-9.956,11.024-9.442,15.532c0.549,4.811,6.999,11.869,11.654,12.542
		c5.64,0.815,12.097-4.034,18.201-6.433C620.192,350.529,615.684,345.749,604.287,333.668z M306.947,367.188
		c9.396-9.455,16.406-15.448,21.807-22.648c1.446-1.928-2.016-7.539-3.225-11.459c-7.43,6.884-15.094,13.547-22.037,20.891
		C302.454,355.072,304.791,359.364,306.947,367.188z M309.721,292.072c2.52,2.723,5.039,5.446,7.559,8.17
		c7.665-8.168,15.33-16.337,22.994-24.505c-2.224-2.088-4.449-4.177-6.673-6.266C325.641,277.004,317.681,284.538,309.721,292.072z
		 M349.558,524.974c-4.186-5.158-6.617-8.151-9.047-11.146c-5.341,4.503-10.683,9.006-16.024,13.51
		c2.508,2.716,5.983,8.159,7.355,7.672C337.489,533.007,342.498,529.203,349.558,524.974z M670.322,437.975
		c8.031-4.392,14.052-6.038,16.894-9.977c1.3-1.802-3.659-8.119-5.779-12.389c-4.112,3.119-8.883,5.705-12.042,9.597
		C667.955,426.98,669.698,431.337,670.322,437.975z"/>
</g>
<g id="Layer_1">
</g>
</svg>
