<?xml version="1.0" encoding="iso-8859-1"?>
<!-- Generator: Adobe Illustrator 25.2.0, SVG Export Plug-In . SVG Version: 6.00 Build 0)  -->
<svg version="1.1" xmlns="http://www.w3.org/2000/svg" xmlns:xlink="http://www.w3.org/1999/xlink" x="0px" y="0px"
	 viewBox="0 0 1000 1000" style="enable-background:new 0 0 1000 1000;" xml:space="preserve">
<g id="digitEight">
	<path d="M491.307,709.559c-37.441-6.042-75.515-9.55-112.178-18.704c-58.651-14.643-97.146-79.625-92.755-140.636
		c5.315-73.856,39.013-133.373,82.059-190.445c6.335-8.399,5.221-34.219-1.333-38.559c-34.259-22.685-45.538-57.888-50.501-93.069
		C306.492,156.516,348.075,68.918,439.21,47.73c99.785-23.2,218.686,49.188,226.288,152.008
		c3.653,49.415-9.049,93.442-48.995,125.801c-14.711,11.917-13.617,20.588,3.012,25.906
		c75.595,24.174,107.981,165.157,89.26,232.659c-18.589,67.025-96.75,117.358-183.122,120.871
		c-11.213,0.456-22.461,0.063-33.692,0.063C491.742,706.546,491.524,708.052,491.307,709.559z M403.578,547.19
		c2.395,11.595,2.946,24.032,7.731,34.539c4.353,9.555,17.23,16.058,19.551,25.565c10.09,41.337,45.868,63.745,88.374,54.635
		c38.036-8.152,51.049-40.828,69.411-68.109c6.814-10.124,15.796-24.843-9.51-24.817c-0.416,0.001-3.179-12.689-0.903-14.498
		c22.752-18.093,22.569-42.562,19.626-67.525c-0.574-4.869-6.836-8.856-9.657-13.724c-3.622-6.252-7.863-12.689-9.262-19.57
		c-2.683-13.195,0.968-30.273-6.142-39.413c-13.325-17.127-31.461-31.124-49.388-43.911c-25.581-18.248-52.414-12.795-69.119,14.291
		C423.736,434.194,401.986,486.856,403.578,547.19z M540.538,194.066c-3.214-12.396-10.691-35.6-15.053-59.377
		c-6.336-34.531-36.277-44.215-61.325-49.962c-7.773-1.783-25.555,33.814-36.226,53.657c-4.984,9.268-6.187,21.972-5.227,32.774
		c3.037,34.207,8.97,68.168,11.701,102.39c1.962,24.589,16.741,33.858,37.66,36.102c25.129,2.696,52.195,3.307,59.427-28.348
		C537.061,256.942,536.953,231.286,540.538,194.066z M691.97,542.81c-0.474-3.376-1.804-11.468-2.711-19.606
		c-1.531-13.735-2.795-27.501-4.17-41.254c-13.54,8.477-27.387,16.513-40.458,25.661c-4.818,3.372-7.802,9.364-11.622,14.161
		c6.555-0.035,13.211,0.609,19.63-0.347c4.226-0.629,7.983-3.928,12.178-5.363c4.446-1.521,9.163-2.251,13.76-3.326
		c0.089,5.501,2.53,12.981-0.143,16.155c-10.928,12.969-24.123,24.021-35.138,36.926c-11.905,13.948-22.56,29.003-33.01,44.094
		c-1.119,1.615,2.602,9.63,4.367,9.733C639.034,621.075,691.662,571.552,691.97,542.81z M639.602,187.868
		c-3.875-1.107-12.085-5.978-14.844-3.834c-19.733,15.334-38.589,31.842-56.995,48.771c-1.983,1.824-0.617,11.918,1.428,12.761
		C584.961,252.064,640.277,211.528,639.602,187.868z M332.306,469.781c-8.796,5.458-25.379,70.729-17.534,99.521
		c1.269,4.657,7.259,8.027,11.067,11.992c4.802-7.94,9.605-15.881,14.408-23.821c-34.772-18.184,2.624-31.149,3.533-46.761
		c0.381-6.546,4.769-13.649,3.164-19.318C344.969,484.427,338.635,478.694,332.306,469.781z M635.042,231.17
		c-21.936,23.244-40.118,42.014-57.543,61.461c-2.944,3.287-2.627,9.494-3.817,14.352c5.524-0.354,12.329,1.252,16.359-1.384
		C614.005,289.925,638.543,274.096,635.042,231.17z M411.471,145.489c-14.049-4.41-18.886-7.622-21.054-6.335
		c-14.631,8.679-29.667,17.188-42.45,28.211c-4.853,4.185-4.43,14.831-5.357,22.657c-0.086,0.726,9.293,4.693,11.201,3.206
		C371.123,179.741,387.75,165.376,411.471,145.489z M557.343,346.585c-1.315,2.797-2.63,5.594-3.944,8.391
		c10.781,9.683,20.432,21.42,32.798,28.221c6.612,3.636,17.915-1.171,27.022-2.661c0.229-0.038,0.532-7.977-0.924-8.683
		C594.164,363.048,575.712,354.901,557.343,346.585z M643.624,627.089c-2.637-3.357-5.275-6.714-7.912-10.072
		c-17.859,11.724-35.882,23.214-53.425,35.395c-3.039,2.11-4.05,7.143-5.998,10.826c4.083,0.75,9.508,3.564,12.036,1.92
		C607.082,652.966,625.263,639.889,643.624,627.089z M343.758,635.911c17.121-4.616,28.142-6.301,37.874-10.785
		c4.475-2.062,8.499-9.447,8.924-14.725c0.418-5.187-3.981-10.764-6.265-16.17c-5.709,2.666-12.913,3.98-16.807,8.287
		C359.857,610.957,354.076,621.065,343.758,635.911z M420.997,92.405c-1.395-2.513-2.789-5.027-4.184-7.54
		c-14.206,6.981-28.852,13.245-42.286,21.484c-3.062,1.878-2.478,10.606-2.2,16.112c0.044,0.881,8.884,3.405,11.013,1.755
		C396.317,114.161,408.529,103.118,420.997,92.405z M632.889,473.284c1.551,1.847,3.102,3.695,4.653,5.542
		c10.734-6.527,22.257-12.117,31.745-20.121c3.062-2.584,0.773-11.51,0.933-17.535c-5.367,1.086-12.638,0.359-15.731,3.609
		C646.323,453.36,639.966,463.665,632.889,473.284z M511.644,70.026c11.19,11.958,18.557,20.867,27.094,28.46
		c3.564,3.17,9.973,5.472,14.432,4.642c4.309-0.803,7.772-6.142,11.606-9.489c-3.772-3.853-6.87-9.477-11.445-11.215
		C541.115,77.786,528.265,74.818,511.644,70.026z M401.964,254.452c-9.862-6.542-16.787-12.403-17.73-11.562
		c-7.619,6.8-14.189,14.799-20.597,22.816c-0.197,0.247,6.127,7.297,7.24,6.751C379.88,268.039,388.364,262.563,401.964,254.452z
		 M585.94,163.968c1.89,3.099,3.78,6.199,5.671,9.299c11.046-6.575,22.093-13.151,33.14-19.727c-2.11-3.316-5.919-9.618-6.085-9.524
		C607.57,150.338,596.768,157.175,585.94,163.968z M395.252,647.185c-4.329-5.852-7.246-9.793-10.162-13.735
		c-6.422,5.515-12.844,11.03-19.266,16.545c5.976,3.682,11.622,8.78,18.104,10.295C386.265,660.835,390.614,652.774,395.252,647.185
		z M618.376,419.862c1.83,3.419,3.66,6.837,5.49,10.256c10.233-5.599,20.466-11.198,30.699-16.797
		c-2.158-3.294-5.786-9.657-6.259-9.43C638.117,408.772,628.28,414.388,618.376,419.862z M418.473,396.748
		c-1.32-2.892-2.64-5.785-3.96-8.677c-11.39,5.985-22.78,11.97-34.169,17.955c1.055,2.218,2.11,4.435,3.164,6.653
		C395.163,407.368,406.818,402.058,418.473,396.748z M378.819,559.56c-2.322-2.494-4.644-4.988-6.966-7.482
		c-7.122,7.507-14.276,14.985-21.133,22.727c-0.134,0.151,4.6,5.069,4.746,4.949C363.408,573.213,371.101,566.371,378.819,559.56z"
		/>
</g>
<g id="Layer_1">
</g>
</svg>
