<?xml version="1.0" encoding="iso-8859-1"?>
<!-- Generator: Adobe Illustrator 25.2.0, SVG Export Plug-In . SVG Version: 6.00 Build 0)  -->
<svg version="1.1" xmlns="http://www.w3.org/2000/svg" xmlns:xlink="http://www.w3.org/1999/xlink" x="0px" y="0px"
	 viewBox="0 0 1000 1000" style="enable-background:new 0 0 1000 1000;" xml:space="preserve">
<g id="dollarSign">
	<path d="M489.797,609.488c0-10.694,0.084-21.389-0.017-32.082c-0.25-26.412,1.398-48.021-34.296-60.99
		c-35.917-13.049-67.362-41.104-76.967-84.733c-6.179-28.068,10.497-80.505,37.748-89.653
		c56.127-18.841,74.421-55.546,64.793-111.16c-0.8-4.622,6.196-10.594,9.57-15.939c3.152,5.062,8.948,10.096,9.001,15.19
		c0.236,22.421-1.751,44.866-1.509,67.286c0.046,4.301,5.645,10.628,10.132,12.451c25.205,10.239,50.652,20.006,76.515,28.4
		c5.392,1.75,14.309-1.156,19.14-5.006c16.952-13.508,28.474-10.703,31.403,10.628c2.945,21.447,3.288,43.35,3.139,65.042
		c-0.03,4.361-6.735,10.773-11.595,12.289c-3.414,1.065-10.403-3.512-13.189-7.426c-6.48-9.104-10.752-19.777-17.203-28.906
		c-3.045-4.31-9.034-6.548-13.706-9.699c-2.588-1.745-6.894-2.947-7.557-5.228c-6.527-22.456-50.578-46.913-71.142-38.441
		c-2.567,1.057-4.604,6.836-4.522,10.373c1.215,52.323,2.582,104.647,4.746,156.936c0.209,5.063,4.785,12.206,9.298,14.471
		c36.411,18.277,73.643,34.953,109.659,53.947c5.485,2.893,6.081,15.177,8.805,23.162c11.353,33.272,6.368,62.904-19.312,88.169
		c-5.947,5.851-10.866,12.736-16.607,18.815c-2.56,2.711-5.927,6.473-9.028,6.57c-21.491,0.675-43.147-0.816-64.437,1.395
		c-6.717,0.698-14.482,9.573-18.051,16.595c-2.924,5.753,0.738,14.491-0.462,21.576c-1.414,8.345-4.922,16.335-7.522,24.48
		c-4.078-7.522-10.979-14.761-11.767-22.613c-4.518-45.025-3.981-45.237-49.5-57.779c-3.638-1.002-8.752,1.87-12.68,3.906
		c-2.835,1.469-4.48,5.158-7.277,6.794c-14.742,8.622-29.681,16.907-44.551,25.309c-1.694-15.278-3.41-30.554-5.074-45.836
		c-1.58-14.512-3.902-29.012-4.25-43.556c-0.133-5.595,4.284-11.299,6.627-16.954c5.769,2.636,12.11,4.458,17.209,8.046
		c23.999,16.887,46.458,36.35,71.776,50.865c25.127,14.406,32.291,8.89,33.151-19.391c0.479-15.753,0.086-31.534,0.086-47.302
		C490.182,609.489,489.989,609.489,489.797,609.488z M506.753,614.12c-0.343,0.001-0.687,0.002-1.03,0.002
		c0,20.219-0.793,40.492,0.594,60.615c0.321,4.648,10.553,13.252,12.057,12.428c9.87-5.407,17.817-14.512,27.861-19.378
		c21.068-10.207,31.233-25.118,25.738-48.542c-3.938-16.788-9.016-33.308-13.076-50.07c-5.447-22.49-24.999-25.081-42.523-29.81
		c-2.095-0.565-9.013,6.799-9.181,10.683C506.27,571.371,506.753,592.756,506.753,614.12z M484.299,432.119
		c0.263-0.016,0.525-0.032,0.788-0.048c-1.531-30.304-2.921-60.617-4.813-90.899c-0.19-3.039-3.422-5.888-5.243-8.825
		c-7.733,6.245-18.031,10.971-22.778,18.984c-27.783,46.901-27.796,88.733,15.109,129.853c3.668,3.516,9.95,4.304,15.018,6.36
		c1.321-4.99,3.766-9.984,3.747-14.969C486.077,459.088,484.98,445.605,484.299,432.119z M394.544,412.823
		c4.476,7.904,7.335,12.953,10.195,18.002c3.822-6.984,9.318-13.622,10.86-21.078c0.982-4.752-3.898-10.715-6.149-16.135
		C404.636,399.815,399.823,406.019,394.544,412.823z M384.666,655.741c-1.126,8.785-2.992,13.245-1.868,16.745
		c2.121,6.607,5.961,12.663,9.086,18.948c5.338-5.16,10.675-10.321,16.013-15.482C401.505,670.391,395.113,664.83,384.666,655.741z
		 M600.622,650.592c-10.534,9.586-19.233,17.503-27.933,25.419c1.243,0.756,3.222,2.445,3.62,2.13
		c8.708-6.874,17.246-13.964,25.77-21.07C602.26,656.921,601.884,656.102,600.622,650.592z M613.57,376.092
		c2.407-0.685,4.813-1.369,7.22-2.054c-1.833-8.044-3.667-16.088-5.5-24.133c-2.76,1.503-8.061,3.512-7.878,4.428
		C608.881,361.703,611.383,368.866,613.57,376.092z M590.899,631.48c1.831,1.112,3.662,2.225,5.493,3.337
		c4.907-7.345,9.814-14.69,14.721-22.035c-2.002-0.204-5.121-1.327-5.829-0.466C600.215,618.478,595.635,625.043,590.899,631.48z"/>
</g>
<g id="Layer_1">
</g>
</svg>
