<?xml version="1.0" encoding="iso-8859-1"?>
<!-- Generator: Adobe Illustrator 25.2.0, SVG Export Plug-In . SVG Version: 6.00 Build 0)  -->
<svg version="1.1" xmlns="http://www.w3.org/2000/svg" xmlns:xlink="http://www.w3.org/1999/xlink" x="0px" y="0px"
	 viewBox="0 0 1000 1000" style="enable-background:new 0 0 1000 1000;" xml:space="preserve">
<g id="equalsSign">
	<path d="M547.737,338.424c-66.018,0-132.037,0.161-198.05-0.357c-4.474-0.035-8.909-5.182-13.361-7.951
		c3.449-3.426,6.797-9.703,10.364-9.83c30.489-1.088,61.02-0.977,91.535-1.383c66.009-0.878,132.016-1.987,198.028-2.544
		c5.793-0.049,11.614,3.267,17.423,5.02c-5.82,4.595-11.274,12.533-17.521,13.214c-29.349,3.203-58.915,4.413-88.403,6.335
		C547.746,340.094,547.742,339.259,547.737,338.424z"/>
	<path d="M445.601,445.369c68.098,0,136.197-0.166,204.291,0.368c4.615,0.036,9.189,5.345,13.783,8.202
		c-3.558,3.534-7.011,10.009-10.69,10.14c-31.45,1.122-62.942,1.008-94.42,1.427c-68.089,0.906-136.176,2.049-204.268,2.624
		c-5.976,0.051-11.98-3.37-17.972-5.179c6.003-4.739,11.63-12.928,18.073-13.631c30.273-3.304,60.771-4.553,91.189-6.535
		C445.592,443.646,445.596,444.507,445.601,445.369z"/>
</g>
<g id="Layer_1">
</g>
</svg>
