<?xml version="1.0" encoding="iso-8859-1"?>
<!-- Generator: Adobe Illustrator 25.2.0, SVG Export Plug-In . SVG Version: 6.00 Build 0)  -->
<svg version="1.1" xmlns="http://www.w3.org/2000/svg" xmlns:xlink="http://www.w3.org/1999/xlink" x="0px" y="0px"
	 viewBox="0 0 1000 1000" style="enable-background:new 0 0 1000 1000;" xml:space="preserve">
<g id="latinSmallLetterU">
	<path d="M542.136,669.394c-12.533,3.679-27.425,9.836-42.903,12.278c-59.614,9.405-107.932-46.861-128.489-103.709
		c-24.412-67.506-42.611-136.552-40.229-209.453c0.174-5.313-3.782-11.001-6.566-16.107c-3.284-6.024-7.382-11.604-11.127-17.377
		c9.902-4.46,20.257-13.48,29.624-12.551c31.989,3.174,63.816,9.007,95.238,15.941c5.83,1.287,13.326,12.24,13.583,18.978
		c3.597,94.378,5.901,188.805,9.503,283.183c0.128,3.358,10.035,7.744,15.992,9.255c42.691,10.828,72.9-13.579,71.208-56.92
		c-0.831-21.281,4.047-44.797-3.385-63.42c-19.553-48.993,6.557-97.891-4.823-145.868c-2.445-10.307-9.67-19.473-14.645-29.189
		c-2.347-4.581-6.409-9.319-6.167-13.795c0.139-2.582,7.207-6.626,11.335-6.861c29.721-1.693,59.487-3.411,89.239-3.421
		c19.13-0.007,20.907,8.546,18.886,28.722c-3.797,37.899,1.083,76.674,2.497,115.08c0.222,6.039,1.732,12.051,1.726,18.074
		c-0.038,30.165-0.421,60.33-0.533,90.495c-0.008,2.017,2.317,4.484,1.707,5.993c-15.922,39.331,12.348,54.542,37.318,73.854
		c6.657,5.149,7.373,23.308,4.325,33.565c-1.675,5.638-16.731,9.717-25.993,10.24c-30.685,1.731-61.527,2.665-92.204,1.391
		c-9.539-0.396-21.054-6.852-27.239-14.239C536.306,689.103,541.162,677.503,542.136,669.394z M610.216,403.3
		c-17.024,22.07-32.79,42.511-48.557,62.951C614.38,445.783,621.998,440.883,610.216,403.3z M385.333,488.734
		c40.615-10.38,50.562-25.696,36.711-54.651C409.968,452.061,398.607,468.974,385.333,488.734z M423.714,623.697
		c2.592-0.798,5.184-1.596,7.776-2.394c-0.281-10.374-0.048-20.797-1.004-31.108c-0.774-8.342-2.981-16.551-4.552-24.819
		c-5.421,9.884-14.582,19.555-15.159,29.713C410.25,604.35,419.034,614.14,423.714,623.697z M552.462,363.819
		c3.654,4.393,7.308,8.785,10.962,13.178c2.21,3.653,4.42,7.306,6.63,10.959c6.042-8.263,12.083-16.527,18.125-24.79
		c-3.465-2.31-7.271-6.938-10.33-6.49C569.222,357.94,560.903,361.291,552.462,363.819z M376.928,428.696
		c1.446,1.558,2.892,3.116,4.339,4.673c12.936-9.879,26.088-19.495,38.619-29.863c2.422-2.004,2.41-6.949,3.52-10.537
		c-3.661,0.007-8.771-1.551-10.745,0.277C400.36,404.642,388.76,416.794,376.928,428.696z M624.218,664.782
		c-4.634-9.348-7.15-14.422-9.666-19.496c-5.477,7.491-11.483,14.692-15.892,22.766c-0.711,1.304,7.379,9.88,8.512,9.314
		C613.109,674.4,618.114,669.571,624.218,664.782z M587.065,614.694c2.72,2.136,5.441,4.272,8.162,6.408
		c7.499-12.462,15.015-24.914,22.238-37.534c0.07-0.123-5.449-3.726-5.531-3.615C603.468,591.403,595.274,603.055,587.065,614.694z
		 M581.768,556.034c1.36,1.128,2.72,2.256,4.079,3.384c6.924-6.003,14.615-11.345,20.523-18.221
		c4.572-5.321,6.912-12.56,10.245-18.946c-5.004,3.579-10.613,6.56-14.878,10.872C594.628,540.312,588.38,548.352,581.768,556.034z
		 M585.75,500.894c2.601,2.135,5.201,4.27,7.802,6.406c9.311-11.708,18.621-23.416,27.932-35.125
		c-2.183-1.786-4.367-3.571-6.55-5.357C605.205,478.177,595.477,489.535,585.75,500.894z M369.584,380.269
		c1.719,2.654,3.437,5.308,5.155,7.962c11.122-7.916,22.244-15.833,33.366-23.749c-2.103-1.28-5.113-4.18-6.169-3.589
		C390.972,367.029,380.322,373.727,369.584,380.269z M387.357,457.781c-2.943-2.861-5.885-5.722-8.828-8.584
		c-4.096,6.648-8.876,13.009-11.851,20.125c-0.839,2.007,3.607,6.222,5.628,9.425C377.323,471.759,382.34,464.77,387.357,457.781z
		 M570.324,615.281c5.335-10.304,8.675-15.31,10.416-20.821c0.709-2.245-2.055-5.586-3.239-8.428
		c-3.669,3.41-8.815,6.211-10.545,10.419C565.552,599.867,568.247,604.969,570.324,615.281z M575.231,677.797
		c5.648-10.421,9.152-16.174,11.722-22.319c0.436-1.043-3.142-3.764-4.865-5.71c-3.751,4.11-8.383,7.758-10.875,12.526
		C569.997,664.619,572.776,669.031,575.231,677.797z"/>
</g>
<g id="Layer_1">
</g>
</svg>
