<?xml version="1.0" encoding="iso-8859-1"?>
<!-- Generator: Adobe Illustrator 25.2.0, SVG Export Plug-In . SVG Version: 6.00 Build 0)  -->
<svg version="1.1" xmlns="http://www.w3.org/2000/svg" xmlns:xlink="http://www.w3.org/1999/xlink" x="0px" y="0px"
	 viewBox="0 0 1000 1000" style="enable-background:new 0 0 1000 1000;" xml:space="preserve">
<g id="latinSmallLetterH">
	<path d="M429.928,619.1c-0.532,9.846-0.339,19.797-1.764,29.512c-2.19,14.929-0.716,34.599-9.583,43.236
		c-10.094,9.833-29.779,13.003-45.403,13.294c-30.084,0.561-60.761-0.159-90.211-5.63c-24.145-4.486-26.047-28.954-9.837-39.271
		c46.899-29.85,37.378-75.965,41.115-118.534c2.576-29.342,3.36-58.859,4.345-88.318c3.141-93.899,7.4-187.795,8.243-281.719
		c0.312-34.753-6.312-70.08-47.274-84.508c-3.463-1.22-7.097-13.146-4.971-16.713c4.427-7.43,12.448-17.586,19.364-17.88
		c46.926-1.995,93.971-1.008,140.928-2.536c17.143-0.558,19.506,6.269,18.558,21.014c-5.997,93.317-11.301,186.678-16.825,280.025
		c-1.45,24.498,12.778,16.996,23.555,10.304c37.899-23.536,78.78-36.439,122.227-24.176c44.136,12.458,78.686,37.922,109.667,75.294
		c50.563,60.994,14.264,126.031,20.442,188.497c3.008,30.415-7.023,61.857,24.683,83.575c1.655,1.134-6.526,23.664-9.533,23.523
		c-51.575-2.418-103.079-6.574-154.518-11.243c-4.977-0.452-9.418-6.804-14.108-10.416c5.971-4.073,12.239-12.003,17.864-11.57
		c28.561,2.197,24.54-13.496,20.595-31.954c-1.697-7.941,1.314-16.948,2.497-25.427c1.046-7.498,4.503-15.225,3.459-22.347
		c-3.857-26.315-10.162-52.295-13.405-78.664c-1.402-11.395,4.141-23.521,3.53-35.159c-1.664-31.708-2.657-63.747-8.347-94.844
		c-3.857-21.076-21.191-24.565-42.695-22.056c-33.539,3.914-67.709,8.132-89.931,34.318c-12.282,14.473-18.038,38.07-18.956,57.914
		c-2.499,54.055-0.859,108.302-0.859,162.472C431.829,619.108,430.878,619.104,429.928,619.1z M378.64,517.485
		c6.159-9.094,12.319-18.188,18.478-27.282c-18.032,3.473-32.723,9.681-42.772,20.288c-8.807,9.295-12.405,23.527-18.304,35.579
		c9.562-3.127,19.124-6.254,28.686-9.381c5.888-0.94,13.332,0.051,17.363-3.195c10.603-8.54,19.721-18.924,29.43-28.573
		C400.56,509.11,389.6,513.297,378.64,517.485z M389.369,161.18c-16.91,12.182-27.048,17.492-34.275,25.446
		c-4.278,4.709-3.957,13.595-5.704,20.603c7.572,1.841,16.204,6.995,22.538,4.968c33.694-10.783,55.599-42.219,55.996-78.672
		c0.156-14.302-1.519-28.625-2.36-42.938c-11.666,9.759-24.197,18.683-34.696,29.568c-7.135,7.397-11.42,17.542-16.979,26.458
		c9.734-4.65,19.355-9.564,29.253-13.833c4.585-1.977,9.713-2.697,14.595-3.988c-0.323,5.213,1.244,11.729-1.297,15.413
		c-10.718,15.544-22.661,30.244-34.155,45.253c-1.274-0.918-2.548-1.835-3.822-2.753
		C380.763,181.321,383.063,175.939,389.369,161.18z M393.342,378.176c-1.979-1.769-3.959-3.537-5.938-5.306
		c-16.05,14.174-32.897,27.588-47.608,43.036c-3.852,4.045-1.516,14.437-0.974,21.838c0.112,1.535,5.658,4.545,7.368,3.804
		c19.702-8.542,40.446-15.747,58.035-27.584c7.258-4.884,7.592-20.056,11.075-30.549c-7.333,4.033-14.705,7.998-21.975,12.142
		c-2.184,1.245-4.084,2.988-7.867,5.811C388.63,392.037,390.986,385.107,393.342,378.176z M421.351,291.743
		c-0.346-0.032-0.693-0.063-1.039-0.095c0.317-6.29,1.24-12.624,0.783-18.857c-0.474-6.468-2.283-12.838-3.507-19.251
		c-5.395,4.743-13.863,8.552-15.639,14.395c-6.647,21.874-11.818,44.282-15.987,66.777c-1.414,7.629,1.775,16.112,2.861,24.204
		c9.546-9.203,22.309-16.848,27.734-28.048C421.977,319.678,420.055,304.931,421.351,291.743z M639.996,518.718
		c1.485,1.46,2.97,2.92,4.455,4.379c12.006-5.477,26.416-8.501,35.275-17.188c7.417-7.272,12.654-21.857,11.021-31.935
		c-1.898-11.712-12.336-22.04-19.068-32.969c-8.909,7.82-17.818,15.641-27.249,23.92c11.04,2.066,18.709,3.502,26.378,4.937
		c-3.443,6.832-6.325,14.028-10.46,20.412C654.018,500.05,646.824,509.266,639.996,518.718z M339.397,672.094
		c34.279-0.355,68.727-32.843,67.538-53.124c-0.17-2.899-9.171-8.114-9.513-7.765C377.774,631.201,358.609,651.671,339.397,672.094z
		 M632.085,674.936c13.258,2.091,22.891,5.061,32.368,4.627c7.047-0.323,18.105-3.455,19.9-8.178
		c3.166-8.328,0.625-18.824,0.474-28.412c-7.596,2.899-15.863,4.724-22.627,8.953C652.405,658.052,643.698,665.917,632.085,674.936z
		 M621.541,379.575c-2.245,1.457-4.489,2.914-6.734,4.37c3.738,14,7.477,28,11.215,42c10.602-4.829,21.205-9.659,31.808-14.488
		C645.734,400.83,633.637,390.202,621.541,379.575z M629.304,581.928c5.23,5.354,10.461,10.708,15.691,16.062
		c15.818-15.271,31.862-30.324,47.152-46.105c1.789-1.847-0.376-7.762-1.319-11.642c-0.091-0.376-5.183-0.593-6.841,0.628
		C665.632,554.385,647.498,568.197,629.304,581.928z M366.36,254.835c1.84,2.08,3.681,4.159,5.521,6.239
		c16.242-10.143,33.21-19.354,48.246-31.048c4.052-3.151,2.239-13.843,3.119-21.073c-2.936,0.207-6.931-0.753-8.645,0.802
		C398.3,224.538,382.386,239.748,366.36,254.835z M670.612,531.42c-23.259,9.694-49.812,16.701-46.68,57.934
		C642.772,565.973,656.692,548.696,670.612,531.42z M371.243,614.95c-3.449-2.435-6.899-4.871-10.348-7.306
		c-9.886,15.514-20.03,30.878-29.285,46.76c-0.989,1.698,3.207,6.417,4.998,9.735c2.723-1.501,6.55-2.313,7.99-4.616
		C353.772,644.849,362.421,629.846,371.243,614.95z M358.794,583.058c2.134,2.704,4.269,5.407,6.403,8.111
		c12.576-5.15,26.376-8.567,37.189-16.212c5.087-3.596,4.428-15.319,6.373-23.36c-5.862,1.869-12.578,2.505-17.415,5.854
		C380.015,565.296,369.587,574.44,358.794,583.058z M642.018,641.929c1.692,2.129,3.385,4.259,5.077,6.388
		c13.848-9.702,28.243-18.759,41.077-29.656c2.542-2.158-0.914-11.381-1.605-17.346c-4.034,2.087-8.879,3.357-11.958,6.407
		C663.425,618.802,652.833,630.478,642.018,641.929z M369.798,470.551c1.887,3.262,3.775,6.524,5.662,9.786
		c13.214-7.456,26.428-14.912,39.642-22.368c-3.113-3.203-7.973-9.689-9.071-9.105C393.62,455.468,381.786,463.155,369.798,470.551z
		 M362.666,565.201c-1.701-1.446-3.402-2.893-5.102-4.339c-7.478,11.648-14.991,23.275-22.18,35.098
		c-0.137,0.225,3.535,2.765,5.43,4.225c7.284-11.019,14.579-22.031,21.815-33.081C362.923,566.655,362.666,565.844,362.666,565.201z
		 M397.185,81.905c-0.398-2.363-0.796-4.726-1.193-7.088c-13.52,2.677-27.057,5.277-40.494,8.316
		c-0.532,0.121-0.117,4.426-0.144,6.781c12.879-1.757,25.766-3.457,38.621-5.371C395.15,84.368,396.12,82.817,397.185,81.905z
		 M340.797,317.391c2.807,2.131,5.613,4.262,8.42,6.393c7.777-10.802,15.554-21.604,23.331-32.406
		c-2.197-1.621-4.394-3.243-6.591-4.864C357.57,296.806,349.184,307.098,340.797,317.391z M347.104,373.241
		c5.645-9.456,9.732-15.65,12.821-22.307c0.384-0.828-4.525-4.112-6.981-6.259c-3.744,5.183-8.218,10.029-10.857,15.724
		C341.096,362.536,344.372,366.649,347.104,373.241z M312.992,672.152c-5.412-4.3-9.157-8.592-10.342-7.974
		c-3.84,2.002-6.74,5.805-10.002,8.914c2.531,2.296,5.212,6.593,7.558,6.417C303.715,679.245,306.989,675.837,312.992,672.152z"/>
</g>
<g id="Layer_1">
</g>
</svg>
