<?xml version="1.0" encoding="iso-8859-1"?>
<!-- Generator: Adobe Illustrator 25.2.0, SVG Export Plug-In . SVG Version: 6.00 Build 0)  -->
<svg version="1.1" xmlns="http://www.w3.org/2000/svg" xmlns:xlink="http://www.w3.org/1999/xlink" x="0px" y="0px"
	 viewBox="0 0 1000 1000" style="enable-background:new 0 0 1000 1000;" xml:space="preserve">
<g id="latinSmallLetterI">
	<path d="M494.365,327.031c29.191-1.195,58.377-2.855,87.576-3.089c4.453-0.036,13.033,7.177,12.598,9.9
		c-0.92,5.753-6.538,10.756-10.233,16.063c-3.881,5.574-11.098,11.109-11.157,16.722c-1.003,95.175-1.263,190.36-1.197,285.542
		c0.006,9.071,5.985,18.721,4.202,27.032c-1.492,6.955-9.903,17.178-15.901,17.648c-39.865,3.122-79.898,4.539-119.895,5.07
		c-6.264,0.084-12.625-7.161-18.942-11.017c5.416-4.792,11.145-9.281,16.157-14.464c4.614-4.773,11.967-10.193,12.114-15.495
		c2.362-85.088,3.711-170.204,5.473-255.31c0.147-7.103,1.448-14.202,2.482-21.263c3.199-21.85,0.222-36.692-28.346-32.989
		c-7.205,0.934-15.861-9.324-23.85-14.439c7.369-3.323,14.531-8.838,22.145-9.554c22.12-2.079,44.42-2.234,66.649-3.144
		C494.282,325.173,494.323,326.102,494.365,327.031z M517.23,535.446c-2.595-2.084-5.19-4.169-7.785-6.254
		c-10.801,15.062-21.99,29.875-31.992,45.45c-1.538,2.396,2.385,8.3,3.783,12.581c3.365-2.104,8.018-3.417,9.876-6.446
		C500.225,565.918,508.596,550.602,517.23,535.446z M506.663,506.858c0.414,1.57,0.829,3.14,1.243,4.711
		c11.797-6.808,24.605-12.405,34.906-21.005c4.269-3.564,3.173-13.554,4.517-20.621c-5.788,2.147-13.189,2.746-17.037,6.755
		C521.493,485.865,514.431,496.7,506.663,506.858z M513.114,621.794c1.643,1.665,3.286,3.33,4.929,4.994
		c8.497-5.628,18.735-9.829,24.907-17.361c4.466-5.451,3.535-15.324,5.011-23.224c-5.955,3.112-13.346,4.94-17.539,9.629
		C523.559,603.507,518.775,613.042,513.114,621.794z M521.74,380.484c-2.626-1.899-5.253-3.797-7.879-5.696
		c-9.95,10.817-20.095,21.466-29.689,32.59c-1.948,2.259-1.823,6.305-2.653,9.528c2.468,0.383,6.262,1.986,7.202,0.964
		C499.972,405.633,510.8,393.008,521.74,380.484z M515.782,396.666c1.579,2.177,3.158,4.354,4.737,6.531
		c6.98-3.796,15.156-6.384,20.58-11.753c4.75-4.701,6.409-12.526,9.433-18.971c-5.954,2.774-12.458,4.777-17.721,8.523
		C526.577,385.435,521.411,391.376,515.782,396.666z M500.723,609.662c-3.627-2.033-7.254-4.065-10.881-6.097
		c-4.668,9.302-9.587,18.497-13.668,28.049c-0.477,1.117,3.668,4.209,5.67,6.386C488.137,628.554,494.43,619.108,500.723,609.662z
		 M514.769,360.605c-0.594-3.029-1.188-6.058-1.782-9.087c-10.734,1.499-21.468,2.998-32.202,4.498
		c1.165,3.964,2.931,11.455,3.406,11.373C494.471,365.637,504.606,363.039,514.769,360.605z M540.638,529.613
		c-6.296,8.405-10.797,14.414-15.298,20.422c3.12,1.708,7.903,5.622,9.07,4.741c4.958-3.741,9.405-8.546,12.73-13.793
		C547.981,539.656,543.992,535.267,540.638,529.613z M480.866,672.613c1.423,2.936,2.845,5.871,4.268,8.807
		c8.401-4.744,16.927-9.291,25.04-14.485c1.003-0.642-0.195-4.723-0.374-7.211C500.156,664.021,490.511,668.317,480.866,672.613z"/>
	<path d="M445.833,194.322c-1.342-44.716,25.757-68.004,81.221-69.796c27.759-0.897,56.011,31.134,56.663,64.243
		c0.609,30.939-35.904,68.115-67.616,68.845C479.066,258.466,446.888,229.482,445.833,194.322z M514.92,176.106
		c-1.328-1.33-2.657-2.66-3.985-3.99c-11.471,6.571-23.794,12.082-33.971,20.261c-3.783,3.04-2.542,12.332-3.592,18.773
		c3.713,0.363,9.298,2.466,10.839,0.809C494.917,200.445,504.784,188.15,514.92,176.106z M518.781,178.186
		c1.945,3.525,3.891,7.05,5.836,10.575c10.639-6.976,21.343-13.861,31.725-21.201c0.52-0.368-1.754-4.687-2.727-7.167
		C542.003,166.324,530.392,172.255,518.781,178.186z M492.984,220.705c1.681,3.363,3.362,6.726,5.043,10.089
		c8.125-5.042,16.405-9.863,24.212-15.357c1.227-0.863,0.302-4.783,0.372-7.29C512.735,212.334,502.859,216.52,492.984,220.705z"/>
</g>
<g id="Layer_1">
</g>
</svg>
