<?xml version="1.0" encoding="iso-8859-1"?>
<!-- Generator: Adobe Illustrator 25.2.0, SVG Export Plug-In . SVG Version: 6.00 Build 0)  -->
<svg version="1.1" xmlns="http://www.w3.org/2000/svg" xmlns:xlink="http://www.w3.org/1999/xlink" x="0px" y="0px"
	 viewBox="0 0 1000 1000" style="enable-background:new 0 0 1000 1000;" xml:space="preserve">
<g id="latinSmallLetterS">
	<path d="M504.833,515.557c42.715,1.335,84.19,2.832,117.675,37.618c35.047,36.409,9.19,135.286-41.07,141.786
		c-7.826,1.012-16.405,6.338-22.027,12.18c-12.355,12.839-11.533,13.415-19.501-0.597c-1.14-2.004-4.526-4.142-6.673-3.953
		c-41.751,3.697-83.858-27.996-125.806,3.059c-15.851,11.735-28.586,4.372-31.422-16.216c-3.349-24.307-7.37-48.53-10.145-72.899
		c-0.624-5.476,2.708-11.403,4.219-17.122c6.566,3.187,15.729,4.615,19.273,9.848c21.889,32.317,51.221,53.233,89.696,58.981
		c13.653,2.04,38.706,1.771,40.485-3.52c7.655-22.766,17.315-50.988,9.895-71.23c-10.611-28.949-34.292-50.106-73.935-47.522
		c-16.679,1.087-35.207-18.883-52.085-30.462c-13.434-9.217-25.683-20.172-38.323-30.521c-1.471-1.205-2.562-3.35-3.014-5.254
		c-11.168-46.997,36.136-139.941,83.685-148.007c36.494-6.19,79.957-3.273,112.971,11.747c28.291,12.872,35.208-2.956,50.262-12.907
		c4.138-2.735,10.587-7.44,13.026-6.053c4.067,2.312,7.53,8.588,8.152,13.58c3.742,30.046,7.113,60.163,9.371,90.349
		c0.511,6.839-3.869,14.044-5.998,21.08c-7.52-4.034-15.515-7.389-22.466-12.24c-16.573-11.563-32.693-23.779-48.898-35.862
		c-3.211-2.394-7.731-4.858-8.697-8.154c-9.401-32.076-42.644-44.461-74.213-27.205c-37.54,20.52-61.969,92.934-37.327,126.732
		c11.815,16.204,38.318,21.699,58.17,32.044C501.685,521.746,503.259,518.651,504.833,515.557z M560.678,604.977
		c21.07-18.057,30.211-25.891,39.352-33.725c-5.084-2.672-11.974-8.878-14.925-7.371c-10.001,5.107-19.451,12.131-27.242,20.223
		C555.477,586.581,559.102,594.846,560.678,604.977z M619.802,610.045c-5.539-3.951-9.296-7.697-10.196-7.104
		c-7.491,4.933-14.455,10.666-21.579,16.157c2.157,1.822,5.274,5.649,6.318,5.149C602.204,620.484,609.654,615.869,619.802,610.045z
		 M398.422,460.153c2.622,0.294,5.245,0.588,7.867,0.881c0.798-8.669,1.597-17.338,2.396-26.007c-2.427,0.304-6.842,0.24-6.977,0.97
		C400.227,443.977,399.416,452.082,398.422,460.153z"/>
</g>
<g id="Layer_1">
</g>
</svg>
