<?xml version="1.0" encoding="iso-8859-1"?>
<!-- Generator: Adobe Illustrator 25.2.0, SVG Export Plug-In . SVG Version: 6.00 Build 0)  -->
<svg version="1.1" xmlns="http://www.w3.org/2000/svg" xmlns:xlink="http://www.w3.org/1999/xlink" x="0px" y="0px"
	 viewBox="0 0 1000 1000" style="enable-background:new 0 0 1000 1000;" xml:space="preserve">
<g id="latinCapitalLetterA">
	<path d="M220.679,695.757c-19.659,0-39.353,0.636-58.954-0.431c-5.128-0.279-9.969-5.848-14.942-8.988
		c3.965-4.796,7.254-10.525,12.134-14.059c3.223-2.334,9.117-2.962,13.156-1.885c45.926,12.246,56.783-17.532,71.635-52.175
		c34.433-80.316,74.458-158.223,111.668-237.363c34.96-74.354,70.55-148.477,102.408-224.156c5.018-11.92-7.21-31.96-13.37-47.49
		c-6.609-16.663-15.466-32.433-23.343-48.593c17.989-2.767,35.926-7.326,53.98-7.852c23.29-0.679,46.668,1.996,70.02,2.954
		c7.53,0.309,18.723,2.913,22.06-0.917c22.742-26.101,46.253-10.183,69.028-2.249c5.892,2.053,11.525,10.221,13.665,16.762
		c10.515,32.137,20.462,64.496,29.329,97.124c6.82,25.096,9.719,51.378,17.861,75.974c32.877,99.317,66.502,198.399,101.133,297.119
		c14.593,41.601,32.106,82.192,48.796,123.037c8.826,21.599,13.213,34.008-21.038,31.669c-29.264-1.999-59.364,8.572-89.135,13.33
		c-4.206,0.672-8.915,0.832-12.924-0.352c-16.36-4.829-32.77-9.673-48.664-15.802c-5.809-2.24-10.235-8.069-15.292-12.26
		c4.868-4.035,10.072-11.877,14.548-11.481c27.3,2.415,29.382-9.097,21.721-31.521c-31.43-91.995-61.133-184.59-93.604-276.208
		c-3.635-10.255-20.558-21.829-31.785-22.328c-50.384-2.242-100.978-1.721-151.394,0.326c-10.236,0.416-24.855,9.374-29.271,18.398
		c-38.444,78.569-78.027,156.866-110.102,238.074c-8.293,20.996,5.862,53.007,14.938,78.063
		c7.844,21.654,1.383,25.465-17.599,25.003c-18.877-0.459-37.774-0.101-56.663-0.101
		C220.679,696.837,220.679,696.297,220.679,695.757z M496.042,315.026c0-0.07,0-0.139,0-0.209c16.625,0,33.251,0.095,49.876-0.019
		c41.223-0.281,42.869-2.923,27.821-40.114c-3.938-9.733-5.716-20.318-9.178-30.271c-14.29-41.083-28.632-82.154-43.936-122.861
		c-0.77-2.049-14.714-2.686-15.789-0.566c-29.656,58.495-58.709,117.306-86.619,176.65c-1.503,3.195,7.411,16.184,12.152,16.583
		C452.128,316.052,474.128,315.026,496.042,315.026z M792.592,570.761c-5.669-8.858-9.156-18.078-15.821-22.96
		c-2.87-2.102-13.498,3.431-18.563,7.837c-14.781,12.859-29.97,25.772-41.966,41.046c-4.641,5.909-1.134,18.217-1.34,27.609
		c6.665-0.732,14.945,0.792,19.699-2.611c15.307-10.958,29.448-23.577,43.75-35.889
		C783.299,581.534,787.404,576.298,792.592,570.761z M670.205,228.899c-6.038-9.537-10.593-18.093-16.813-25.19
		c-1.013-1.156-10.18,3.206-14.215,6.626c-13.179,11.171-28.465,21.327-37.487,35.376c-5.357,8.342-0.876,23.304,0.182,35.201
		c0.204,2.297,7.051,6.334,7.469,5.946C629.574,268.066,649.437,248.876,670.205,228.899z M730.341,440.498
		c-19.29,22.56-38.631,44.316-56.481,67.233c-2.055,2.638,3.734,12.019,7.081,17.552c0.501,0.828,8.545-1.252,11.485-3.828
		c17.455-15.297,35.158-30.448,51.125-47.22c4.666-4.902,5.073-14.947,5.026-22.62C748.562,449.129,740.871,446.692,730.341,440.498
		z M691.552,553.489c3.867,10.105,4.442,16.869,7.865,18.951c2.946,1.792,10.158-0.431,13.725-3.17
		c16.043-12.318,31.974-24.898,46.778-38.641c4.296-3.988,8.078-16.256,6.33-17.688c-7.517-6.156-22.651-15.587-25.185-13.236
		C722.816,516.636,706.964,536.147,691.552,553.489z M750.408,667.492c17.91-12.234,38.186-24.484,55.837-39.765
		c2.838-2.457-6.041-18.445-9.503-28.178c-5.293,1.898-11.79,2.455-15.666,5.933c-14.53,13.039-28.371,26.868-42.092,40.774
		c-3.806,3.857-6.305,9.005-9.403,13.56C734.918,661.782,740.255,663.75,750.408,667.492z M706.207,327.993
		c-6.985-7.483-10.173-13.674-13.205-13.598c-7.489,0.188-16.339,1.307-22.068,5.538c-14.07,10.391-27.295,22.158-39.496,34.698
		c-3.331,3.424-3.539,12.027-2.035,17.367c1.306,4.635,10.037,11.73,10.42,11.422C661.561,365.98,682.768,347.878,706.207,327.993z
		 M739.338,406.283c-12.484-2.671-24.291-8.756-28.278-5.44c-18.203,15.14-34.716,32.47-50.467,50.228
		c-2.393,2.698,1.355,12.439,4.52,17.514c0.965,1.548,10.696-0.064,14.342-2.895c15.95-12.386,31.372-25.491,46.452-38.934
		C729.99,423.116,732.202,417.378,739.338,406.283z M613.03,316.499c2.087,2.046,4.173,4.091,6.26,6.137
		c0.868,4.233,1.735,8.467,2.603,12.7c3.209-1.174,7.271-1.479,9.492-3.659c16.567-16.26,33.389-32.351,48.63-49.805
		c3.6-4.123,3.036-13.66,1.294-19.834c-0.74-2.623-12.287-5.797-14.093-3.964C648.586,276.99,630.946,296.88,613.03,316.499z
		 M585.682,234.163c26.188-24.071,44.757-41.139,63.325-58.206c-5.64-5.243-15.53-15.613-16.297-14.977
		c-17.602,14.591-34.687,29.922-50.521,46.409C579.627,210.056,583.447,218.851,585.682,234.163z M569.657,180.968
		c21.433-15.043,40.721-27.883,58.979-42.05c3.213-2.493,4.674-13.695,2.529-15.436c-6.478-5.26-20.55-12.53-22.096-10.743
		c-15.342,17.737-28.929,37.02-42.419,56.282C565.382,170.831,568.168,175.481,569.657,180.968z M651.709,420.055
		c4.259,2.732,8.517,5.463,12.776,8.195c16.611-20.779,33.222-41.558,49.834-62.337c-5.164-3.057-13.704-9.788-14.981-8.615
		c-16.479,15.143-32.294,31.078-47.269,47.72C649.523,407.848,651.709,414.935,651.709,420.055z M546.326,115.556
		c3.933,8.867,5.899,13.299,7.865,17.731c4.359-2.196,9.69-3.453,12.893-6.766c9.4-9.724,18.587-19.808,26.482-30.744
		c2.632-3.645,3.028-11.382,0.856-15.212c-1.661-2.928-11.523-5.212-13.364-3.383C568.677,89.485,557.466,102.965,546.326,115.556z
		 M474.852,69.77c-6.405,5.24-14.885,10.956-14.365,11.944c4.361,8.302,10.372,15.737,15.887,23.433
		c4.913-6.824,11.472-13.137,13.843-20.753C491.041,81.745,481.508,75.871,474.852,69.77z"/>
</g>
<g id="Layer_1">
</g>
</svg>
