<?xml version="1.0" encoding="iso-8859-1"?>
<!-- Generator: Adobe Illustrator 25.2.0, SVG Export Plug-In . SVG Version: 6.00 Build 0)  -->
<svg version="1.1" xmlns="http://www.w3.org/2000/svg" xmlns:xlink="http://www.w3.org/1999/xlink" x="0px" y="0px"
	 viewBox="0 0 1000 1000" style="enable-background:new 0 0 1000 1000;" xml:space="preserve">
<g id="latinCapitalLetterN">
	<path d="M395.411,251.509c3.942,138.848,7.847,277.696,12.011,416.537c0.118,3.926,2.569,8.021,4.679,11.596
		c3.439,5.826,7.496,11.287,11.292,16.902c-8.321,3.507-16.386,8.71-25.038,10.013c-7.711,1.162-16.034-2.666-24.153-3.123
		c-38.21-2.152-76.442-3.927-114.669-5.775c-7.327-0.354-15.093,1.002-21.888-1.017c-7.519-2.234-14.156-7.439-21.177-11.35
		c4.279-6.366,7.406-14.08,13.023-18.88c36.551-31.229,46.274-70.054,45.047-117.684c-2.086-80.995,3.574-162.165,4.839-243.279
		c1.076-68.945,1.134-137.927-0.398-206.848c-0.122-5.491-16.203-10.549-24.775-15.953c-7.754-4.888-15.382-9.976-23.066-14.976
		c8.41-3.508,16.71-7.313,25.249-10.471c34.748-12.848,46.651,11.427,67.202,33.607c103.86,112.1,169.513,250.467,261.069,370.754
		c1.796,2.36,2.878,5.265,4.675,7.624c9.445,12.395,19.013,24.696,28.538,37.029c1.215-15.133,3.72-30.29,3.436-45.395
		c-1.816-96.528-4.122-193.047-6.58-289.561c-0.49-19.243-1.923-38.488-3.66-57.666c-1.825-20.15-10.759-32.363-33.664-32.797
		c-6.34-0.12-12.486-10.485-18.721-16.149c6.731-4.356,13.432-12.434,20.198-12.488c62.862-0.498,125.738,0.231,188.602,1.169
		c4.868,0.073,13.81,4.495,13.774,6.783c-0.139,8.849-0.178,22.181-5.581,25.73c-32.66,21.447-40.29,51.485-39.869,88.384
		c1.204,105.521,0.545,211.072-0.346,316.603c-0.377,44.693-1.682,89.49-5.421,134c-2.199,26.17,7.626,35.623,32.18,38.365
		c7.687,0.858,14.241,11.863,21.313,18.223c-7.634,3.443-15.023,9.071-22.944,9.959c-39.909,4.476-67.165-13.991-88.543-47.125
		c-63.078-97.765-127.411-194.723-191.595-291.77c-23.124-34.963-47.219-69.284-70.871-103.898
		C404.857,249.559,400.134,250.534,395.411,251.509z M645.586,456.176c0.495,2.191,2.534,11.214,4.573,20.237
		c8.134-4.778,17.023-8.634,24.233-14.54c12.128-9.936,26.079-19.469,33.731-32.436c5.53-9.371,2.655-24.06,2.071-36.308
		c-0.091-1.915-8.19-5.348-12.181-4.847C681.382,390.369,646.362,431.853,645.586,456.176z M672.699,548.922
		c11.436-14.401,23.485-28.04,33.497-43.038c3.385-5.071,1.614-13.583,2.2-20.523c-6.186,1.161-14.056,0.315-18.255,3.842
		c-15.32,12.867-30.871,26.04-43.193,41.587c-4.408,5.561-3.317,20.969,1.459,26.854c5.285,6.51,19.374,11.997,26.563,9.409
		c10.885-3.918,19.12-15.2,28.481-23.353C693.714,545.353,683.978,547.006,672.699,548.922z M305.113,366.736
		c24.187-16.528,42.843-28.487,60.38-41.909c3.637-2.784,6.019-13.995,3.886-16.059c-3.919-3.792-13.938-6.999-17.36-4.619
		c-16.905,11.754-33.043,24.822-48.047,38.922C301.044,345.821,304.338,355.194,305.113,366.736z M645.134,258.708
		c4.083,0.318,10.41,2.823,13.188,0.695c15.887-12.173,31.248-25.102,46.008-38.624c3.17-2.904,3.969-9.28,4.123-14.112
		c0.053-1.673-5.055-4.831-7.984-5.062C682.422,200.178,644.737,234.787,645.134,258.708z M306.951,631.984
		c23.545-15.501,46.357-30.313,68.762-45.717c1.558-1.071,1.455-8.029-0.284-9.627c-2.736-2.514-8.711-5.029-11.252-3.675
		c-20.824,11.102-41.483,22.61-61.365,35.29c-3.482,2.221-3.87,10.482-4.087,16.016
		C298.645,626.335,303.146,628.576,306.951,631.984z M654.497,209.189c17.116-13.106,34.73-25.946,51.37-39.945
		c2.914-2.451,3.994-12.616,1.963-14.227c-3.887-3.083-12.449-5.346-15.858-3.091c-15.986,10.572-31.213,22.401-45.884,34.761
		c-2.974,2.506-3.341,9.317-2.999,14.004C643.244,202.814,648.072,204.596,654.497,209.189z M376.444,511.974
		c-5.321-2.716-11.199-7.876-13.568-6.587c-20.548,11.179-40.597,23.309-60.379,35.813c-2.117,1.338-1.581,6.872-2.276,10.46
		c4.229,0.722,9.302,3.319,12.548,1.858c18.919-8.514,37.568-17.682,55.89-27.416C371.719,524.475,372.73,518.993,376.444,511.974z
		 M721.371,264.255c-16.203-7.161-23.686-12.332-25.305-10.896c-16.817,14.921-32.742,30.855-48.569,46.849
		c-0.469,0.475,4.158,6.885,4.208,6.856C672.136,294.817,692.376,282.249,721.371,264.255z M360.312,619.199
		c-18.058,11.589-37.892,24.155-57.436,37.156c-1.658,1.103-1.38,5.115-2.002,7.775c3.486,0.702,7.707,3.034,10.343,1.847
		c20.737-9.34,41.326-19.054,61.506-29.529c2.56-1.329,4.494-8.784,3.073-11.478C374.367,622.261,368.385,621.953,360.312,619.199z
		 M690.211,109.653c-15.775,11.701-31.532,22.9-46.523,35.045c-2.21,1.791-2.454,9.306-0.534,11.888
		c1.635,2.198,8.53,2.762,11.656,1.188c15.132-7.62,30.04-15.785,44.402-24.758c3.433-2.145,6.72-8.6,5.955-12.198
		C704.459,117.486,698.241,115.324,690.211,109.653z M711.238,311.027c-7.201-2.411-12.412-6.128-15.399-4.809
		c-11.828,5.22-24.536,10.288-33.848,18.779c-7.406,6.753-10.347,18.404-15.27,27.881c8.821-3.694,17.8-7.056,26.413-11.184
		c7.299-3.499,14.724-7.173,21.072-12.088C699.794,325.279,703.968,319.126,711.238,311.027z M322.63,229.042
		c18.007-12.385,34.528-23.749,51.05-35.113c-3.956-4.2-10.707-12.507-11.456-11.997c-16.511,11.241-32.366,23.447-48.051,35.842
		C314.104,217.828,318.256,223.223,322.63,229.042z M377.552,469.191c-8.392-2.706-13.527-6.293-16.542-4.986
		c-10.658,4.616-21.522,9.729-30.554,16.87c-10.595,8.377-19.357,19.07-28.914,28.758c12.883-5.37,26.213-9.889,38.521-16.354
		C351.745,487.343,362.357,479.169,377.552,469.191z M712.761,605.228c-3.765-9.386-7.13-17.774-10.495-26.161
		c-9.444,5.533-18.888,11.067-28.332,16.6c9.157,11.962,18.314,23.924,27.472,35.885
		C704.989,623.246,708.571,614.941,712.761,605.228z M306.437,391.483c2.291,3.598,4.581,7.195,6.872,10.793
		c18.648-12.8,37.484-25.345,55.695-38.74c2.154-1.584,0.884-7.824,1.201-11.906c-3.866,0.054-8.845-1.439-11.418,0.412
		C341.055,364.798,323.827,378.253,306.437,391.483z M645.145,389.932c2.279,2.578,4.557,5.155,6.836,7.733
		c16.496-11.134,33.461-21.665,49.155-33.834c3.861-2.994,3.579-11.33,5.201-17.21c-3.197-0.401-7.686-2.369-9.393-0.962
		C679.419,360.103,662.345,375.094,645.145,389.932z M705.794,96.315c-0.664-3.499-1.328-6.997-1.992-10.496
		c-19.238,1.882-38.56,3.211-57.651,6.073c-4.269,0.64-7.733,6.656-11.567,10.197c4.914,3.193,10.508,9.811,14.624,8.993
		C668.294,107.289,686.971,101.433,705.794,96.315z M324.68,260.957c14.045-8.003,30.073-16.956,45.834-26.358
		c1.864-1.112,3.635-6.403,3.1-6.832c-2.646-2.125-6.973-5.341-9.099-4.428c-16.903,7.258-33.572,15.11-49.942,23.504
		c-2.312,1.186-2.619,6.285-3.853,9.572C314.071,257.505,317.423,258.596,324.68,260.957z M375.828,269.19
		c-7.487-4.446-11.704-8.459-13.214-7.617c-17.226,9.605-34.187,19.727-50.667,30.549c-1.228,0.806,1.773,8.053,2.809,12.305
		C333.77,293.457,352.783,282.487,375.828,269.19z M302.285,460.75c1.984,3.157,3.968,6.314,5.953,9.471
		c18.337-8.641,36.819-16.999,54.877-26.187c3.227-1.642,4.704-6.722,6.99-10.214c-4.353-1.756-10.155-6.245-12.828-4.829
		C338.584,438.893,320.538,450.017,302.285,460.75z M358.797,161.884c-11.927-6.189-17.925-11.59-20.577-10.27
		c-10.071,5.013-19.06,12.2-28.453,18.575c2.977,3.861,7.434,11.491,8.701,10.994C330.019,176.651,341.015,170.704,358.797,161.884z
		 M324.566,565.783c0.866,2.306,1.733,4.612,2.599,6.919c15.333-7.137,30.667-14.274,46-21.412
		c-1.314-2.717-2.629-5.434-3.943-8.151C354.337,550.688,339.452,558.235,324.566,565.783z M384.39,670.663
		c-5.663-4.592-9.585-10.127-12.758-9.727c-3.655,0.461-6.648,6.168-9.928,9.596c3.932,2.875,7.543,6.832,11.941,8.141
		C375.666,679.276,379.233,674.686,384.39,670.663z"/>
</g>
<g id="Layer_1">
</g>
</svg>
