<?xml version="1.0" encoding="iso-8859-1"?>
<!-- Generator: Adobe Illustrator 25.2.0, SVG Export Plug-In . SVG Version: 6.00 Build 0)  -->
<svg version="1.1" xmlns="http://www.w3.org/2000/svg" xmlns:xlink="http://www.w3.org/1999/xlink" x="0px" y="0px"
	 viewBox="0 0 1000 1000" style="enable-background:new 0 0 1000 1000;" xml:space="preserve">
<g id="latinCapitalLetterB">
	<path d="M530.212,699.045c-93.295,0-186.593,0.253-279.881-0.605c-5.814-0.053-11.548-8.814-17.318-13.523
		c5.621-4.497,11.772-8.481,16.736-13.613c7.179-7.422,19.093-15.527,19.307-23.597c1.832-69.232,1.359-138.522,1.812-207.794
		c0.609-93.227,1.671-186.452,2.002-279.68c0.091-25.477-0.142-51.199-3.862-76.269c-0.885-5.966-16.307-9.92-25.189-14.517
		c-10.292-5.326-20.745-10.34-31.128-15.489c11.231-3.705,22.54-10.824,33.68-10.57c82.379,1.879,165.332,0.163,246.861,9.946
		c51.704,6.205,105.528,22.636,150.777,48.054c63.907,35.899,69.914,147.427,17.941,197.301
		c-34.692,33.29-33.666,38.032,12.381,57.205c85.958,35.792,133.823,132.876,104.174,217.863
		c-21.032,60.286-71.111,94.29-127.336,115.308c-37.722,14.102-79.634,16.996-119.671,24.905
		C531.069,708.995,530.641,704.02,530.212,699.045z M692.236,515.81c1.14,0,2.28,0,3.421-0.001c0-31.115,2.066-62.436-1.011-93.244
		c-1.241-12.429-10.913-28.498-21.551-34.798C585.82,336.09,487.2,342.151,391.147,336.21c-4.417-0.273-13.542,9.742-13.629,15.077
		c-1.52,93.045,0.087,186.189-3.587,279.129c-1.638,41.447,13.29,51.647,51.195,47.491c43.939-4.818,89.603-13.268,132.165-6.125
		c47.674,8.001,84.276-9.356,122.961-27.843c5.128-2.451,11.332-9.447,11.46-14.48C692.673,591.596,692.236,553.698,692.236,515.81z
		 M510.146,318.205c19.7-1.562,48.326-0.827,75.22-7.295c12.508-3.008,29.371-19.002,30.903-30.839
		c4.971-38.386,1.586-77.799,5.621-116.377c3.226-30.846-9.505-49.834-36.4-56.069c-53.994-12.519-109.092-20.217-163.262-32.062
		c-28.461-6.223-36.621,11.528-42.969,31.37c-2.912,9.102,0.009,20.021,0.024,30.117c0.051,35.675-0.396,71.356,0.121,107.023
		c0.291,20.074,1.742,40.162,3.737,60.137c0.22,2.199,7.369,4.974,11.485,5.316C430.326,312.496,466.066,314.97,510.146,318.205z
		 M714.409,504.743c0,33.016-0.519,57.129,0.316,81.195c0.251,7.229,4.274,14.327,6.569,21.485
		c6.066-4.211,13.539-7.292,17.973-12.813c33.023-41.132,30.366-122.211-4.981-161.11c-2.731-3.006-7.422-4.231-11.203-6.283
		c-1.65,3.985-4.465,7.886-4.76,11.969C716.531,463.988,715.312,488.831,714.409,504.743z M351.118,196.9
		c-1.098-1.42-6.552-8.471-12.005-15.522c-13.055,10.85-29.743,19.512-38.013,33.243c-6.597,10.955-3.176,28.085-3.393,42.486
		c-0.019,1.225,7.627,4.605,9.087,3.504C326.216,245.963,354.532,238.157,351.118,196.9z M296.129,467.584
		c-1.017,0.262-2.033,0.524-3.05,0.786c1.99,5.896,3.981,11.793,5.971,17.689c2.702-1.062,7.746-2.203,7.714-3.174
		c-0.175-5.22-2.736-10.486-2.339-15.57c0.541-6.925,1.059-15.251,5.029-20.235c10.034-12.596,23.776-22.49,32.492-35.788
		c5.054-7.711,3.388-19.9,4.05-30.119c0.024-0.377-8.67-3.184-11.005-1.559c-22.749,15.828-50.864,28.511-41.658,65.091
		C295.193,452.099,295.244,459.947,296.129,467.584z M643.673,151.76c0,40.706-0.104,73.046,0.125,105.385
		c0.03,4.291,1.756,8.57,2.696,12.855c4.432-2.474,9.804-4.055,13.143-7.568C680.979,239.971,676.78,185.943,643.673,151.76z
		 M336.866,509.325c-2.368-2.815-5.98-7.107-9.591-11.399c-11.292,10.403-27.505,18.905-32.466,31.753
		c-4.78,12.38,2.064,29.249,3.802,44.145c10.016-12.89,20.711-25.326,29.742-38.872
		C332.493,528.742,333.362,520.352,336.866,509.325z M354.839,285.693c-3.687-16.588-4.973-22.374-6.259-28.161
		c-5.835,2.753-12.2,4.755-17.394,8.416c-10.448,7.364-21.661,14.441-29.779,23.998c-4.502,5.3-4.121,15.354-4.276,23.297
		c-0.037,1.879,8.312,6.495,9.944,5.437C324.2,307.589,340.744,295.599,354.839,285.693z M316.959,641
		c-1.656-0.416-3.311-0.832-4.967-1.248c5.983-18.071,11.965-36.143,17.948-54.214c-13.061,5.841-24.071,13.944-28.297,24.709
		c-4.347,11.071-2.075,24.741-2.7,37.274c13.512-2.163,28.253-1.852,39.954-7.662c4.94-2.453,3.476-17.802,4.923-27.289
		c-6.377,4.933-13.262,9.354-18.945,14.987C321.304,631.097,319.536,636.457,316.959,641z M299.128,135.989
		c15.042-8.608,26.84-14.586,37.718-21.927c5.041-3.402,8.291-9.459,12.352-14.313c-6.219-2.701-14.782-9.413-18.242-7.391
		c-13.317,7.78-25.337,17.982-36.872,28.358C292.635,122.019,296.956,129.736,299.128,135.989z M330.904,324.181
		c-14.086,13.546-26.386,24.382-36.988,36.681c-1.52,1.763,5.156,10.59,8.038,16.148c12.527-12.755,25.198-25.378,37.232-38.582
		C339.934,337.61,335.67,332.224,330.904,324.181z M320.515,154.543c-2.526-1.766-5.052-3.532-7.579-5.298
		c-4.48,7.086-9.07,14.11-13.221,21.385c-0.313,0.548,2.504,2.882,3.865,4.385C309.226,168.191,314.871,161.367,320.515,154.543z"/>
</g>
<g id="Layer_1">
</g>
</svg>
