<?xml version="1.0" encoding="iso-8859-1"?>
<!-- Generator: Adobe Illustrator 25.2.0, SVG Export Plug-In . SVG Version: 6.00 Build 0)  -->
<svg version="1.1" xmlns="http://www.w3.org/2000/svg" xmlns:xlink="http://www.w3.org/1999/xlink" x="0px" y="0px"
	 viewBox="0 0 1000 1000" style="enable-background:new 0 0 1000 1000;" xml:space="preserve">
<g id="latinSmallLetterL">
	<path d="M459.141,619.654c3.134-67.595,7.362-127.943,8.392-188.344c1.507-88.359-0.078-176.771,1.462-265.129
		c0.393-22.526-4.695-39.007-22.892-52.721c-16.829-12.683-32.591-27.035-47.183-42.228c-2.986-3.109,0.498-18.938,2.379-19.205
		c18.464-2.627,37.37-5.249,55.858-3.887c29.282,2.158,58.299,9.706,87.508,10.196c12.434,0.208,25.068-11.646,37.615-18.011
		c4.775-2.422,9.559-4.825,14.339-7.236c1.96,4.747,5.727,9.536,5.62,14.236c-3.974,174.077-8.937,348.135-12.117,522.226
		c-0.733,40.128,5.312,80.351,6.004,120.569c0.097,5.664-12.724,16.663-19.348,16.497c-42.199-1.055-84.382-4.027-126.465-7.606
		c-10.475-0.891-21.434-4.96-30.265-10.569c-2.464-1.565,2.426-20.355,3.031-20.304
		C469.658,672.014,456.838,636.769,459.141,619.654z M505.077,351.098c2.668,3.178,5.336,6.357,8.005,9.535
		c8.96-3.574,17.682-8.692,26.973-10.127c5.34-0.825,16.667,4.377,16.639,6.765c-0.204,17.402-2.448,34.796-4.353,52.159
		c-3.059,27.879-6.355,55.732-9.516,83.302c25.733,0.354,29.669-18.179,29.051-40.556c-0.461-16.698-0.722-33.415-0.516-50.116
		c0.376-30.588,1.469-61.171,1.379-91.753c-0.011-3.727-5.469-7.438-8.403-11.157C544.582,316.466,524.83,333.782,505.077,351.098z
		 M566.886,609.46c0.743,1.559-1.974-4.141-4.692-9.84c-12.569,14.597-25.138,29.193-37.707,43.79
		c4.441,2.118,8.78,5.793,13.339,6.089C560.052,650.94,569.849,639.684,566.886,609.46z M537.229,530.705
		c-3.5-2.675-7.001-5.35-10.501-8.025c-13.846,18.419-27.931,36.671-41.164,55.521c-1.294,1.843,2.646,7.362,4.157,11.174
		c3.575-1.955,8.349-3.033,10.528-6.01C512.913,566.059,524.968,548.307,537.229,530.705z M547.567,255.854
		c-2.325-2.394-4.65-4.788-6.975-7.183c-16.748,12.757-34.173,24.764-49.743,38.825c-3.645,3.291-1.14,13.545-0.85,20.57
		c0.014,0.338,7.516,1.9,8.937,0.413C515.435,291.214,531.435,273.471,547.567,255.854z M542.338,118.953
		c-2.443-2.588-4.886-5.176-7.329-7.763c-14.115,11.647-29.144,22.412-41.776,35.492c-3.669,3.799-0.477,14.223-0.43,21.609
		c5.329-2.788,11.956-4.4,15.746-8.583C520.389,146.645,531.156,132.611,542.338,118.953z M573.828,554.178
		c-0.427-4.518-0.853-9.037-1.28-13.555c-5.004-2.916-13.272-9.352-14.507-8.206c-12.709,11.789-24.477,24.633-35.905,37.709
		c-1.351,1.546,0.901,6.241,1.483,9.476C540.355,571.127,557.091,562.653,573.828,554.178z M529.878,606.792
		c-1.621-1.553-3.241-3.106-4.862-4.659c-11.141,9.194-23.814,17.143-32.746,28.133c-4.176,5.138-1.121,16.155-1.344,24.507
		c5.962-3.98,13.57-6.758,17.541-12.193C516.634,631.403,522.856,618.805,529.878,606.792z M581.736,97.477
		c-3.087-1.216-6.174-2.433-9.261-3.649c-3.917,5.098-8.355,9.884-11.628,15.366c-5.055,8.468-9.312,17.412-13.907,26.155
		c5.451-0.013,14.24,2.068,15.785-0.395C570.136,123.135,575.588,110.088,581.736,97.477z M535.678,95.544
		c-0.33-3.652-0.66-7.304-0.99-10.956c-13.62,2.299-27.394,4.042-40.641,7.695c-1.445,0.399,0.148,11.813,0.331,18.118
		C508.145,105.447,521.911,100.496,535.678,95.544z M536.823,277.541c2.042,3.268,4.083,6.536,6.125,9.804
		c10.141-6.812,20.546-13.294,30.058-20.893c1.082-0.864-2.854-8.008-4.463-12.241C557.97,261.988,547.396,269.764,536.823,277.541z
		 M529.071,425.386c-1.549-1.848-3.098-3.697-4.647-5.545c-10.294,9.264-21.062,18.074-30.615,28.048
		c-3.178,3.318-3.239,9.621-4.724,14.559c4.798-1.845,10.96-2.405,14.136-5.777C512.477,446.845,520.54,435.895,529.071,425.386z
		 M484.77,513.237c3.434,2.385,6.868,4.769,10.302,7.154c8.655-13.12,17.31-26.241,25.965-39.361
		c-2.832-1.93-5.665-3.861-8.497-5.791C503.284,487.905,494.027,500.571,484.77,513.237z M528.852,373.432
		c-9.389,3.16-15.053,3.442-18.103,6.41c-7.847,7.636-14.623,16.391-21.501,24.96c-0.492,0.613,1.658,3.346,2.58,5.093
		c8.18-6.5,16.656-12.67,24.414-19.639C520.109,386.782,522.66,381.844,528.852,373.432z M517.296,190.802
		c-3.17-2.484-6.34-4.968-9.51-7.453c-5.998,8.345-12.284,16.513-17.65,25.246c-0.722,1.176,3.195,5.202,4.964,7.908
		C502.499,207.937,509.898,199.369,517.296,190.802z M526.836,667.133c0.399,3.15,0.799,6.301,1.198,9.451
		c11.954-1.832,23.927-3.57,35.791-5.864c0.445-0.086-0.153-5.567-0.265-8.533C551.319,663.836,539.078,665.484,526.836,667.133z
		 M571.435,166.361c-1.721-1.75-3.442-3.501-5.163-5.251c-7.592,6.373-15.184,12.746-22.775,19.119
		c1.836,1.92,3.672,3.84,5.507,5.76C556.481,179.447,563.958,172.904,571.435,166.361z M547.916,218.688
		c1.738,2.429,3.477,4.857,5.215,7.286c7.529-5.752,15.143-11.402,22.375-17.506c0.432-0.365-2.19-4.351-3.391-6.651
		C564.048,207.441,555.982,213.064,547.916,218.688z M520.186,233.488c-1.415-1.92-2.83-3.841-4.245-5.761
		c-7.699,6.886-15.423,13.746-22.935,20.831c-0.165,0.156,2.094,2.881,3.222,4.409C504.214,246.474,512.2,239.981,520.186,233.488z"
		/>
</g>
<g id="Layer_1">
</g>
</svg>
