<?xml version="1.0" encoding="iso-8859-1"?>
<!-- Generator: Adobe Illustrator 25.2.0, SVG Export Plug-In . SVG Version: 6.00 Build 0)  -->
<svg version="1.1" xmlns="http://www.w3.org/2000/svg" xmlns:xlink="http://www.w3.org/1999/xlink" x="0px" y="0px"
	 viewBox="0 0 1000 1000" style="enable-background:new 0 0 1000 1000;" xml:space="preserve">
<g id="latinSmallLetterJ">
	<path d="M482.61,867.59c30.726-49.586,51.621-99.291,48.796-156.129c-1.547-31.128-4.905-62.165-7.339-93.251
		c-0.244-3.116-0.697-6.741,0.548-9.372c30.389-64.221,12.245-132.758,17.952-199.149c0.809-9.404,4.807-19.368,2.734-27.964
		c-2.357-9.774-9.457-18.585-15.292-27.28c-4.121-6.142-9.569-11.393-14.425-17.042c4.823-3.382,9.587-9.603,14.478-9.704
		c47.284-0.981,94.618-1.654,141.829,0.27c3.545,0.144,8.998,20.957,8.897,32.119c-0.673,74.671-2.969,149.328-3.763,223.999
		c-0.12,11.286,5.957,22.519,7.04,33.978c0.688,7.286-1.411,15.41-4.251,22.344c-7.777,18.991-21.987,36.946-24.167,56.376
		c-17.631,157.126-139.31,240.538-260.068,255.534c-32.226,4.002-60.618-10.162-75.956-42.158
		c-15.112-31.524-9.885-59.053,13.273-85.539c39.27-44.914,90.056-53.417,118.219-16.151
		C463.71,825.134,471.178,845.67,482.61,867.59z M631.792,621.581c-24.02,33.273-43.312,59.613-62.009,86.369
		c-2.401,3.436-1.709,9.032-2.449,13.628c2.818,0.44,5.826,1.753,8.425,1.188C612.164,714.853,639.44,671.759,631.792,621.581z
		 M658.635,513.001c-4.442-11.603-6.775-17.696-9.108-23.79c-5.503,2.638-12.245,4.044-16.297,8.123
		c-18.903,19.028-37.248,38.627-55.281,58.486c-2.553,2.812-2.294,8.178-3.336,12.362c4.204-0.958,8.882-1.043,12.53-3.025
		c16.608-9.021,33.607-17.593,49.088-28.315C645.263,530.588,651.699,520.586,658.635,513.001z M656.922,449.521
		c-2.768-12-3.814-16.538-4.861-21.075c-4.851,1.512-9.711,3-14.553,4.541c-11.6,3.691-24.141,5.717-34.54,11.554
		c-12.101,6.792-22.667,16.555-33.017,25.995c-1.684,1.536,1.09,11.723,1.978,11.749c12.23,0.347,26.101,3.109,36.387-1.628
		C626.325,472.36,642.138,459.298,656.922,449.521z M595.275,424.142c23.837-13.714,40.596-21.133,54.352-32.263
		c6.324-5.116,7.802-17.348,9.261-26.699c0.469-3.009-5.862-9.705-9.593-10.119c-5.357-0.595-13.828,1.281-16.357,5.131
		C621.06,378.285,610.758,397.412,595.275,424.142z M398.01,850.451c-1.286-1.583-2.571-3.167-3.857-4.75
		c-16.676,10.947-34.584,20.538-49.166,33.79c-3.663,3.33,3.345,18.401,5.448,28.076c5.9-2.508,14.153-3.368,17.274-7.823
		C378.758,883.977,388.051,866.981,398.01,850.451z M497.444,880.936c3.917,3.474,7.833,6.948,11.75,10.422
		c18.177-22.374,36.444-44.678,54.342-67.274c1.265-1.597-0.192-5.35-0.384-8.1c-4.502,0.598-10.955-0.506-13.198,2.065
		C532,838.618,514.844,859.883,497.444,880.936z M618.902,569.566c-2.062-2.075-4.124-4.15-6.185-6.225
		c-15.391,12.472-31.809,23.944-45.534,38.039c-4.011,4.119-0.355,15.706-0.213,23.87c5.235-3.207,11.693-5.37,15.48-9.811
		C595.116,600.587,606.826,584.92,618.902,569.566z M573.976,790.241c10.864-6.81,23.813-12.224,32.696-21.523
		c5.23-5.474,4.008-17.113,5.687-25.98c-12.553,8.975-25.787,17.173-37.33,27.3c-4.764,4.18-5.895,12.5-8.679,18.938
		C568.559,789.343,570.767,789.709,573.976,790.241z M443.333,877.441c-2.918-2.885-5.836-5.77-8.754-8.655
		c-15.217,14.106-30.633,28.007-45.473,42.497c-2.808,2.742-3.33,7.824-4.907,11.827c4.579,0.042,11.005,2.069,13.436-0.195
		C413.353,908.279,428.2,892.706,443.333,877.441z M603.873,608.201c3.092,2.951,6.184,5.901,9.276,8.852
		c11.464-11.673,22.929-23.346,34.393-35.019c-2.739-2.632-5.478-5.264-8.217-7.895
		C627.508,585.493,615.691,596.847,603.873,608.201z M575.217,378.945c9.393-7.891,15.843-13.311,22.294-18.73
		c-4.547-2.807-9.565-8.398-13.525-7.728c-5.149,0.871-10.796,5.934-13.595,10.73C568.863,365.834,572.771,371.625,575.217,378.945z
		 M413.612,859.001c3.032,2.174,6.065,4.347,9.097,6.521c5.333-8.885,10.914-17.643,15.646-26.838
		c0.513-0.997-3.879-4.518-5.995-6.869C426.11,840.878,419.861,849.94,413.612,859.001z"/>
	<path d="M688.915,187.093c0.685,50.172-33.741,80.381-89.603,82.33c-39.903,1.392-64.513-35.02-65.965-63.217
		c-2.795-54.262,31.829-92.834,81.306-93.761C653.057,111.726,688.37,147.222,688.915,187.093z M622.148,188.747
		c2.369,0.427,4.047,1.296,5.241,0.855c9.621-3.551,19.151-7.348,28.709-11.07c-4.601,8.166-9.439,16.211-13.702,24.55
		c-2.063,4.036-3.049,8.623-4.523,12.96c5.07-0.046,13.89,1.414,14.609-0.378c5.18-12.904,12.927-26.942,11.491-39.676
		c-1.228-10.887-13.589-20.518-21.025-30.705c-2.78,2.089-7.015,3.612-8.087,6.366C630.142,163.771,626.336,176.249,622.148,188.747
		z M576.247,220.611c11.778-15.417,24.501-31.997,37.023-48.727c0.512-0.683-0.861-2.778-1.356-4.215
		c-13.736,9.199-28.376,17.361-40.747,28.128c-4.697,4.088-4.222,14.166-5.74,21.588
		C565.387,217.58,569.587,218.642,576.247,220.611z"/>
</g>
<g id="Layer_1">
</g>
</svg>
