<?xml version="1.0" encoding="iso-8859-1"?>
<!-- Generator: Adobe Illustrator 25.2.0, SVG Export Plug-In . SVG Version: 6.00 Build 0)  -->
<svg version="1.1" xmlns="http://www.w3.org/2000/svg" xmlns:xlink="http://www.w3.org/1999/xlink" x="0px" y="0px"
	 viewBox="0 0 1000 1000" style="enable-background:new 0 0 1000 1000;" xml:space="preserve">
<g id="latinCapitalLetterO">
	<path d="M217.128,379.452c6.008-32.412,13.554-75.332,21.975-118.08c16.363-83.072,64.609-144.827,135.916-186.24
		c62.151-36.096,126.425-49.937,197.911-12.507c59.047,30.917,111.66,65.375,145.43,123.421
		c56.301,96.774,86.463,198.959,45.702,309.096c-13.774,37.218-39.185,70.267-60.358,104.555
		c-11.532,18.675-22.758,38.855-38.807,53.065c-16.875,14.94-38.188,26.891-59.585,34.317
		c-61.726,21.422-126.298,26.283-189.07,9.312c-96.006-25.956-150.289-96.831-178.328-187.909
		C226.433,471.189,225.021,430.798,217.128,379.452z M689.979,391.521c-7.871-44.97-16.354-95.736-25.713-146.341
		c-12.173-65.816-36.494-122.591-100.058-157.697c-66.019-36.462-165.944-17.41-206.929,45.494
		c-38.592,59.231-41.122,128.897-48.46,195.489c-5.325,48.331,0.78,98.74,7.659,147.393c8.755,61.921,20.521,124.457,82.058,160.52
		c3.049,1.787,3.499,7.563,5.97,10.878c4.959,6.654,10.551,18.507,15.754,18.439c57.475-0.751,116.317,3.252,171.781-8.376
		c26.654-5.588,60.105-38.025,67.433-64.647C676.674,530.189,679.992,463.884,689.979,391.521z M238.623,355.466
		c7.305,8.83,10.795,13.05,14.286,17.269c10.563-12.011,21.916-23.471,31.024-36.499c1.816-2.597-4.945-11.19-7.751-17.019
		C264.238,330.744,252.295,342.271,238.623,355.466z M291.341,463.065c-6.541-11.907-9.999-18.201-13.458-24.496
		c-9.6,10.773-19.929,21.045-28.029,32.848c-1.24,1.806,7.815,10.677,12.108,16.28C271.31,479.859,280.658,472.022,291.341,463.065z
		 M762.397,449.998c-11.65-3.63-18.232-6.82-19.015-5.753c-11.846,16.139-23.011,32.785-33.828,49.639
		c-0.347,0.541,4.703,4.546,7.237,6.936C729.526,486.628,742.262,472.436,762.397,449.998z M288.365,398.273
		c-6.22-8.544-8.764-12.039-11.309-15.533c-10.625,11.668-21.487,23.146-31.314,35.452c-0.621,0.778,6.825,7.999,10.518,12.222
		C266.62,420.043,276.979,409.672,288.365,398.273z M293.96,275.965c-7.441-5.458-12.252-9.545-12.621-9.176
		c-10.67,10.637-21.048,21.591-30.779,33.081c-0.534,0.63,4.908,6.321,7.568,9.657C269.273,299.087,280.418,288.648,293.96,275.965z
		 M668.77,155.343c-2.542,1.465-5.085,2.93-7.628,4.394c8.115,15.642,15.93,31.455,24.648,46.753
		c1.407,2.469,6.833,2.647,10.401,3.884c0.755-3.756,3.427-8.7,1.954-11.075C688.866,184.33,678.666,169.931,668.77,155.343z
		 M316.73,563.966c-7.153-8.821-12.435-15.333-17.716-21.845c-4.156,5.311-12.851,12.624-11.566,15.535
		c3.098,7.02,10.647,12.255,17.104,17.311C305.134,575.423,310.807,569.38,316.73,563.966z M303.106,226.026
		c-4.864-7.96-7.457-12.203-10.049-16.446c-6.619,8.176-13.584,16.117-19.457,24.798c-0.815,1.204,3.763,6.057,5.845,9.221
		C286.745,238.177,294.045,232.756,303.106,226.026z M722.557,531.794c-5.035-2.488-9.546-6.278-11.241-5.281
		c-7.045,4.144-14.163,8.986-19.209,15.225c-1.603,1.982,3.14,9.096,4.979,13.862C704.923,548.276,712.759,540.952,722.557,531.794z
		 M716.148,259.396c-5.247,8.938-9.67,13.953-10.984,19.681c-0.753,3.281,3.546,7.722,5.571,11.641
		c5.88-5.022,12.272-9.622,17.107-15.502C728.6,274.294,722.285,267.556,716.148,259.396z"/>
</g>
<g id="Layer_1">
</g>
</svg>
