<?xml version="1.0" encoding="iso-8859-1"?>
<!-- Generator: Adobe Illustrator 25.2.0, SVG Export Plug-In . SVG Version: 6.00 Build 0)  -->
<svg version="1.1" xmlns="http://www.w3.org/2000/svg" xmlns:xlink="http://www.w3.org/1999/xlink" x="0px" y="0px"
	 viewBox="0 0 1000 1000" style="enable-background:new 0 0 1000 1000;" xml:space="preserve">
<g id="latinSmallLetterR">
	<path d="M486.047,509.205c0,44.117-0.346,88.238,0.163,132.349c0.216,18.709,2.672,36.452,27.777,38.872
		c3.892,0.375,10.067,10.49,9.377,15.26c-0.647,4.474-9.351,11.549-13.897,11.111c-45.742-4.405-91.441-9.537-136.933-16.009
		c-8.22-1.169-15.442-9.351-23.124-14.295c7.295-4.817,15.051-9.08,21.718-14.649c4.236-3.54,9.716-8.984,9.771-13.633
		c1.084-90.601,1.7-181.211,1.809-271.82c0.032-26.647,5.07-44.819,38.802-39.652c12.15,1.862,25.717-4.945,38.543-8.172
		c51.914-13.066,102.296-8.589,150.526,14.435c23.683,11.306,41.615,53.596,35.882,84.254
		c-5.785,30.939-21.747,51.237-56.443,54.944c-28.153,3.008-56.631,7.035-74.657-18.908c-19.821-28.527-18.799-60.237-1.585-91.005
		c3.052-5.454,4.378-11.874,6.501-17.848c-7.34-1.349-16.303-5.881-21.581-3.189c-5.738,2.926-11.204,12.502-11.346,19.292
		c-0.972,46.202-0.509,92.433-0.509,138.656C486.576,509.201,486.311,509.203,486.047,509.205z M416.797,403.626
		c1.228,1.211,2.456,2.422,3.684,3.633c2.932-1.275,5.754-3.055,8.819-3.722c6.939-1.509,13.998-2.469,21.008-3.652
		c-1.881,7.769-2.416,16.23-5.973,23.135c-4.748,9.216-12.341,16.924-17.706,25.882c-2.474,4.131-2.56,9.693-3.729,14.605
		c4.849-2.004,10.276-3.193,14.45-6.149c21.826-15.458,36.517-65.031,26.682-91.41c-0.932-2.501-10.498-5.049-11.812-3.634
		C439.886,375.596,428.475,389.735,416.797,403.626z M563.342,409.527c-1.218-1.139-2.436-2.277-3.654-3.415
		c-6.002,5.548-12.921,10.405-17.754,16.831c-5.092,6.768-13.269,17.672-10.999,22.044c3.623,6.977,14.425,10.861,22.873,14.451
		c4.806,2.042,11.26,2.146,16.444,0.91c8.212-1.957,16.147-5.438,23.746-9.191c1.028-0.508-0.567-6.326-0.948-9.686
		c-7.629,1.009-15.231,2.436-22.893,2.917c-8.62,0.542-17.294,0.232-25.945,0.293c3.356-6.446,6.628-12.938,10.092-19.325
		C557.2,420.016,560.321,414.799,563.342,409.527z M569.792,426.473c2.417,2.675,4.835,5.351,7.252,8.026
		c13.651-12.616,27.497-25.038,40.617-38.184c1.16-1.162-1.454-8.343-4.109-10.318c-1.979-1.472-8.221-0.311-10.215,1.847
		C591.77,400.365,580.899,413.528,569.792,426.473z M430.335,534.424c-9.093,10.993-17.75,18.549-22.469,28.059
		c-3.984,8.03-3.472,18.318-4.566,27.652c-0.042,0.355,5.506,2.13,5.795,1.648c9.167-15.255,18.108-30.651,26.678-46.249
		C436.393,544.405,433.943,541.59,430.335,534.424z M441.487,521.676c9.226-14.263,16.776-25.432,23.476-37.089
		c0.651-1.132-3.945-5.28-6.105-8.028c-8.719,11.37-17.527,22.677-25.894,34.301C432.55,511.435,435.978,514.776,441.487,521.676z
		 M435.321,574.953c3.167,2.04,6.334,4.08,9.501,6.12c6.732-11.791,13.463-23.582,20.195-35.372
		c-2.199-1.246-4.398-2.491-6.598-3.737C450.72,552.96,443.021,563.956,435.321,574.953z M423.774,480.229
		c-7.572,11.554-14.279,21.753-20.708,32.124c-0.06,0.096,3.6,2.498,5.523,3.823c6.321-10.166,12.652-20.325,18.894-30.539
		C427.628,485.399,426.766,484.546,423.774,480.229z M467.464,647.963c-2.104-1.089-4.207-2.178-6.31-3.266
		c-3.853,9.715-7.77,19.408-11.265,29.25c-0.11,0.311,4.129,2.165,6.34,3.3C459.974,667.486,463.719,657.724,467.464,647.963z
		 M559.401,385.948c2.326,2.237,4.652,4.475,6.978,6.712c5.802-7.509,11.632-14.999,17.228-22.658
		c0.12-0.164-3.485-3.444-3.607-3.334C573.016,372.964,566.218,379.466,559.401,385.948z M437.982,653.712
		c-2.328-2.224-4.657-4.448-6.985-6.672c-5.17,6.056-10.395,12.068-15.272,18.351c-0.165,0.213,4.527,4.707,4.674,4.579
		C426.425,664.739,432.187,659.206,437.982,653.712z"/>
</g>
<g id="Layer_1">
</g>
</svg>
