<?xml version="1.0" encoding="iso-8859-1"?>
<!-- Generator: Adobe Illustrator 25.2.0, SVG Export Plug-In . SVG Version: 6.00 Build 0)  -->
<svg version="1.1" xmlns="http://www.w3.org/2000/svg" xmlns:xlink="http://www.w3.org/1999/xlink" x="0px" y="0px"
	 viewBox="0 0 1000 1000" style="enable-background:new 0 0 1000 1000;" xml:space="preserve">
<g id="latinSmallLetterC">
	<path d="M657.519,626.425c2.149,22.283,5.163,44.538,5.892,66.868c0.206,6.29-6.289,12.799-9.712,19.207
		c-5.191-3.868-12.432-6.627-15.226-11.792c-13.235-24.468-43.357-30.621-68.247-22.167c-32.648,11.09-68.046,13.796-101.828,21.906
		c-41.536,9.971-76.743-6.948-97.586-37.018c-20.385-29.41-35.004-67.761-37.611-103.256c-3.029-41.244,4.346-85.34,16.785-125.21
		c28.507-91.378,176.369-138.618,247.404-75.834c23.889,21.114,28.167,3.381,37.734-12.323c4.296-7.052,13.207-11.292,20.023-16.808
		c2.816,7.526,7.612,14.924,8.109,22.6c2.216,34.213,3.427,68.5,4.219,102.779c0.066,2.83-7.668,8.788-8.488,8.252
		c-13.511-8.821-34.157-15.961-38.186-28.359c-13.114-40.351-66.975-83.989-103.166-77.15c-40.319,7.62-95.254,63.74-97.508,107.445
		c-2.145,41.595,1.943,83.811,7.06,125.289c1.432,11.61,16.142,21.615,24.884,32.255c1.288,1.568,3.558,2.321,4.882,3.871
		c10.174,11.909,18.868,32.491,30.563,34.344c40.016,6.341,78.213-3.933,105.634-36.345c13.446-15.893,21.668-36.106,33.931-53.158
		c3.916-5.444,13.533-10.017,19.964-9.357c4.771,0.489,11.64,9.748,12.282,15.674c1.717,15.861,0.585,32.03,0.585,48.077
		C659.115,626.286,658.317,626.355,657.519,626.425z M642.487,638.034c-4.251-10.407-7.169-17.553-10.088-24.699
		c-6.555,9.934-14.152,19.428-18.709,30.207c-0.826,1.955,10.805,9.176,16.685,13.966
		C634.494,650.883,638.614,644.26,642.487,638.034z M391.586,542.134c-10.933,4.012-18.529,4.528-21.95,8.574
		c-5.459,6.454-8.654,15.067-11.646,23.194c-0.78,2.119,2.735,5.819,4.277,8.792c5.445-5.267,11.635-9.975,16.125-15.959
		C382.845,560.798,385.585,553.577,391.586,542.134z M403.663,593.949c-5.204-6.723-8.33-10.762-11.456-14.801
		c-4.815,5.942-9.953,11.677-14.07,18.069c-0.564,0.877,4.973,7.623,5.958,7.238C390.113,602.101,395.633,598.473,403.663,593.949z
		 M377.753,533.666c6.005-10.131,10.439-16.368,13.265-23.263c0.693-1.689-3.869-5.532-6.015-8.385
		c-4.206,6.673-8.762,13.167-12.339,20.161C371.896,523.681,374.674,526.995,377.753,533.666z"/>
</g>
<g id="Layer_1">
</g>
</svg>
