<?xml version="1.0" encoding="iso-8859-1"?>
<!-- Generator: Adobe Illustrator 25.2.0, SVG Export Plug-In . SVG Version: 6.00 Build 0)  -->
<svg version="1.1" xmlns="http://www.w3.org/2000/svg" xmlns:xlink="http://www.w3.org/1999/xlink" x="0px" y="0px"
	 viewBox="0 0 1000 1000" style="enable-background:new 0 0 1000 1000;" xml:space="preserve">
<g id="latinSmallLetterP">
	<path d="M689.72,393.733c29.095,60.585,37.937,123.764,24.588,191.587C692.331,696.968,581.85,739.033,486.945,698.251
		c-20.11-8.641-23.025-3.67-22.314,14.501c1.953,49.881,3.455,99.78,5.254,149.667c0.545,15.1-14.505,35.082,12.803,42.807
		c0.462,0.131-0.984,18.941-4.951,20.533c-11.382,4.566-24.609,6.818-36.951,6.286c-38.808-1.674-77.569-4.721-116.291-7.915
		c-15.037-1.24-29.924-4.296-44.879-6.525c3.662-16.649,4.447-34.757,11.91-49.479c5.832-11.506,20.799-18.034,30.129-28.219
		c7.831-8.549,18.778-19.006,19.108-28.925c3.109-93.653,6.336-187.399,5.134-281.062c-0.703-54.817-11.381-109.485-12.676-164.336
		c-0.239-10.142-11.691-42.781,23.616-39.154c17.277,1.775,34.825,1.099,52.252,1.193c28.232,0.152,56.466,0.062,84.699-0.012
		c8.962-0.024,18.092,0.712,26.852-0.709c18.641-3.024,37.091-7.233,55.619-10.957C632.329,316.79,667.573,347.616,689.72,393.733z
		 M468.889,473.337c4.4,25.197-5.346,53.763,20.311,73.092c0.079,0.059-4.194,8.093-5.808,7.87
		c-22.763-3.146-19.209,12.375-18.756,25.69c0.673,19.76-3.91,41.981,3.712,58.575c7.532,16.397,25.997,29.656,42.614,39.108
		c7.056,4.014,21.615-5.229,32.788-8.361c5.058-1.417,10.136-3.57,15.27-3.775c39.474-1.578,67.669-32.126,69.158-71.809
		c0.817-21.787,9.649-43.496,9.014-65.067c-1.113-37.766-4.423-75.816-11.122-112.97c-6.634-36.792-33.816-52.042-81.783-52.113
		C496.927,363.505,459.522,419.695,468.889,473.337z M399.158,411.92c-6.88-10.224-8.045-24.294-11.779-36.635
		c13.166,2.441,26.469,4.346,39.418,7.638c4.055,1.032,7.16,5.801,10.901,9.032c10.322-30.861,5.833-37.623-25.172-32.824
		c-22.231,3.441-57.968-6.865-49.928,36.847c1.953,10.616,10.066,21.858,18.509,29.151c16.893,14.591,35.971,26.651,54.147,39.756
		c1.474-1.705,2.947-3.41,4.421-5.115C425.978,443.95,410.756,429.154,399.158,411.92z M431.194,810.47
		c0.894,1.364,7.411-0.956,11.31-1.56c-5.313-19.237-6.96-40.742-17.035-57.034c-8.956-14.482-27.259-23.184-41.436-34.437
		c-2.702,2.064-5.405,4.129-8.107,6.193C394.22,752.661,412.39,781.773,431.194,810.47z M437.705,506.089
		c-0.62-3.521-0.884-8.069-3.2-10.177c-19.225-17.497-38.736-34.692-58.535-51.535c-2.71-2.305-7.49-2.177-11.312-3.175
		c-0.554,4.585-3.297,11.611-1.325,13.38c21.458,19.244,43.653,37.665,64.361,55.219
		C433.852,507.552,437.772,506.469,437.705,506.089z M428.309,548.76c2.926,4.004,7.813,6.574,11.798,9.804
		c1.296-5.815,5.703-14.061,3.374-17.042c-13.063-16.714-27.753-32.157-41.887-48.034c-2.556,2.049-5.112,4.099-7.669,6.148
		C405.333,516.049,416.518,532.626,428.309,548.76z M682.215,559.289c1.355,0.636,9.151-8.212,8.761-8.725
		c-6.342-8.361-13.524-16.084-20.516-23.951c-3.712,4.003-7.423,8.005-15.039,16.218
		C666.494,549.922,673.973,555.418,682.215,559.289z M420.448,654.271c4.253,5.812,11.164,9.68,16.879,14.421
		c-1.22-7.752-0.483-16.61-4.099-23.008c-6.109-10.807-14.973-20.056-22.679-29.96c-3.001,2.38-6.002,4.76-9.003,7.14
		C407.758,633.398,413.262,644.45,420.448,654.271z M422.073,904.107c2.315-3.014,4.629-6.027,6.944-9.04
		c-12.345-10.176-24.689-20.352-37.034-30.528c-2.696,3.505-5.391,7.01-8.087,10.515
		C396.622,884.739,409.348,894.423,422.073,904.107z M681.228,522.136c0.502,0.805,5.693-1.31,8.702-2.066
		c-5.968-13.69-11.935-27.381-17.903-41.071c-4.129,2.019-8.258,4.038-12.387,6.057
		C666.727,497.485,673.669,510.003,681.228,522.136z M632.701,664.646c10.794-11.593,21.572-23.206,31.899-35.206
		c0.257-0.298-4.567-4.969-7.022-7.6c-10.448,12.773-20.896,25.547-33.123,40.496C631.38,664.308,632.478,664.884,632.701,664.646z
		 M392.207,847.115c3.054-2.117,6.109-4.234,9.163-6.351c-10.408-14.7-20.815-29.401-31.223-44.101
		c-3.553,2.016-7.106,4.032-10.659,6.049C370.395,817.513,381.301,832.314,392.207,847.115z M672.224,607.48
		c2.568,0.046,8.207-7.95,7.365-10.725c-2.806-9.255-7.913-17.813-12.138-26.638c-3.23,6.072-6.461,12.144-9.691,18.215
		c-3.506,4.825-7.012,9.649-10.518,14.474C655.566,604.565,663.871,607.33,672.224,607.48z M321.307,893.201
		c6.226-5.076,11.177-11.841,15.763-18.543c0.334-0.488-8.263-8.729-9.129-8.137c-7.215,4.938-13.59,11.103-25.032,21.106
		C313.376,890.981,319.469,894.7,321.307,893.201z M411.355,681.644c-2.475,2.036-4.949,4.071-7.424,6.107
		c11.006,13.114,22.013,26.228,33.02,39.341c2.496-2.335,4.993-4.669,7.489-7.004C433.411,707.273,422.383,694.459,411.355,681.644z
		 M368.233,551.793c-1.052,2.599-3.764,6.364-2.889,7.608c6.302,8.97,13.332,17.43,20.13,26.051c3.27-2.9,6.54-5.8,9.811-8.7
		C386.267,568.432,377.25,560.112,368.233,551.793z M438.351,862.888c1.175-2.486,4.03-6.157,3.25-7.263
		c-5.071-7.183-10.932-13.807-16.535-20.615c-4.701,4.409-9.403,8.818-14.104,13.227
		C420.092,853.121,429.222,858.004,438.351,862.888z M371.528,620.748c-1.186,2.641-4.02,5.93-3.28,7.813
		c3.718,9.454,8.371,18.54,12.695,27.755c4.64-4.754,9.28-9.509,13.92-14.263C387.084,634.952,379.306,627.85,371.528,620.748z"/>
</g>
<g id="Layer_1">
</g>
</svg>
