<?xml version="1.0" encoding="iso-8859-1"?>
<!-- Generator: Adobe Illustrator 25.2.0, SVG Export Plug-In . SVG Version: 6.00 Build 0)  -->
<svg version="1.1" xmlns="http://www.w3.org/2000/svg" xmlns:xlink="http://www.w3.org/1999/xlink" x="0px" y="0px"
	 viewBox="0 0 1000 1000" style="enable-background:new 0 0 1000 1000;" xml:space="preserve">
<g id="latinSmallLetterZ">
	<path d="M489.51,366.101c-54.652-6.922-82.367,31.528-114.366,62.36c-4.517,4.352-9.588,8.13-14.403,12.174
		c-3.228-5.443-8.585-10.613-9.321-16.374c-3.558-27.848-6.601-55.826-7.676-83.841c-0.13-3.382,12.791-10.455,19.634-10.418
		c68.757,0.371,137.507,1.966,206.263,3.005c25.201,0.381,50.606-1.686,75.551,0.899c18.446,1.911,9.527,14,3.829,22.792
		c-49.738,76.745-99.807,153.279-149.162,230.269c-16.274,25.386-30.927,51.825-45.75,78.105
		c-1.351,2.395,1.408,10.321,2.374,10.342c25.38,0.553,53.699,7.489,75.413-1.464c25.881-10.671,45.883-35.348,68.875-53.395
		c9.903-7.773,20.916-14.131,31.425-21.132c4.686,10.646,10.423,20.976,13.748,32.032c2.999,9.971,5.238,20.874,4.485,31.122
		c-1.512,20.567-9.117,36.281-34.407,36.252c-70.782-0.081-141.566,0.744-212.349,1.171c-3.29,0.02-6.609-0.141-9.869-0.564
		c-49.147-6.379-54.585-20.222-28.517-61.673c34.592-55.003,66.479-111.701,100.497-167.075
		c17.058-27.768,36.504-54.059,54.309-81.384c4.072-6.249,5.83-14.005,8.653-21.068c-7.083-0.711-14.151-1.679-21.251-2.059
		C500.921,365.824,494.313,366.101,489.51,366.101z M473.89,577.42c-6.126-12.745-11.873-24.702-17.62-36.659
		c-6.256,9.114-18.703,19.371-17.282,27.067c2.011,10.888,14.26,19.884,22.134,29.689
		C464.829,591.683,468.535,585.849,473.89,577.42z M574.824,676.896c21.175-3.645,35.926-3.754,48.018-9.479
		c4.742-2.245,3.722-17.055,4.49-26.213c0.041-0.489-9.514-3.798-11.531-2.115C603.544,649.319,592.177,660.617,574.824,676.896z
		 M386.937,357.231c-5.279,6.767-11.733,11.723-13.15,17.845c-1.277,5.518,2.963,12.312,4.77,18.544
		c11.099-7.633,22.198-15.265,33.297-22.898C405.232,367.136,398.61,363.551,386.937,357.231z M428.84,637.852
		c3.998-1.873,7.995-3.746,11.992-5.619c-5.514-13.188-11.028-26.377-16.541-39.565c-4.515,3.995-13.558,9.752-12.801,11.696
		C416.022,616.014,422.809,626.786,428.84,637.852z M408.811,656.203c-5.72-10.005-9.822-17.179-13.924-24.354
		c-4.149,6.765-10.859,13.278-11.562,20.384c-0.483,4.888,7.366,10.601,11.491,15.945
		C398.771,664.793,402.726,661.409,408.811,656.203z M577.19,380.957c-3.365-7.143-5.833-12.38-8.3-17.617
		c-4.311,5.043-11.476,9.763-12.094,15.225c-0.569,5.025,5.904,10.848,9.274,16.32C569.542,390.535,573.014,386.187,577.19,380.957z
		 M554.615,412.407c-1.383,13.694-2.871,19.449-2.257,24.971c0.568,5.104,3.388,9.956,5.216,14.919
		c3.484-5.568,9.318-10.964,9.741-16.756C567.682,430.515,561.923,425.041,554.615,412.407z M540.652,431.31
		c-2.432-6.223-4.562-11.673-6.692-17.123c-3.124,5.626-8.512,11.169-8.724,16.903c-0.205,5.54,4.926,11.276,7.712,16.927
		C535.407,442.686,537.865,437.355,540.652,431.31z M543.724,481.361c-8.137-4.435-13.362-7.538-18.896-9.921
		c-0.581-0.25-4.751,4.533-4.256,5.643c2.465,5.529,5.934,10.61,9.049,15.849C533.324,489.894,537.026,486.857,543.724,481.361z
		 M508.095,480.089c-3.834-5.202-6.969-9.455-10.104-13.709c-2.548,3.089-7.851,7.367-7.127,9.045
		c2.141,4.964,6.662,8.902,10.252,13.241C503.099,486.228,505.082,483.791,508.095,480.089z"/>
</g>
<g id="Layer_1">
</g>
</svg>
