<?xml version="1.0" encoding="iso-8859-1"?>
<!-- Generator: Adobe Illustrator 25.2.0, SVG Export Plug-In . SVG Version: 6.00 Build 0)  -->
<svg version="1.1" xmlns="http://www.w3.org/2000/svg" xmlns:xlink="http://www.w3.org/1999/xlink" x="0px" y="0px"
	 viewBox="0 0 1000 1000" style="enable-background:new 0 0 1000 1000;" xml:space="preserve">
<g id="latinSmallLetterE">
	<path d="M410.818,558.719c15.705,30.903,28.095,64.287,48.555,91.631c9.787,13.08,37.529,24.017,52.527,19.743
		c41.395-11.796,85.799-23.333,107.758-68.524c4.135-8.51,14.472-14.007,21.948-20.895c1.537,10.601,3.885,21.159,4.436,31.811
		c1.024,19.799,1.327,39.653,1.262,59.481c-0.028,8.395-1.747,16.784-2.698,25.176c-7.97-1.665-17.446-1.138-23.636-5.393
		c-21.148-14.536-37.889-17.6-63.367-2.286c-46.442,27.916-98.996,17.862-144.694-2.506c-22.528-10.041-37.21-39.671-53.164-62.061
		c-32.414-45.494-29.577-159.81,4.924-205.747c33.208-44.217,73.911-80.913,130.514-88.062
		c69.147-8.733,160.735,35.356,167.442,121.231c1.735,22.212-2.406,27.315-27.114,27.027c-58.377-0.68-117.232,2.008-175.1,9.481
		c-34.666,4.477-40.835,20.971-40.428,65.291C416.927,555.652,413.872,557.186,410.818,558.719z M577.4,387.938
		c-3.332-2.798-11.668-14.816-22.639-18.14c-45.844-13.89-97.295,13.051-117.211,57.891c-7.093,15.97-3.124,22.711,13.874,21.908
		c27.472-1.297,55.189-6.037,82.325-3.721C570.479,449.01,579.439,430.633,577.4,387.938z M410.505,645.712
		c1.777-0.389,3.555-0.779,5.333-1.168c-2.615-6.429-5.67-12.72-7.747-19.319c-3.525-11.202-5.849-22.823-10.035-33.748
		c-0.978-2.552-7.393-3.021-11.307-4.448c5.612,16.706,11.034,33.481,17,50.06C404.923,640.352,408.199,642.857,410.505,645.712z
		 M604.444,392.024c0,16.048-1.81,22.761,0.395,27.668c3.975,8.841,10.009,16.875,16.081,24.534
		c0.973,1.227,6.612-1.245,10.093-2.008c-2.723-8.38-4.678-17.122-8.412-25.024C619.647,410.944,614.507,405.726,604.444,392.024z
		 M400.933,531.898c-5.715-9.695-8.785-14.901-11.853-20.106c-7.192,10.773-14.608,21.413-21.217,32.532
		c-0.636,1.07,5.388,7.558,5.562,7.441C382.349,545.744,390.975,539.279,400.933,531.898z"/>
</g>
<g id="Layer_1">
</g>
</svg>
