<?xml version="1.0" encoding="iso-8859-1"?>
<!-- Generator: Adobe Illustrator 25.2.0, SVG Export Plug-In . SVG Version: 6.00 Build 0)  -->
<svg version="1.1" xmlns="http://www.w3.org/2000/svg" xmlns:xlink="http://www.w3.org/1999/xlink" x="0px" y="0px"
	 viewBox="0 0 1000 1000" style="enable-background:new 0 0 1000 1000;" xml:space="preserve">
<g id="latinCapitalLetterV">
	<path d="M678.638,129.955c-9.528-10.405-21.869-21.456-31.137-34.664c-9.895-14.102-16.889-30.239-25.149-45.488
		c18.513-2.134,37.007-5.87,55.544-6.101c54.884-0.685,109.787-0.133,164.679,0.372c6.358,0.058,14.181,1.174,18.509,4.991
		c2.873,2.533,1.648,10.919,0.671,16.402c-4.166,23.375-37.087,41.38-13.031,70.167c0.34,0.407-0.938,3.056-2.009,3.625
		c-51.448,27.31-58.415,83.342-79.606,128.675c-46.506,99.492-87.541,201.541-130.805,302.548
		c-15.753,36.778-27.658,76.057-49.161,109.089c-8.359,12.84-38.114,13.522-58.586,16.184c-18.889,2.456-39.808-4.497-57.362,0.833
		c-47.27,14.352-43.636-19.499-51.768-47.135c-30.774-104.587-63.347-208.645-95.202-312.915
		c-3.126-10.232-6.635-20.424-8.662-30.887c-1.394-7.196-0.531-14.83-0.676-22.268c6.229,6.236,15.622,11.393,18.178,18.883
		c17.718,51.932,33.768,104.43,50.834,156.59c17.79,54.374,35.801,108.683,54.618,162.705c2.361,6.777,10.224,11.638,15.538,17.387
		c2.344-6.371,4.029-13.091,7.181-19.033c5.148-9.705,12.562-18.36,16.732-28.407c20.67-49.802,40.13-100.109,61.039-149.807
		c6.836-16.249,17.736-30.752,25.102-46.822c35.955-78.438,71.448-157.089,106.762-235.818
		C674.249,151.527,675.259,142.932,678.638,129.955z M597.04,581.773c7.239-9.235,12.005-13.594,14.64-18.994
		c8.61-17.647,16.648-35.585,24.406-53.627c1.604-3.731,3.065-9.979,1.176-12.365c-13.711-17.322-27.73-34.495-43-50.422
		c-3.853-4.019-12.554-3.951-19.107-4.31c-1.204-0.066-4.954,7.758-3.853,10.421c7.678,18.575,16.697,36.593,24.483,55.127
		c3.271,7.786,4.59,16.393,6.796,24.626c-7.456-2.374-14.769-5.715-22.41-6.848c-7.626-1.131-15.58-0.052-23.39,0.058
		C569.288,542.938,581.793,560.436,597.04,581.773z M731.201,71.972c-5.167,15.853-16.486,32.819-12.013,40.147
		c14.05,23.018,33.709,42.714,52.194,62.778c2.057,2.232,13.281,0.521,15.554-2.689c13.391-18.914,21.128-36.954-7.545-51.555
		c-15.112-7.696-39.698-10.398-33.259-38.41C746.403,81.057,740.934,78.553,731.201,71.972z M693.821,160.461
		c12.994,18.771,26.344,40.106,42.031,59.557c5.181,6.424,16.389,7.988,24.841,11.774c1.118-12.52,7.227-27.68,2.296-36.999
		c-9.712-18.357-25.005-33.966-39.158-49.658c-4.783-5.303-13.094-7.423-19.793-10.997
		C701.485,140.717,698.931,147.297,693.821,160.461z M567.479,652.932c6.077-10.376,10.255-16.769,13.704-23.534
		c11.053-21.686-5.016-58.338-28.925-62.841c-7.898-1.488-18.402,2.314-25.121,7.237c-2.765,2.026-0.685,14.548,2.644,20.295
		C540.826,613.154,553.442,631.31,567.479,652.932z M605.106,414.898c16.378-7.953,27.873-13.536,39.368-19.118
		c-12.32-13.887-24.64-27.774-36.961-41.661c-6.329,12.246-15.075,23.965-17.906,36.972
		C588.312,397.048,598.651,405.538,605.106,414.898z M663.073,212.33c-8.72,22.146-17.232,41.598-23.739,61.699
		c-1.79,5.53,1.136,17.929,4.086,18.69c10.564,2.723,22.067,1.805,33.215,2.265c-2.956-7.402-6.677-14.607-8.652-22.262
		c-1.938-7.511-4.593-21.556-2.675-22.342C697.559,237.165,674.537,226.722,663.073,212.33z M632.539,412.577
		c-11.553,5.68-17.982,8.84-24.411,12.001c14.244,15.535,28.488,31.069,42.732,46.604c5.525-11.054,18.347-25.974,14.985-32.319
		C659.745,427.35,644.012,420.941,632.539,412.577z M648.143,311.545c7.549,11.422,11.668,19.674,17.641,26.238
		c9.942,10.925,21.073,20.767,31.704,31.066c2.142-4.579,7.376-11.342,5.931-13.388c-10.409-14.741-21.571-29.093-33.944-42.2
		C666.515,310.123,658.094,312.14,648.143,311.545z M752.984,263.549c-17.588-19.661-31.446-35.534-45.845-50.901
		c-2.605-2.781-7.423-3.488-11.219-5.153c-0.596,4.294-3.291,10.137-1.449,12.633c12.422,16.839,25.393,33.342,39.415,48.842
		C735.581,270.844,744.635,266.061,752.984,263.549z M640.091,340.814c-2.258,1.66-4.516,3.319-6.774,4.978
		c13.122,19.008,26.076,38.137,39.579,56.871c1.673,2.321,6.267,2.538,9.508,3.73c0.902-4.099,4.007-9.939,2.36-12.023
		C670.354,376.137,655.097,358.575,640.091,340.814z M679.083,64.888c-9.089,4.515-13.683,6.798-18.278,9.08
		c8.214,9.37,16.427,18.741,24.641,28.111c4.599-5.772,14.226-14.002,12.836-16.845C694.423,77.34,685.98,71.687,679.083,64.888z
		 M553.2,668.254c1.434-2.999,2.868-5.998,4.302-8.997c-17.659-10.123-35.318-20.245-52.977-30.368
		c-2.226,4.49-4.452,8.979-6.677,13.469C516.298,650.99,534.749,659.622,553.2,668.254z M553.899,508.341
		c5.585-7.911,10.76-12.349,9.94-14.669c-1.8-5.092-6.634-9.112-10.229-13.57c-3.053,3.504-8.388,6.898-8.564,10.541
		C544.839,494.907,549.127,499.389,553.899,508.341z M476.742,671.24c6.398-4.434,10.845-7.516,15.292-10.597
		c-3.814-4.213-7.627-8.425-11.441-12.638c-3.431,4.159-7.707,7.934-9.864,12.673C469.902,662.494,473.911,666.513,476.742,671.24z"
		/>
	<path d="M180.268,51.395c42.637,0,85.276-0.169,127.91,0.165c7.163,0.056,14.308,2.291,21.462,3.52
		c-1.706,8.771-0.289,21.638-5.597,25.685c-57.837,44.098-38.783,96.314-18.768,149.862c4.562,12.206,3.099,26.664,4.41,40.085
		c-5.698-11.467-12.889-22.445-16.831-34.486c-15.368-46.939-29.063-94.436-45.091-141.138
		c-2.525-7.357-13.196-15.192-21.272-16.754c-23.88-4.618-48.405-5.795-72.541-9.271c-5.877-0.846-11.227-5.346-16.82-8.166
		c5.971-3.205,11.634-7.962,17.991-9.226c8.088-1.609,16.738-0.39,25.147-0.39C180.267,51.318,180.268,51.357,180.268,51.395z
		 M278.863,72.667c-7.505,7.056-16.916,11.938-17.227,17.343c-0.294,5.117,8.96,10.783,14.014,16.207
		c6.116-6.644,12.232-13.288,18.348-19.932C290.001,82.688,286.004,79.091,278.863,72.667z"/>
</g>
<g id="Layer_1">
</g>
</svg>
