<?xml version="1.0" encoding="iso-8859-1"?>
<!-- Generator: Adobe Illustrator 25.2.0, SVG Export Plug-In . SVG Version: 6.00 Build 0)  -->
<svg version="1.1" xmlns="http://www.w3.org/2000/svg" xmlns:xlink="http://www.w3.org/1999/xlink" x="0px" y="0px"
	 viewBox="0 0 1000 1000" style="enable-background:new 0 0 1000 1000;" xml:space="preserve">
<g id="latinSmallLetterA">
	<path d="M586.728,404.785c0.709-22.208,9.654-44.376-24.849-43.238c-4.536,0.15-11.792-7.471-13.16-12.703
		c-0.887-3.391,5.817-11.44,10.58-13.033c7.864-2.629,16.983-2.748,25.444-2.139c42.298,3.04,84.51,7.48,126.841,9.791
		c28.175,1.539,26.171,23.358,15.519,32.842c-57.763,51.427-38.272,118.026-39.916,180.574c-0.357,13.593,1.843,27.296,0.949,40.822
		c-1.912,28.937,0.188,54.726,26.363,74.98c8.39,6.492,8.31,23.929,12.105,36.358c-9.737,1.896-19.449,5.264-29.216,5.433
		c-42.616,0.737-85.248,0.69-127.872,0.484c-4.764-0.023-12.474-1.56-13.822-4.605c-16.535-37.373-42.241-8.748-63.887-9.867
		c-41.698-2.156-87.156,3.532-124.032-11.39c-51.602-20.881-82.761-65.405-97.503-123.82
		c-20.786-82.363,31.445-167.096,95.195-206.894c41.957-26.193,88.536-36.388,134.78-17.163
		c25.49,10.597,46.024,33.113,68.792,50.255C574.021,395.222,579.003,398.97,586.728,404.785z M585.493,535.599
		c0.19-0.002,0.379-0.004,0.569-0.005c0-21.434,0.258-42.872-0.105-64.299c-0.191-11.277,2.976-26.897-3.042-33.024
		c-22.244-22.647-46.738-43.408-72.127-62.572c-46.95-35.439-119.66-15.293-140.958,39.656
		c-31.289,80.727-11.267,155.33,36.698,222.295c28.099,39.231,77.052,46.934,123.821,28.25
		c51.873-20.723,55.81-27.305,55.162-91.679C585.383,561.348,585.493,548.473,585.493,535.599z M606.367,387.671
		c-4.269,3.967-8.538,7.935-12.807,11.902c6.954,0.749,14.905,4.037,20.678,1.773c17.961-7.042,35.098-16.189,52.554-24.519
		c-8.904-3.518-17.885-10.082-26.692-9.855C626.259,367.33,602.066,355.167,606.367,387.671z M350.489,578.524
		c-6.415-8.351-9.51-12.381-12.605-16.411c-9.975,10.41-19.95,20.819-29.925,31.229c2.926,2.434,7.373,7.548,8.542,6.885
		C327.448,594.018,337.833,586.819,350.489,578.524z M638.873,541.482c-10.741,2.976-16.814,3.307-21.187,6.204
		c-5.798,3.841-12.116,8.898-14.69,14.933c-1.856,4.353,2.031,11.154,3.356,16.864c5.686-4.864,11.992-9.182,16.884-14.744
		C628.213,559.079,631.797,552.195,638.873,541.482z M622.75,575.279c2.737,3.397,5.474,6.794,8.211,10.192
		c11.537-7.499,23.846-14.105,34.147-23.03c3.166-2.742,0.838-11.825,1.025-18.005c-4.554,2.605-9.407,4.804-13.605,7.894
		C642.438,559.758,632.656,567.603,622.75,575.279z M610.6,695.617c8.9-15.552,16.294-28.472,25.444-44.461
		C608.455,656.886,594.823,666.581,610.6,695.617z M672.612,674.36c-6.448-7.488-9.945-11.549-13.442-15.61
		c-6.032,7.166-12.064,14.331-18.096,21.497c4.363,3.513,10.28,10.819,12.785,9.794C660.214,687.44,665.039,681.103,672.612,674.36z
		 M629.423,625.533c0.685,1.982,1.369,3.965,2.053,5.948c7.947-3.04,17.797-4.163,23.318-9.646
		c5.791-5.752,7.43-15.684,10.883-23.79c-6.88,3.536-14.388,6.243-20.463,10.842C639.198,613.442,634.627,619.906,629.423,625.533z
		 M633.296,464.785c2.221,2.848,4.441,5.695,6.662,8.543c9.086-7.568,18.266-15.033,27-22.988c0.475-0.433-2.79-4.972-4.314-7.599
		C652.861,450.09,643.078,457.437,633.296,464.785z M599.953,534.284c3.257,0.886,6.514,1.771,9.771,2.657
		c4.26-10.631,8.52-21.262,12.78-31.893c-3.205,0.416-8.349-0.252-9.29,1.43C608.212,515.422,604.265,524.955,599.953,534.284z
		 M305.543,534.202c2.192,2.644,4.383,5.289,6.575,7.933c7.949-6.548,16.121-12.863,23.568-19.94
		c0.935-0.889-1.952-5.801-3.068-8.849C323.593,520.298,314.568,527.25,305.543,534.202z M576.762,666.438
		c-6.713,5.795-11.201,9.67-15.689,13.545c5.277,3.049,10.323,6.864,16.004,8.581c1.329,0.402,6.585-6.203,6.784-9.766
		C584.052,675.385,580.018,671.737,576.762,666.438z M357.948,609.022c-5.512,6.295-9.504,10.854-13.497,15.414
		c3.152,1.953,7.388,6.255,9.245,5.399c4.775-2.202,8.831-6.415,12.254-10.58C366.436,618.664,361.792,613.857,357.948,609.022z
		 M654.561,516.461c5.224-7.319,9.475-12.987,13.12-19.02c0.245-0.407-5.764-5.421-6.025-5.183
		c-5.544,5.063-10.68,10.571-15.895,15.992C647.85,510.199,649.939,512.148,654.561,516.461z M316.268,434.845
		c1.952,2.766,3.905,5.533,5.857,8.299c6.845-7.485,13.691-14.97,20.536-22.456c-1.78-1.769-3.56-3.537-5.34-5.306
		C330.304,421.87,323.286,428.358,316.268,434.845z"/>
</g>
<g id="Layer_1">
</g>
</svg>
