<?xml version="1.0" encoding="iso-8859-1"?>
<!-- Generator: Adobe Illustrator 25.2.0, SVG Export Plug-In . SVG Version: 6.00 Build 0)  -->
<svg version="1.1" xmlns="http://www.w3.org/2000/svg" xmlns:xlink="http://www.w3.org/1999/xlink" x="0px" y="0px"
	 viewBox="0 0 1000 1000" style="enable-background:new 0 0 1000 1000;" xml:space="preserve">
<g id="latinSmallLetterG">
	<path d="M596.121,637c-39.54,23.099-66.45,43.449-96.676,55.434c-49.976,19.816-102.968,17.83-151.647-3.642
		c-50.72-22.373-70.685-70.171-70.318-121.698c0.484-68.068,17.179-133.723,66.31-184.904
		c56.948-59.324,112.58-66.539,184.217-27.857c10.912,5.892,21.586,12.532,33.1,16.9c8.186,3.106,17.599,2.977,26.465,4.292
		c-2.794-12.496-5.078-25.139-8.606-37.425c-1.668-5.808-5.716-10.932-8.685-16.367c5.569-2.728,10.967-7.358,16.734-7.875
		c37.551-3.365,75.198-7.569,112.774-7.219c8.023,0.074,22.855,17.832,22.736,27.293c-1.175,92.716-6.704,185.393-7.152,278.098
		c-0.284,58.898-2.75,116.323-25.773,171.634c-27.325,65.649-73.986,110.357-139.977,135.696
		c-20.946,8.043-41.56,16.964-62.593,24.763c-34.472,12.783-65.785,4.977-86.991-26.035c-18.218-26.642-24.465-58.261-3.428-85.912
		c15.486-20.355,34.341-43.405,56.796-52.133c50.816-19.753,87.169,7.864,94.308,63.632c0.828,6.466,5.332,12.463,8.132,18.677
		c3.631-5.757,9.61-11.163,10.534-17.327C576.446,777.904,585.72,710.663,596.121,637z M591.494,455.488
		c1.685-0.969,3.37-1.939,5.054-2.908c-7.308-13.161-11.419-31.065-22.543-38.563c-29.294-19.746-60.139-39.883-93.369-50.001
		c-17.627-5.367-51.13,3.103-60.73,16.939c-27.534,39.685-42.788,85.25-51.42,135.013c-8.844,50.987,24.856,85.14,34.12,128.207
		c7.164,33.307,44.926,41.018,80.405,28.631c64.611-22.558,118.441-63.143,108.832-151.858
		C589.504,499.368,591.494,477.32,591.494,455.488z M424.747,897.013c-1.935-1.911-3.871-3.822-5.806-5.733
		c9.99-13.223,20.378-26.179,29.628-39.901c1.796-2.664-0.53-11.961-1.486-12.044c-13.514-1.167-40.441,40.646-36.507,53.549
		c13.902,45.604,49.456,10.444,73.317,19.315c5.054,1.879,16.99-7.505,22.029-14.417c9.063-12.43,16.396-26.471,22.231-40.747
		c2.626-6.426-0.09-15.035-0.382-22.654c-5.344,2.813-11.702,4.598-15.814,8.659c-7.721,7.625-14.144,16.565-21.107,24.958
		c-1.572-1.189-3.143-2.379-4.715-3.568c1.498-4.796,2.995-9.592,6.652-21.302C466.496,863.95,445.621,880.481,424.747,897.013z
		 M611.78,370.527c1.993,8.794,3.987,17.587,5.98,26.381c7.05-5.83,14.273-11.468,21.093-17.556
		c4.887-4.362,8.499-10.657,14.002-13.702c7.835-4.337,16.881-6.487,25.409-9.571c0.017,8.732,0.142,17.466,0.007,26.196
		c-0.071,4.551-0.6,9.094-0.922,13.641c3.994-1.495,10.959-2.285,11.507-4.596c4.076-17.203,6.879-34.707,10.082-52.117
		c-10.117-1.285-20.265-3.78-30.341-3.516c-10.06,0.264-20.01,4.543-30.074,4.843C618.38,341.13,608.563,349.049,611.78,370.527z
		 M644.699,707.966c-1.397-1.41-2.794-2.82-4.192-4.23c8.699-10.501,17.722-20.758,25.932-31.628
		c3.157-4.18,4.462-9.757,6.61-14.698c-5.136,1.406-10.869,1.809-15.283,4.432c-8.7,5.171-15.884,14.318-25.087,16.948
		c-27.121,7.751-16.494,29.353-19.135,46.17c13.209-1.024,26.812-0.456,39.496-3.599c9.433-2.337,18.223-8.751,26.231-14.771
		c4.498-3.381,7.867-9.301,9.69-14.762c0.906-2.715-3.551-10.201-4.333-10.024c-6.038,1.37-12.487,3.084-17.434,6.615
		C659.147,694.166,652.143,701.374,644.699,707.966z M673.787,726.948c-23.516,27.134-47.219,54.11-70.275,81.629
		c-2.473,2.952-1.176,9.061-1.628,13.706c4.764-0.531,10.028,0.074,14.214-1.769C654.333,803.681,678.447,776.352,673.787,726.948z
		 M702.612,496.823c-4.313-14.279-5.714-18.921-7.116-23.563c-4.246,2.003-9.617,2.977-12.545,6.184
		c-13.708,15.014-26.941,30.483-39.724,46.291c-1.345,1.663,1.386,6.621,2.226,10.051
		C665.037,522.436,684.62,509.087,702.612,496.823z M697.251,622.237c-4.362-12.577-4.739-18.561-7.269-19.681
		c-2.94-1.301-9.074,0.405-11.555,2.986c-12.492,12.992-24.495,26.491-35.87,40.463c-1.136,1.396,3.122,7.183,4.877,10.933
		C664.452,645.084,681.47,633.23,697.251,622.237z M696.379,557.264c-2.298-12.989-3.047-17.224-3.796-21.458
		c-4.378,1.764-10.001,2.373-12.907,5.503c-9.776,10.53-18.981,21.674-27.354,33.337c-1.315,1.833,2.823,7.58,4.439,11.517
		C670.916,575.837,685.071,565.512,696.379,557.264z M665.261,603.789c-1.511-1.192-3.023-2.384-4.534-3.575
		c-13.962,8.574-29.214,15.703-41.243,26.443c-4.706,4.201-2.441,16.504-2.489,25.121c-0.004,0.768,8.49,3.294,9.458,2.1
		C639.758,637.48,652.432,620.571,665.261,603.789z M381.48,664.739c-7.399-13.132-13.15-23.338-18.9-33.544
		c-8.086,5.392-16.172,10.783-24.258,16.175c9.774,7.469,19.263,15.381,29.569,22.025
		C369.903,670.693,375.089,667.067,381.48,664.739z M637.288,831.326c-2.813-3.084-5.626-6.167-8.439-9.251
		c-16.001,12.738-32.329,25.101-47.715,38.544c-2.907,2.54-2.067,9.369-2.956,14.22c3.148-0.033,7.404,1.257,9.27-0.306
		C604.299,860.415,620.732,845.797,637.288,831.326z M647.354,502.028c-1.159-2.566-2.318-5.133-3.477-7.699
		c-9.429,4.542-22.706,6.783-27.188,14.282c-4.345,7.268,0.349,19.939,1.072,30.236c7.476-8.759,15.047-17.44,22.38-26.318
		C642.835,509.268,644.966,505.542,647.354,502.028z M703.176,423.101c-3.73-2.71-7.46-5.42-11.19-8.13
		c-13.724,15.896-27.447,31.791-41.171,47.687c2.925,2.47,5.85,4.94,8.775,7.409C674.118,454.412,688.647,438.756,703.176,423.101z
		 M346.954,594.559c-2.624-2.058-5.249-4.115-7.873-6.173c-9.139,8.49-19.106,16.345-26.583,26.108
		c-1.21,1.58,8.638,11.63,13.374,17.764C332.899,619.691,339.927,607.125,346.954,594.559z M459.414,814.35
		c-2.649-3.345-5.297-6.689-7.946-10.034c-6.82,3.107-15.318,4.643-20.054,9.701c-6.564,7.01-10.3,16.667-15.247,25.19
		c7.546-4.289,15.107-8.551,22.633-12.875C445.692,822.373,452.544,818.347,459.414,814.35z M613.687,603.281
		c3.473,1.626,6.946,3.251,10.419,4.877c5.942-13.739,11.883-27.478,17.824-41.217c-3.166-0.68-8.713-2.645-9.143-1.849
		C626.032,577.611,619.935,590.487,613.687,603.281z M318.796,524.259c2.969,2.039,5.939,4.078,8.908,6.118
		c7.008-10.168,14.089-20.29,20.632-30.748c0.177-0.283-5.464-4.204-8.391-6.429C332.895,503.553,325.846,513.906,318.796,524.259z"
		/>
</g>
<g id="Layer_1">
</g>
</svg>
