<?xml version="1.0" encoding="iso-8859-1"?>
<!-- Generator: Adobe Illustrator 25.2.0, SVG Export Plug-In . SVG Version: 6.00 Build 0)  -->
<svg version="1.1" xmlns="http://www.w3.org/2000/svg" xmlns:xlink="http://www.w3.org/1999/xlink" x="0px" y="0px"
	 viewBox="0 0 1000 1000" style="enable-background:new 0 0 1000 1000;" xml:space="preserve">
<g id="latinSmallLetterY">
	<path d="M301.511,766.376c25.291,12.801,46.81,21.651,66.052,34.039c17.331,11.158,23.464,6.722,30.27-10.956
		c15.993-41.54,34.451-82.126,50.895-123.502c2.833-7.128,3.854-18.108,0.321-24.164c-54.588-93.59-110.291-186.53-164.851-280.136
		c-3.764-6.459-0.54-16.991-0.566-25.628c8.887,3.871,22.026,5.236,26.011,11.996c46.844,79.476,92.307,159.767,138.162,239.827
		c4.805,8.389,9.663,16.751,14.711,24.995c9.87,16.115,19.665,13.147,28.71-0.658c39.174-59.792,78.154-119.712,117.346-179.493
		c12.192-18.596,25.246-36.647,36.746-55.649c1.441-2.381-3.141-11.673-6.836-13.223c-7.972-3.344-17.908-2.162-25.696-5.75
		c-9.004-4.149-16.564-11.435-24.75-17.358c9.85-3.769,19.906-11.224,29.516-10.688c49.269,2.746,98.475,7.06,147.563,12.168
		c7.307,0.76,17.771,7.43,19.698,13.582c1.984,6.335-3.232,16.369-7.795,23.09c-52.246,76.961-109.953,150.771-155.696,231.384
		c-27.41,48.304-64.093,86.817-97.099,129.381c-42.411,54.693-86.158,108.446-126.31,164.758
		c-22.608,31.707-67.034,52.756-108.725,43.355c-41.781-9.422-60.459-32.756-65.121-79.07c-1.372-13.631-6.054-26.911-8.801-40.437
		c-0.661-3.255-0.94-8.909,0.777-9.98C243.438,801.163,271.186,784.634,301.511,766.376z M361.912,902.603
		c3.774-18.947,4.999-27.573,7.248-35.924c6.969-25.873-7.688-50.899-33.946-55.659c-2.438-0.442-9.717,8.121-8.901,10.129
		C336.343,845.852,347.464,870.112,361.912,902.603z M547.247,622.496c-4.84-14.948-8.244-25.459-11.647-35.969
		c-7.606,11.86-20.822,23.492-21.315,35.641c-0.545,13.429,10.563,27.331,16.596,41.027
		C536.578,649.026,542.276,634.858,547.247,622.496z M589.116,576.687c-0.885-14.983-0.542-20.302-1.636-25.306
		c-2.052-9.383-4.935-18.584-7.473-27.861c-6.521,10.592-13.415,20.983-19.301,31.918c-1.481,2.752-0.941,7.957,0.744,10.81
		c6.972,11.805,14.74,23.141,22.215,34.648C586.176,589.742,588.688,578.588,589.116,576.687z M704.257,413.607
		c-2.495-13.435-4.187-24.404-6.689-35.185c-1.144-4.928-3.886-9.485-5.903-14.211c-4.721,3.241-13.533,6.577-13.461,9.708
		c0.327,14.157,2.229,28.484,5.57,42.263c1.297,5.35,7.888,9.416,12.067,14.067C698.889,424.222,701.937,418.195,704.257,413.607z
		 M323.031,869.618c-9.192-23.609-16.782-43.105-24.373-62.601c-3.567,2.302-10.517,5.421-10.188,6.782
		c4.119,17.045,9.065,33.907,14.393,50.627c1.009,3.166,4.224,7.148,7.101,7.814C313.529,873.064,317.803,870.825,323.031,869.618z
		 M668.799,447.152c-5.199-11.193-10.457-22.513-15.715-33.833c-4.923,8.332-15.017,17.762-13.536,24.733
		c2.129,10.021,12.686,18.252,19.645,27.246C661.924,460.141,664.654,454.984,668.799,447.152z M629.453,498.11
		c-5.914-9.464-11.036-17.661-16.158-25.858c-4.691,6.973-14.143,14.893-12.986,20.701c1.851,9.291,10.74,17.181,16.654,25.663
		C620.55,512.725,624.137,506.836,629.453,498.11z M253.348,846.932c8.465,13.839,16.661,27.238,24.857,40.637
		c2.208-3.611,7.155-8.423,6.183-10.641c-6.568-14.983-14.389-29.416-21.805-44.028
		C260.108,836.662,257.633,840.423,253.348,846.932z M414.38,844.12c6.645-16.548,12.23-30.456,17.816-44.364
		c-2.947-1.113-8.413-3.337-8.482-3.181c-5.734,12.998-11.094,26.163-16.246,39.407C407.23,836.594,409.142,838.041,414.38,844.12z
		 M755.231,376.309c-14.865-6.185-22.226-10.244-30.104-12.075c-3.548-0.825-8.13,2.793-12.242,4.396
		c6.793,7.175,13.026,15.102,20.834,20.915C735.345,390.756,742.792,384.149,755.231,376.309z M481.49,745.658
		c-6.414-7.109-11.359-12.59-16.304-18.071c-2.276,4.879-6.85,10.03-6.313,14.578c0.901,7.633,5.054,14.883,7.839,22.294
		C470.947,759.07,475.182,753.683,481.49,745.658z M310.965,922.536c6.143-1.506,9.788-2.112,13.229-3.306
		c5.887-2.044,11.718-4.303,17.347-6.951c0.561-0.264-0.429-3.829-0.7-5.862c-5.182,2.341-10.176,5.53-15.609,6.732
		c-3.793,0.839-8.373-0.502-12.269-1.838c-5.325-1.827-10.335-4.574-15.48-6.927c-0.964,2.69-3.347,7.26-2.667,7.773
		C300.35,916.339,306.459,919.762,310.965,922.536z M552.041,634.476c3.866,5.293,7.227,9.893,10.588,14.494
		c3.643-5.948,10.271-11.997,10.074-17.815c-0.19-5.604-7.432-10.969-11.576-16.44C558.337,620.783,555.548,626.85,552.041,634.476z
		 M494.808,703.758c-6.565-8.525-11.265-14.628-15.965-20.731c-2.678,3.429-8.24,7.784-7.492,10.113
		c2.238,6.97,6.945,13.146,10.688,19.633C485.521,710.314,489.003,707.856,494.808,703.758z M608.099,542.888
		c-3.514,6.999-6.751,10.394-6.124,12.766c1.896,7.164,5.293,13.931,8.105,20.852c4.077-4.76,11.494-9.616,11.36-14.255
		C621.283,556.846,614.525,551.631,608.099,542.888z M650.934,486.759c-3.533,0.65-7.065,1.299-10.598,1.949
		c1.278,11.415,2.555,22.831,3.833,34.246c3.585-1.916,10.284-3.909,10.239-5.734C654.152,507.044,652.264,496.908,650.934,486.759z
		"/>
</g>
<g id="Layer_1">
</g>
</svg>
