<?xml version="1.0" encoding="iso-8859-1"?>
<!-- Generator: Adobe Illustrator 25.2.0, SVG Export Plug-In . SVG Version: 6.00 Build 0)  -->
<svg version="1.1" xmlns="http://www.w3.org/2000/svg" xmlns:xlink="http://www.w3.org/1999/xlink" x="0px" y="0px"
	 viewBox="0 0 1000 1000" style="enable-background:new 0 0 1000 1000;" xml:space="preserve">
<g id="latinSmallLetterW">
	<path d="M676.218,335.564c10.56-4.898,21.084-9.883,31.7-14.645c3.711-1.664,9.107-5.199,11.266-3.78
		c36.949,24.283,76.859-1.697,114.28,8.081c7.225,1.888,12.947,10.051,19.363,15.319c-6.649,4.991-13.858,14.847-19.847,14.095
		c-21.254-2.671-31.37,6.989-39.66,26.084c-33.705,77.633-68.693,154.658-102.966,232.023
		c-6.461,14.586-11.107,30.072-17.884,44.479c-7.174,15.249-13.708,40.15-24.336,42.573c-33.39,7.614-68.561,6.993-103.087,8.294
		c-2.6,0.098-6.235-9.541-8.19-15.113c-4.619-13.156-5.338-29.352-13.325-39.365c-20.111-25.217-43.888-47.196-65.156-71.468
		c-12.021-13.719-15.437-7.48-19.89,5.738c-9.52,28.255-20.319,56.037-30.036,84.223c-8.848,25.668-25.223,35.837-51.462,32.61
		c-17.976-2.211-36.438,0.24-54.574-1.054c-7.372-0.526-14.456-5.455-21.671-8.38c3.746-5.219,8.081-10.101,11.051-15.764
		c2.387-4.551,5.839-11.485,4.18-14.909c-21.404-44.173-44.447-87.488-65.461-131.855c-26.051-54.997-51.021-110.569-75.632-166.29
		c-14.964-33.879-9.23-41.133,26.833-37.004c56.82,6.506,56.101,6.629,34.665,63.011c-4.75,12.494-3.212,30.615,1.7,43.544
		c15.441,40.642,33.555,80.199,51.255,119.874c10.873,24.374,22.439,48.453,34.95,71.933c1.523,2.859,15.148,3.179,15.958,1.295
		c21.777-50.664,43.268-101.5,62.836-153.121c2.675-7.057-3.967-18.962-8.129-27.664c-11.201-23.42-21.846-47.421-35.855-68.96
		c-6.866-10.557-20.595-16.338-31.434-23.943c-7.518-5.276-15.405-9.976-23.127-14.934c6.368-5.398,12.241-14.536,19.189-15.538
		c28.277-4.08,56.843-6.927,85.375-7.905c57.344-1.965,114.734-2.822,172.109-3.077c9.734-0.043,26.627,3.167,27.98,8.357
		c5.397,20.692-10.658,17.946-23.946,20.676c-10.386,2.134-23.881,9.717-28.132,18.866c-24.71,53.193-47.827,107.248-69.499,161.871
		c-3.381,8.522,0.089,24.355,6.079,31.834c24.651,30.776,51.307,59.822,77.965,88.761c1.753,1.902,12.79-0.834,14.276-4.051
		c33.424-72.373,66.308-145.023,98.53-217.988c2.276-5.154,0.076-13.86-2.571-19.653c-3.563-7.798-9.762-14.243-14.51-21.497
		c-8.451-12.912-16.662-25.996-24.974-39.007c16.853-5.232,33.705-10.463,50.557-15.694
		C674.047,329.485,675.132,332.524,676.218,335.564z M396.244,441.556c7.726-17.227,14.95-32.113,21.173-47.442
		c18.873-46.488,18.711-46.206-29.811-47.942c-25.151-0.9-29.014,12.578-20.759,32.857
		C375.174,399.485,385.544,419.033,396.244,441.556z M673.404,562.757c-2.347-23.171-3.882-41.128-6.196-58.974
		c-0.509-3.923-3.789-7.455-5.794-11.167c-3.488,3.165-8.427,5.613-10.235,9.608c-13.454,29.734-26.706,59.589-38.902,89.899
		c-2.043,5.077-0.617,14.212,2.714,18.488c4.357,5.592,12.206,8.215,18.552,12.116c1.857-6.751,4.119-13.415,5.483-20.273
		c2.554-12.844,4.444-25.83,6.886-38.7c1.648-8.689,3.769-17.28,5.678-25.915C657.344,544.41,663.095,550.98,673.404,562.757z
		 M747.089,349.107c-17.764,11.789-27.388,15.668-33.622,22.788c-17.849,20.384,0.166,36.211,8.689,52.42
		c3.649,6.938,10.978,11.764,16.635,17.549c4.687-13.388,9.611-26.693,13.956-40.201c1.996-6.203,4.521-13.01,3.829-19.179
		C755.586,373.676,751.863,365.202,747.089,349.107z M703.066,504.3c-2.287-31.175-4.253-57.969-6.451-87.945
		C663.964,451.434,664.922,464.959,703.066,504.3z M457.352,467.825c-1.8-26.536-2.951-45.829-4.544-65.082
		c-0.323-3.901-2.316-7.65-3.539-11.469c-3.523,2.749-8.4,4.71-10.352,8.373C425.687,424.471,437.462,443.359,457.352,467.825z
		 M617.752,693.148c13.086-13.056,22.361-21.148,21.82-21.942c-8.791-12.909-18.826-24.894-28.58-37.088
		c-2.121,2.667-6.439,5.83-6.007,7.922C607.909,656.203,611.836,670.142,617.752,693.148z M490.698,370.635
		c-5.982-5.677-11.086-11.974-17.546-15.719c-1.81-1.049-11.357,7.465-11.022,8.132c5.524,11.034,12.059,21.515,18.368,32.12
		C483.163,388.759,485.828,382.349,490.698,370.635z M392.93,553.521c4.168-1.067,8.337-2.134,12.505-3.202
		c-3.592-13.282-7.183-26.565-10.775-39.847c-3.292,3.149-9.679,6.731-9.341,9.37C386.781,531.22,390.214,542.32,392.93,553.521z
		 M342.292,680.442c5.599-4.197,12.877-9.066,12.62-9.547c-4.638-8.692-10.184-16.855-15.536-25.131
		c-2.538,8.069-5.96,16.007-7.085,24.285C331.947,672.59,337.89,676.063,342.292,680.442z M722.143,450.851
		c-3.775,0.977-7.55,1.953-11.325,2.93c3.245,11.704,6.49,23.409,9.735,35.113c2.313-2.339,6.775-4.901,6.577-6.979
		C726.138,471.491,723.926,461.194,722.143,450.851z M421.448,460.059c-3.378-0.244-6.756-0.489-10.133-0.734
		c-0.468,8.882-1.83,17.873-0.857,26.58c0.289,2.586,7.144,4.371,10.99,6.523C421.448,481.638,421.448,470.849,421.448,460.059z
		 M380.89,661.111c2.668-0.219,5.336-0.437,8.004-0.656c-0.557-9.365-0.487-18.855-2.153-28c-0.374-2.055-6.814-2.904-10.461-4.307
		C377.816,639.136,379.353,650.124,380.89,661.111z M692.247,524.633c-3.434,0.568-6.868,1.136-10.302,1.704
		c2.466,10.602,4.932,21.205,7.398,31.807c1.941-1.617,5.607-3.316,5.541-4.838C694.467,543.726,693.22,534.186,692.247,524.633z
		 M442.003,478.664c-2.636,1.249-5.272,2.498-7.908,3.747c3.834,9.127,7.669,18.255,11.504,27.382
		c2.599-1.725,7.646-4.435,7.427-5.027C449.76,495.9,445.799,487.315,442.003,478.664z M203.3,370.095
		c-5.591-4.37-9.022-8.133-13.211-9.73c-1.437-0.548-7.238,5.638-6.82,6.494c2.298,4.705,5.907,8.71,9.066,12.956
		C195.07,377.391,197.804,374.966,203.3,370.095z M685.243,351.113c-10.732,9.066-13.374,11.299-16.016,13.53
		c3.609,4.071,7.217,8.141,10.825,12.211c2.789-3.555,7.164-6.772,7.941-10.755C688.849,361.709,686.401,356.614,685.243,351.113z
		 M475.26,419.175c-2.852,0.557-5.705,1.115-8.558,1.672c2.558,8.523,5.116,17.047,7.674,25.57c1.67-0.686,4.842-1.58,4.785-2.026
		C478.089,435.954,476.635,427.57,475.26,419.175z"/>
</g>
<g id="Layer_1">
</g>
</svg>
