<?xml version="1.0" encoding="iso-8859-1"?>
<!-- Generator: Adobe Illustrator 25.2.0, SVG Export Plug-In . SVG Version: 6.00 Build 0)  -->
<svg version="1.1" xmlns="http://www.w3.org/2000/svg" xmlns:xlink="http://www.w3.org/1999/xlink" x="0px" y="0px"
	 viewBox="0 0 1000 1000" style="enable-background:new 0 0 1000 1000;" xml:space="preserve">
<g id="latinSmallLetterM">
	<path d="M750.151,704.903c-36.299-2.832-74.03-5.331-111.623-9.188c-5.678-0.583-10.706-7.501-16.036-11.488
		c4.316-3.932,9.216-7.399,12.808-11.908c5.065-6.357,12.87-13.356,13.113-20.305c3.177-90.74,5.665-181.514,6.717-272.298
		c0.084-7.238-11.531-20.618-18.042-20.828c-21.678-0.696-43.77,2.03-65.094,6.41c-5.381,1.105-13.698,17.388-11.857,19.707
		c22.934,28.904,3.492,59.324,3.991,88.573c0.813,47.653-2.685,95.364-3.341,143.066c-0.304,22.079,2.749,44.222,2.055,66.265
		c-0.147,4.675-9.491,12.089-15.434,13.045c-30.338,4.878-60.907,10.272-91.485,10.87c-14.964,0.292-30.281-9.084-44.853-15.429
		c-0.995-0.433,1.497-16.902,4.787-17.894c29.11-8.783,35.931-24.896,25.265-53.53c-3.649-9.795,6.569-23.911,6.61-36.066
		c0.23-68.523-1.146-137.051-0.976-205.575c0.049-19.629-6.711-23.294-24.735-18.002c-46.875,13.761-57.881,24.691-60.083,74.705
		c-3.139,71.273-4.306,142.647-5.029,213.991c-0.073,7.173,8.856,14.347,13.316,21.697c2.031,3.347,5.751,8.778,4.606,10.44
		c-7.509,10.897-16.401,30.096-24.357,29.866c-39.682-1.149-79.271-7.054-118.723-12.51c-4.764-0.659-9.598-8.239-12.032-13.672
		c-0.709-1.582,7.13-6.559,10.448-10.489c4.106-4.863,10.568-10.079,10.886-15.446c4.68-79.014,8.86-158.066,11.87-237.157
		c0.245-6.428-8.141-13.986-13.853-19.677c-13.416-13.369-28.183-25.418-41.107-39.216c-2.757-2.943-0.01-11.041,0.201-16.765
		c5.513,1.694,12.209,1.989,16.258,5.414c5.833,4.933,8.812,13.293,14.725,18.065c6.319,5.1,14.63,7.731,22.072,11.439
		c2.094-6.944,7.015-14.594,5.507-20.639c-1.582-6.341-8.768-11.875-14.587-16.355c-3.687-2.839-10.352-1.889-13.906-4.804
		c-5.897-4.835-10.365-11.413-15.435-17.256c8.031-3.305,16.037-9.356,24.097-9.427c30.677-0.27,61.379,1.182,92.055,2.407
		c17.93,0.716,43.654-9.708,39.184,25.927c-0.21,1.674,7.998,6.885,11.188,6.083c15.151-3.808,29.736-12.303,44.87-13.186
		c23.9-1.395,49.612-2.726,71.732,4.529c25.339,8.31,44.721,7.167,70.602-1.232c32.084-10.411,70.209-12.634,103.348-6.185
		c28.393,5.526,55.608,25.51,79.298,44.222c20.005,15.802,26.566,37.393,22.271,67.922c-8.165,58.031-6.321,117.635-5.818,176.561
		c0.086,10.021,15.598,19.173,21.493,30.073c6.818,12.606,10.881,26.701,16.14,40.15c-13.654,5.033-27.236,10.281-41.018,14.938
		C759.028,705.828,755.137,704.903,750.151,704.903z M316.719,483.268c3.82-11.477,7.64-22.954,11.46-34.432
		c-11.124,7.218-22.411,14.202-33.308,21.75c-5.832,4.04-13.754,8.045-15.863,13.838c-4.038,11.095-4.6,23.455-6.604,35.291
		c8.167-4.389,17.132-7.774,24.277-13.451c7.111-5.651,12.394-13.603,18.478-20.546c0.049,6.434,0.098,12.868,0.147,19.302
		c7.745-6.732,15.959-13.029,22.904-20.504c1.717-1.849-0.687-7.525-1.196-11.441C330.248,476.472,323.484,479.87,316.719,483.268z
		 M329.904,588.566c-36.715,14.844-64.941,48.094-63.47,73.082c0.295,5.008,4.932,9.76,7.567,14.63
		c4.495-2.474,11.024-3.807,13.156-7.607C301.316,643.428,314.534,617.659,329.904,588.566z M527.874,447.405
		c-2.094-2.127-4.188-4.253-6.283-6.379c-17.31,11.834-37.13,21.396-50.818,36.511c-6.347,7.008-0.761,24.825-0.585,37.741
		c7.83-4.75,17.911-7.798,23.047-14.587C505.984,483.839,516.476,465.279,527.874,447.405z M260.834,438.539
		c3.144,3.852,6.287,7.704,9.431,11.557c1.564,4.412,3.128,8.824,4.692,13.237c4.781-1.872,10.248-2.826,14.214-5.789
		c11.533-8.615,22.092-18.561,33.807-26.895c5.065-3.602,12.034-4.527,18.137-6.668c-2.991-8.341-5.982-16.682-8.973-25.023
		c-5.678,3.335-11.586,6.339-16.984,10.078c-9.916,6.87-19.027,15.058-29.442,20.999
		C278.238,434.299,269.185,435.804,260.834,438.539z M545.819,545.988c-5.106-12.337-6.204-17.162-9.009-20.588
		c-0.98-1.197-7.412-0.083-9.243,1.913c-14.853,16.198-29.447,32.657-43.401,49.627c-1.745,2.122,0.696,7.686,1.198,11.655
		C505.645,574.302,525.925,560.009,545.819,545.988z M349.044,551.907c-10.582-11.628-14.941-16.418-19.3-21.208
		c-10.997,15.327-22.037,30.624-32.699,46.18c-0.226,0.33,5.166,5.669,5.811,5.267C316.924,573.359,330.691,564.09,349.044,551.907z
		 M727.982,453.047c-1.78-1.788-3.56-3.577-5.34-5.365c-14.112,11.6-29.16,22.294-41.786,35.333
		c-3.98,4.11-1.471,14.503-1.932,22.02c5.386-2.631,12.362-3.935,15.868-8.136C706.524,482.84,717.015,467.745,727.982,453.047z
		 M462.356,385.671c7.339,6.867,13.457,14.019,14.5,13.343c9.285-6.018,17.674-13.42,26.326-20.413
		c-6.578-5.634-15.753-17.216-19.211-15.705C475.938,366.402,470.664,376.228,462.356,385.671z M698.016,627.201
		c3.245,3.03,6.489,6.061,9.733,9.091c12.256-14.651,24.784-29.092,36.425-44.217c1.46-1.896-1.761-7.395-2.813-11.224
		c-3.639,1.666-8.407,2.388-10.726,5.159C719.401,599.439,708.825,613.418,698.016,627.201z M756.632,531.162
		c-12.442-4.822-17.651-8.037-18.643-7.043c-11.953,11.972-23.353,24.505-34.478,37.257c-0.389,0.446,3.573,4.689,5.507,7.162
		C722.752,557.756,736.487,546.974,756.632,531.162z M703.393,503.938c1.976,2.096,3.952,4.192,5.928,6.288
		c11.735-8.179,24.515-15.28,34.652-25.106c3.668-3.556,1.008-13.639,1.236-20.743c-5.153,2.467-11.548,3.758-15.217,7.631
		C720.486,482.044,712.179,493.218,703.393,503.938z M531.146,590.543c-8.821,11.565-13.256,16.269-16.387,21.722
		c-6.089,10.607-11.445,21.634-17.105,32.487c2.365,0.406,6.055,1.984,6.893,1.038c9.758-11.025,19.462-22.152,28.215-33.967
		C534.554,609.404,532.354,604.026,531.146,590.543z M674.04,389.619c5.297,7.106,10.513,15.43,11.343,15.014
		c9.823-4.93,18.991-11.165,28.331-17.057c-7.881-5.123-15.272-12.284-23.888-14.361C686.408,372.392,680.27,382.852,674.04,389.619
		z M312.733,670.024c10.07-15.692,18.033-27.114,24.589-39.295c1.083-2.012-3.999-7.342-6.233-11.139
		c-9.332,12.195-18.814,24.284-27.677,36.81C302.787,657.283,306.725,661.393,312.733,670.024z M265.543,587.697
		c4.137,1.67,8.273,3.34,12.409,5.01c5.32-13.706,10.639-27.412,15.959-41.118c-3.932,0.43-10.248-0.5-11.399,1.517
		C276.159,564.239,271.067,576.091,265.543,587.697z M315.864,380.364c-12.221-3.185-16.647-5.722-18.233-4.518
		c-8.126,6.165-16.039,12.838-22.738,20.464c-1.365,1.554,2.796,7.961,4.41,12.131C288.5,401.378,297.696,394.316,315.864,380.364z
		 M721.636,643.15c-1.694-1.774-3.389-3.547-5.083-5.321c-10.049,10.579-20.109,21.147-29.916,31.945
		c-0.071,0.078,3.324,3.306,5.101,5.063C701.704,664.274,711.67,653.712,721.636,643.15z M322.888,340.752
		c-15.962,4.682-30.639,8.988-45.315,13.293c0.938,3.197,1.877,6.393,2.816,9.589c14.021-5.357,28.046-10.704,42.033-16.146
		C322.699,347.379,322.541,346.151,322.888,340.752z M702.046,528.305c-9.255,11.16-17.67,21.1-25.621,31.398
		c-0.49,0.635,2.68,4.096,4.147,6.242c8.378-10.527,16.764-21.047,25.073-31.628C705.792,534.13,705.014,533.218,702.046,528.305z
		 M509.997,491.536c2.97,2.778,5.939,5.557,8.909,8.335c7.462-9.449,15.015-18.832,22.076-28.572
		c0.305-0.421-3.926-4.13-6.045-6.307C526.624,473.84,518.31,482.688,509.997,491.536z M347.464,369.328
		c-4.861-3.554-8.767-7.112-9.278-6.678c-7.644,6.498-14.871,13.493-21.931,20.633c-0.144,0.145,3.998,5.119,4.233,4.964
		C328.918,382.656,337.12,376.722,347.464,369.328z M509.453,547.211c-5.46-5.44-10.92-10.879-16.379-16.318
		c-7.828,8.48-15.734,16.894-23.177,25.7c-0.277,0.327,4.978,6.871,5.935,6.465C487.228,558.221,498.297,552.615,509.453,547.211z
		 M706.15,421.968c-2.449-2.062-4.898-4.124-7.347-6.185c-6.892,8.894-13.897,17.71-20.338,26.92
		c-0.315,0.45,4.304,4.352,6.625,6.646C692.11,440.221,699.13,431.095,706.15,421.968z M696.418,603.165
		c-2.188-1.974-4.376-3.949-6.564-5.923c-4.859,6.114-10.093,11.994-14.23,18.563c-0.735,1.167,3.088,5.204,4.806,7.916
		C685.76,616.869,691.089,610.017,696.418,603.165z M489.898,430.902c-1.492-2.615-2.984-5.231-4.476-7.846
		c-5.825,3.033-12.167,5.44-17.126,9.525c-1.297,1.068,1.705,7.354,2.732,11.244C477.318,439.517,483.609,435.21,489.898,430.902z
		 M504.514,662.828c0.844,3.229,1.688,6.458,2.532,9.688c6.95-2.349,13.983-4.502,20.711-7.372c0.623-0.266-0.699-5.091-1.118-7.798
		C519.263,659.173,511.889,661.001,504.514,662.828z M734.434,679.306c4.015-6.596,7.546-10.224,8.324-14.369
		c0.615-3.279-2.15-7.193-3.414-10.826c-4.22,5.081-8.684,9.997-12.362,15.444C726.503,670.265,730.073,673.708,734.434,679.306z"/>
</g>
<g id="Layer_1">
</g>
</svg>
