<?xml version="1.0" encoding="iso-8859-1"?>
<!-- Generator: Adobe Illustrator 25.2.0, SVG Export Plug-In . SVG Version: 6.00 Build 0)  -->
<svg version="1.1" xmlns="http://www.w3.org/2000/svg" xmlns:xlink="http://www.w3.org/1999/xlink" x="0px" y="0px"
	 viewBox="0 0 1000 1000" style="enable-background:new 0 0 1000 1000;" xml:space="preserve">
<g id="latinCapitalLetterQ">
	<path d="M593.048,704.153c13.839,9.014,29.44,20.349,46.337,29.218c3.493,1.833,13.323-4.119,17.64-8.849
		c25.371-27.801,72.146-33.048,100.671-11.686c24.69,18.491,26.694,44.016,16.392,67.822c-10.072,23.275-30.859,35.572-59.628,32.97
		c-35.794-3.237-59.85-19.191-82.022-48.127c-26.503-34.587-68.624-51.324-111.268-49.527c-58.45,2.463-116.519,13.61-174.82,20.446
		c-7.989,0.937-16.376-1.524-24.579-2.411c5.426-7.159,9.45-18.216,16.534-20.762c23.43-8.421,47.963-13.771,73.245-20.617
		c-0.961-1.22-2.335-4.783-4.764-5.781c-79.245-32.59-118.504-101.214-153.089-172.72c-47.657-98.533-43.396-202.801,4.668-294.893
		c28.485-54.578,87.365-97.553,140.577-134.098c119.195-81.86,181.065-30.812,255.329,45.573
		c52.4,53.897,90.139,115.207,106.869,187.799c29.367,127.425,13.952,245.281-88.233,338.117
		C650.562,676.924,620.177,688.369,593.048,704.153z M535.493,681.857c19.422-3.565,40.122-4.78,58.87-11.468
		c22.877-8.161,52.724-12.805,56.217-43.662c7.121-62.899,18.268-126.507,14.907-189.134
		c-4.192-78.079-20.451-155.609-33.242-233.089c-7.526-45.589-30.909-83.426-65.051-114.66c-26.834-24.549-55.46-9.55-85.12-7.547
		c-69.77,4.713-146.37,79.75-153.283,141.775c-3.99,35.795-10.719,71.353-13.27,107.227c-5.54,77.925,2.273,154.548,32.072,227.435
		c3.782,9.251,18.403,13.578,26.542,21.658c11.457,11.373,31.306,24.981,30.325,36.114c-2.56,29.072,17.368,42.759,34.166,48.663
		C468.746,675.756,502.254,676.703,535.493,681.857z M246.324,300.308c10.573,11.246,17.317,19.759,18.224,19.177
		c8.97-5.758,16.973-13.022,25.25-19.859c-3.317-3.865-7.258-11.377-9.84-10.936C270.794,290.255,262.093,294.533,246.324,300.308z
		 M700.705,218.881c-13.34-9.572-19.637-16.5-27.183-18.358c-3.17-0.78-12.095,8.854-12.644,14.331
		c-0.471,4.706,6.833,13.979,11.456,14.498C678.92,230.092,686.197,224.674,700.705,218.881z M717.605,368.479
		c9.989-7.524,18.173-13.688,26.358-19.853c-3.666-4.272-7.332-8.545-10.998-12.817c-6.888,7.679-13.945,15.221-20.4,23.248
		C711.917,359.862,714.922,363.604,717.605,368.479z M269.608,338.459c-7.416,11.955-12.797,19.261-16.359,27.366
		c-0.857,1.948,4.32,6.548,6.722,9.929c6.812-7.498,13.939-14.758,20.014-22.812C280.696,352,275.61,346.685,269.608,338.459z
		 M304.741,236.437c-9.287-3.491-15.318-7.219-16.595-5.993c-6.562,6.298-12.069,13.752-17.322,21.238
		c-0.379,0.539,5.88,6.876,6.234,6.62C285.161,252.444,292.872,246.043,304.741,236.437z M731.715,413.062
		c7.734-11.907,13.634-19.856,18.01-28.57c1.024-2.039-3.114-6.67-4.876-10.108c-6.708,8.876-13.591,17.632-19.858,26.808
		C724.347,402.137,727.387,405.598,731.715,413.062z M731.055,723.524c-6.965,4.761-11.069,7.566-15.173,10.372
		c10.009,5.285,19.87,10.897,30.168,15.541c1.759,0.793,5.383-2.552,8.146-3.986C746.894,738.532,739.593,731.614,731.055,723.524z
		 M723.253,261.963c-8.918-6.548-15.124-12.894-16.655-11.916c-6.223,3.971-11.011,10.19-16.328,15.58
		c3.748,1.992,7.807,6.032,11.177,5.523C707.358,270.257,712.849,266.576,723.253,261.963z M736.08,467.36
		c5.24-8.189,10.016-13.499,12.029-19.705c1.013-3.122-2.992-7.872-4.728-11.885c-5.835,6.727-11.862,13.312-17.142,20.449
		C725.816,456.79,730.547,461.174,736.08,467.36z M687.718,531.666c2.711,1.075,5.423,2.15,8.135,3.226
		c4.235-10.733,8.47-21.467,12.704-32.2c-3.036-0.49-8.428-2.035-8.753-1.31C695.366,511.293,691.628,521.518,687.718,531.666z
		 M702.772,314.116c2.079,2.455,4.159,4.91,6.239,7.365c7.149-6.665,14.451-13.186,21.147-20.278
		c0.521-0.552-3.203-5.111-4.954-7.809C717.727,300.302,710.249,307.209,702.772,314.116z M281.214,444.312
		c-3.529-0.968-7.058-1.936-10.587-2.904c-2.106,9.501-4.447,18.965-5.959,28.56c-0.153,0.971,4.697,2.731,7.225,4.124
		C275,464.165,278.107,454.239,281.214,444.312z M288.839,527.941c2.424-0.647,4.848-1.295,7.273-1.942
		c-0.915-8.051-1.83-16.102-2.746-24.153c-4.27,1.927-12.404,4.777-12.199,5.634C282.846,514.511,286.078,521.17,288.839,527.941z
		 M744.908,520.588c-7.922-9.451-9.893-11.803-11.864-14.154c-4.641,5.716-9.626,11.211-13.581,17.367
		c-0.645,1.005,4.284,7.381,4.89,7.126C731.276,528.011,737.861,524.29,744.908,520.588z M692.227,742.835
		c-3.155-2.786-4.965-4.384-6.775-5.983c-5.314,6.305-10.774,12.502-15.676,19.112c-0.413,0.556,2.914,3.886,4.504,5.927
		C679.914,755.908,685.55,749.924,692.227,742.835z M708.969,581.687c-11.525-7.883-16.203-12.069-16.974-11.444
		c-3.816,3.099-7.828,7.076-9.257,11.548c-0.775,2.426,4.344,9.531,5.301,9.259C694.01,589.346,699.556,586.155,708.969,581.687z"/>
</g>
<g id="Layer_1">
</g>
</svg>
