<?xml version="1.0" encoding="iso-8859-1"?>
<!-- Generator: Adobe Illustrator 25.2.0, SVG Export Plug-In . SVG Version: 6.00 Build 0)  -->
<svg version="1.1" xmlns="http://www.w3.org/2000/svg" xmlns:xlink="http://www.w3.org/1999/xlink" x="0px" y="0px"
	 viewBox="0 0 1000 1000" style="enable-background:new 0 0 1000 1000;" xml:space="preserve">
<g id="latinSmallLetterO">
	<path d="M313.944,529.553c-13.635-82.37,100.457-204.192,200.767-203.816c111.172,0.417,166.903,83.64,171.953,169.266
		c7.716,130.854-73.589,204.854-193.114,211.347C387.665,712.102,309.097,624.4,313.944,529.553z M398.719,521.756
		c-4.875,38.584,14.044,77.499,35.159,115.22c21.128,37.744,82.784,51.072,111.117,22.992
		c37.571-37.237,67.808-79.447,59.855-136.941c-2.506-18.122-12.053-35.908-11.598-53.674c1.038-40.583-25.213-64.445-49.253-89.832
		c-20.325-21.465-77.657-21.292-99.545-1.067C404.292,415.565,397.728,463.919,398.719,521.756z M576.776,359.914
		c-1.955,2.296-3.91,4.591-5.865,6.887c10.636,16.424,20.769,33.209,32.19,49.067c3.798,5.273,10.901,8.165,16.494,12.146
		c1.782-9.266,8.304-22.82,4.497-27.029C610.184,385.608,592.831,373.348,576.776,359.914z M379.456,535.81
		c-6.047-7.591-8.815-11.066-11.583-14.541c-6.182,7.412-12.365,14.824-18.548,22.236c3.035,2.297,7.321,7.194,8.886,6.44
		C364.887,546.729,370.758,541.844,379.456,535.81z M652.564,511.88c-4.922-1.602-9.044-3.909-9.862-3.055
		c-5.787,6.045-11.25,12.507-15.818,19.489c-0.648,0.991,4.109,5.519,6.365,8.41C639.101,529.196,644.953,521.669,652.564,511.88z"
		/>
</g>
<g id="Layer_1">
</g>
</svg>
