<?xml version="1.0" encoding="iso-8859-1"?>
<!-- Generator: Adobe Illustrator 25.2.0, SVG Export Plug-In . SVG Version: 6.00 Build 0)  -->
<svg version="1.1" xmlns="http://www.w3.org/2000/svg" xmlns:xlink="http://www.w3.org/1999/xlink" x="0px" y="0px"
	 viewBox="0 0 1000 1000" style="enable-background:new 0 0 1000 1000;" xml:space="preserve">
<g id="latinSmallLetterQ">
	<path d="M423.742,315.441c18.528,3.724,36.977,7.933,55.619,10.957c8.759,1.421,17.889,0.685,26.852,0.709
		c28.233,0.074,56.466,0.163,84.699,0.012c17.427-0.094,34.975,0.582,52.252-1.193c35.307-3.627,23.855,29.012,23.616,39.154
		c-1.294,54.851-11.973,109.519-12.676,164.336c-1.202,93.663,2.026,187.409,5.134,281.062c0.33,9.919,11.277,20.376,19.108,28.925
		c9.33,10.185,24.297,16.714,30.129,28.219c7.463,14.722,8.247,32.83,11.91,49.479c-14.955,2.229-29.842,5.284-44.879,6.525
		c-38.723,3.194-77.484,6.241-116.291,7.915c-12.342,0.532-25.569-1.719-36.951-6.286c-3.967-1.592-5.413-20.402-4.951-20.533
		c27.309-7.725,12.259-27.708,12.803-42.807c1.799-49.888,3.301-99.786,5.254-149.667c0.711-18.171-2.204-23.142-22.314-14.501
		c-94.905,40.781-205.386-1.283-227.363-112.932c-13.35-67.823-4.508-131.002,24.587-191.587
		C332.427,347.111,367.671,316.286,423.742,315.441z M455.712,363.071c-47.967,0.071-75.149,15.322-81.783,52.113
		c-6.699,37.154-10.008,75.204-11.122,112.97c-0.636,21.572,8.197,43.28,9.014,65.067c1.488,39.683,29.684,70.23,69.158,71.809
		c5.134,0.205,10.213,2.358,15.27,3.775c11.173,3.132,25.732,12.375,32.788,8.361c16.617-9.451,35.082-22.711,42.614-39.108
		c7.623-16.594,3.039-38.815,3.712-58.575c0.453-13.315,4.007-28.835-18.756-25.69c-1.614,0.223-5.887-7.811-5.808-7.87
		c25.657-19.329,15.911-47.895,20.311-73.092C540.478,419.191,503.073,363.001,455.712,363.071z M560.325,459.266
		c1.474,1.705,2.947,3.41,4.421,5.115c18.176-13.105,37.254-25.165,54.147-39.756c8.443-7.293,16.557-18.535,18.509-29.151
		c8.04-43.712-27.697-33.407-49.928-36.847c-31.005-4.799-35.494,1.962-25.172,32.824c3.74-3.232,6.845-8.001,10.901-9.032
		c12.95-3.293,26.252-5.198,39.418-7.638c-3.734,12.341-4.899,26.411-11.779,36.635
		C589.244,428.649,574.022,443.445,560.325,459.266z M624.075,723.126c-2.702-2.064-5.405-4.129-8.107-6.193
		c-14.177,11.253-32.479,19.955-41.436,34.437c-10.076,16.292-11.722,37.797-17.035,57.034c3.899,0.604,10.416,2.924,11.31,1.56
		C587.61,781.269,605.78,752.157,624.075,723.126z M572.305,509.297c20.708-17.554,42.904-35.975,64.361-55.219
		c1.972-1.769-0.771-8.795-1.325-13.38c-3.822,0.998-8.602,0.87-11.312,3.175c-19.8,16.844-39.31,34.038-58.535,51.535
		c-2.316,2.108-2.579,6.655-3.2,10.177C562.228,505.965,566.148,507.047,572.305,509.297z M606.076,499.131
		c-2.556-2.049-5.113-4.099-7.669-6.148c-14.134,15.877-28.823,31.321-41.887,48.034c-2.329,2.981,2.077,11.227,3.374,17.042
		c3.985-3.23,8.872-5.8,11.798-9.804C583.482,532.121,594.667,515.544,606.076,499.131z M344.578,542.326
		c-7.615-8.212-11.327-12.215-15.039-16.218c-6.992,7.867-14.174,15.591-20.516,23.951c-0.39,0.513,7.407,9.362,8.761,8.725
		C326.027,554.914,333.506,549.417,344.578,542.326z M598.454,622.359c-3.001-2.38-6.002-4.76-9.003-7.14
		c-7.706,9.904-16.57,19.153-22.679,29.96c-3.616,6.398-2.879,15.256-4.099,23.008c5.715-4.742,12.626-8.609,16.879-14.421
		C586.738,643.946,592.242,632.894,598.454,622.359z M616.104,874.55c-2.695-3.505-5.391-7.01-8.087-10.515
		c-12.345,10.176-24.689,20.352-37.034,30.528c2.315,3.013,4.629,6.027,6.944,9.04C590.652,893.918,603.378,884.234,616.104,874.55z
		 M340.361,484.552c-4.129-2.019-8.258-4.038-12.387-6.057c-5.968,13.691-11.936,27.381-17.903,41.071
		c3.01,0.756,8.2,2.871,8.702,2.066C326.331,509.498,333.273,496.98,340.361,484.552z M375.545,661.831
		c-12.227-14.949-22.675-27.723-33.123-40.496c-2.454,2.631-7.279,7.302-7.022,7.6c10.327,12,21.105,23.613,31.899,35.206
		C367.522,664.38,368.62,663.803,375.545,661.831z M640.511,802.207c-3.553-2.016-7.106-4.032-10.659-6.049
		c-10.408,14.7-20.815,29.401-31.223,44.101c3.054,2.117,6.109,4.234,9.163,6.351C618.699,831.81,629.605,817.008,640.511,802.207z
		 M352.758,602.302c-3.506-4.824-7.012-9.649-10.518-14.474c-3.23-6.072-6.461-12.144-9.691-18.215
		c-4.225,8.825-9.332,17.383-12.138,26.638c-0.841,2.776,4.797,10.772,7.365,10.725C336.129,606.826,344.434,604.06,352.758,602.302
		z M697.09,887.122c-11.442-10.003-17.817-16.168-25.032-21.106c-0.866-0.592-9.463,7.649-9.129,8.137
		c4.587,6.702,9.538,13.467,15.763,18.543C680.531,894.195,686.624,890.476,697.09,887.122z M555.56,719.584
		c2.496,2.335,4.993,4.669,7.489,7.004c11.006-13.114,22.013-26.228,33.02-39.341c-2.475-2.036-4.949-4.071-7.424-6.107
		C577.617,693.954,566.589,706.769,555.56,719.584z M604.715,576.247c3.27,2.9,6.541,5.8,9.811,8.7
		c6.799-8.621,13.828-17.08,20.13-26.051c0.875-1.245-1.837-5.01-2.889-7.608C622.75,559.608,613.732,567.927,604.715,576.247z
		 M589.038,847.733c-4.701-4.409-9.403-8.818-14.104-13.227c-5.603,6.808-11.464,13.432-16.535,20.615
		c-0.78,1.105,2.075,4.777,3.25,7.263C570.778,857.499,579.908,852.616,589.038,847.733z M605.137,641.549
		c4.64,4.755,9.28,9.509,13.92,14.263c4.325-9.215,8.978-18.301,12.695-27.755c0.741-1.883-2.094-5.173-3.28-7.813
		C620.694,627.345,612.916,634.447,605.137,641.549z"/>
</g>
<g id="Layer_1">
</g>
</svg>
