<?xml version="1.0" encoding="iso-8859-1"?>
<!-- Generator: Adobe Illustrator 25.2.0, SVG Export Plug-In . SVG Version: 6.00 Build 0)  -->
<svg version="1.1" xmlns="http://www.w3.org/2000/svg" xmlns:xlink="http://www.w3.org/1999/xlink" x="0px" y="0px"
	 viewBox="0 0 1000 1000" style="enable-background:new 0 0 1000 1000;" xml:space="preserve">
<g id="latinCapitalLetterL">
	<path d="M460.498,670.921c51.825,2.716,103.634,5.781,155.479,8.021c31.931,1.379,52.168-17.695,69.051-41.89
		c13.568-19.444,26.709-39.262,41.576-57.674c4.363-5.403,14.9-10.177,20.911-8.633c5.687,1.46,12.452,11.306,13.023,17.956
		c2.609,30.377,4.332,60.949,3.724,91.398c-0.15,7.513-9.768,20.771-15.834,21.249c-34.504,2.721-69.253,3.041-103.914,2.926
		c-77.335-0.256-154.669-1.048-231.998-2.085c-19.58-0.263-39.212-3.943-58.687-3.073c-29.994,1.34-59.831,6.244-89.824,7.486
		c-9.315,0.385-18.918-6.199-28.389-9.592c3.441-8.385,4.457-20.443,10.709-24.572c47.197-31.168,35.954-78.18,36.291-122.831
		c0.414-54.817,2.715-109.621,4.421-164.425c1.565-50.301,3.468-100.59,5.118-150.888c0.377-11.476-1.778-23.471,0.838-34.36
		c10.891-45.341,5.148-82.344-42.6-104.143c-7.217-3.295-15.451-22.731-13.514-24.59c9.343-8.964,21.864-19.981,33.517-20.283
		c65.907-1.708,131.889-0.54,197.845-0.379c22.399,0.055,22.308,12.499,12.868,26.505c-6.251,9.274-15.007,18.938-24.902,23.298
		c-33.149,14.608-37.305,40.652-37.273,72.92c0.053,54.266-4.75,108.522-5.999,162.817c-0.228,9.93,7.069,19.922,10.246,30.087
		c1.667,5.333,3.328,11.292,2.609,16.649c-6.194,46.173-14.983,92.101-18.873,138.448c-3.255,38.774,0.991,78.155-1.797,117
		c-2.042,28.458,5.787,39.892,34.768,33.56c6.573-1.436,13.727-0.211,20.614-0.211C460.5,671.383,460.499,671.152,460.498,670.921z
		 M353.775,501.063c-7.953,5.256-13.849,10.46-20.721,13.296c-5.902,2.437-12.921,2.169-19.446,3.097
		c1.96-5.566,2.8-11.924,6.078-16.556c12.318-17.405,25.664-34.083,38.028-51.457c2.157-3.031,1.434-8.112,2.041-12.246
		c-2.729,0.342-5.66,0.154-8.157,1.105c-45.276,17.229-46.725,19.088-49.992,70.122c-0.827,12.919-0.444,25.919-0.502,38.883
		c-0.178,39.789,9.594,46.649,43.729,26.481c14.46-8.544,26.735-22.849,36.081-37.107c4.598-7.014,0.264-19.884-0.028-30.104
		c-6.728,4.137-13.395,8.377-20.227,12.334c-1.643,0.951-3.83,0.962-6.884,1.662C353.775,513.902,353.775,508.359,353.775,501.063z
		 M313.955,155.368c0.626,1.645,3.387,8.898,6.148,16.151c12.2-8.101,33.307-14.786,34.864-24.579
		c4.025-25.327,20.701-34.033,38.43-45.362c4.622-2.953,7.384-15.114,5.118-20.629c-1.943-4.728-12.874-9.288-18.827-8.237
		C352.273,77.554,315.066,122.066,313.955,155.368z M355.876,298.978c-50.52,18.939-51.261,20.071-49.583,63.396
		c0.236,6.09-0.183,12.206,0.047,18.296c0.756,20.012,1.672,40.018,2.526,60.026c14.454-16.092,29.264-31.888,43.111-48.488
		c3.427-4.108,3.729-10.823,5.467-16.34c-5.642,0.823-11.289,2.34-16.926,2.304c-8.386-0.053-16.765-1.204-25.147-1.887
		c2.321-7.566,3.446-15.794,7.2-22.565C331.659,337.328,341.972,321.615,355.876,298.978z M391.45,265.99
		c-10.264,16.647-18.27,30.297-26.941,43.508c-8.759,13.345-18.729,25.922-26.991,39.55c-2.646,4.363-1.54,11.001-2.151,16.598
		c4.926-0.595,10.585,0.181,14.663-2C387.117,343.809,401.602,311.159,391.45,265.99z M365.264,198.432
		c1.38,1.917,2.76,3.835,4.14,5.752c9.938-4.936,26.293-7.902,28.534-15.201c5.364-17.469,4.303-36.969,4.963-55.68
		c0.041-1.161-8.959-4.917-11.215-3.481c-8.707,5.544-16.384,12.707-24.445,19.267c3.178,2.521,7.702,4.412,9.241,7.7
		c2.777,5.936,6.727,13.804,4.841,18.881C378.199,184.086,370.84,190.928,365.264,198.432z M379.533,672.57
		c0-20.463,0.342-38.101-0.169-55.714c-0.203-7.003-2.294-13.951-3.525-20.924c-8.588,7.007-18.257,13.104-25.277,21.433
		c-3.177,3.77-3.628,13.594-0.907,17.857C357.177,647.007,367.022,657.309,379.533,672.57z M351.259,593.079
		c-2.503-1.732-5.005-3.465-7.508-5.197c-12.237,8.599-26.053,15.726-36.033,26.429c-4.872,5.225-2.597,17.114-3.557,25.987
		c7.374-2.19,17.528-2.097,21.572-7.022C335.732,621.101,342.934,606.628,351.259,593.079z M731.509,622.355
		c-10.323,12.852-21.185,25.34-30.397,38.944c-1.408,2.08,4.579,13.399,7.529,13.563
		C751.955,677.279,734.745,646.197,731.509,622.355z M316.626,305.956c15.505-24.094,27.34-42.066,38.535-60.426
		c1.354-2.221-0.741-6.546-1.238-9.896c-10.738,8.932-22.323,17.056-31.902,27.094c-5.943,6.227-9.695,15.053-12.671,23.343
		C308.227,289.196,312.063,294.101,316.626,305.956z M307.027,212.065c6.694,11.315,9.376,15.848,12.058,20.381
		c11.993-14.851,24.011-29.683,35.644-44.81c0.128-0.167-6.437-6.541-7.078-6.084C334.176,191.146,321.104,201.308,307.027,212.065z
		 M350.597,272.614c16.235-5.385,25.959-6.44,32.719-11.475c6.504-4.843,11.613-13.269,14.131-21.145
		c1.642-5.138-2.438-12.104-3.955-18.251c-6.979,5.223-15.212,9.404-20.633,15.923C365.439,246.589,360.156,257.288,350.597,272.614
		z M381.772,432.155c-10.7,14.879-19.374,26.806-27.652,39.003c-0.293,0.432,3.342,3.529,5.147,5.385
		c9.639-10.742,19.437-21.352,28.624-32.468C388.654,443.15,385.281,438.809,381.772,432.155z M393.612,383.952
		c-6.768-5.819-11.759-10.372-11.918-10.208c-9.115,9.335-17.897,19.004-26.284,29c-0.277,0.33,5.46,6.547,5.713,6.361
		C371.348,401.614,381.263,393.701,393.612,383.952z M319.015,663.674c-0.041,3.719-0.083,7.438-0.124,11.158
		c10.695-1.738,21.471-3.134,31.986-5.628c1.376-0.326,1.418-6.281,2.078-9.628C341.642,660.941,330.328,662.307,319.015,663.674z
		 M284.869,70.929c-7.052,6.116-9.732,8.44-12.412,10.764c5.904,6.536,11.808,13.072,17.712,19.609
		c2.122-3.351,6.649-7.439,5.893-9.908C294.146,85.143,289.858,79.619,284.869,70.929z M348.311,84.644
		c-0.524-3.262-1.048-6.525-1.572-9.787c-8.636,2.61-17.319,5.089-25.792,8.149c-0.52,0.188,0.618,4.968,0.984,7.612
		C330.724,88.626,339.518,86.635,348.311,84.644z"/>
</g>
<g id="Layer_1">
</g>
</svg>
