<?xml version="1.0" encoding="iso-8859-1"?>
<!-- Generator: Adobe Illustrator 25.2.0, SVG Export Plug-In . SVG Version: 6.00 Build 0)  -->
<svg version="1.1" xmlns="http://www.w3.org/2000/svg" xmlns:xlink="http://www.w3.org/1999/xlink" x="0px" y="0px"
	 viewBox="0 0 1000 1000" style="enable-background:new 0 0 1000 1000;" xml:space="preserve">
<g id="latinCapitalLetterI">
	<path d="M442.638,220.427c-0.406-22.502,0.601-45.158-1.839-67.437c-1.142-10.426-7.889-20.818-13.954-29.996
		c-10.486-15.867-22.422-30.776-33.749-46.087c16.325-6.662,32.211-17.387,49.06-19.21c47.294-5.115,94.962-7.064,142.529-9.251
		c26.224-1.206,36.713,13.664,21.026,34.385c-40.372,53.328-36.306,114.334-36.556,175.295
		c-0.471,114.672-2.778,229.36-0.982,343.989c0.268,17.042,19.344,33.464,28.626,50.76c17.551,32.704,10.69,42.023-25.84,44.013
		c-52.483,2.858-104.782,8.919-157.226,12.698c-28.181,2.03-32.321-12.235-20.836-34.878c1.4-2.76,2.184-6.407,4.422-8.085
		c43.462-32.576,36.219-80.047,36.793-125.07c1.366-107.034,2.442-214.071,3.635-321.107
		C439.376,220.44,441.007,220.433,442.638,220.427z M539.434,522.963c-32.572,41.475-59.492,75.752-86.411,110.029
		c4.055,3.077,8.111,6.154,12.167,9.231C486.074,603.144,551.151,597.354,539.434,522.963z M475.487,330.096
		c65.172-19.178,81.335-41.442,65.816-84.021C518.268,275.481,496.877,302.789,475.487,330.096z M548.501,407.829
		c-0.056-3.1,0.476-6.355-0.288-9.27c-1.68-6.415-4.014-12.658-6.081-18.972c-2.725,6.647-5.379,13.325-8.192,19.935
		c-4.946,11.625-8.41,24.288-15.404,34.53c-8.216,12.033-19.753,21.762-29.341,32.926c-2.247,2.616-2.45,6.988-3.593,10.552
		c3.555,0.399,7.376,1.85,10.621,1.028C518.791,472.839,548.942,431.677,548.501,407.829z M463.813,322.418
		c6.654-14.45,15.507-27.321,13.238-29.732c-22.521-23.944,4.272-35.239,11.746-51.121c3.421-7.269,8.101-13.945,15.408-26.295
		C452.307,243.988,452.307,243.988,463.813,322.418z M472.799,532.252c3.01,3.031,6.021,6.062,9.032,9.093
		c19.984-12.537,41.029-23.751,59.308-38.414c5.512-4.422,3.341-18.421,4.69-28.034c-3.71-0.027-8.856-1.662-10.908,0.169
		C513.925,493.805,493.432,513.107,472.799,532.252z M490.558,134.08c3.945,3.706,7.891,7.412,11.837,11.119
		c14.97-15.955,30.146-31.728,44.64-48.104c1.738-1.964,0.976-9.549-0.724-10.415c-3.221-1.641-9.722-2.027-11.792,0.08
		C519.437,102.111,505.118,118.214,490.558,134.08z M505.174,621.613c-12.102,13.503-24.336,26.893-36.195,40.607
		c-2.32,2.683-3.194,6.617-4.734,9.974c3.992,1.218,8.024,3.609,11.968,3.471C511.064,674.445,501.443,644.142,505.174,621.613z
		 M543.32,619.558c-2.49-0.946-4.98-1.891-7.47-2.837c-5.212,12.952-10.883,25.755-15.204,38.998
		c-0.754,2.311,4.468,9.385,6.418,9.188c4.235-0.428,11.053-3.542,11.671-6.598C541.302,645.603,541.96,632.51,543.32,619.558z
		 M511.505,171.593c3.133,2.87,6.266,5.74,9.399,8.61c9.507-10.655,19.015-21.311,28.522-31.966
		c-1.078-0.87-2.156-1.739-3.235-2.609C534.629,154.284,523.067,162.938,511.505,171.593z"/>
</g>
<g id="Layer_1">
</g>
</svg>
