<?xml version="1.0" encoding="iso-8859-1"?>
<!-- Generator: Adobe Illustrator 25.2.0, SVG Export Plug-In . SVG Version: 6.00 Build 0)  -->
<svg version="1.1" xmlns="http://www.w3.org/2000/svg" xmlns:xlink="http://www.w3.org/1999/xlink" x="0px" y="0px"
	 viewBox="0 0 1000 1000" style="enable-background:new 0 0 1000 1000;" xml:space="preserve">
<g id="latinCapitalLetterG">
	<path d="M350.042,429.697c-1.456,61.539,18.291,115.971,55.553,164.197c35.415,45.835,85.996,62.365,140.432,70.252
		c51.468,7.457,97.731-9.056,135.689-41.237c20.557-17.429,37.877-43.784,46.067-69.487c12.02-37.722,15.044-78.4,20.354-118.026
		c0.515-3.846-9.718-13.035-15.142-13.183c-67.864-1.858-135.769-2.209-203.638-3.945c-6.361-0.163-12.549-7.105-18.817-10.9
		c5.514-5.266,10.479-14.193,16.643-15.116c18.783-2.811,38.032-3.399,57.092-3.301c56.221,0.288,112.456,2.37,168.647,1.451
		c17.755-0.29,22.845,5.191,23.541,21.371c3.16,73.475,7.238,146.911,10.09,220.396c0.328,8.444-4.94,17.106-7.614,25.667
		c-7.738-3.102-16.947-4.484-22.947-9.617c-21.312-18.234-38.222-21.035-62.276,0.14c-43.269,38.09-97.704,47.804-154.359,48.345
		c-33.716,0.322-67.983,8.374-100.916,4.255c-25.501-3.19-51.06-17.071-73.543-31.091
		c-60.934-37.998-100.333-93.073-118.627-162.767c-10.681-40.692-21.001-81.478-31.429-122.236
		c-0.665-2.599-2.036-5.875-1.087-7.906c34.642-74.164,62.63-152.614,106.296-221.055C364.109,86.853,440.227,54.588,520.686,48.635
		c51.827-3.835,104.057,11.464,148.742,42.948c7.233,5.096,15.432,8.809,22.771,13.771c18.444,12.472,29.634,10.189,36.608-13.159
		c2.771-9.276,14.219-15.96,21.716-23.825c4.743,9.427,11.965,18.406,13.765,28.365c5.441,30.103,9.546,60.514,12.419,90.97
		c0.761,8.069-4.79,16.733-7.442,25.124c-6.797-4.357-15.624-7.227-20.076-13.302c-40.273-54.962-94.602-88.764-159.201-107.111
		c-16.856-4.788-34.277-8.183-51.672-10.244c-9.73-1.153-20.964-0.619-29.771,3.195c-70.14,30.377-115.669,82.98-132.562,157.469
		c-13.897,61.276-23.855,123.444-35.558,185.217C343.63,428.602,346.836,429.149,350.042,429.697z M328.974,299.736
		c1.677,0.111,3.354,0.221,5.031,0.332c1.328-2.83,3.114-5.539,3.905-8.512c3.473-13.064,6.876-26.155,9.804-39.348
		c0.8-3.607-0.141-7.6-0.283-11.415c-3.664,1.017-7.537,1.574-10.953,3.133c-12.806,5.839-27.081,10.009-37.71,18.623
		c-10.2,8.266-16.65,21.206-24.379,32.349c-0.439,0.633,3.573,5.277,3.66,5.22c8.863-5.795,17.623-11.758,26.187-17.989
		c2.137-1.555,3.22-4.788,5.459-5.919c4.298-2.17,9.076-3.387,13.656-5c1.655,5.029,3.761,9.965,4.824,15.116
		C329.07,290.666,328.754,295.256,328.974,299.736z M322.337,409.155c-7.569,11.404-10.87,20.681-17.432,24.981
		c-5.875,3.85-18.044-0.675-22.644,3.624c-8.653,8.086-14.183,19.696-19.805,30.47c-0.411,0.787,8.896,9.623,13.709,9.646
		C297.384,477.977,327.521,436.923,322.337,409.155z M391.236,142.905c-1.445-2.527-2.891-5.054-4.337-7.582
		c-12.057,10.069-24.189,20.054-35.977,30.43c-0.674,0.593,1.467,4.384,2.298,6.687c11.784-8.055,23.627-16.027,35.278-24.27
		C389.934,147.154,390.349,144.695,391.236,142.905z M327.808,375.775c-0.55-0.49-1.1-0.981-1.649-1.471
		c-14.63,12.544-29.26,25.089-43.89,37.633c2.213,1.99,4.426,3.981,6.64,5.971C301.874,403.864,314.841,389.819,327.808,375.775z
		 M288.115,350.198c-1.578-1.266-3.156-2.531-4.734-3.797c-7.029,5.031-15.121,9.117-20.722,15.417
		c-3.881,4.366-4.328,11.784-6.309,17.838c4.738-2.277,10.535-3.519,13.988-7.052C276.967,365.821,282.265,357.74,288.115,350.198z
		 M761.944,562.055c-3.278-1.173-6.556-2.346-9.834-3.519c-3.824,10.748-7.647,21.496-11.47,32.244
		c3.386,0.362,9.322,1.878,9.763,0.905C754.771,582.044,758.229,571.991,761.944,562.055z M427.026,669.005
		c3.407-4.636,5.725-7.792,8.043-10.947c-4.919-2.525-9.657-6.308-14.833-7.054c-2.646-0.382-6.076,4.676-9.152,7.276
		C415.696,661.383,420.308,664.486,427.026,669.005z M303.845,526.159c-4.415-4.015-8.831-8.029-13.246-12.044
		c-2.772,7.465-5.937,14.83-7.906,22.501c-0.308,1.199,6.811,5.789,7.156,5.446C294.849,537.098,299.279,531.56,303.845,526.159z
		 M377.208,616.977c-4.696,7.61-7.995,12.956-11.293,18.302c2.604,1.547,7.232,4.733,7.507,4.393
		c3.586-4.427,6.934-9.172,9.387-14.294C383.355,624.236,380.209,621.326,377.208,616.977z"/>
</g>
<g id="Layer_1">
</g>
</svg>
