<?xml version="1.0" encoding="iso-8859-1"?>
<!-- Generator: Adobe Illustrator 25.2.0, SVG Export Plug-In . SVG Version: 6.00 Build 0)  -->
<svg version="1.1" xmlns="http://www.w3.org/2000/svg" xmlns:xlink="http://www.w3.org/1999/xlink" x="0px" y="0px"
	 viewBox="0 0 1000 1000" style="enable-background:new 0 0 1000 1000;" xml:space="preserve">
<g id="latinCapitalLetterZ">
	<path d="M428.988,685.687c80.313-1.759,160.672-2.524,240.893-6.255c13.367-0.622,29.241-11.476,38.53-22.271
		c19.402-22.548,34.53-48.723,52.915-72.234c4.479-5.727,14.771-6.909,22.391-10.18c3.142,7.445,8.289,14.687,9.069,22.371
		c2.932,28.901,5.853,57.965,5.503,86.928c-0.089,7.366-12.237,20.927-18.881,20.95c-186.942,0.647-373.89,0.15-560.83-1.176
		c-10.785-0.077-21.509-8.728-32.261-13.389c10.308-4.587,21.027-13.782,30.848-12.907c30.886,2.749,42.246-15.357,57.075-38.211
		c35.928-55.371,77.879-106.798,114.799-161.57c46.84-69.487,90.526-141.092,136.677-211.056
		c33.235-50.384,68.789-99.237,102.165-149.532c8.675-13.072,13.062-28.989,19.418-43.599c-15.3-2.168-30.599-6.181-45.901-6.194
		c-77.086-0.064-154.176,1.588-231.258,1.218c-33.899-0.163-51.469,20.107-67.346,45.41c-5.748,9.16-14.248,16.593-21.492,24.814
		c-4.902-9.231-9.821-18.453-14.672-27.71c-0.339-0.647-0.233-1.552-0.248-2.338c-0.46-23.996-0.91-47.992-1.36-71.989
		c24.659,2.292,49.295,6.23,73.982,6.59c106.206,1.549,212.434,1.579,318.638,3.177c38.286,0.576,76.517,4.541,114.807,5.392
		c4.482,0.1,8.354-11.082,13.99-14.774c7.853-5.146,17.102-8.162,25.754-12.089c0.03,8.645,3.615,19.786-0.44,25.564
		c-64.638,92.081-130.866,183.045-195.438,275.172c-45.51,64.932-90.047,130.598-133.087,197.185
		c-21.075,32.605-36.515,68.82-57.02,101.84c-8.188,13.186-23.767,21.589-34.764,33.312c-5,5.329-7.04,13.435-10.423,20.282
		c7.285,1.472,14.516,3.683,21.87,4.225c8.612,0.634,17.332-0.187,26.005-0.377C428.925,683.406,428.956,684.546,428.988,685.687z
		 M445.872,477.387c-2.652-2.566-5.304-5.132-7.955-7.698c6.693-5.999,12.591-13.645,20.368-17.396
		c4.889-2.358,12.595,1.126,19.037,1.989c-4.172-11.303-8.343-22.605-12.515-33.908c-6.745,2.576-16.013,3.188-19.807,8.061
		c-18.322,23.533-34.244,48.948-52.785,72.292c-21.382,26.92-38.077,52.147,2.486,76.427c5.465,3.271,10.652,7.006,15.968,10.525
		c3.645-5.902,10.652-12.003,10.317-17.67c-1.096-18.515-5.007-36.852-7.52-55.301c-0.703-5.158-1.032-10.627,0.083-15.59
		c0.277-1.23,7.895-2.763,10.377-1.256C464.652,522.596,436.966,482.553,445.872,477.387z M584.329,242.824
		c1.091,13.128,0.381,24.353,3.352,34.5c2.691,9.189,9.397,17.202,14.333,25.734c7.147-5.708,16.06-10.166,21.136-17.339
		c23.182-32.756,45.838-65.925,67.316-99.813c4.301-6.786,6.549-19.877,2.848-25.609c-6.181-9.575-17.922-15.56-27.322-23.057
		c0.145,11.382,0.463,22.765,0.373,34.145c-0.055,7.005,1.085,14.897-1.763,20.695c-1.932,3.934-12.173,8.417-14.749,6.706
		c-35.842-23.794-19.635,9.063-21.698,20.109c-2.878,15.414-4.084,31.14-6.005,46.733
		C610.852,258.816,599.554,252.003,584.329,242.824z M405.019,615.006c-20.892-18.803-34.815-31.71-49.581-43.567
		c-0.777-0.624-8.705,7.656-13.304,11.792c12.834,12.565,25.293,25.565,38.876,37.261
		C383.228,622.402,390.403,618.556,405.019,615.006z M715.74,146.977c13.283-18.943,21.977-29.583,28.468-41.43
		c2.753-5.026,3.584-15.69,0.545-18.33c-5.937-5.156-15.21-6.47-23.102-9.374c-2.332,6.524-6.229,12.946-6.663,19.594
		C714.14,110.424,715.227,123.537,715.74,146.977z M327.763,647.696c6.034,12.022,11.743,23.396,17.451,34.77
		c5.951-9.938,17.593-20.646,16.379-29.613c-1.444-10.655-13.941-19.813-21.648-29.619
		C336.322,630.51,332.698,637.786,327.763,647.696z M518.064,365.963c-4.779,1.702-9.558,3.403-14.337,5.105
		c5.122,18.671,10.244,37.343,15.367,56.014c6.173-3.516,18.098-8.736,17.639-10.286
		C531.613,399.525,524.581,382.82,518.064,365.963z M768.243,628.86c-3.46-0.83-6.919-1.66-10.379-2.49
		c-7.68,17.137-15.359,34.274-23.039,51.411c9.221,0.137,25.926,2.207,26.47,0.102C765.398,662.004,766.324,645.304,768.243,628.86z
		 M540.099,325.755c8.755,14.446,16.66,27.488,24.564,40.53c3.64-7.056,12.035-16.272,10.001-20.749
		c-5.401-11.888-15.305-21.731-23.417-32.387C548.233,316.555,545.221,319.962,540.099,325.755z M704.052,93.113
		c-3.791-5.339-7.239-10.194-10.687-15.048c-6.773,8.012-17.711,15.435-18.956,24.23c-0.938,6.629,10.539,15.015,16.49,22.619
		C695.019,114.953,699.139,104.993,704.052,93.113z M496.709,388.423c-4.16-5.647-7.257-9.851-10.353-14.055
		c-4.205,6.255-9.848,12.089-11.863,18.984c-0.742,2.539,7.079,7.58,10.994,11.48C488.876,399.877,492.265,394.922,496.709,388.423z
		 M575.415,281.81c-4.489-6.957-8.325-12.902-12.162-18.847c-1.901,5.408-5.997,11.203-5.132,16.125
		c1.022,5.815,6.332,10.876,9.783,16.264C570.162,291.283,572.418,287.214,575.415,281.81z M292.045,683.6
		c4.492-3.402,7.683-5.818,10.873-8.234c-4.552-3.535-8.826-9.255-13.749-9.882c-3.625-0.462-8.097,5.734-12.191,8.963
		C281.689,677.31,286.4,680.171,292.045,683.6z"/>
</g>
<g id="Layer_1">
</g>
</svg>
