<?xml version="1.0" encoding="iso-8859-1"?>
<!-- Generator: Adobe Illustrator 25.2.0, SVG Export Plug-In . SVG Version: 6.00 Build 0)  -->
<svg version="1.1" xmlns="http://www.w3.org/2000/svg" xmlns:xlink="http://www.w3.org/1999/xlink" x="0px" y="0px"
	 viewBox="0 0 1000 1000" style="enable-background:new 0 0 1000 1000;" xml:space="preserve">
<g id="latinCapitalLetterS">
	<path d="M263.287,593.478c0-20.828-0.455-41.672,0.309-62.471c0.2-5.455,4.895-15.554,6.311-15.344
		c7.085,1.052,17.208,2.887,20.054,7.942c25.422,45.146,49.007,91.328,74.621,136.359c3.713,6.527,15.344,12.206,23.24,12.114
		c58.475-0.683,120.685,5.649,171.027-27.189c26.801-17.483,48.84-52.907,58.094-84.594c24.652-84.415,7.107-161.925-64.162-219.445
		c-12.151-9.807-37.252-13.749-51.9-8.325c-39.984,14.806-76.465,2.119-112.924-7.459c-77.347-20.319-115.451-94.123-85.545-169.367
		c20.798-52.329,68.31-77.609,119.566-91.735c51.295-14.136,102.364-11.809,150.539,16.561c7.409,4.363,25.007,0.838,32.161-5.505
		c23.597-20.923,47.27-39.45,80.913-33.427c5.975,1.07,14.783,9.73,15.07,15.259c1.576,30.366,1.49,60.868,0.49,91.275
		c-0.187,5.69-7.12,11.158-10.94,16.728c-3.409-5.803-9.133-11.364-9.768-17.457c-1.537-14.737-0.341-29.739-1.067-44.593
		c-0.189-3.881-3.378-7.615-5.19-11.417c-3.641,2.28-10.393,4.525-10.419,6.847c-0.18,15.733,0.879,31.495,1.929,47.221
		c0.441,6.61,1.839,13.157,2.803,19.732c-7.23-1.013-15.779,0.115-21.474-3.392c-33.444-20.595-64.568-45.636-99.586-62.848
		c-62.874-30.904-129.691-26.468-157.385,42.332c-20.192,50.161,19.23,146.116,69.484,164.038
		c13.004,4.638,30.145-1.611,45.262-3.736c68.541-9.633,174.99,12.81,214.118,82.608c25.561,45.596,20.465,90.134,5.352,134.997
		c-24.611,73.055-74.248,129.634-146.529,150.583c-83.495,24.198-171.035,47.087-259.242,12.879
		c-4.802-1.862-10.309-4.345-15.029-3.605c-49.406,7.741-39.822-26.261-39.007-54.31c0.302-10.409,0.049-20.835,0.049-31.253
		C264.104,593.481,263.696,593.48,263.287,593.478z M685.658,453.701c2.728,2.234,5.455,4.467,8.183,6.701
		c5.795-8.266,18.011-18.564,16.162-24.41c-5.22-16.497-16.215-31.166-24.934-46.555c-8.074,11.805-18.397,22.717-23.552,35.683
		c-4.598,11.566-3.484,25.403-4.891,38.238c8.359-10.938,16.225-22.313,25.343-32.577c3.219-3.624,9.497-4.53,14.378-6.677
		c0.281,5.512,2.175,11.627,0.403,16.372C694.853,445.555,689.502,449.347,685.658,453.701z M626.574,614.994
		c6.42-4.147,12.687-6.163,15.639-10.457c12.338-17.949,23.774-36.523,35.333-54.999c3.713-5.934,6.785-12.268,10.149-18.419
		c-10.129-0.76-20.285-2.261-30.372-1.885c-3.636,0.136-9.344,4.146-10.29,7.474C639.893,561.813,633.704,587.19,626.574,614.994z
		 M353.751,281.211c15.448,6.514,28.39,12.304,41.679,17.145c1.625,0.592,7.512-5.624,7.383-5.805
		c-10.931-15.335-22.261-30.386-33.563-45.457C365.261,255.877,361.271,264.659,353.751,281.211z M336.643,654.036
		c-10.795-14.586-20.586-27.815-30.377-41.045c-3.427,4.971-10.747,13.094-9.673,14.422c9.726,12.014,20.898,22.862,31.93,33.764
		C328.66,661.312,332.512,657.686,336.643,654.036z M364.504,113.513c-7.73,17.839-13.981,32.268-20.233,46.696
		c2.502,0.555,6.983,2.032,7.217,1.531c6.315-13.564,12.207-27.324,18.074-41.093C369.713,120.292,368.771,119.471,364.504,113.513z
		 M680.424,487.736c-2.24-2.128-4.481-4.256-6.722-6.384c-7.059,8.238-14.186,16.421-20.991,24.864
		c-0.373,0.462,1.951,3.098,3.02,4.722C663.962,503.205,672.193,495.471,680.424,487.736z M284.365,599.859
		c1.353-0.077,2.706-0.154,4.059-0.231c0-8.886,0-17.772,0-26.658c-1.353,0.081-2.706,0.163-4.059,0.244
		C284.365,582.095,284.365,590.977,284.365,599.859z"/>
</g>
<g id="Layer_1">
</g>
</svg>
