<?xml version="1.0" encoding="iso-8859-1"?>
<!-- Generator: Adobe Illustrator 25.2.0, SVG Export Plug-In . SVG Version: 6.00 Build 0)  -->
<svg version="1.1" xmlns="http://www.w3.org/2000/svg" xmlns:xlink="http://www.w3.org/1999/xlink" x="0px" y="0px"
	 viewBox="0 0 1000 1000" style="enable-background:new 0 0 1000 1000;" xml:space="preserve">
<g id="latinSmallLetterB">
	<path d="M307.188,67.356c41.392,2.422,82.852,4.118,124.097,8.064c6.06,0.58,16.121,12.125,15.787,18.12
		c-2.076,37.172-9.013,74.166-9.667,111.3c-0.767,43.566,4.112,87.202,4.807,130.835c0.396,24.854,9.379,21.466,25.567,12.043
		c65.4-38.07,134.432-43.898,200.949-7.92c92.753,50.169,91.654,150.185,62.642,236.777
		c-14.789,44.142-41.311,81.338-83.855,105.811c-56.665,32.597-112.655,21.915-169.675,2.939
		c-5.296-1.763-16.318,0.413-18.271,4.128c-9.304,17.705-21.829,20.28-41.119,18.863c-27.185-1.997-54.811,2.363-82.269,3.525
		c-10.674,0.452-22.027,1.711-31.947-1.211c-11.678-3.44-22.138-11.02-33.126-16.805c6.096-10.052,13.32-19.604,18.039-30.266
		c8.051-18.19,20.814-37.125,20.67-55.662c-1.12-144.17-3.647-288.366-9.164-432.423c-0.77-20.108-20.524-39.339-30.902-59.282
		c-6.729-12.929-12.389-26.413-18.529-39.649c14.88-4.236,29.709-8.663,44.675-12.568c3.591-0.937,7.636-0.139,11.472-0.139
		C307.309,65.009,307.249,66.183,307.188,67.356z M452.724,584.349c-5.17,37.596,7.667,64.418,46.849,79.485
		c49.376,18.987,93.516,9.35,112.564-34.562c13.023-30.022,18.767-63.508,25.149-95.961c2.735-13.908,20.762-37.431-14.241-39.618
		c-0.112-0.007-1.457-9.376,0.652-11.461c26.999-26.691,10.461-53.589-3.053-76.509c-16.566-28.099-38.253-59.023-75.909-54.367
		c-66.65,8.241-108.071,38.698-99.962,117.019C448.715,506.445,450.095,544.782,452.724,584.349z M370.724,238.993
		c-2.571-3.327-5.142-6.653-7.713-9.98c-14.324,10.185-36.513,17.692-41.111,31.19c-6.727,19.752-1.38,43.837,0.173,65.98
		c0.274,3.905,7.158,7.347,10.989,11.003c15.184-17.626,30.368-35.251,45.552-52.877c-14.119-1.662-22.608,1.897-31.446,3.959
		c-5.311,1.239-11.167,0.142-16.778,0.095c2.947-5.161,5.166-10.952,8.98-15.362C349.452,261.346,360.226,250.289,370.724,238.993z
		 M357.022,482.62c-3.966-2.068-7.932-4.136-11.898-6.203c-5.92,12.942-15.963,25.586-16.924,38.886
		c-2.145,29.704-0.14,59.75,1.053,89.622c0.287,7.201,3.996,14.266,6.131,21.393c2.509-1.317,6.359-2.022,7.29-4.06
		c3.66-8.013,8.106-16.245,9.115-24.767c1.873-15.828,1.931-31.917,1.927-47.897c-0.002-5.899-2.374-16.951-3.563-16.937
		c-24.685,0.287-15.119-11.365-8.523-22.481C346.997,501.13,351.909,491.815,357.022,482.62z M402.399,110.615
		c-25.372,11.514-51.919,22.715-77.403,35.961c-4.225,2.196-4.013,13.289-5.095,20.385c-0.074,0.488,7.057,3.766,9.412,2.674
		c26.894-12.477,53.67-25.243,80.014-38.831c3.569-1.841,5.511-8.466,6.219-13.174C415.743,116.317,408.816,113.933,402.399,110.615
		z M434.117,578.98c-2.412-7.165-4.303-12.783-6.195-18.402c-5.205,2.642-11.649,4.12-15.41,8.12
		c-20.308,21.601-40.092,43.704-59.64,65.999c-2.368,2.701-2.225,7.604-3.246,11.486c4.015-1.017,8.791-0.973,11.923-3.22
		c22.217-15.939,44.371-32,65.839-48.919C431.354,590.918,432.116,583.724,434.117,578.98z M342.064,440.882
		c5.379,6.034,10.758,12.069,16.138,18.103c21.55-15.193,43.892-29.44,64.024-46.324c4.367-3.662,0.799-16.785,0.886-25.55
		c-4.092,0.701-9.116,0.12-12.128,2.308C387.79,406.271,364.987,423.66,342.064,440.882z M432.491,626.657
		c-3.33-1.526-6.66-3.051-9.991-4.577c-13.322,15.675-26.644,31.35-39.966,47.024c13.072,3.546,26.144,7.091,39.216,10.636
		C425.331,662.047,428.911,644.352,432.491,626.657z M434.555,518.089c-3.713-11.8-5.229-16.615-6.745-21.431
		c-4.518,2.12-9.966,3.266-13.384,6.536c-11.578,11.074-23.249,22.247-33.27,34.682c-6.065,7.526-9.147,17.456-13.57,26.305
		c8.3-4.445,17.187-8.072,24.775-13.511C407.227,540.018,421.371,528.355,434.555,518.089z M691.959,581.991
		c-6.508-1.315-11.069-3.499-15.079-2.745c-5.789,1.088-14.156,2.806-16.21,6.882c-7.841,15.565-13.903,32.069-19.923,48.481
		c-1.608,4.385-0.706,9.691-0.956,14.575c4.8-1.706,11.754-1.964,14.038-5.362C665.468,626.509,675.901,608.384,691.959,581.991z
		 M385.915,387.793c-20.347,8.841-36.327,14.194-50.432,22.669c-5.915,3.554-9.619,13.392-11.035,20.986
		c-1.079,5.786,3.037,12.541,4.842,18.865c6.276-4.639,13.669-8.324,18.609-14.105C360.241,421.767,371.468,406.372,385.915,387.793
		z M434.221,343.593c-8.944-11.483-11.799-15.148-14.654-18.814c-14.918,11.94-30.001,23.687-44.546,36.066
		c-1.823,1.551-0.855,6.436-1.013,9.784c-0.013,0.285,1.456,1.083,1.876,0.884C394.008,362.907,412.09,354.215,434.221,343.593z
		 M361.407,315.951c1.653,2.953,3.307,5.907,4.961,8.86c17.455-9.476,35.491-18.08,51.963-29.035
		c4.154-2.763,3.309-13.043,4.762-19.869c-5.625,0.806-12.657-0.251-16.627,2.747C390.921,290.392,376.343,303.409,361.407,315.951z
		 M366.982,211.644c15.287-8.924,31.375-17.211,45.927-27.64c3.347-2.399,1.424-12.152,1.926-18.52
		c-4.691,1.249-10.127,1.388-13.937,3.948c-13.163,8.846-25.928,18.319-38.43,28.085c-2.53,1.976-3.626,6.18-4.444,9.582
		C357.884,207.683,362.479,209.406,366.982,211.644z M329.202,85.803c-4.667,9.766-10.214,16.671-10.623,23.868
		c-0.278,4.889,7.928,15.08,10.144,14.501c13.258-3.468,25.878-9.375,38.712-14.463C356.207,102.688,344.978,95.668,329.202,85.803z
		 M374.217,169.201c-22.128,8.402-35.393,11.908-46.856,18.533c-4.707,2.721-7.159,12.057-7.597,18.587
		c-0.346,5.17,3.95,10.651,6.185,15.993c4.725-3.613,10.198-6.574,14.029-10.966C349.85,200.028,358.996,188.075,374.217,169.201z
		 M618.677,344.524c-2.531,3.225-5.062,6.449-7.593,9.674c12.398,11.831,24.796,23.663,37.194,35.494
		c4.177-5.846,8.355-11.691,12.532-17.537C646.766,362.944,632.721,353.734,618.677,344.524z M668.272,451.564
		c1.306,1.513,2.613,3.025,3.92,4.537c12.078-4.126,24.424-7.638,36.078-12.734c3.706-1.621,8.033-7.679,7.703-11.309
		c-0.503-5.544-3.874-11.745-7.982-15.566c-1.523-1.416-9.702,1.957-12.872,5.122C685.646,431.073,677.149,441.51,668.272,451.564z
		 M374.377,491.305c1.669,1.803,3.338,3.606,5.007,5.409c14.371-10.4,29.214-20.239,42.76-31.621
		c3.124-2.624,1.802-10.538,2.527-16.017c-4.398,0.995-10.193,0.551-12.955,3.232C398.811,464.835,386.744,478.224,374.377,491.305z
		 M319.262,393.746c4.492,2.149,8.983,4.299,13.474,6.448c6.555-14.387,13.109-28.775,19.663-43.162
		c-4.741,0.337-12.184-1.096-13.762,1.313C331.291,369.564,325.567,381.845,319.262,393.746z M378.19,247.856
		c1.453,2.031,2.906,4.062,4.36,6.092c11.565-6.021,23.894-11.008,34.258-18.657c3.37-2.487,1.604-11.932,2.188-18.195
		c-5.235,1.232-11.875,0.871-15.432,4.006C394.379,229.196,386.556,238.834,378.19,247.856z M683.81,546.187
		c2.841,2.83,5.681,5.659,8.521,8.489c9.652-9.551,19.303-19.101,28.955-28.652c-1.517-1.498-3.033-2.996-4.55-4.494
		C705.761,529.749,694.786,537.968,683.81,546.187z M693.033,485.73c4.437,4.432,8.874,8.864,13.311,13.296
		c4.742-9.062,9.743-18.006,13.954-27.308c0.652-1.441-2.31-4.52-3.602-6.841C708.809,471.827,700.921,478.778,693.033,485.73z"/>
</g>
<g id="Layer_1">
</g>
</svg>
