<?xml version="1.0" encoding="iso-8859-1"?>
<!-- Generator: Adobe Illustrator 25.2.0, SVG Export Plug-In . SVG Version: 6.00 Build 0)  -->
<svg version="1.1" xmlns="http://www.w3.org/2000/svg" xmlns:xlink="http://www.w3.org/1999/xlink" x="0px" y="0px"
	 viewBox="0 0 1000 1000" style="enable-background:new 0 0 1000 1000;" xml:space="preserve">
<g id="latinSmallLetterF">
	<path d="M675.204,176.159c-24.462-66.862-52.039-75.993-120.601-46.247c-57.808,25.08-79.102,88.947-62.938,152.742
		c5.862,23.136,5.744,48.31,5.122,72.471c-2.325,90.317-6.224,180.594-8.611,270.91c-0.154,5.818,6.584,12.799,11.682,17.56
		c9.292,8.679,21.645,14.617,29.313,24.377c12.806,16.301,7.657,29.658-13.443,31.272c-52.872,4.044-105.845,7.127-158.835,8.84
		c-7.897,0.255-16.101-8.975-24.163-13.818c6.356-3.919,13.71-6.857,18.787-12.031c5.146-5.244,11.148-12.554,11.453-19.204
		c4.352-94.775,8.467-189.573,11.012-284.409c0.661-24.623-8.522-44.553-40.333-38.349c-6.564,1.28-14.851,2.218-20.16-0.683
		c-6.851-3.744-11.504-11.508-17.104-17.541c5.36-4.167,11.672-12.751,15.937-11.832c55.545,11.96,47.693-29.95,52.422-60.772
		c7.979-51.998,17.362-103.199,54.642-144.231c39.932-43.953,141.799-57.944,203.868-29.038
		c47.406,22.076,76.321,56.767,78.55,109.604c1.42,33.685,4.601,69.024-3.597,100.898c-8.123,31.582-61.941,48.278-96.003,37.435
		c-40.639-12.937-59.066-37.213-54.772-72.153c4.363-35.495,45.601-74.39,80.831-75.699
		C643.983,175.673,659.741,176.159,675.204,176.159z M449.424,165.215c9.545-1.232,19.142-2.213,28.549-4.125
		c0.844-0.172,0.466-6.362,0.656-9.757c-8.216,3.315-16.499,6.482-24.602,10.055c-1.94,0.855-3.286,3.061-4.905,4.645
		c-2.458-5.279-5.965-15.394-7.219-15.122c-23.571,5.113-36.721,18.854-35.357,45.791
		C422.14,185.299,435.706,175.379,449.424,165.215z M443.902,407.943c31.366,0.64,31.749-21.635,27.786-45.484
		c-1.015-6.109-7.26-11.35-11.101-16.99c-5.561,6.942-14.376,13.221-15.956,20.975C441.97,379.5,443.902,393.492,443.902,407.943z
		 M473.503,451.166c-3.515-15.363-4.641-20.286-5.767-25.21c-2.66,0.818-6.134,0.835-7.853,2.58
		c-14.308,14.522-28.616,29.082-42.003,44.434c-1.86,2.132,1.301,8.643,2.137,13.127
		C438.601,473.959,457.185,461.823,473.503,451.166z M411.807,553.945c21.359-5.127,36.781-8.615,52.039-12.711
		c2.432-0.653,5.992-4.168,5.86-6.15c-0.772-11.651-2.484-23.241-3.878-34.851c-3.359,0.976-7.892,0.889-9.89,3.096
		C441.59,519.187,427.757,535.511,411.807,553.945z M613.345,217.595c-2.784-1.908-5.57-3.816-8.355-5.723
		c-9.846,15.463-24.032,29.957-27.787,46.78c-2.012,9.008,13.435,22.444,22.159,32.92c1.994,2.395,8.752,0.822,13.318,1.076
		c-2.025-4.265-3.274-9.179-6.208-12.682c-12.598-15.038-25.257-29.424-3.428-47.201
		C607.584,229.066,609.967,222.72,613.345,217.595z M463.614,555.312c-20.081,26.893-36.088,48.329-52.095,69.766
		C435.092,609.039,473.855,605,463.614,555.312z M440.924,279.369c-2.434-2.956-4.868-5.913-7.303-8.869
		c-11.862,4.478-24.137,8.139-35.386,13.831c-4.613,2.334-7.009,9.051-10.414,13.775c5.03,2.96,12.272,9.691,14.72,8.254
		C415.985,298.467,428.253,288.575,440.924,279.369z M430.033,505.648c-11.96,4.93-20.662,6.525-26.481,11.497
		c-5.421,4.631-8.928,12.524-10.965,19.643c-0.952,3.326,3.554,8.213,5.586,12.393c5.308-5.083,11.426-9.571,15.718-15.402
		C419.136,526.652,422.85,518.398,430.033,505.648z M434.88,209.348c-39.004,1.799-43.121,6.698-34.131,39.431
		C412.177,235.576,422.625,223.506,434.88,209.348z M648.77,204.551c-7.452,10.614-14.184,19.82-20.164,29.492
		c-0.448,0.724,6.095,7.281,6.678,6.907c10.424-6.697,20.429-14.046,30.524-21.255C660.997,215.418,656.185,211.142,648.77,204.551z
		 M656.057,271.957c9.818-10.267,18.268-18.891,26.126-28.024c0.346-0.402-4.705-5.448-7.242-8.331
		c-9.042,8.817-18.13,17.588-26.863,26.701C647.853,262.538,651.517,266.499,656.057,271.957z M424.015,255.209
		c14.276-13.122,23.986-21.862,33.279-31.026c0.59-0.582-2.072-4.462-3.221-6.808c-9.81,8.959-19.63,17.907-29.388,26.923
		C424.318,244.637,424.563,245.639,424.015,255.209z M519.521,91.615c-5.022,4.313-9.232,7.927-13.442,11.542
		c4.239,3.791,10.14,11.56,12.401,10.615c6.411-2.678,11.334-8.92,16.844-13.758C530.754,97.585,526.182,95.156,519.521,91.615z
		 M413.468,594.464c-4.672-2.953-8.994-7.226-10.566-6.381c-4.245,2.281-8.484,6.226-10.392,10.542
		c-1.021,2.31,2.773,6.749,4.395,10.227C401.735,604.657,406.564,600.461,413.468,594.464z"/>
</g>
<g id="Layer_1">
</g>
</svg>
