<?xml version="1.0" encoding="iso-8859-1"?>
<!-- Generator: Adobe Illustrator 25.2.0, SVG Export Plug-In . SVG Version: 6.00 Build 0)  -->
<svg version="1.1" xmlns="http://www.w3.org/2000/svg" xmlns:xlink="http://www.w3.org/1999/xlink" x="0px" y="0px"
	 viewBox="0 0 1000 1000" style="enable-background:new 0 0 1000 1000;" xml:space="preserve">
<g id="latinCapitalLetterW">
	<path d="M709.166,709.94c-27.631,0-55.348,1.166-82.818-1.004c-5.364-0.423-10.801-13.313-14.276-21.342
		c-2.591-5.985-0.776-13.93-3.136-20.102c-29.844-78.068-60.072-155.98-90.272-233.903c-1.94-5.005-3.574-10.581-6.915-14.455
		c-4.744-5.499-10.943-9.663-16.52-14.397c-3.375,5.575-7.597,10.789-9.995,16.78c-25.082,62.664-48.846,125.917-75.275,187.964
		c-9.788,22.979-8.346,39.609,8.362,57.813c14.253,15.529,16.768,31.052-11.595,31.455c-65.095,0.923-130.195,1.637-195.293,1.592
		c-5.219-0.004-10.434-6.5-15.651-9.98c5.12-3.609,9.829-9.334,15.425-10.489c41.22-8.508,44.46-16.912,29.835-58.161
		c-48.724-137.428-96.25-275.308-144.144-413.048c-14.74-42.39-28.099-85.349-44.626-126.975
		c-3.624-9.127-17.799-14.129-27.609-20.177c-5.441-3.354-11.904-4.941-17.907-7.325c5.646-4.201,11.054-11.567,16.98-12.041
		c22.609-1.81,45.388-1.781,68.099-1.653c11.141,0.063,22.317,1.495,33.393,2.982c7.586,1.018,21.097,2.372,21.434,5.007
		c1.175,9.197-1.446,19.266-4.21,28.498c-1.439,4.805-5.351,10.218-9.592,12.521c-51.385,27.91-34.626,68.914-20.119,109.39
		c43.968,122.671,87.678,245.444,132.58,367.75c6.263,17.06,18.651,31.726,28.204,47.5c9.172-15.887,20.336-30.913,27.19-47.802
		c41.494-102.248,82.217-204.831,122.512-307.589c4.019-10.25,7.45-23.824,4.296-33.467
		c-15.486-47.344-32.907-94.038-50.882-140.452c-1.763-4.551-11.818-7.323-18.295-7.954c-13.995-1.363-28.403,0.678-42.163-1.664
		c-6.582-1.12-12.075-9.056-18.061-13.906c6.81-4.397,13.465-12.254,20.459-12.589c29.286-1.404,58.673-0.527,88.022-0.535
		c81.489-0.02,162.987-0.633,244.453,0.757c8.417,0.143,16.643,12.167,24.958,18.679c-8.356,3.202-17.033,5.736-24.97,9.806
		c-7.027,3.603-16.387,7.365-19.316,13.71c-32.294,69.957-63.45,140.471-95.118,210.736c-6.93,15.376-15.27,30.093-21.881,45.602
		c-8.305,19.484-12.747,38.194,11.67,50.791c5.752,2.967,9.901,11.467,12.513,18.342c26.374,69.417,52.103,139.096,78.537,208.489
		c3.121,8.193,9.385,15.112,14.193,22.621c5.387-7.862,12.315-15.038,15.929-23.689c52.013-124.481,103.611-249.146,155.228-373.802
		c10.233-24.714,18.307-50.588,30.59-74.143c21.038-40.347,1.89-59.477-23.953-85.617c-5.44-5.502-7.824-14.219-11.617-21.454
		c6.514-2.423,13-6.848,19.548-6.949c46.998-0.729,94.01-0.506,141.017-0.73c36.074-0.172,42.222,9.107,27.27,42.273
		C936.55,212.523,887.117,321.284,838.26,430.32c-25.654,57.253-50.436,114.923-75.481,172.466
		c-11.303,25.967-12.823,48.239,16.701,64.458c8.197,4.503,11.047,19.365,16.35,29.474c-8.689,3.799-17.122,9.842-26.121,10.938
		c-20.022,2.438-40.328,2.402-60.518,3.374C709.183,710.666,709.174,710.303,709.166,709.94z M443.931,478.28
		c-13.549-2.795-27.099-5.589-40.909-8.438c0.496,1.33,2.252,4.509,2.841,7.904c1.981,11.417,3.547,22.91,5.272,34.374
		c-7.82-7.101-15.684-14.152-23.432-21.336c-2.199-2.039-3.734-5.862-6.138-6.462c-8.884-2.22-24.566-7.096-25.965-4.428
		c-8.784,16.752-14.985,35.08-20.55,53.369c-1.009,3.317,3.882,10.561,7.796,12.968c5.366,3.3,12.402,3.712,18.722,5.362
		c0.057-4.963,0.327-9.934,0.127-14.886c-0.379-9.403-1.027-18.793-1.563-28.189c9.434,3.087,19.264,5.299,28.161,9.575
		c5.745,2.761,9.512,10.171,15.299,12.493c5.124,2.056,15.692,2.142,17.176-0.662c8.79-16.621,15.635-34.337,23.138-51.733
		c8.724-16.778,17.713-33.418,25.996-50.425c2.189-4.494,4.777-12.767,2.809-14.802c-16.658-17.217-33.737-34.154-52.117-49.336
		c-4.561-3.767-14.32-0.838-21.69-0.986c1.363,7.542,0.332,17.268,4.557,22.198c10.678,12.459,26.025,21.108,35.038,34.484
		c6.46,9.587,6.502,24.253,7.868,36.831C447.146,463.347,444.844,470.894,443.931,478.28z M444.684,75.384
		c-4.478-0.282-9.056-0.038-13.417-0.929c-29.328-5.994-34.326,6.705-24.359,32.454c9.959,25.728,18.892,51.877,28.739,77.652
		c1.69,4.422,5.705,7.899,8.646,11.813c3.735-4.129,8.872-7.623,10.949-12.504c6.872-16.142,11.081-33.648,19.118-49.075
		C500.283,85.035,496.728,77.148,444.684,75.384z M848.498,188.092c17.94,13.996,34.731,27.644,52.658,39.456
		c0.892,0.588,12.397-14.314,17.491-22.929c2.248-3.802,2.9-12.825,0.707-14.499c-11.179-8.531-23.369-15.719-35.533-22.778
		c-5.585-3.241-14.44-8.894-17.383-6.806C860.43,164.797,857.423,173.56,848.498,188.092z M371.671,650.654
		c-10.732-15.737-18.8-30.465-29.672-42.497c-7.316-8.096-18.597-12.38-28.104-18.37c-2.927,8.147-10.14,18.114-7.785,24.02
		c3.623,9.083,13.837,15.354,21.211,22.863c6.273,6.388,12.786,12.566,18.611,19.367c3.703,4.324,6.341,9.618,9.457,14.477
		C360.258,664.577,365.126,658.639,371.671,650.654z M898.806,260.706c-17.616-14.787-33.944-28.923-51.161-41.794
		c-0.959-0.717-13.832,12.922-13.495,13.342c14.7,18.345,30.265,35.951,45.727,53.646
		C885.09,278.961,890.304,272.022,898.806,260.706z M442.886,276.143c-5.481,6.186-11.284,10.934-14.477,17.116
		c-1.552,3.006,2.202,12.67,2.837,12.597c27.919-3.167,32.533,21.186,44.387,37.832c3.512,4.932,13.769,6.333,20.869,6.176
		c2.777-0.061,8.583-12.138,7.576-13.185C484.85,316.671,464.811,297.493,442.886,276.143z M522.797,287.184
		c-15.996-16.459-31.632-33.21-48.111-49.027c-3.995-3.835-10.769-4.589-16.265-6.76c0.389,6.897-1.859,16.203,1.63,20.267
		c13.913,16.206,29.504,30.898,44.748,45.853c2.835,2.781,6.936,4.187,10.453,6.227
		C517.375,299.085,519.498,294.425,522.797,287.184z M584.862,138.764c-6.381-8.003-10.18-13.371-14.575-18.157
		c-9.688-10.55-19.272-21.271-29.727-30.971c-4.712-4.372-11.407-6.47-17.202-9.6c-1.061,9.983-6.524,25.457-2.402,28.973
		c15.717,13.407,34.423,23.14,52.331,33.669C575.072,143.728,579.028,140.851,584.862,138.764z M559.585,201.21
		c-16.037-14.451-31.246-29.082-47.517-42.324c-5.851-4.762-14.258-6.181-21.499-9.126c2.309,9.379,2.011,21.055,7.474,27.657
		c11.208,13.546,25.32,24.599,38.683,36.127c2.688,2.319,8.115,3.991,10.921,2.734C551.081,214.74,553.085,209.803,559.585,201.21z
		 M901.16,85.862c-5.379,11.28-11.056,20.213-9.921,21.256c14.31,13.148,29.603,25.157,44.645,37.457
		c3.264-4.951,10.124-13.369,9.251-14.334C932.308,116.074,918.452,102.9,901.16,85.862z M831.495,412.49
		c5.42-17.948,10.337-26.019,8.312-28.905c-10.462-14.909-21.898-29.38-34.917-41.871c-3.035-2.912-13.556,2.482-20.632,4.054
		C797.806,364.904,811.354,384.041,831.495,412.49z M721.515,501.134c-5.512,11.834-11.936,22.227-10.64,23.38
		c11.455,10.187,24.112,19.014,36.995,27.277c1.125,0.722,6.403-5.447,9.752-8.415C746.761,530.67,735.899,517.962,721.515,501.134z
		 M751.471,583.336c-18.493-14.174-33.204-25.449-47.914-36.723c-3.555,5.427-7.11,10.854-10.666,16.281
		c13.958,9.019,27.678,18.486,42.099,26.631C737.474,590.927,742.937,586.715,751.471,583.336z M735.512,463.188
		c-2.26,11.077-5.302,17.634-3.67,19.291c14.123,14.337,29.015,27.878,44.032,41.232c0.683,0.607,4.761-2.85,7.258-4.414
		C768.667,502.253,754.201,485.209,735.512,463.188z M586.289,64.625c-10.032,7.445-16.843,12.5-23.654,17.554
		c8.004,9.511,16.008,19.022,24.012,28.534c5.181-9.511,11.937-18.572,14.67-28.78C602.248,78.456,593.054,72.094,586.289,64.625z
		 M679.896,614.904c-13.118,17.326-15.653,20.675-18.189,24.024c14.873,11.926,29.681,23.943,44.847,35.459
		c0.641,0.487,4.663-3.636,6.979-5.764c0.353-0.324,0.268-1.674-0.087-2.223C703.252,650.667,692.997,634.977,679.896,614.904z
		 M858.238,353.991c-15.575-20.292-30.623-40.093-46.18-59.46c-0.627-0.781-8.772,2.608-8.745,3.955
		c0.076,3.846,1.761,8.351,4.239,11.335c12.464,15.011,25.336,29.664,38.187,44.328c2.253,2.57,5.087,4.599,7.653,6.877
		C855.037,358.639,856.682,356.25,858.238,353.991z M818.415,440.724c-10.877-5.51-19.767-9.019-27.601-14.22
		c-11.084-7.36-21.389-15.97-32.027-24.045c6.938,10.254,15.059,19.878,20.575,30.891
		C791.809,458.201,805.337,454.657,818.415,440.724z M305.753,682.061c10.052-5.282,15.941-8.377,21.83-11.472
		c-10.304-7.151-20.317-14.877-31.26-20.765c-1.463-0.787-7.629,7.73-11.617,11.939
		C291.534,668.349,298.363,674.934,305.753,682.061z M498.033,236.491c6.373-3.061,9.458-4.543,12.544-6.025
		c-6.097-10.329-11.288-21.428-18.675-30.657c-3.645-4.554-11.239-5.993-17.312-7.982c-0.991-0.324-5.187,5.177-4.821,5.703
		C478.945,210.71,488.534,223.584,498.033,236.491z M93.656,60.831c-6.573,6.031-15.562,10.413-16.271,15.928
		c-0.849,6.605,5.372,14.178,8.531,21.332c8.32-8.132,16.64-16.264,24.96-24.396C106.247,70.237,101.618,66.779,93.656,60.831z
		 M723.691,627.963c1.784-2.589,3.568-5.177,5.352-7.766c-11.777-7.476-23.554-14.953-35.331-22.429
		c-1.3,2.378-2.601,4.756-3.901,7.134C701.104,612.588,712.398,620.276,723.691,627.963z M413.993,442.195
		c2.061-2.285,4.121-4.569,6.182-6.854c-9.757-9.31-19.515-18.619-29.272-27.928c-1.98,2.22-3.96,4.44-5.939,6.661
		C394.64,423.447,404.317,432.821,413.993,442.195z M435.568,333.132c-7.154-5.905-11.431-11.877-14.334-11.236
		c-3.963,0.875-6.88,6.789-10.246,10.542c2.93,2.253,5.787,6.201,8.807,6.338C423.736,338.954,427.805,336.113,435.568,333.132z
		 M848.705,296.296c-1.479,1.78-2.957,3.56-4.435,5.34c6.762,6.036,13.523,12.072,20.285,18.108
		c1.532-1.846,3.065-3.692,4.597-5.538C862.335,308.236,855.52,302.266,848.705,296.296z"/>
</g>
<g id="Layer_1">
</g>
</svg>
