<?xml version="1.0" encoding="iso-8859-1"?>
<!-- Generator: Adobe Illustrator 25.2.0, SVG Export Plug-In . SVG Version: 6.00 Build 0)  -->
<svg version="1.1" xmlns="http://www.w3.org/2000/svg" xmlns:xlink="http://www.w3.org/1999/xlink" x="0px" y="0px"
	 viewBox="0 0 1000 1000" style="enable-background:new 0 0 1000 1000;" xml:space="preserve">
<g id="latinCapitalLetterC">
	<path d="M492.757,50.195c81.537-2.636,154.83,21.575,221.8,66.595c17.421,11.711,24.955,6.728,29.695-12.418
		c5.87-23.714,10.463-51.024,44.755-47.06c6.501,0.752,16.939,10.312,17.118,16.071c1.384,44.403,0.826,88.872,0.458,133.317
		c-0.045,5.472-1.782,15.179-4.003,15.561c-5.889,1.014-13.893-0.162-18.531-3.74c-19.885-15.341-45.31-28.236-56.821-48.71
		c-23.763-42.267-67.614-52.934-104.298-69.861c-30.058-13.869-72.617-15.9-104.74-6.481c-48.962,14.356-90.77,46.614-122.837,89.09
		c-62.272,82.486-65.339,171.966-33.88,266.126c6.223,18.626,11.347,37.664,18.421,55.954
		c27.743,71.73,73.878,129.342,149.08,149.889c62.119,16.973,128.314,19.407,180.947-31.221
		c24.642-23.703,45.611-51.189,69.19-76.066c4.861-5.129,13.918-6.281,21.042-9.266c2.288,6.251,6.631,12.537,6.528,18.748
		c-0.649,38.95-1.754,77.916-4.117,116.79c-0.403,6.627-6.389,14.571-12.123,18.567c-3.205,2.233-11.57-1.629-16.908-4.201
		c-3.875-1.867-6.863-5.899-9.793-9.351c-21.031-24.766-38.751-30.361-71.8-10.031c-86.87,53.436-180.605,56.161-278.73,26.918
		c-59.613-17.766-107.593-48.797-141.248-97.669c-35.939-52.189-54.811-112.567-56.091-177.235
		c-0.295-14.899,7.139-33.989-18.269-38.218c-2.607-0.434-4.335-13.058-4.521-20.077c-2.66-100.21,53.518-170.948,121.4-233.846
		c36.103-33.451,71.954-70.763,126.376-74.697C458.149,52.422,475.456,51.349,492.757,50.195z M356.917,188.038
		c-14.151-3.616-22.555-5.764-30.958-7.912c8.63-6.388,16.997-13.186,26.019-18.96c3.592-2.299,9.18-1.386,12.925-3.552
		c20.622-11.923,40.954-24.346,61.386-36.598c-1.896-3.421-3.792-6.841-5.688-10.262c-17.83,8.506-34.892,19.704-53.625,25.04
		c-72.256,20.582-96.442,85.529-131.833,140.102c-1.965,3.029,0.908,12.426,4.354,14.861c3.741,2.643,11.657,2.453,16.246,0.296
		c21.154-9.947,41.975-20.658,62.478-31.893c5.998-3.286,10.555-9.201,15.773-13.911c-6.706-0.054-13.42,0.075-20.117-0.211
		c-7.758-0.331-15.5-1.028-23.249-1.566c4.046-9.027,5.685-21.391,12.629-26.398C318.57,206.032,336.556,198.699,356.917,188.038z
		 M239.353,411.196c0.728,2.324,2.906,9.276,5.084,16.229c6.137-2.178,12.681-3.606,18.335-6.674
		c16.601-9.008,33.494-17.757,48.851-28.618c4.732-3.347,7.316-13.442,6.54-19.928c-0.971-8.113-4.595-20.324-10.304-22.575
		C294.201,344.244,240.573,390.399,239.353,411.196z M290.236,576.95c4.6-2.161,7.479-2.549,8.473-4.125
		c16.131-25.582,32.022-51.315,47.967-77.014c-4.611-2.129-11.639-7.343-13.464-5.913c-20.557,16.097-40.883,32.625-59.638,50.73
		c-2.627,2.536,2.708,14.505,5.835,21.442C281.918,567.635,286.665,572.19,290.236,576.95z M409.162,615.345
		c-12.466-12.626-20.95-23.594-22.688-22.612c-17.053,9.628-32.982,21.246-49.23,32.298c11.272,5.82,23.091,17.059,33.668,15.991
		C382.304,639.871,392.534,627.191,409.162,615.345z M236.77,338.495c5.998,10.759,8.585,15.399,11.172,20.04
		c21.913-12.481,44.296-24.251,65.282-38.134c3.558-2.354,1.109-13.789,1.436-21.029c-5.971,2.186-11.998,4.233-17.901,6.59
		c-10.731,4.285-21.819,7.95-31.95,13.38C255.337,324.419,246.913,331.45,236.77,338.495z M266.009,523.692
		c12.645-19.808,23.202-35.716,32.906-52.129c1.735-2.934-0.059-7.956-0.224-12.013c-9.373,6.787-19.981,12.42-27.738,20.718
		c-6.467,6.918-10.54,16.637-13.671,25.8C256.208,509.212,261.195,514.428,266.009,523.692z M251.246,467.223
		c17.798-11.123,35.21-21.507,51.98-32.839c4.186-2.829,6.306-8.716,9.376-13.198c-6.116-0.734-13.995-4.263-18.04-1.712
		c-16.462,10.38-31.848,22.496-47.345,34.343c-1.9,1.452-3.267,5.431-2.717,7.719C245.001,463.625,248.441,465.007,251.246,467.223z
		 M320.265,614.492c14.011-20.006,25.235-35.895,36.061-52.05c0.396-0.592-3.115-3.802-4.805-5.792
		c-14.954,13.033-30.017,25.95-44.403,39.582C306.617,596.706,312.877,604.315,320.265,614.492z M488.64,676.082
		c0.337-2.999,0.674-5.997,1.012-8.996c-15.848-1.094-31.692-2.283-47.558-2.972c-0.717-0.031-1.631,4.463-2.453,6.849
		c15.203,2.523,30.398,5.099,45.629,7.442C486.251,678.556,487.51,676.898,488.64,676.082z M779.125,628.62
		c-4.396-5.371-8.217-13.369-11.322-13.1c-5.495,0.476-10.554,5.979-15.796,9.379c5.698,6.374,11.397,12.747,17.096,19.121
		C772.006,639.56,774.908,635.1,779.125,628.62z M773.145,116.082c-2.427-0.085-4.854-0.171-7.281-0.256
		c-0.657,12.905-1.615,25.812-1.518,38.711c0.01,1.332,6.298,2.617,9.672,3.924c0.6-11.599,1.375-23.194,1.661-34.801
		C775.74,121.155,774.036,118.608,773.145,116.082z M414.854,88.673c0.283,1.914,0.565,3.828,0.848,5.742
		c14.109-2.958,28.219-5.915,42.328-8.873c-0.604-2.478-1.208-4.956-1.812-7.434C442.43,81.63,428.642,85.151,414.854,88.673z
		 M305.845,473.461c1.475,2.776,2.95,5.553,4.425,8.329c8.119-5.117,16.36-10.065,24.152-15.639
		c0.707-0.506-1.474-5.046-2.313-7.713C323.353,463.445,314.599,468.453,305.845,473.461z"/>
</g>
<g id="Layer_1">
</g>
</svg>
