<?xml version="1.0" encoding="iso-8859-1"?>
<!-- Generator: Adobe Illustrator 25.2.0, SVG Export Plug-In . SVG Version: 6.00 Build 0)  -->
<svg version="1.1" xmlns="http://www.w3.org/2000/svg" xmlns:xlink="http://www.w3.org/1999/xlink" x="0px" y="0px"
	 viewBox="0 0 1000 1000" style="enable-background:new 0 0 1000 1000;" xml:space="preserve">
<g id="latinSmallLetterV">
	<path d="M546.479,705.97c-26.454-2.24-52.978-3.876-79.337-6.935c-16.986-1.971-22.789-9.224-7.917-23.418
		c19.046-18.177,24.094-34.319,7.27-61.194c-39.137-62.517-72.197-128.82-108.272-193.279c-12.348-22.064-24.72-44.503-40.409-64.11
		c-5.955-7.443-21.454-6.904-32.246-10.956c-6.065-2.276-11.4-6.496-17.064-9.84c4.468-5.209,9.015-14.988,13.393-14.913
		c39.322,0.676,78.638,2.805,117.825,6.079c1.456,0.121,5.6,20.863,1.671,24.383c-34.69,31.077-22.067,60.708-2.381,93.482
		c28.305,47.126,53.607,96.05,80.672,143.936c3.355,5.937,9.642,10.216,14.571,15.264c3.503-5.821,7.806-11.309,10.383-17.515
		c20.806-50.113,40.157-100.866,62.337-150.357c11.45-25.549,11.976-44.9-11.91-63.593c-8.756-6.853-11.878-20.907-17.569-31.677
		c12.866-3.082,25.624-8.181,38.617-8.873c41.234-2.199,82.614-1.788,123.824-4.271c29.577-1.782,38.483,9.123,26.215,37.515
		c-20.6,47.674-42.588,94.757-62.678,142.639c-21.785,51.92-43.547,103.944-62.399,156.962
		C591.225,692.995,582.131,715.185,546.479,705.97z M578.768,528.84c8.828,18.441,13.616,29.594,19.481,40.149
		c2.468,4.442,7.209,7.623,10.917,11.376c1.161-6.012,5.365-13.987,2.968-17.703c-11.909-18.459-25.074-36.202-39.203-53.016
		c-1.775-2.112-15.096,0.737-17.583,4.716c-20.069,32.104,18.266,32.636,28.007,49.131
		C582.189,554.682,581.023,545.871,578.768,528.84z M639.781,465.507c-4.292-24.453-7.072-45.317-11.976-65.669
		c-1.864-7.737-8.61-14.297-13.132-21.393c-2.794,3.68-6.775,6.963-8.165,11.114c-4.514,13.486-15.182,31.09-10.366,40.092
		C603.584,443.557,621.863,451.667,639.781,465.507z M564.723,598.269c1.017-0.721,2.034-1.442,3.051-2.163
		c3.77,7.504,7.16,15.236,11.463,22.42c2.268,3.786,6.131,6.617,9.274,9.88c1.597-5.081,6.147-12.04,4.306-14.933
		c-10.748-16.893-22.422-33.306-35.189-48.717c-2.73-3.297-13.609-4.472-16.554-1.878c-4.431,3.902-8.914,13.931-6.825,17.953
		c8.156,15.701,18.888,30.062,28.663,44.922c2.079-1.092,4.157-2.183,6.236-3.275C567.672,614.408,566.197,606.339,564.723,598.269z
		 M606.958,518.825c2.843-0.965,5.686-1.931,8.528-2.896c-6.109-21.756-11.933-43.6-18.616-65.179
		c-1.068-3.448-5.975-5.707-9.109-8.515c-2.598,3.141-5.563,6.048-7.737,9.459C556.817,488.131,595.848,497.364,606.958,518.825z
		 M663.599,410.27c1.886-0.796,3.771-1.591,5.657-2.387c-2.77-12.9-3.45-26.852-9.187-38.26c-2.91-5.788-14.943-6.988-22.852-10.262
		c0.853,6.215-0.048,13.478,2.913,18.433C646.956,389.215,655.658,399.515,663.599,410.27z M549.399,627.44
		c-2.481,2.631-4.962,5.262-7.443,7.892c2.645,8.889,4.915,17.91,8,26.644c12.436,35.203,23.285,3.565,21.786-2.731
		C568.954,647.534,557.34,637.924,549.399,627.44z M701.833,367.917c-4.885-4.497-8.547-10.493-12.096-10.426
		c-3.848,0.073-11.321,7.1-10.718,8.818c2.367,6.756,7.291,12.617,11.266,18.81C693.545,380.263,696.804,375.408,701.833,367.917z
		 M523.556,646.372c3.866-5.836,7.329-8.985,6.721-10.492c-3.318-8.224-7.636-16.045-11.61-24.004
		c-2.737,3.285-8.386,7.509-7.685,9.687C513.432,629.169,518.077,636.068,523.556,646.372z M507.985,680.828
		c6.33-3.162,10.981-5.485,15.632-7.809c-4.713-3.919-9.277-10.696-14.182-10.954c-4.911-0.258-10.164,5.998-15.266,9.399
		C498.637,674.493,503.106,677.522,507.985,680.828z M651.846,424.643c-2.491,0.984-4.982,1.968-7.472,2.953
		c4.249,10.649,8.499,21.298,12.748,31.947c2.021-1.948,6.116-4.571,5.737-5.74C659.651,443.932,655.625,434.328,651.846,424.643z"
		/>
</g>
<g id="Layer_1">
</g>
</svg>
