<?xml version="1.0" encoding="iso-8859-1"?>
<!-- Generator: Adobe Illustrator 25.2.0, SVG Export Plug-In . SVG Version: 6.00 Build 0)  -->
<svg version="1.1" xmlns="http://www.w3.org/2000/svg" xmlns:xlink="http://www.w3.org/1999/xlink" x="0px" y="0px"
	 viewBox="0 0 1000 1000" style="enable-background:new 0 0 1000 1000;" xml:space="preserve">
<g id="leftCurlyBracket">
	<path d="M581.131,23.417c32.039,5.232,64.16,10.043,96.026,16.174c4.492,0.864,10.388,7.907,10.854,12.568
		c0.501,5.01-3.271,12.429-7.549,15.585c-16.597,12.243-33.586,24.2-51.586,34.175c-7.499,4.156-18.031,4.782-26.957,4.089
		c-45.033-3.498-94.161,43.698-95.703,89.879c-1.32,39.542-7.491,78.914-9.005,118.458c-1.011,26.404,4.65,53.086,3.372,79.452
		c-3.644,75.168-7.669,150.392-14.638,225.307c-7.1,76.324,9.923,109.578,79.134,141.221c6.61,3.022,13.803,5.419,19.406,9.795
		c4.65,3.633,10.354,9.953,10.037,14.713c-0.288,4.334-7.566,8.949-12.61,12.074c-12.315,7.632-25.094,14.518-37.744,21.602
		c-3.046,1.705-6.208,4-9.496,4.356c-54.64,5.909-114.28-36.526-131.451-86.853c-19.938-58.44-2.121-115.895-2.238-173.738
		c-0.081-39.773,3.449-79.7,0.743-119.242c-0.968-14.144-13.58-29.161-24.284-40.589c-17.435-18.617-37.569-34.725-56.754-51.677
		c-14.133-12.489-9.962-21.671,4.137-30.593c23.164-14.658,47.177-28.436,68.227-45.753c8.745-7.194,12.646-22.091,15.556-34.25
		c13.146-54.925,18.073-113.152,39.919-164.218c15.989-37.375,63.343-44.285,103.738-48.918c9.331-1.071,18.889-0.158,28.343-0.158
		C580.783,25.724,580.957,24.57,581.131,23.417z M481.623,229.28c-0.398-0.005-0.795-0.01-1.193-0.015
		c0-8.689,1.618-17.799-0.5-25.937c-1.767-6.791-6.852-13.89-12.525-18.04c-3.258-2.383-14.851-0.23-15.344,1.729
		c-1.59,6.324-0.125,13.552,0.8,20.345c2.086,15.314,22.929,28.631,5.145,46.6c-0.318,0.321,6.566,9.267,11.323,12.161
		c1.344,0.818,9.497-5.04,10.307-8.757C481.613,248.291,481.121,238.677,481.623,229.28z M451.483,333.248
		c-11.924-7.714-21.95-14.735-32.659-20.486c-1.428-0.767-6.315,4.906-9.6,7.597c9.893,11.924,19.785,23.848,29.678,35.772
		C441.994,350.508,445.085,344.885,451.483,333.248z M437.8,454.62c11,12.628,20.043,23.011,29.087,33.393
		c3.672-5.313,11.56-13.78,10.329-15.426c-7.811-10.447-17.566-19.461-27.135-28.464C449.783,443.842,444.532,448.827,437.8,454.62z
		 M494.619,93.49c7.547-4.567,14.912-9.023,22.277-13.479c-5.087-4.137-11.823-12.729-14.949-11.571
		c-9.194,3.403-16.956,10.676-25.279,16.434C481.927,87.398,487.186,89.923,494.619,93.49z M503.95,151.405
		c-18.839-12.947-25.662-18.113-33.116-22.105c-0.851-0.455-8.061,7.707-7.535,8.441c5.357,7.472,10.915,15.324,18.203,20.609
		C484.119,160.248,491.572,155.479,503.95,151.405z M460.289,632.141c-7.658-9.054-14.815-17.515-21.971-25.976
		c-1.667,3.406-5.659,8.09-4.608,10.003c5.306,9.659,11.925,18.597,18.083,27.788C454.054,640.812,456.314,637.668,460.289,632.141z
		 M459.749,414.67c-10.697-4.639-18.12-8.244-25.887-10.803c-1.142-0.376-3.92,4.212-5.941,6.504
		c7.11,4.262,14.056,8.868,21.499,12.438C450.608,423.379,454.025,419.3,459.749,414.67z M522.218,104.867
		c-11.893-2.669-17.435-4.834-22.962-4.797c-3.154,0.021-6.283,3.631-9.424,5.626c4.561,3.919,8.655,9.835,13.849,11.053
		C507.129,117.556,512.153,111.64,522.218,104.867z"/>
</g>
<g id="Layer_1">
</g>
</svg>
