<?xml version="1.0" encoding="iso-8859-1"?>
<!-- Generator: Adobe Illustrator 25.2.0, SVG Export Plug-In . SVG Version: 6.00 Build 0)  -->
<svg version="1.1" xmlns="http://www.w3.org/2000/svg" xmlns:xlink="http://www.w3.org/1999/xlink" x="0px" y="0px"
	 viewBox="0 0 1000 1000" style="enable-background:new 0 0 1000 1000;" xml:space="preserve">
<g id="lessThanSign">
	<path d="M410.235,335.852c2.08-4.109,3.189-8.25,5.752-11.07c36.934-40.638,74.32-80.868,111.027-121.709
		c15.913-17.706,30.095-36.97,46.096-54.588c3.088-3.4,10.979-2.437,16.655-3.486c-0.937,5.419-0.031,12.383-3.087,16.025
		c-47.377,56.483-95.373,112.447-142.735,168.942c-2.385,2.845-2.379,11.05-0.026,14.014
		c40.094,50.523,80.986,100.416,120.695,151.235c2.631,3.367-2.811,13.043-4.498,19.784c-3.952-1.213-9.864-1.167-11.57-3.823
		c-37.991-59.154-79.201-115.58-132.457-162.297C412.949,346.128,412.266,340.579,410.235,335.852z"/>
</g>
<g id="Layer_1">
</g>
</svg>
