<?xml version="1.0" encoding="iso-8859-1"?>
<!-- Generator: Adobe Illustrator 25.2.0, SVG Export Plug-In . SVG Version: 6.00 Build 0)  -->
<svg version="1.1" xmlns="http://www.w3.org/2000/svg" xmlns:xlink="http://www.w3.org/1999/xlink" x="0px" y="0px"
	 viewBox="0 0 1000 1000" style="enable-background:new 0 0 1000 1000;" xml:space="preserve">
<g id="lowLine">
	<path d="M676.039,714.222c-116.333,0.65-232.665,1.423-348.998,1.804c-15.63,0.051-31.492-0.66-46.784-3.504
		c-5.682-1.057-10.036-9.25-14.996-14.188c5.945-4.459,11.903-12.816,17.832-12.795c99.383,0.355,198.759,2.133,298.143,2.757
		c45.779,0.287,91.573-1.68,137.351-1.33c5.417,0.042,10.771,8.292,16.154,12.738c-5.695,5.041-10.925,13.574-17.18,14.407
		c-13.562,1.805-27.648-0.328-41.52-0.85C676.039,713.581,676.039,713.902,676.039,714.222z"/>
</g>
<g id="Layer_1">
</g>
</svg>
