<?xml version="1.0" encoding="iso-8859-1"?>
<!-- Generator: Adobe Illustrator 25.2.0, SVG Export Plug-In . SVG Version: 6.00 Build 0)  -->
<svg version="1.1" xmlns="http://www.w3.org/2000/svg" xmlns:xlink="http://www.w3.org/1999/xlink" x="0px" y="0px"
	 viewBox="0 0 1000 1000" style="enable-background:new 0 0 1000 1000;" xml:space="preserve">
<g id="numberSign">
	<path d="M428.376,516.02c-75.258-1.673-74.065-1.126-104.716,65.706c-11.29,24.617-15.081,43.184,8.061,62.545
		c6.896,5.769,12.828,21.418,9.712,28.145c-3.632,7.84-17.555,14.882-27.214,15.154c-21.511,0.607-43.167-5.003-64.726-4.761
		c-24.471,0.274-48.9,5.737-73.351,5.774c-10.847,0.016-21.905-7.329-32.416-12.288c-2.533-1.195-5.064-8.702-4.572-9.052
		c6.612-4.7,14.265-7.994,20.651-12.941c8.31-6.437,18.747-12.586,22.97-21.398c14.836-30.961,28.331-62.656,40.563-94.747
		c11.945-31.339,8.16-34.396-24.064-35.874c-15.33-0.703-30.375-7.591-45.55-11.678c15.192-2.78,30.381-7.892,45.576-7.907
		c47.054-0.047,50.611-3.625,71.426-59.702c20.336-54.784,43.118-108.667,65.211-162.789c8.222-20.143,15.235-37.283-19.378-33.921
		c-17.26,1.676-35.18-0.807-52.48-3.485c-6.931-1.073-12.999-7.729-19.459-11.843c6.284-2.815,12.468-7.744,18.873-8.052
		c19.633-0.945,39.364-0.499,59.035,0.103c38.184,1.167,46.473-6.425,48.637-45.743c0.27-4.898-1.427-12.304,1.123-14.313
		c33.224-26.172,4.147-35.813-11.759-50.802c-8.259-7.783-12.244-20.102-18.159-30.372c12.701-4.036,25.645-12.008,38.051-11.243
		c22.052,1.359,43.605,9.591,65.689,12.016c23.186,2.546,46.755,1.503,70.145,2.345c6.662,0.24,13.285,1.581,19.926,2.417
		c-1.016,6.502-0.94,13.427-3.266,19.42c-5.545,14.286-12.851,27.904-18.067,42.292c-1.576,4.347,2.267,10.387,1.963,15.554
		c-0.228,3.87-2.587,7.959-4.927,11.3c-10.145,14.481-20.631,28.723-30.993,43.051c9.337,2.982,18.561,8.061,28.032,8.574
		c37.178,2.017,74.433,2.689,111.666,3.568c3.957,0.093,8.864-0.582,11.791-2.87c16.294-12.739,27.2-73.606,16.859-91.373
		c-25.4-43.64-17.945-61.102,32.864-64.953c44.482-3.372,89.406-1.36,134.106-0.4c3.018,0.065,9.503,12.493,8.007,17.107
		c-4.948,15.261-13.287,29.382-19.425,44.31c-5.696,13.854-21.216,29.969,6.348,38.932c1.059,0.344,1.76,7.475,0.392,8.521
		c-4.089,3.128-9.11,5.418-14.105,6.874c-5.222,1.523-14.497,0.075-15.674,2.731c-6.659,15.017-11.418,30.877-16.824,46.45
		c4.508,1.094,8.985,2.969,13.529,3.148c21.815,0.861,43.807-0.032,65.375,2.631c6.305,0.779,11.418,11.216,17.076,17.227
		c-6.124,3.031-12.231,8.575-18.376,8.619c-18.232,0.13-36.792-0.205-54.651-3.479c-30.111-5.522-45.155,7.201-55.755,34.599
		c-25.316,65.437-52.621,130.122-80.057,194.714c-8.176,19.248-3.567,27.432,16.962,27.499c13.367,0.043,26.919-0.952,40.012,1.015
		c5.351,0.804,9.71,8.202,14.521,12.599c-5.203,4.276-10.387,8.578-15.649,12.78c-0.407,0.325-1.367-0.082-2.07-0.082
		c-24.231,0.012-60.749-9.798-70.215,2.034c-21.824,27.278-31.533,64.711-43.411,98.977c-1.762,5.083,11.88,15.005,17.516,23.287
		c6.111,8.978,16.785,19.846,15.117,27.688c-1.602,7.529-16.228,16.948-25.531,17.407c-51.749,2.549-103.624,3.218-155.444,2.836
		c-6.932-0.051-13.793-9.7-20.687-14.904c5.721-3.895,11.676-7.494,17.085-11.782c4.074-3.229,9.066-6.684,10.882-11.161
		c17.424-42.952,34.631-86.006,50.608-129.505c1.386-3.775-6.107-15.467-10.067-15.771
		C470.695,515.166,449.503,516.02,428.376,516.02z M587.172,360.499c-15.99,24.086-33.544,47.585-5.304,75.381
		c11.406,11.227,20.4,24.905,30.491,37.468c-1.97-17.579-2.324-35.536-6.326-52.639c-4.827-20.631-12.75-40.538-19.392-60.824
		c12.792,9.534,25.584,19.068,36.506,27.209c-1.482-6.735-2.441-18.666-6.903-29.098c-3.888-9.089-11.727-16.488-17.821-24.634
		C594.672,342.407,590.922,351.453,587.172,360.499z M519.649,231.001c-23.7,4.519-48.888-8.202-61.12,23.392
		c-27.84,71.903-58.136,142.86-87.847,214.029c-6.125,14.671-1.48,20.291,13.387,20.833c38.604,1.408,77.195,3.842,115.798,4
		c7.72,0.032,19.81-6.395,22.551-12.923c31.183-74.274,60.306-149.414,91.551-223.662c7.271-17.278-1.39-19.168-13.13-20.166
		C572.86,234.124,544.804,232.652,519.649,231.001z M660.513,365.984c2.933-0.947,5.867-1.893,8.8-2.84
		c-5.449-36.833-10.566-73.725-16.953-110.395c-0.534-3.069-9.619-4.649-14.731-6.92c-5.96,21.655-19.612,44.816-15.748,64.546
		C625.853,330.656,646.924,347.587,660.513,365.984z M699.184,165.21c6.986,1.989,18.444,5.252,34.193,9.737
		c-9.781-21.223-18.504-40.579-27.766-59.673c-1.094-2.255-5.148-3.074-7.83-4.559c-6.361,23.099-18.263,46.477-17.115,69.197
		c0.753,14.904,19.694,29.465,31.885,42.914c4.47,4.931,12.959,6.219,19.615,9.169c-0.644-9.302,1.686-20.36-2.554-27.538
		C720.932,189.765,708.724,177.156,699.184,165.21z M315.589,337.483c12.364,20.575,18.714,33.866,27.635,45.118
		c7.049,8.892,11.72,44.186,29.38,5.797c3.443-7.483,14.733-17.041,12.899-20.308c-9.2-16.392-19.844-33.017-33.874-45.002
		C347.546,319.6,330.621,331.145,315.589,337.483z M391.463,318.625c7.313,0,18.044,2.758,20.662-0.674
		c3.554-4.659,3.902-16.377,0.342-20.981c-10.454-13.517-22.805-25.878-35.981-36.799c-4.181-3.466-17.64-3.542-19.289-0.731
		c-4.18,7.124-8.21,19.06-4.926,24.974c10.921,19.667,25.086,37.532,41.945,61.741C392.767,331.662,391.983,323.826,391.463,318.625
		z M249.581,523.553c10.209,14.6,21.664,31.465,33.731,47.88c2.811,3.824,7.703,6.119,11.637,9.117
		c2.603-6.582,8.401-13.828,7.198-19.62c-3.36-16.175-8.773-32.091-15.018-47.442c-4.45-10.938-11.559-20.795-17.482-31.134
		c-5.811,10.457-11.685,20.88-17.372,31.404C251.304,515.553,251.128,517.778,249.581,523.553z M345.968,447.259
		c-4.884-17.863-8.163-35.918-15.104-52.434c-3.018-7.181-13.56-11.2-20.684-16.655c-3.047,11.42-11.236,24.661-7.984,33.852
		c5.416,15.304,17.959,28.167,27.99,41.694c2.19,2.952,6.44,4.376,9.741,6.504C341.758,456.293,343.588,452.366,345.968,447.259z
		 M425.519,256.483c-9.111-18.803-17.902-37.696-27.518-56.16c-1.943-3.73-7.006-5.836-10.63-8.69
		c-2.707,3.767-5.985,7.248-8.029,11.345c-16.029,32.121,13.876,44.04,28.212,62.596c2.317,2.999,9.764,5.89,11.667,4.497
		C422.493,267.673,423.272,261.867,425.519,256.483z M447.026,209.466c-6.328-18.54-11.019-35.498-18.078-51.406
		c-2.871-6.472-10.886-10.661-16.56-15.888c-3.374,9.507-11.611,20.625-9.106,28.185c5.175,15.624,15.748,29.56,24.839,43.715
		c2.305,3.589,7.389,5.393,11.196,8.017C442.052,217.61,444.787,213.132,447.026,209.466z M758.568,146.891
		c-5.523-17.481-10.143-38.171-19.054-56.809c-2.882-6.028-17.029-6.669-26.023-9.775c0.812,6.934,0.053,14.555,2.731,20.673
		c7.836,17.906,16.712,35.389,25.92,52.643c2.572,4.819,7.706,8.272,11.664,12.351C755.104,160.773,756.402,155.571,758.568,146.891
		z M540.701,464.166c11.809,18.639,23.16,36.941,35.109,54.844c1.258,1.885,6.038,1.418,9.184,2.042
		c0.365-3.403,1.794-7.112,0.918-10.159c-5.038-17.532-9.875-35.191-16.35-52.21c-3.028-7.961-9.578-14.581-14.532-21.809
		C550.692,445.138,546.353,453.401,540.701,464.166z M276.928,447.581c11.184,22.889,21.945,45.492,33.446,67.713
		c1.431,2.765,6.702,3.765,10.4,4.928c0.662,0.208,3.683-3.256,3.345-4.259c-8.804-26.108-17.678-52.202-27.36-77.989
		c-0.86-2.29-8.236-4.418-10.957-3.143C282.455,436.398,280.819,441.618,276.928,447.581z M502.059,583.423
		c11.285,11.856,22.722,24.252,34.721,36.078c1.835,1.809,6.264,0.987,9.492,1.381c-2.832-11.984-5.53-24.002-8.572-35.932
		c-1.034-4.055-2.145-8.502-4.612-11.694c-5.202-6.731-11.324-12.752-17.068-19.065
		C512.159,562.274,508.299,570.357,502.059,583.423z M687.324,284.281c2.758-0.984,5.516-1.968,8.275-2.952
		c-7.895-25.493-15.49-51.087-24.02-76.366c-1.238-3.668-6.959-5.823-10.605-8.679c-2.993,5.841-9.988,13.427-8.326,17.237
		C663.137,237.574,675.548,260.789,687.324,284.281z M221.344,609.014c-2.034,2.25-4.069,4.499-6.103,6.749
		c7.767,6.805,15.194,14.062,23.428,20.245c4.936,3.706,11.659,5.031,16.601,8.731c4.221,3.159,7.049,8.18,10.493,12.378
		c4.354-4.213,10.582-7.753,12.423-12.87c1.292-3.595-2.116-11.98-5.623-13.673C255.903,622.531,238.489,616.051,221.344,609.014z
		 M641.301,357.847c-4.244,1.565-8.487,3.13-12.731,4.696c6.132,15.894,12.056,31.875,18.589,47.603
		c1.16,2.792,4.854,4.531,7.378,6.756c2.462-3.055,7.653-7.1,6.959-9.008C655.358,390.995,648.176,374.477,641.301,357.847z
		 M543.038,504.35c-8.118,11.693-21.317,26.891-19.583,28.845c9.348,10.541,22.401,17.797,39.228,29.785
		C555.26,540.827,549.651,524.089,543.038,504.35z M434.011,149.401c8.925,16.76,16.91,31.753,24.894,46.746
		c3.032-2.28,8.907-6.222,8.686-6.6c-8.109-13.865-16.775-27.405-25.446-40.937C441.977,148.347,440.834,148.708,434.011,149.401z
		 M270.939,593.362c-13.117-17.769-21.731-29.439-30.346-41.109c-3.147,4.977-10.037,12.949-8.838,14.448
		c8.361,10.446,18.192,19.778,28.137,28.822C261.259,596.766,265.859,594.453,270.939,593.362z M795.96,87.861
		c-8.756-3.459-14.65-7.518-20.545-7.521c-4.075-0.003-11.948,7.879-11.665,8.35c4.675,7.768,10.377,14.919,15.848,22.208
		C784.115,104.538,788.631,98.18,795.96,87.861z M599.392,485.757c-2.82,1.437-5.641,2.875-8.461,4.312
		c5.673,14.521,11.345,29.043,17.017,43.564c3.759-2.523,11.078-6.569,10.747-7.343
		C612.814,512.543,606.003,499.192,599.392,485.757z M704.514,231.588c-3.536,1.839-7.072,3.679-10.607,5.519
		c5.998,12.751,11.996,25.502,17.995,38.253c2.792-3.524,8.662-8.159,7.859-10.385C715.62,253.506,709.768,242.655,704.514,231.588z
		 M682.561,342.878c3.853-0.757,7.707-1.514,11.56-2.272c-5.09-15.596-10.18-31.193-15.27-46.789
		c-3.316,1.004-6.631,2.008-9.947,3.012C673.456,312.179,678.008,327.529,682.561,342.878z M515.281,659.597
		c2.132-1.167,4.264-2.333,6.396-3.5c-6.362-11.915-12.388-24.033-19.333-35.598c-1.639-2.729-6.371-3.601-9.681-5.327
		c-0.557,3.802-2.931,8.778-1.362,11.207C498.703,637.834,507.185,648.591,515.281,659.597z M541.861,643.748
		c-2.865,1.765-5.729,3.531-8.594,5.296c4.35,7.882,8.699,15.764,13.049,23.646c3.469-2.8,10.254-7.494,9.901-8.112
		C552.049,657.282,546.815,650.595,541.861,643.748z M482.044,649.432c-6.117,8.057-10.063,13.255-14.01,18.453
		c3.849,2.562,9.072,8.077,11.256,7.06c4.287-1.995,8.208-7.212,9.669-11.908C489.808,660.308,485.586,656,482.044,649.432z
		 M673.21,105.638c3.71-9.981,6.848-15.961,7.707-22.252c0.255-1.863-8.212-7.064-8.764-6.547
		c-3.888,3.638-8.865,8.176-9.289,12.811C662.51,93.505,667.894,97.884,673.21,105.638z M434.482,89.781
		c-4.065,3.717-7.494,6.852-10.922,9.988c4.123,3.109,8.852,9.286,12.23,8.619c5.232-1.032,9.543-6.735,14.244-10.457
		C445.527,95.569,441.022,93.208,434.482,89.781z M629.066,440.808c-2.87,1.509-5.74,3.018-8.61,4.527
		c4.443,8.445,8.887,16.891,13.33,25.336c2.256-1.318,6.607-3.454,6.459-3.834C636.814,458.046,632.895,449.444,629.066,440.808z
		 M586.304,579.146c2.085-1.104,4.17-2.209,6.255-3.313c-5.541-10.757-11.082-21.514-16.623-32.271
		c-2.581,1.382-5.163,2.764-7.744,4.146C574.229,558.188,580.267,568.667,586.304,579.146z M215.952,655.178
		c0.383-2.659,0.765-5.318,1.148-7.977c-6.196-1.031-12.375-2.294-18.613-2.751c-0.652-0.047-1.653,4.668-2.492,7.174
		C202.647,652.809,209.3,653.994,215.952,655.178z"/>
</g>
<g id="Layer_1">
</g>
</svg>
