<?xml version="1.0" encoding="iso-8859-1"?>
<!-- Generator: Adobe Illustrator 25.2.0, SVG Export Plug-In . SVG Version: 6.00 Build 0)  -->
<svg version="1.1" xmlns="http://www.w3.org/2000/svg" xmlns:xlink="http://www.w3.org/1999/xlink" x="0px" y="0px"
	 viewBox="0 0 1000 1000" style="enable-background:new 0 0 1000 1000;" xml:space="preserve">
<g id="percentSign">
	<path d="M711.992,102.801c-42.588-3.704-44.361,27.603-52.713,46.297C597.948,286.379,538.86,424.663,479.126,562.657
		c-9.434,21.793-20.262,43.219-26.912,65.853c-2.325,7.913,5.853,19,9.47,28.549c4.412,11.645,9.072,23.195,13.626,34.787
		c-11.594,2.88-23.247,8.403-34.771,8.146c-34.639-0.771-69.213-4.107-103.843-5.82c-20.514-1.014-23.141-12.271-16.302-27.875
		c62.35-142.27,125.302-284.277,187.351-426.677c16.17-37.11,30.406-75.112,43.95-113.266c2.114-5.955-2.966-15.707-7.004-22.304
		c-5.698-9.307-13.525-17.31-20.442-25.871c11.757-6.234,22.866-15.512,35.382-18.174c54.315-11.554,105.855,8.281,158.257,17.373
		c3.67,0.637,9.464,13.671,7.799,15.743C720.938,99.032,712.848,102.26,711.992,102.801z M628.873,196.764
		c-2.077-6.006-4.153-12.011-6.23-18.017c-14.793-10.2-29.585-20.401-44.377-30.601c-3.622,5.318-11.32,14.164-10.241,15.412
		c11.951,13.805,24.421,27.52,38.782,38.633C610.532,205.073,621.326,198.82,628.873,196.764z M509.188,316.252
		c-9.72,8.211-15.025,10.618-16.405,14.44c-1.389,3.848-0.54,10.977,2.213,13.421c12.296,10.918,25.466,20.891,38.821,30.51
		c1.304,0.938,6.038-2.886,9.179-4.5C532.235,352.977,521.474,335.83,509.188,316.252z M601.223,90.74
		c-4.016,3.702-7.536,5.386-7.707,7.361c-1.019,11.697-5.558,25.985-0.561,34.499c5.042,8.589,19.806,11.472,30.31,16.854
		c-0.971-8.219-0.289-17.11-3.294-24.501C615.309,113.487,608.133,103.042,601.223,90.74z M484.671,502.417
		c-7.838-2.614-14.832-3.624-20.316-7.051c-11.492-7.183-12.436-33.104-35.481-19.504c7.52,11.286,13.878,23.611,22.82,33.627
		C466.977,526.607,479.706,526.316,484.671,502.417z M457.69,429.92c-6.321,4.183-10.363,5.484-11.649,8.127
		c-1.11,2.28-0.121,7.032,1.728,9.065c10.935,12.022,22.22,23.743,33.817,35.127c2.306,2.264,8.622,4.447,9.399,3.533
		c2.576-3.032,5.931-9.442,4.617-11.105C483.556,459.412,470.587,444.887,457.69,429.92z M383.776,637.406
		c1.478-2.057,2.955-4.114,4.432-6.171c2.36,3.574,6.097,6.904,6.78,10.774c1.247,7.06-0.786,15.018,1.707,21.361
		c0.828,2.105,11.347,0.4,17.436,0.437c-4.565-10.539-8.873-21.202-13.853-31.542c-1.494-3.103-4.51-5.815-7.437-7.816
		c-6.708-4.588-13.792-8.628-20.723-12.89c-2.021,5.93-7.242,13.55-5.234,17.354C369.281,633.451,377.87,634.72,383.776,637.406z
		 M516.04,425.418c3.472-5.526,7.872-9.322,7.417-12.4c-1.397-9.428-3.808-18.961-7.704-27.608
		c-1.182-2.623-8.469-2.496-12.96-3.628c1.435,8.132,2.282,16.429,4.499,24.342C508.966,412.092,512.393,417.568,516.04,425.418z
		 M585.416,209.942c-3.437,1.076-6.874,2.153-10.31,3.229c3.628,13.758,7.257,27.517,10.885,41.275
		c3.523-0.945,7.047-1.891,10.571-2.836C592.846,237.721,589.131,223.832,585.416,209.942z M585.133,270.123
		c-8.818-2.975-15.214-5.948-21.89-6.842c-1.792-0.24-7.05,7.124-6.227,8.819c3.427,7.059,8.567,13.286,13.078,19.817
		C574.44,285.62,578.785,279.323,585.133,270.123z M569.369,207.788c-4.608-7.156-8.468-13.151-12.329-19.147
		c-3.044,4.402-9.372,9.73-8.445,13.012c1.892,6.704,7.685,12.307,11.87,18.364C563.033,216.49,565.601,212.963,569.369,207.788z
		 M407.095,541.987c-2.858,1.328-5.715,2.657-8.573,3.986c3.995,7.655,7.896,15.365,12.24,22.816
		c0.242,0.414,4.152-1.31,6.355-2.039C413.777,558.496,410.436,550.242,407.095,541.987z M430.844,542.133
		c2.454-1.936,4.908-3.871,7.362-5.807c-5.818-7.004-11.449-14.185-17.689-20.789c-0.79-0.837-4.782,1.352-7.29,2.139
		C419.099,525.829,424.972,533.981,430.844,542.133z"/>
	<path d="M479.112,197.603c0.854,67.618-53.786,136.961-144.757,136.24c-53.213-0.422-105.527-61.317-107.941-124.118
		c-3.161-82.265,63.68-165.297,126.207-159.431C423.613,56.953,472.881,103.836,479.112,197.603z M403.486,215.82
		c-7.59-39.333-11.807-74.597-21.663-108.208c-8.611-29.366-31.575-31.689-50.057-6.45
		c-34.477,47.082-37.493,100.848-24.577,154.919c3.213,13.45,21.26,29.755,34.879,32.391c11.875,2.298,31.369-9.648,39.836-21.009
		C393.323,252.14,397.401,231.347,403.486,215.82z M404.261,285.623c1.707,1.31,3.414,2.62,5.121,3.929
		c9.978-12.78,20.496-25.191,29.637-38.545c3.118-4.556,2.774-11.482,4.012-17.326c-6.673,3.152-16.24,4.54-19.447,9.803
		C415.599,256.591,410.511,271.461,404.261,285.623z M410.327,153.24c13.752,5.465,20.737,9.311,28.167,10.612
		c2.588,0.453,9.484-6.464,8.912-8.157c-2.583-7.648-7.137-14.631-10.981-21.854C429.797,138.768,423.169,143.694,410.327,153.24z
		 M425.652,214.712c30.657,0.688,38.555-12.624,24.537-38.492C442.06,188.971,434.242,201.235,425.652,214.712z M285.904,155.706
		c-5.784-4.992-10.538-9.34-10.686-9.189c-7.192,7.366-14.112,15.019-20.541,23.058c-0.418,0.523,3.281,4.338,5.065,6.621
		C267.693,169.969,275.643,163.743,285.904,155.706z"/>
	<path d="M513.701,575.106c11.45-26.261,15.938-48.089,28.589-62.984c21.289-25.064,45.845-48.382,72.505-67.612
		c39.683-28.623,88.574-19.75,120.144,17.331c54.612,64.145,51.151,155.392-8.137,214.562
		c-30.994,30.932-134.296,31.989-160.672-3.074C543.935,643.823,530.605,607.649,513.701,575.106z M703.516,567.93
		c2.008-2,4.016-4.001,6.024-6.001c-18.069-29.026-35.001-58.894-55.275-86.288c-3.568-4.82-25.025-3.65-31.566,2.197
		c-33.949,30.352-39.764,122.23-12.257,160.13c21.009,28.949,63.237,26.616,75.738-5.438
		C694.235,611.884,697.89,589.523,703.516,567.93z M704.84,656.787c36.281-25.529,54.498-75.066,39.734-103.285
		C731.497,587.493,719.462,618.779,704.84,656.787z M692.511,455.816c-2.915,2.765-5.831,5.53-8.746,8.295
		c8.686,15.346,16.943,30.961,26.293,45.89c3.192,5.096,9.129,8.471,13.812,12.633c2.722-6.803,9.743-16.614,7.443-19.902
		C719.715,486.159,705.687,471.286,692.511,455.816z M544.919,566.961c3.047,1.393,6.094,2.786,9.141,4.179
		c5.193-11.966,10.385-23.932,15.578-35.898c-2.252-0.678-6.242-2.348-6.503-1.89C556.822,544.418,550.907,555.71,544.919,566.961z"
		/>
</g>
<g id="Layer_1">
</g>
</svg>
