<?xml version="1.0" encoding="iso-8859-1"?>
<!-- Generator: Adobe Illustrator 25.2.0, SVG Export Plug-In . SVG Version: 6.00 Build 0)  -->
<svg version="1.1" xmlns="http://www.w3.org/2000/svg" xmlns:xlink="http://www.w3.org/1999/xlink" x="0px" y="0px"
	 viewBox="0 0 1000 1000" style="enable-background:new 0 0 1000 1000;" xml:space="preserve">
<g id="plusSign">
	<path d="M351.309,307.219c41.84,2.862,74.379,6.073,106.946,6.388c5.714,0.055,16.961-12.528,16.425-18.437
		c-3.004-33.088-9.35-65.858-13.303-98.886c-0.852-7.122,3.433-14.86,5.352-22.314c6.564,5.188,17.809,9.54,18.911,15.703
		c5.971,33.418,12.174,67.229,12.854,101.015c0.5,24.841,9.162,29.736,31.383,28.03c50.922-3.911,101.974-6.553,153.021-7.877
		c6.933-0.18,14.138,10.167,21.217,15.64c-7.776,3.343-15.364,9.008-23.357,9.654c-54.409,4.396-108.942,7.296-163.297,12.201
		c-4.636,0.418-12.156,12.192-11.738,18.233c2.597,37.468,7.448,74.774,10.577,112.215c0.522,6.244-2.816,13.405-6.097,19.157
		c-2.077,3.641-7.355,5.455-11.198,8.089c-2.626-4.456-7.202-8.757-7.57-13.393c-3.035-38.231-5.94-76.497-7.515-114.809
		c-0.83-20.198-8.119-32.711-29.518-33.363c-43.168-1.314-86.378-1.673-129.491-3.951c-9.843-0.52-19.359-7.233-29.025-11.094
		c8.186-6.12,15.555-14.743,24.758-17.75C333.213,307.564,347.179,307.733,351.309,307.219z"/>
</g>
<g id="Layer_1">
</g>
</svg>
