<?xml version="1.0" encoding="iso-8859-1"?>
<!-- Generator: Adobe Illustrator 25.2.0, SVG Export Plug-In . SVG Version: 6.00 Build 0)  -->
<svg version="1.1" xmlns="http://www.w3.org/2000/svg" xmlns:xlink="http://www.w3.org/1999/xlink" x="0px" y="0px"
	 viewBox="0 0 1000 1000" style="enable-background:new 0 0 1000 1000;" xml:space="preserve">
<g id="reverseSolidus">
	<path d="M534.584,695.458c-6.286,0-12.803,1.074-18.811-0.219c-13.434-2.893-26.613-6.966-39.897-10.559
		c7.283-12.262,14.764-24.413,21.785-36.823c5.351-9.46,16.498-21.286,14.169-28.581c-26.095-81.741-53.981-162.919-82.037-244.023
		c-28.932-83.64-58.056-167.222-88.368-250.367c-5.969-16.374-17.864-30.559-26.754-45.911c-3.541-6.114-9.411-13.155-8.485-18.84
		c0.702-4.306,10.523-10.182,16.243-10.135c48.601,0.4,97.192,1.993,145.786,3.239c43.245,1.109,49.387,12.461,26.452,49.715
		c-5.848,9.499-15.204,17.462-18.748,27.599c-4.539,12.982-10.084,29.221-6.118,41c32.456,96.393,66.32,192.332,101.213,287.877
		c21.71,59.447,48.735,117.093,67.712,177.33c7.814,24.803,13.754,39.03,41.656,35.814c4.048-0.467,8.998,6.885,13.53,10.619
		c-4.559,3.385-8.957,9.46-13.702,9.742c-48.453,2.895-96.962,4.848-145.455,7.064C534.697,698.486,534.641,696.972,534.584,695.458
		z M559.489,600.104c-3.899,8.943-7.672,17.94-11.497,26.915c3.686-0.316,8.515,0.757,10.866-1.179
		c12.412-10.223,24.199-21.204,36.204-31.922c-9.997-2.141-19.994-4.282-29.991-6.423c2.647-3.913,6.102-7.513,7.732-11.806
		c3.594-9.468,6.267-19.285,9.316-28.959c-14.205,4.528-31.237,5.76-41.663,14.696c-7.445,6.382-6.022,23.109-8.556,35.22
		c11.258-3.253,22.517-6.506,33.775-9.76C563.606,591.291,561.432,595.647,559.489,600.104z M423.698,235.627
		c22.481-7.205,30.593-11.308,28.751-32.964c-0.945-11.116-1.646-22.253-2.457-33.381c-8.226,2.499-18.074,2.954-24.339,7.925
		c-12.782,10.142-23.634,22.716-35.281,34.287C395.701,238.086,395.848,244.553,423.698,235.627z M379.598,177.516
		c5.372,3.878,13.602,12.234,15.661,10.92c15.458-9.865,30.983-20.415,43.515-33.579c3.608-3.79-2.504-16.832-4.159-25.632
		c-3.636-0.677-7.272-1.354-10.907-2.031C409.004,143.968,394.301,160.742,379.598,177.516z M452.883,392.993
		c5.864-4.27,12.349-7.91,17.464-12.942c10.924-10.747,21.77-21.712,31.293-33.667c3.26-4.093,2.472-11.409,3.533-17.253
		c-5.667-0.1-12.93-2.514-16.723,0.102c-16.223,11.191-31.423,23.866-46.196,35.376
		C447.606,378.902,450.244,385.947,452.883,392.993z M611.265,631.786c0.467-0.544-10.14-12.424-10.904-11.92
		c-16.544,10.911-32.511,22.722-47.941,35.164c-0.412,0.333,6.395,9.618,15.661,23.382
		C585.862,659.659,598.992,646.091,611.265,631.786z M497.467,510.655c4.934,2.127,12.59,7.417,14.374,5.882
		c14.63-12.588,28.979-25.761,41.401-40.457c2.716-3.214-2.625-13.24-4.256-20.128c-3.53-1.07-7.06-2.139-10.591-3.209
		C524.752,472.046,511.11,491.35,497.467,510.655z M377.206,87.846c-5.702,10.568-11.445,21.114-17.178,31.665
		c5.545,1.645,14.141,6.391,16.135,4.428c12.199-12.006,22.958-25.488,33.704-38.874c0.214-0.266-5.299-7.379-8.588-7.802
		c-11.711-1.504-23.648-2.217-35.433-1.702c-4.72,0.206-9.488,4.06-13.692,7.024c-0.779,0.549,1.038,4.781,1.657,7.314
		c4.434-2.045,8.74-4.475,13.346-6c3.041-1.007,6.512-0.712,11.128-1.118C377.512,86.494,377.523,87.259,377.206,87.846z
		 M423.473,285.33c2.752,2.007,7.309,6.243,7.99,5.692c13.97-11.303,27.966-22.685,40.644-35.364
		c2.062-2.062-2.096-10.345-5.967-26.657C447.78,253.239,435.627,269.284,423.473,285.33z M502.021,408.388
		c-7.527,9.134-15.735,17.801-22.337,27.558c-2.834,4.188-2.362,10.614-3.392,16.023c4.574-2.92,9.922-5.097,13.579-8.899
		c11.59-12.048,22.989-24.35,33.444-37.371c2.665-3.319,1.558-9.666,2.185-14.622c-2.215-1.087-4.429-2.175-6.644-3.262
		C513.246,394.673,507.657,401.55,502.021,408.388z M377.337,151.695c4.702,0.021,10.738,0.345,13.879-2.288
		c11.681-9.792,22.712-20.431,33.253-31.454c2.193-2.293,1.886-7.662,1.411-11.447c-0.163-1.301-5.604-3.637-6.513-2.897
		c-15.906,12.956-31.483,26.316-48.253,40.54C374.375,148.257,375.848,151.689,377.337,151.695z M495.481,467.016
		c2.411,1.757,6.663,5.319,6.966,5.01c12.487-12.737,24.668-25.779,36.533-39.099c0.316-0.354-3.286-4.198-9.164-11.538
		C517.081,438.312,506.281,452.664,495.481,467.016z M432.905,304.521c-3.018,2.243-2.617,9.084-3.792,13.807
		c4.035-0.778,9.079-0.283,11.934-2.548c13.949-11.067,27.314-22.869,40.886-34.412c-1.648-2.131-3.295-4.261-4.943-6.392
		C462.206,284.705,447.087,293.981,432.905,304.521z M455.266,112.232c7.683-7.646,15.366-15.292,23.049-22.938
		c-5.908-3.315-11.734-9.03-17.748-9.235c-5.458-0.186-11.121,5.626-19.86,10.594C447.658,100.956,451.462,106.594,455.266,112.232z
		 M514.735,554.325c6.834-7.23,13.096-15.035,18.96-23.085c0.474-0.651-3.18-4.31-4.916-6.571
		c-8.056,7.052-16.113,14.103-26.788,23.447C508.942,551.581,514.053,555.046,514.735,554.325z M558.906,500.535
		c-4.867,5.407-9.733,10.813-14.599,16.219c4.409,2.256,8.795,6.23,13.234,6.29c4.561,0.062,9.175-3.696,17.824-7.628
		C567.243,508.072,563.075,504.303,558.906,500.535z M405.379,258.457c1.983,2.721,3.967,5.443,5.95,8.164
		c5.258-4.725,10.515-9.449,15.772-14.174c-1.524-1.739-3.048-3.478-4.573-5.217C416.812,250.973,411.095,254.715,405.379,258.457z"
		/>
</g>
<g id="Layer_1">
</g>
</svg>
