<?xml version="1.0" encoding="iso-8859-1"?>
<!-- Generator: Adobe Illustrator 25.2.0, SVG Export Plug-In . SVG Version: 6.00 Build 0)  -->
<svg version="1.1" xmlns="http://www.w3.org/2000/svg" xmlns:xlink="http://www.w3.org/1999/xlink" x="0px" y="0px"
	 viewBox="0 0 1000 1000" style="enable-background:new 0 0 1000 1000;" xml:space="preserve">
<g id="rightSquareBracket">
	<path d="M404.631,785.192c31.228,0,62.541-1.425,93.657,0.438c26.073,1.561,35.158-10.633,36.313-34.103
		c6.185-125.594,14.542-251.12,18.28-376.784c2.701-90.796-1.38-181.775-0.724-272.661c0.155-21.388-8.23-24.206-26.381-24.878
		c-54.096-1.998-108.174-5.3-162.117-9.807c-8.83-0.737-16.935-10.153-25.375-15.557c9.445-6.789,18.979-19.546,28.32-19.406
		c65.722,0.982,131.386,5.191,197.104,7.214c46.194,1.423,92.554-0.527,138.578,2.726c9.431,0.667,25.948,18.489,25.203,27.206
		c-6.198,72.45-17.892,144.443-23.647,216.914c-8.45,106.409-15.267,213.03-19.042,319.693
		c-2.126,60.066,5.058,120.439,3.73,180.577c-0.268,12.149-19.301,33.47-30.809,34.264c-88.53,6.115-177.322,8.864-266.07,11.198
		c-31.046,0.817-62.419-0.79-93.172-4.852c-9.466-1.25-17.373-14.305-25.994-21.954c9.258-6.573,18.182-18.175,27.835-18.818
		c34.636-2.305,69.518-0.903,104.307-0.903C404.629,785.531,404.63,785.361,404.631,785.192z M621.735,577.157
		c-2.039-1.885-4.077-3.77-6.116-5.656c-11.468,7.84-29.747,13.568-32.969,23.964c-6.483,20.911-4.761,44.367-6.424,66.774
		c15.572-4.608,35.114-4.961,45.737-14.873c14.053-13.113,21.279-33.625,30.868-51.267c0.674-1.24-3.367-5.043-5.216-7.653
		c-3.36,2.56-7.447,4.552-9.957,7.774c-13.099,16.811-25.796,33.935-44.025,58.097C605.139,622.722,613.437,599.939,621.735,577.157
		z M645.372,672.699c-22.708,33.105-40.543,58.079-56.882,83.997c-2.565,4.069-0.046,16.963,3.012,18.116
		c46.39,17.499,64.917,2.577,60.6-48.057C650.847,712.052,648.494,697.443,645.372,672.699z M671.061,491.504
		c-2.618-2.932-5.236-5.866-7.854-8.798c-0.951-4.018-1.902-8.036-2.853-12.054c-3.804,1.48-9.109,1.843-11.174,4.618
		c-15.242,20.48-30.065,41.287-44.36,62.438c-1.865,2.76,0.032,8.061,0.186,12.185c4.03-0.454,9.619,0.638,11.844-1.605
		C635.274,529.709,653.073,510.513,671.061,491.504z M670.318,402.277c-4.606-16.093-5.791-21.063-7.784-25.683
		c-0.166-0.385-6.843,0.601-8.709,2.609c-17.98,19.342-35.798,38.851-52.904,58.957c-1.523,1.79,2.296,8.124,3.634,12.348
		C627.306,433.822,650.057,417.136,670.318,402.277z M579.857,549.074c2.225,0.362,4.451,0.725,6.676,1.087
		c5.636-13.594,12.066-26.928,16.628-40.874c3.041-9.294,3.418-19.46,4.988-29.235c-9.431,7.215-24.09,12.745-27.08,22.033
		C576.463,516.396,579.857,533.281,579.857,549.074z M563.183,731.455c6.855,10.086,10.129,14.901,13.402,19.716
		c7.627-14.372,15.849-28.484,22.36-43.344c1.248-2.849-4.239-8.65-6.62-13.089C582.932,706.572,573.539,718.407,563.183,731.455z
		 M587.136,223.962c4.316,2.106,8.632,4.213,12.947,6.319c8.257-15.703,16.514-31.406,24.772-47.108
		c-5.576-0.223-14.664-2.656-16.145-0.303C600.497,195.925,594.133,210.142,587.136,223.962z M626.489,132.885
		c-4.566-5.566-8.251-10.569-8.563-10.366c-9.294,6.025-18.344,12.457-26.862,19.514c-0.275,0.227,5.429,7.672,8.346,11.752
		C607.807,147.304,616.204,140.822,626.489,132.885z M687.031,96.425c-3.441-2.238-6.882-4.476-10.323-6.713
		c-7.714,11.737-15.429,23.474-23.143,35.21c3.958,0.766,10.27,3.468,11.492,1.983C672.998,117.252,679.833,106.689,687.031,96.425z
		 M621.84,325.796c-2.46-1.74-4.919-3.48-7.378-5.22c-7.692,10.922-15.613,21.698-22.744,32.974
		c-0.765,1.21,3.063,5.327,4.761,8.096c6.87-9.233,13.799-18.424,20.571-27.729C618.891,331.388,620.257,328.513,621.84,325.796z
		 M653.872,204.378c7.241-10.367,12.672-17.574,17.146-25.333c0.509-0.882-4.36-4.865-6.736-7.409
		c-6.295,6.871-12.833,13.552-18.536,20.884C645.125,193.318,649.32,197.863,653.872,204.378z M629.554,261.769
		c4.987,4.623,9.973,9.246,14.96,13.869c8-9.093,16.118-18.091,23.684-27.531c0.416-0.519-5.134-7.098-5.577-6.841
		C651.409,247.773,640.509,254.818,629.554,261.769z"/>
</g>
<g id="Layer_1">
</g>
</svg>
