<?xml version="1.0" encoding="iso-8859-1"?>
<!-- Generator: Adobe Illustrator 25.2.0, SVG Export Plug-In . SVG Version: 6.00 Build 0)  -->
<svg version="1.1" xmlns="http://www.w3.org/2000/svg" xmlns:xlink="http://www.w3.org/1999/xlink" x="0px" y="0px"
	 viewBox="0 0 1000 1000" style="enable-background:new 0 0 1000 1000;" xml:space="preserve">
<g id="rightParenthesis">
	<path d="M655.839,429.937c-7.952,157.089-54.254,276.161-147.272,377.212c-19.934,21.656-37.723,35.901-69.043,32.408
		c-15.883-1.771-32.774,7.476-49.469,10.061c-6.941,1.075-16.562-0.045-21.201-4.285c-3.352-3.063-3.384-15.375,0.021-19.392
		c82.037-96.762,89.284-218.816,106.097-334.871c10.992-75.876,11.786-155.724-19.178-231.881
		c-8.046-19.789-8.705-39.161-27.543-55.653c-11.275-9.871-5.791-36.847-15.245-51.287c-16.487-25.181-39.131-46.262-58.215-69.854
		c-5.313-6.569-7.181-15.924-10.63-24.001c7.653-2.936,16.104-9.625,22.83-8.197c42.01,8.922,83.749,19.233,125.283,30.197
		c7.229,1.908,15.321,7.726,19.192,14.07c36.225,59.361,78.101,116.45,105.28,179.799
		C640.151,328.811,646.525,390.665,655.839,429.937z M475.469,682.976c79.518,0.275,137.849-57.566,139.688-129.168
		c0.099-3.833-12.669-12.391-14.482-11.199c-18.056,11.875-35.066,25.339-52.372,38.355c10.291,3.327,16.809,0.551,23.604-1.068
		c7.542-1.797,15.336-2.537,23.021-3.737c-3.675,8.034-6.081,17.069-11.399,23.807c-4.824,6.113-12.97,9.529-19.391,14.471
		C534.531,637.218,505.016,660.118,475.469,682.976z M511.799,539.955c1.482,2.489,2.963,4.978,4.445,7.467
		c18.371-7.373,36.581-15.183,55.144-22.036c52.944-19.544,69.509-53.384,52.118-108.338c-1.185-3.745-7.464-9.585-7.767-9.37
		c-14.393,10.221-28.505,20.857-42.25,31.941c-1.424,1.148-1.208,5.706-0.184,7.975c0.582,1.293,4.33,1.201,6.668,1.655
		c7.128,1.382,14.264,2.727,21.396,4.086c-5.358,8.413-9.197,18.522-16.352,24.929C561.254,499.545,536.298,519.495,511.799,539.955
		z M510.957,364.133c2.832,3.399,5.664,6.798,8.497,10.197c13.851-8.459,27.257-17.812,41.728-25.029
		c8.13-4.055,18.02-4.58,27.118-6.695c0.693,8.58,1.412,17.158,2.07,25.742c0.318,4.156,0.524,8.321,0.781,12.482
		c3.954-0.646,10.629-0.208,11.394-2.125c3.478-8.726,8.783-18.863,7.013-27.116c-4.248-19.819-12.097-38.867-18.493-58.227
		c-2.786,1.374-6.083,2.192-8.279,4.208C558.744,319.649,534.874,341.916,510.957,364.133z M448.038,767.254
		c2.557,4.179,5.113,8.358,7.67,12.537c33.635-21.41,67.27-42.819,100.905-64.229c-3.315-5.077-6.631-10.155-9.947-15.232
		C513.79,722.638,480.914,744.946,448.038,767.254z M564.538,425.476c-1.556-1.607-3.113-3.213-4.669-4.82
		c-15.231,6.432-33.301,9.794-44.714,20.353c-7.872,7.284-6.532,24.526-9.307,37.318c3.734,0.075,9.21,1.792,10.931-0.032
		C533.062,461.033,548.708,443.168,564.538,425.476z M550.734,210.644c-5.979-7.004-10.971-15.295-12.845-14.642
		c-10.593,3.693-21.366,8.307-30.246,15.027c-7.098,5.371-11.664,14.137-17.089,21.588c-0.457,0.628,1.475,3.996,1.651,3.942
		c11.752-3.531,23.764-6.51,35.018-11.277C535.24,221.886,542.229,216.06,550.734,210.644z M582.92,269.16
		c-6.736-9.063-9.472-14.164-13.623-17.509c-1.34-1.081-7.285,1.6-9.599,4.019c-9.469,9.891-18.705,20.065-27.178,30.806
		c-1.941,2.461-0.508,7.585-0.628,11.484C548.382,288.652,564.874,279.345,582.92,269.16z M540.148,243.772
		c-16.883,6.679-26.334,7.883-31.672,13.209c-5.898,5.883-8.609,15.347-11.437,23.683c-0.838,2.469,2.62,6.396,4.11,9.654
		c5.89-5.153,12.454-9.727,17.495-15.609C524.593,267.768,529.224,259.696,540.148,243.772z M515.691,157.767
		c-8.574-6.267-13.77-11.242-14.682-10.552c-10.538,7.969-20.428,16.796-30.49,25.395c3.207,2.642,7.994,8.208,9.37,7.464
		C490.993,174.074,501.454,166.885,515.691,157.767z M528.955,573.606c-1.511-2.604-3.022-5.208-4.533-7.813
		c-12.295,7.599-25.261,14.358-36.472,23.314c-3.316,2.65-1.681,11.496-2.315,17.502c4.686-1.869,10.224-2.722,13.895-5.801
		C509.753,592.236,519.202,582.739,528.955,573.606z M492.896,717.375c-1.845-3.301-3.691-6.602-5.537-9.904
		c-14.262,10.635-28.525,21.269-42.788,31.904c2.835,3.667,5.669,7.335,8.504,11.002
		C466.349,739.376,479.622,728.376,492.896,717.375z M468.24,663.252c2.442,1.706,4.882,3.413,7.324,5.12
		c8.698-10.405,17.395-20.809,26.093-31.214c-3.678-2.554-7.356-5.107-11.034-7.661C483.162,640.748,475.701,652,468.24,663.252z
		 M538.01,395.331c-1.571-2.198-3.141-4.396-4.711-6.594c-9.132,6.729-18.263,13.458-27.395,20.188
		c1.603,2.107,4.511,6.126,4.624,6.049C519.828,408.631,528.911,401.969,538.01,395.331z"/>
</g>
<g id="Layer_1">
</g>
</svg>
