<?xml version="1.0" encoding="iso-8859-1"?>
<!-- Generator: Adobe Illustrator 25.2.0, SVG Export Plug-In . SVG Version: 6.00 Build 0)  -->
<svg version="1.1" xmlns="http://www.w3.org/2000/svg" xmlns:xlink="http://www.w3.org/1999/xlink" x="0px" y="0px"
	 viewBox="0 0 1000 1000" style="enable-background:new 0 0 1000 1000;" xml:space="preserve">
<g id="rightCurlyBracket">
	<path d="M403.845,28.408c71.009-6.724,120.979,3.111,132.893,105.449c3.874,33.277,2.089,67.624,9.453,99.988
		c10.741,47.201,51.441,69.939,91.752,84.977c32.579,12.154,17.353,22.359,5.906,36.103c-19.054,22.879-47.22,42.475-56.016,68.669
		c-16.868,50.235-24.102,103.914-32.997,156.559c-9.227,54.61-12.849,110.284-24.215,164.381
		c-9.904,47.14-47.289,71.449-95.902,73.617c-18.578,0.829-36.882,6.841-55.489,8.559c-6.052,0.559-17.292-4.158-18.002-7.977
		c-1.22-6.569,3.856-14.367,6.562-21.546c0.451-1.195,2.17-2.093,3.491-2.754c79.121-39.601,82.234-114.465,88.306-188.508
		c5.142-62.709,11.964-125.279,18.043-187.911c0.073-0.749-0.106-1.675,0.268-2.219c26.283-38.125,9.54-68.501-9.593-105.182
		c-14.597-27.984-7.259-66.852-12.413-100.458c-6.907-45.035-19.067-87.27-65.942-109.848c-15.537-7.482-28.767-21.284-40.496-34.47
		c-5.49-6.172-8.966-19.614-5.879-26.319c2.817-6.119,15.464-9.361,24.256-10.676C379.593,27.084,391.818,28.408,403.845,28.408z
		 M447.863,778.404c2.632,2.344,5.263,4.689,7.894,7.034c12.18-13.801,24.983-27.125,36.153-41.7
		c3.267-4.263,1.887-12.088,2.637-18.282c-6.42,2.313-15.456,2.725-18.777,7.292C465.314,747.129,457.004,763.068,447.863,778.404z
		 M519.536,675.577c-4.41-7.691-6.622-11.55-8.834-15.409c-7.889,11.652-16.037,23.149-23.298,35.18
		c-0.796,1.319,3.501,5.712,5.436,8.68C501.494,694.804,510.149,685.581,519.536,675.577z M493.265,101.889
		c-6.673,13.209-11.354,22.16-15.318,31.417c-0.168,0.393,8.474,5.975,9.347,5.169c5.976-5.518,12.297-11.479,15.631-18.637
		C504.251,116.992,498.266,110.74,493.265,101.889z M528.639,443.881c-7.002-4.632-10.734-7.1-14.465-9.568
		c-4.914,9.044-10.175,17.931-14.408,27.284c-0.729,1.61,2.914,5.199,4.538,7.875C511.643,461.753,518.983,454.035,528.639,443.881z
		 M517.652,173.397c-4.979-5.639-7.945-8.997-10.91-12.356c-4.77,8.314-9.941,16.447-13.87,25.142
		c-0.573,1.268,4.774,5.212,7.381,7.917C505.664,187.662,511.074,181.224,517.652,173.397z M491.682,249.546
		c2.549,2.004,5.098,4.007,7.646,6.01c5.863-7.753,11.806-15.45,17.318-23.445c0.238-0.344-3.504-3.431-5.392-5.24
		C504.73,234.429,498.206,241.988,491.682,249.546z M532.792,602.687c-1.4-4.749-2.801-9.498-4.201-14.246
		c-3.779-1.29-9.576-4.76-10.968-3.471c-4.677,4.329-8.337,10.094-11.066,15.927c-0.613,1.311,4.439,7.587,6.344,7.345
		C519.657,607.38,526.18,604.687,532.792,602.687z"/>
</g>
<g id="Layer_1">
</g>
</svg>
