<?xml version="1.0" encoding="iso-8859-1"?>
<!-- Generator: Adobe Illustrator 25.2.0, SVG Export Plug-In . SVG Version: 6.00 Build 0)  -->
<svg version="1.1" xmlns="http://www.w3.org/2000/svg" xmlns:xlink="http://www.w3.org/1999/xlink" x="0px" y="0px"
	 viewBox="0 0 1000 1000" style="enable-background:new 0 0 1000 1000;" xml:space="preserve">
<g id="verticalLine">
	<path d="M500.949,378.285c2.736,0,5.476,0.096,8.208-0.014c57.771-2.321,57.649-2.334,53.414,57.283
		c-4.06,57.155-8.194,114.31-11.534,171.509c-1.188,20.337-0.29,40.807,0.068,61.21c0.049,2.797,1.809,6.415,3.98,8.139
		c4.055,3.22,8.993,5.328,13.564,7.898c-6.002,3.99-11.785,11.019-18.041,11.468c-36.548,2.621-73.209,4.349-109.824,4.214
		c-3.341-0.012-10.028-15.582-9.394-23.463c4.814-59.814,12.106-119.442,16.132-179.296c0.994-14.783-10.204-30.145-10.383-45.304
		c-0.243-20.555-1.417-45.682,9.359-60.376c9.072-12.371,34.643-12.642,52.91-18.269
		C499.923,374.951,500.436,376.618,500.949,378.285z M491.077,631.301c-3.061-2.163-6.121-4.327-9.182-6.491
		c-7.912,11.273-15.823,22.546-23.735,33.819c2.681,1.886,5.362,3.772,8.043,5.658C474.495,653.292,482.786,642.297,491.077,631.301
		z M526.978,627.906c-3.298-1.626-6.596-3.251-9.894-4.876c-5.699,9.511-11.398,19.023-17.097,28.534
		c4.432,0.011,11.123,1.858,12.879-0.304C518.546,644.268,522.412,635.803,526.978,627.906z M514.342,436.679
		c-12.518-7.444-16.406-10.341-16.815-9.912c-6.734,7.044-13.03,14.507-19.424,21.875c2.239,1.935,5.571,5.981,6.545,5.476
		C493.467,449.549,501.872,444.184,514.342,436.679z M502.389,519.295c-1.83-1.746-3.66-3.492-5.491-5.238
		c-8.885,8.845-17.77,17.689-26.655,26.534c2.426,2.312,4.851,4.624,7.277,6.937C485.809,538.117,494.099,528.706,502.389,519.295z
		 M510.605,475.461c-1.994-2.596-3.988-5.192-5.981-7.787c-10.173,7.88-20.346,15.761-30.518,23.642
		c1.391,1.974,2.782,3.948,4.174,5.921C489.054,489.978,499.83,482.72,510.605,475.461z M536.878,429.601
		c-5.23-3.551-8.689-6.828-9.475-6.278c-4.213,2.944-7.76,6.841-11.536,10.41c1.707,1.526,4.04,4.677,5.015,4.301
		C525.488,436.26,529.723,433.522,536.878,429.601z"/>
	<path d="M503.318,334.567c-16.363,0-35.991,5.297-47.846-2.013c-6.96-4.292-1.863-28.645-1.648-43.966
		c0.557-39.609,2.265-79.228,1.686-118.815c-0.2-13.695-8.967-27.502-8.165-40.92c1.231-20.597,3.503-42.823,12.473-60.794
		c9.101-18.233,28.783-23.153,49.278-12.492c4.678,2.433,10.957,4.349,15.87,3.364c37.727-7.568,42.342,15.706,41.642,43.932
		c-1.093,44.043-2.779,88.073-3.562,132.12c-0.303,17.054-0.176,34.321,2.097,51.175c5.539,41.076-0.909,49.262-41.317,48.593
		c-6.834-0.113-13.672-0.016-20.509-0.016C503.318,334.678,503.318,334.622,503.318,334.567z M543.811,97.91
		c-6.09-2.856-9.489-5.756-11.042-4.977c-16.707,8.384-33.433,16.848-49.279,26.696c-2.35,1.46-0.176,10.2-0.095,15.573
		c4.497-1.469,9.338-2.308,13.42-4.537c8.967-4.894,17.784-10.148,26.215-15.911C529.469,110.353,535.221,104.944,543.811,97.91z
		 M484.62,225.991c14.341-9.952,26.978-18.721,39.616-27.491c-3.49-4.917-6.98-9.834-10.47-14.751
		c-11.342,10.544-22.835,20.937-33.729,31.924C479.199,216.521,482.581,221.555,484.62,225.991z M543.339,246.212
		c-6.616-4.705-10.037-8.322-11.117-7.723c-10.851,6.027-21.318,12.746-31.893,19.27c2.791,2.083,6.607,6.55,8.207,5.863
		C519.302,258.995,529.597,253.273,543.339,246.212z M509.236,144.272c1.371,3.498,2.741,6.996,4.112,10.494
		c8.65-4.137,17.36-8.164,25.803-12.687c0.501-0.268-1.131-4.517-1.771-6.914C527.999,138.2,518.617,141.236,509.236,144.272z"/>
</g>
<g id="Layer_1">
</g>
</svg>
